<?xml version="1.0" standalone="no"?>
<!DOCTYPE svg PUBLIC "-//W3C//DTD SVG 1.1//EN" "http://www.w3.org/Graphics/SVG/1.1/DTD/svg11.dtd" >
<svg xmlns="http://www.w3.org/2000/svg">
<metadata></metadata>
<defs>
<font id="univers_extendedbold" horiz-adv-x="1516" >
<font-face units-per-em="2048" ascent="1638" descent="-410" />
<missing-glyph horiz-adv-x="758" />
<glyph horiz-adv-x="0" />
<glyph unicode="&#xd;" horiz-adv-x="758" />
<glyph unicode=" "  horiz-adv-x="758" />
<glyph unicode="&#x09;" horiz-adv-x="758" />
<glyph unicode="&#xa0;" horiz-adv-x="758" />
<glyph unicode="!" horiz-adv-x="1065" d="M377 1472h313l-40 -1060h-233zM390 0v288h287v-288h-287z" />
<glyph unicode="&#x22;" horiz-adv-x="1366" d="M397 1008v464h229v-464h-229zM755 1008v464h229v-464h-229z" />
<glyph unicode="#" d="M243 401v185h200l33 240h-173v185h200l59 413h197l-57 -413h201l59 413h197l-57 -413h173v-185h-202l-33 -240h175v-185h-202l-57 -401h-197l57 401h-203l-57 -401h-197l57 401h-173zM640 586h203l33 240h-203z" />
<glyph unicode="$" d="M15 459h334q9 -121 87 -190t232 -87v438l-109 14q-242 32 -368 136q-125 104 -125 275q0 204 156 332t446 143v96h147v-96q272 -17 426 -139q155 -122 165 -341h-334q-7 113 -70 176q-62 63 -187 82v-404l232 -33q210 -30 320 -129t110 -280q0 -217 -171 -343t-491 -143 v-147h-147v144q-314 9 -484 143q-169 134 -169 353zM410 1099q0 -75 53 -122q53 -46 205 -65v389q-114 -8 -186 -62t-72 -140zM815 179q147 10 232 71q86 61 86 155q0 79 -63 123t-255 68v-417z" />
<glyph unicode="%" horiz-adv-x="2427" d="M192 1074q0 195 117 295t311 100q188 0 308 -100t120 -295q0 -181 -113 -285q-113 -103 -315 -103q-194 0 -311 100q-117 101 -117 288zM440 1077q0 -108 46 -162t134 -54q92 0 136 54t44 161q0 112 -46 165q-45 53 -133 53q-86 0 -134 -53q-47 -52 -47 -164zM560 -74 l1111 1572h217l-1111 -1572h-217zM1400 351q0 185 113 290q114 105 315 105q185 0 306 -98q122 -98 122 -297q0 -179 -113 -284q-113 -104 -315 -104q-194 0 -311 100q-117 101 -117 288zM1648 354q0 -101 41 -159q42 -57 139 -57q85 0 132 52q48 52 48 163q0 108 -46 163 q-45 55 -133 55q-90 0 -136 -55q-45 -54 -45 -162z" />
<glyph unicode="&#x26;" horiz-adv-x="2124" d="M145 392q0 244 311 370l144 59q-98 65 -160 155t-62 176q0 162 140 260q141 98 367 98q207 0 349 -99q143 -98 143 -261q0 -120 -89 -217q-89 -96 -221 -143l393 -305q63 52 114 186q52 135 52 234h301q0 -169 -75 -334t-176 -257l395 -314h-461l-138 124 q-253 -162 -639 -162q-323 0 -506 121q-182 122 -182 309zM487 396q0 -106 103 -166q104 -60 259 -60q251 0 400 121l-443 366l-161 -67q-158 -65 -158 -194zM689 1153q0 -55 41 -101q41 -45 154 -123l85 35q133 57 133 179q0 73 -63 116q-62 43 -148 43q-83 0 -143 -39 q-59 -39 -59 -110z" />
<glyph unicode="'" horiz-adv-x="758" d="M272 1008v464h229v-464h-229z" />
<glyph unicode="(" horiz-adv-x="758" d="M170 614q0 -186 75 -407q74 -221 244 -490h224q-132 283 -194 477q-62 195 -62 420q0 161 52 373q51 212 204 524h-224q-152 -235 -235 -461q-84 -226 -84 -436z" />
<glyph unicode=")" horiz-adv-x="758" d="M45 -283q132 283 194 477q62 195 62 420q0 161 -52 373q-51 212 -204 524h224q152 -235 235 -461q84 -226 84 -436q0 -186 -75 -407q-74 -221 -244 -490h-224z" />
<glyph unicode="*" horiz-adv-x="1063" d="M166 996l246 102l-246 102l94 160l210 -160l-31 272h178l-31 -272l210 160l94 -160l-246 -102l246 -102l-94 -160l-210 160l31 -272h-178l31 272l-210 -160z" />
<glyph unicode="+" horiz-adv-x="1229" d="M96 408v230h400v400h230v-400h400v-230h-400v-400h-230v400h-400z" />
<glyph unicode="," horiz-adv-x="758" d="M112 -176l174 464h332l-264 -464h-242z" />
<glyph unicode="-" horiz-adv-x="758" d="M96 432v228h576v-228h-576z" />
<glyph unicode="." horiz-adv-x="758" d="M237 0v288h287v-288h-287z" />
<glyph unicode="/" horiz-adv-x="909" d="M22 -38l613 1548h251l-613 -1548h-251z" />
<glyph unicode="0" d="M91 712q0 368 175 558q176 191 507 191q319 0 484 -207q166 -206 166 -542q0 -366 -177 -558q-177 -191 -489 -191q-313 0 -490 198q-176 199 -176 551zM415 708q0 -270 90 -398t257 -128q164 0 250 129q87 129 87 401q0 252 -81 391q-80 139 -253 139q-182 0 -266 -141 t-84 -393z" />
<glyph unicode="1" d="M288 928v274q281 85 426 222h303v-1424h-313v1134q-124 -124 -416 -206z" />
<glyph unicode="2" d="M106 0v268l310 186q332 200 473 327t141 243q0 87 -75 147q-74 60 -201 60q-146 0 -215 -64q-69 -63 -69 -143v-27h-324q0 224 153 344t475 120q276 0 428 -118q152 -117 152 -301q0 -178 -146 -335q-145 -157 -418 -313l-300 -164h894v-230h-1278z" />
<glyph unicode="3" d="M81 427h324q6 -132 92 -189q87 -56 244 -56t244 60t87 160q0 115 -90 164q-90 50 -275 50h-98v230h85q176 0 259 48q84 48 84 145q0 93 -78 148q-77 55 -203 55q-145 0 -220 -52t-75 -145h-324q0 206 163 311q164 105 444 105q298 0 457 -106q160 -105 160 -288 q0 -123 -83 -207q-82 -84 -256 -119q160 -12 272 -101t112 -239q0 -208 -183 -323t-500 -115q-321 0 -478 116q-157 117 -164 348z" />
<glyph unicode="4" d="M45 319v319l774 786h394v-875h268v-230h-268v-319h-313v319h-855zM323 549h577v599z" />
<glyph unicode="5" d="M147 395h334q8 -98 91 -156q84 -57 211 -57q141 0 229 78t88 187q0 122 -93 197q-93 76 -234 76q-113 0 -189 -41q-75 -40 -109 -129l-303 7l40 867h1096v-230h-802l-26 -374q87 68 171 99q85 31 220 31q241 0 397 -134q156 -133 156 -356q0 -228 -161 -363 q-161 -134 -473 -134q-324 0 -484 109q-159 110 -159 323z" />
<glyph unicode="6" d="M106 712q0 345 178 547q179 202 543 202q247 0 403 -117q157 -116 157 -315h-324q0 94 -71 153q-71 60 -188 60q-185 0 -282 -120q-96 -120 -103 -348q100 83 198 113q99 31 255 31q253 0 404 -123t151 -317q0 -230 -170 -373q-169 -142 -449 -142q-376 0 -539 179 q-163 180 -163 570zM449 438q0 -109 83 -183q84 -73 239 -73q153 0 242 71q90 72 90 194q0 113 -92 182q-91 70 -225 70q-155 0 -246 -70t-91 -191z" />
<glyph unicode="7" d="M112 1194v230h1248v-245l-657 -1179h-379l702 1194h-914z" />
<glyph unicode="8" d="M91 395q0 132 91 221q92 89 254 125q-313 75 -313 318q0 185 170 293q171 109 464 109q274 0 454 -102q180 -101 180 -300q0 -236 -313 -318q345 -75 345 -346q0 -181 -170 -307q-169 -125 -491 -125q-325 0 -498 122t-173 310zM415 405q0 -102 90 -163q91 -60 252 -60 q157 0 249 59q93 60 93 164q0 113 -84 169q-83 57 -255 57q-165 0 -255 -60q-90 -59 -90 -166zM447 1037q0 -74 77 -131q78 -56 231 -56q142 0 227 53t85 132q0 102 -85 154q-85 53 -225 53q-147 0 -229 -56q-81 -55 -81 -149z" />
<glyph unicode="9" d="M91 957q0 242 172 373q173 131 473 131q351 0 513 -180q163 -180 163 -587q0 -369 -169 -550t-540 -181q-262 0 -425 108q-162 109 -162 324h318q16 -104 88 -159q73 -54 208 -54q185 0 277 107t92 316v55q-161 -154 -441 -154q-260 0 -414 121q-153 122 -153 330z M415 967q0 -108 86 -175q87 -67 226 -67q143 0 237 68q95 68 95 184q0 119 -88 192q-87 73 -234 73q-150 0 -236 -74q-86 -73 -86 -201z" />
<glyph unicode=":" horiz-adv-x="758" d="M237 0v288h287v-288h-287zM237 741v288h287v-288h-287z" />
<glyph unicode=";" horiz-adv-x="758" d="M112 -176l174 464h332l-264 -464h-242zM268 741v288h287v-288h-287z" />
<glyph unicode="&#x3c;" horiz-adv-x="1229" d="M92 431l1040 -448v219l-735 319l735 322v219l-1040 -448v-183z" />
<glyph unicode="=" horiz-adv-x="1229" d="M96 178v230h1040v-230h-1040zM96 632v230h1040v-230h-1040z" />
<glyph unicode="&#x3e;" horiz-adv-x="1229" d="M97 -17v219l735 319l-735 322v219l1040 -448v-183z" />
<glyph unicode="?" horiz-adv-x="1366" d="M262 1242v228q194 40 372 40q317 0 468 -92q152 -92 152 -297q0 -207 -241 -342l-173 -94q-132 -71 -132 -201v-68h-251v128q0 98 29 153t98 97l229 147q109 69 109 158q0 183 -315 183q-207 0 -345 -40zM439 0v288h287v-288h-287z" />
<glyph unicode="@" horiz-adv-x="1638" d="M32 739q0 331 230 551t588 220q308 0 526 -180q219 -179 219 -445q0 -252 -172 -411q-172 -158 -346 -158q-145 0 -145 112q-91 -112 -233 -112t-223 99q-81 100 -81 240q0 198 125 339q126 141 298 141q165 0 249 -128l25 103h176l-115 -482q-13 -54 -13 -89 q0 -51 53 -51q80 0 149 102q70 103 70 239q0 231 -153 364q-152 134 -428 134q-261 0 -421 -167q-159 -167 -159 -422q0 -274 174 -436t458 -162q230 0 419 148h197q-224 -320 -659 -320q-360 0 -584 233t-224 538zM599 684q0 -82 46 -127q47 -44 125 -44q109 0 175 72 q67 72 67 169q0 184 -181 184q-102 0 -167 -76q-65 -75 -65 -178z" />
<glyph unicode="A" horiz-adv-x="1972" d="M0 1510zM21 0l752 1472h420l752 -1472h-394l-171 330h-844l-157 -330h-358zM654 572h611l-305 641zM983 1558zM1855 0z" />
<glyph unicode="B" horiz-adv-x="1821" d="M202 0v1472h882q262 0 400 -92q138 -91 138 -281q0 -135 -105 -222q-105 -86 -284 -102q231 -23 349 -119t118 -262q0 -176 -154 -285q-153 -109 -419 -109h-925zM534 230h489q149 0 234 52q85 53 85 153q0 105 -80 157t-245 52h-483v-414zM534 874h471q128 0 193 43 q66 43 66 132q0 93 -75 143t-247 50h-408v-368z" />
<glyph unicode="C" horiz-adv-x="1821" d="M124 736q0 365 218 569q219 205 624 205q325 0 524 -137t208 -375h-342q-8 130 -121 200t-275 70q-217 0 -356 -140q-138 -139 -138 -392q0 -252 138 -392t357 -140q171 0 282 76q112 76 129 194h342q-13 -240 -215 -376t-574 -136q-392 0 -597 205q-204 206 -204 569z M966 0zM972 1558z" />
<glyph unicode="D" horiz-adv-x="1821" d="M0 1510zM176 0v1472h705q380 0 595 -195q216 -194 216 -558q0 -321 -214 -520t-585 -199h-717zM508 242h322q239 0 379 133q141 133 141 369q0 239 -141 362q-140 124 -375 124h-326v-988zM839 1558z" />
<glyph unicode="E" horiz-adv-x="1518" d="M0 1510zM176 0v1472h1164v-242h-832v-344h801v-242h-801v-402h868v-242h-1200zM758 1558zM1290 0z" />
<glyph unicode="F" horiz-adv-x="1366" d="M176 0v1472h1100v-242h-768v-359h727v-242h-727v-629h-332z" />
<glyph unicode="G" horiz-adv-x="1972" d="M124 736q0 362 244 568t643 206q379 0 581 -138t202 -374h-342q0 121 -113 201q-113 81 -272 81q-275 0 -438 -142t-163 -396q0 -248 154 -393t448 -145q177 0 405 67v281h-479v230h800v-689q-313 -131 -763 -131q-429 0 -668 204t-239 570zM1018 1558zM1070 0z" />
<glyph unicode="H" horiz-adv-x="1821" d="M176 0v1472h332v-601h804v601h332v-1472h-332v629h-804v-629h-332z" />
<glyph unicode="I" horiz-adv-x="758" d="M0 1510zM213 0v1472h332v-1472h-332zM379 1558zM410 0z" />
<glyph unicode="J" horiz-adv-x="1518" d="M31 490h332q0 -129 84 -208q84 -78 213 -78q173 0 260 99t87 302v867h332v-891q0 -298 -165 -459q-165 -160 -489 -160q-327 0 -491 146q-163 146 -163 382z" />
<glyph unicode="K" horiz-adv-x="1669" d="M192 0v1472h332v-644l630 644h410l-662 -661l740 -811h-441l-677 776v-776h-332zM866 0z" />
<glyph unicode="L" horiz-adv-x="1366" d="M0 1510zM176 0v1472h332v-1230h816v-242h-1148zM378 1558zM750 0z" />
<glyph unicode="M" horiz-adv-x="2578" d="M181 0v1472h555l558 -1196l544 1196h555v-1472h-332v1271l-580 -1271h-404l-595 1271v-1271h-301z" />
<glyph unicode="N" horiz-adv-x="1972" d="M0 1510zM181 0v1472h467l845 -1133v1133h301v-1472h-446l-866 1156v-1156h-301zM988 0zM988 1558z" />
<glyph unicode="O" horiz-adv-x="1974" d="M124 736q0 377 223 575q223 199 636 199q412 0 635 -197q224 -196 224 -571q0 -381 -219 -581q-218 -199 -640 -199q-396 0 -628 188q-231 189 -231 586zM466 736q0 -258 138 -395t383 -137q250 0 381 142q132 142 132 390q0 255 -137 393q-136 139 -376 139 q-251 0 -386 -142q-135 -141 -135 -390zM983 1558z" />
<glyph unicode="P" horiz-adv-x="1669" d="M202 0v1472h713q357 0 508 -122q151 -121 151 -349q0 -220 -158 -335q-158 -114 -435 -114h-447v-552h-332zM534 794h387q166 0 238 54q73 54 73 155q0 119 -90 173t-284 54h-324v-436z" />
<glyph unicode="Q" horiz-adv-x="1974" d="M124 736q0 377 223 575q223 199 636 199q409 0 634 -196q225 -195 225 -574q0 -305 -154 -520q218 10 250 10v-230h-524q-78 0 -209 -19t-224 -19q-416 0 -637 196q-220 197 -220 578zM466 736q0 -258 138 -395t383 -137q250 0 381 142q132 142 132 390q0 255 -137 393 q-136 139 -376 139q-251 0 -386 -142q-135 -141 -135 -390z" />
<glyph unicode="R" horiz-adv-x="1821" d="M0 1510zM202 0v1472h896q267 0 411 -100q145 -99 145 -293q0 -173 -104 -269q-103 -95 -306 -112q213 -17 290 -95q77 -77 92 -290q5 -87 12 -161q8 -73 37 -152h-358q-19 59 -27 166t-20 198q-16 118 -90 168q-73 51 -285 51h-361v-583h-332zM534 813h429q163 0 256 50 q93 51 93 168q0 102 -81 150q-80 49 -238 49h-459v-417zM883 1558zM939 0z" />
<glyph unicode="S" horiz-adv-x="1669" d="M112 458h332q14 -137 114 -207q101 -70 298 -70q172 0 271 61q99 62 99 162q0 64 -50 110q-50 47 -184 65l-358 49q-220 29 -347 130q-127 102 -127 277q0 215 173 345t494 130q314 0 490 -123t187 -357h-332q-6 130 -99 195q-93 66 -270 66q-129 0 -215 -55 q-86 -54 -86 -147q0 -71 58 -119q58 -47 200 -65l379 -53q212 -30 320 -129q109 -99 109 -277q0 -224 -189 -354t-567 -130q-331 0 -516 130q-184 131 -184 366zM835 1558zM879 0z" />
<glyph unicode="T" d="M0 1510zM32 1230v242h1452v-242h-560v-1230h-332v1230h-560zM758 0zM758 1558z" />
<glyph unicode="U" horiz-adv-x="1821" d="M0 1510zM166 522v950h332v-890q0 -180 105 -285q106 -105 305 -105q205 0 307 99q103 100 103 296v885h332v-891q0 -327 -199 -473t-584 -146q-332 0 -517 156q-184 156 -184 404zM908 1558zM1065 0z" />
<glyph unicode="V" horiz-adv-x="1821" d="M16 1472h378l533 -1161l533 1161h342l-704 -1472h-378z" />
<glyph unicode="W" horiz-adv-x="2730" d="M32 1472h358l395 -1156l383 1156h415l400 -1150l388 1150h332l-528 -1472h-404l-416 1179l-391 -1179h-404z" />
<glyph unicode="X" horiz-adv-x="1821" d="M21 0l677 771l-630 701h451l413 -506l423 506h394l-620 -707l677 -765h-448l-461 546l-456 -546h-420z" />
<glyph unicode="Y" horiz-adv-x="1821" d="M0 1510zM32 1472h435l466 -632l477 632h394l-720 -908v-564h-332v564zM918 1558z" />
<glyph unicode="Z" horiz-adv-x="1518" d="M0 1510zM57 0v311l971 919h-904v242h1293v-316l-971 -914h1018v-242h-1407zM770 1558z" />
<glyph unicode="[" horiz-adv-x="758" d="M170 -283h543v184h-256v1426h256v184h-543v-1794z" />
<glyph unicode="\" horiz-adv-x="909" d="M22 1510h251l613 -1542h-251z" />
<glyph unicode="]" horiz-adv-x="758" d="M45 -99h256v1426h-256v184h543v-1794h-543v184z" />
<glyph unicode="^" horiz-adv-x="1229" d="M144 649l368 768h204l368 -768h-230l-240 537l-240 -537h-230z" />
<glyph unicode="_" horiz-adv-x="1024" d="M0 -151h1024v-103h-1024v103z" />
<glyph unicode="`" horiz-adv-x="606" d="M-112 1488h351l241 -288h-234zM293 1200z" />
<glyph unicode="a" horiz-adv-x="1518" d="M88 277q0 195 156 284q157 89 514 89h273q0 117 -72 172q-71 55 -205 55q-95 0 -166 -33t-82 -103h-326q18 157 161 238q143 82 425 82q279 0 427 -109q149 -108 149 -330v-440q0 -110 10 -182h-287q-10 56 -10 144q-176 -181 -468 -181q-244 0 -372 87q-127 88 -127 227 zM414 303q0 -71 63 -114q64 -42 171 -42q155 0 269 88t114 231h-258q-184 0 -272 -42q-87 -42 -87 -121zM760 1189zM1263 0z" />
<glyph unicode="b" horiz-adv-x="1518" d="M131 0q10 183 10 230v1242h311v-603q142 192 423 192q248 0 400 -147q153 -147 153 -406q0 -245 -151 -395t-417 -150q-299 0 -422 192q0 -57 -10 -155h-297zM452 515q0 -153 89 -254q90 -101 233 -101q140 0 234 99t94 253q0 151 -93 251q-93 101 -235 101 q-136 0 -229 -97t-93 -252z" />
<glyph unicode="c" horiz-adv-x="1366" d="M88 512q0 242 155 395q156 154 467 154q264 0 417 -102t167 -298h-326q-4 94 -71 155t-180 61q-143 0 -223 -100t-80 -271q0 -173 74 -266t230 -93q122 0 184 56q63 57 76 160h326q0 -177 -158 -289q-157 -111 -417 -111q-308 0 -475 146q-166 147 -166 403zM691 1189z M724 0z" />
<glyph unicode="d" horiz-adv-x="1518" d="M88 508q0 259 154 406t399 147q279 0 423 -184v595h311v-1242q0 -47 10 -230h-297q-10 93 -10 147q-126 -184 -422 -184q-262 0 -415 147q-153 148 -153 398zM414 512q0 -154 93 -253q94 -99 235 -99q137 0 229 100q93 101 93 255q0 155 -95 252q-94 97 -227 97 q-143 0 -236 -101q-92 -100 -92 -251z" />
<glyph unicode="e" horiz-adv-x="1518" d="M107 512q0 259 165 404t501 145q295 0 465 -146q171 -145 171 -405v-68h-976q0 -130 92 -213q92 -82 274 -82q94 0 169 40q76 40 86 96h326q-17 -152 -187 -236q-169 -84 -420 -84q-323 0 -495 140q-171 140 -171 409zM433 626h650q-17 125 -96 188q-78 63 -226 63 q-149 0 -233 -72q-83 -71 -95 -179zM758 1189zM900 0z" />
<glyph unicode="f" horiz-adv-x="1063" d="M48 827v197h272v80q0 196 101 288q102 92 341 92q178 0 269 -12v-194q-58 9 -145 9q-150 0 -203 -52q-52 -51 -52 -171v-40h320v-197h-320v-827h-311v827h-272z" />
<glyph unicode="g" horiz-adv-x="1518" d="M88 530q0 230 148 380q148 151 411 151q274 0 428 -176l12 139h297q-10 -185 -10 -242v-726q0 -235 -162 -354q-161 -119 -488 -119q-278 0 -426 84q-148 85 -157 252h311q0 -69 70 -111q70 -41 185 -41q189 0 272 77q84 78 84 209v155q-140 -192 -411 -192 q-263 0 -414 150q-150 151 -150 364zM414 536q0 -149 88 -236t239 -87q153 0 237 92q85 92 85 239q0 141 -87 230q-86 90 -235 90q-151 0 -239 -88t-88 -240zM686 1189z" />
<glyph unicode="h" d="M156 0v1472h311v-619q136 208 427 208q194 0 331 -114q138 -114 138 -317v-630h-311v549q0 155 -67 229q-66 74 -198 74q-144 0 -232 -99q-88 -98 -88 -260v-493h-311z" />
<glyph unicode="i" horiz-adv-x="606" d="M131 1232v249h341v-249h-341zM146 0v1024h311v-1024h-311zM371 0z" />
<glyph unicode="j" horiz-adv-x="606" d="M-92 -182q57 -9 90 -9q105 0 143 42q39 43 39 157v1016h311v-1079q0 -166 -101 -256q-101 -89 -316 -89q-76 0 -166 15v203zM165 1232v249h341v-249h-341z" />
<glyph unicode="k" horiz-adv-x="1518" d="M175 0v1472h311v-868l487 420h409l-507 -444l624 -580h-428l-585 572v-572h-311zM785 0z" />
<glyph unicode="l" horiz-adv-x="606" d="M146 0v1472h311v-1472h-311zM302 0zM305 1584z" />
<glyph unicode="m" horiz-adv-x="2425" d="M150 1024h302q4 -47 4 -171q77 102 179 155t261 53q145 0 257 -62q113 -62 170 -162q151 224 455 224q215 0 350 -116t135 -340v-605h-311v549q0 155 -68 229q-67 74 -197 74q-144 0 -232 -99t-88 -263v-490h-311v549q0 152 -68 227q-67 76 -197 76q-144 0 -232 -98 t-88 -260v-494h-311v804q0 108 -10 220z" />
<glyph unicode="n" d="M146 1024h297q10 -137 10 -171q143 208 437 208q197 0 335 -114t138 -317v-630h-311v549q0 156 -69 229q-68 74 -196 74q-144 0 -232 -99q-88 -98 -88 -260v-493h-311v804q0 108 -10 220zM760 0zM760 1189z" />
<glyph unicode="o" d="M88 512q0 270 171 409q172 140 496 140q328 0 497 -142q170 -142 170 -407q0 -264 -167 -407q-167 -142 -500 -142q-324 0 -496 140q-171 140 -171 409zM414 512q0 -164 92 -258t252 -94q157 0 247 92q91 93 91 257q0 174 -93 264q-93 91 -243 91q-163 0 -255 -93 q-91 -93 -91 -259zM755 1189z" />
<glyph unicode="p" horiz-adv-x="1518" d="M131 1024h297q10 -99 10 -155q123 192 422 192q266 0 417 -154q151 -153 151 -391q0 -247 -148 -400t-405 -153q-285 0 -423 192v-555h-311v1190q0 47 -10 234zM452 497v23q0 -148 89 -254q90 -106 233 -106q142 0 235 100t93 252q0 154 -94 253t-234 99 q-146 0 -234 -109q-88 -108 -88 -258z" />
<glyph unicode="q" horiz-adv-x="1518" d="M88 516q0 246 149 395q150 150 419 150q296 0 422 -192q0 55 10 152h297q-10 -186 -10 -233v-1188h-311v547q-139 -184 -423 -184q-245 0 -399 149t-154 404zM414 512q0 -152 92 -252q93 -100 236 -100q142 0 232 101q90 102 90 251v-15q0 154 -89 260q-88 107 -233 107 q-141 0 -235 -99q-93 -99 -93 -253z" />
<glyph unicode="r" horiz-adv-x="1063" d="M165 1024h297q10 -80 10 -187q49 118 133 171q85 53 218 53q114 0 191 -16v-233q-45 6 -142 6q-198 0 -292 -95q-94 -94 -94 -304v-419h-311v804q0 108 -10 220zM331 0zM644 1189z" />
<glyph unicode="s" horiz-adv-x="1366" d="M89 315h331q12 -83 68 -126q56 -42 188 -42q125 0 188 31q64 32 64 94q0 42 -35 65q-34 24 -106 34l-228 31q-216 28 -324 105q-107 78 -107 221q0 141 141 237q142 96 425 96q248 0 389 -91q142 -90 142 -261h-326q-6 84 -68 126q-61 42 -182 42q-94 0 -145 -29 q-50 -28 -50 -82q0 -49 45 -72t151 -39l288 -45q159 -27 237 -101q79 -74 79 -201q0 -172 -140 -259q-140 -86 -415 -86q-325 0 -458 78t-152 274zM679 1189zM697 0z" />
<glyph unicode="t" horiz-adv-x="1063" d="M29 827v197h287v225l311 95v-320h368v-197h-368v-487q0 -84 40 -132q41 -48 130 -48q110 0 190 18v-197q-123 -18 -262 -18q-218 0 -314 75q-95 76 -95 263v526h-287zM654 0z" />
<glyph unicode="u" d="M0 1061zM156 394v630h311v-549q0 -145 64 -224t201 -79q143 0 231 98q89 98 89 261v493h311v-804q0 -109 10 -220h-302q-4 52 -4 171q-144 -208 -438 -208q-200 0 -337 114q-136 114 -136 317zM755 1189zM1287 0z" />
<glyph unicode="v" horiz-adv-x="1518" d="M16 1024h365l388 -796l393 796h331l-544 -1024h-389z" />
<glyph unicode="w" horiz-adv-x="2427" d="M24 1024h350l329 -764l329 764h379l342 -764l324 764h326l-480 -1024h-365l-346 784l-343 -784h-365z" />
<glyph unicode="x" horiz-adv-x="1518" d="M24 0l524 540l-471 484h413l279 -324l269 324h394l-463 -484l526 -540h-452l-295 344l-311 -344h-413z" />
<glyph unicode="y" horiz-adv-x="1518" d="M0 1061zM24 1024h370l381 -745l385 745h336l-772 -1424h-355l223 401zM760 1189z" />
<glyph unicode="z" horiz-adv-x="1366" d="M0 1061zM102 0v256l705 571h-666v197h1065v-256l-710 -559h759v-209h-1153zM673 1189z" />
<glyph unicode="{" horiz-adv-x="758" d="M64 533v172q102 6 147 41q45 36 45 102v396q0 123 81 199q81 77 183 77h248v-172h-109q-58 0 -87 -36q-29 -35 -29 -101v-382q0 -86 -50 -137q-49 -50 -171 -73q112 -17 166 -70q55 -53 55 -142v-380q0 -66 27 -105q27 -38 89 -38h109v-172h-240q-112 0 -192 78 q-80 79 -80 191v390q0 84 -48 120q-48 37 -144 42z" />
<glyph unicode="|" horiz-adv-x="455" d="M112 -40v1560h230v-1560h-230z" />
<glyph unicode="}" horiz-adv-x="758" d="M-16 -116h108q54 0 85 33q32 34 32 109v382q0 75 49 130t172 74q-115 20 -168 74t-53 139v392q0 63 -29 97t-88 34h-108v172h238q116 0 195 -79q79 -78 79 -194v-404q0 -68 48 -105q48 -36 144 -40v-172q-101 -4 -147 -42q-45 -38 -45 -104v-402q0 -115 -84 -191 q-84 -75 -188 -75h-240v172z" />
<glyph unicode="~" horiz-adv-x="1229" d="M143 528q115 180 255 180q99 0 230 -72q132 -72 218 -72q103 0 169 144l72 -194q-118 -180 -255 -180q-92 0 -234 72t-209 72q-111 0 -174 -144z" />
<glyph unicode="&#xa1;" horiz-adv-x="1065" d="M375 -364l40 1060h233l40 -1060h-313zM388 820v288h287v-288h-287z" />
<glyph unicode="&#xa2;" d="M152 518q0 255 160 402q161 148 455 148q58 0 111 -3l80 227h112l-86 -245q172 -37 265 -129t107 -250h-324q-7 125 -116 184l-242 -690q46 -14 105 -14q118 0 184 51q66 52 79 164h324q0 -177 -159 -289q-158 -111 -419 -111q-97 0 -177 15l-75 -207h-106l83 231 q-185 56 -273 188t-88 328zM476 511q0 -94 24 -172q25 -78 85 -124l231 663q-19 5 -39 5q-142 0 -222 -101q-79 -100 -79 -271z" />
<glyph unicode="&#xa3;" d="M111 0v219h192v434h-192v219h192v156q0 228 147 364t407 136q278 0 429 -105t151 -292v-35h-344q0 114 -58 163q-58 50 -158 50q-124 0 -182 -67t-58 -186v-184h420v-219h-420v-434h760v-219h-1286z" />
<glyph unicode="&#xa4;" d="M227 297l121 121q-92 133 -92 297q0 160 86 289l-115 120l122 122l116 -120q133 95 298 95q161 0 296 -93l118 118l122 -122l-120 -120q91 -131 91 -290q0 -162 -94 -294l123 -123l-122 -122l-124 122q-134 -90 -294 -90t-289 88l-121 -120zM486 714q0 -108 74 -193 q75 -84 203 -84q113 0 195 81t82 196q0 122 -82 199q-82 78 -195 78q-115 0 -196 -82t-81 -195z" />
<glyph unicode="&#xa5;" d="M64 1483h324l388 -637l393 637h288l-435 -657h259v-185h-384v-144h384v-185h-384v-312h-273v312h-384v185h384v144h-384v185h259z" />
<glyph unicode="&#xa6;" horiz-adv-x="455" d="M112 -32v576h230v-576h-230zM112 944v576h230v-576h-230z" />
<glyph unicode="&#xa7;" horiz-adv-x="1368" d="M125 690q0 179 285 280q-213 94 -213 232q0 148 128 228q129 81 357 81q202 0 463 -78v-242q-203 112 -415 112q-210 0 -210 -100q0 -39 45 -66q46 -26 128 -50l216 -64q168 -49 253 -121q86 -71 86 -168q0 -183 -302 -254q121 -29 193 -96q73 -66 73 -164 q0 -150 -136 -234t-354 -84q-265 0 -530 95v241q242 -128 482 -128q215 0 215 97q0 47 -39 74t-185 71l-218 66q-158 47 -240 116t-82 156zM448 735q0 -79 125 -118l164 -49q65 14 126 55q62 41 62 80q0 76 -138 121l-183 58q-156 -71 -156 -147z" />
<glyph unicode="&#xa8;" horiz-adv-x="606" d="M-96 1232v242h250v-242h-250zM306 1200zM458 1232v242h250v-242h-250z" />
<glyph unicode="&#xa9;" horiz-adv-x="1638" d="M48 741q0 322 228 550q229 229 552 229q322 0 550 -225q229 -224 229 -536q0 -318 -231 -558q-230 -240 -549 -240q-323 0 -551 228q-228 229 -228 552zM263 740q0 -247 163 -406q163 -158 402 -158q235 0 399 160q165 160 165 409q0 238 -163 399t-397 161 q-241 0 -405 -161q-164 -160 -164 -404zM455 740q0 183 107 304q108 122 292 122q150 0 240 -89q91 -89 106 -223h-176q-21 140 -180 140q-99 0 -151 -64q-52 -63 -52 -196q0 -119 62 -187t150 -68q77 0 127 40q51 41 51 107h176q-17 -138 -115 -229q-97 -90 -235 -90 q-173 0 -288 121q-114 122 -114 312z" />
<glyph unicode="&#xaa;" horiz-adv-x="985" d="M35 994q0 122 107 176t334 54h220q0 59 -47 86q-46 28 -133 28t-127 -23t-50 -62h-233q9 96 105 152t304 56q202 0 305 -68t103 -204v-259q0 -80 10 -119h-227v89q-109 -106 -328 -106q-173 0 -258 56q-85 57 -85 144zM283 1007q0 -44 37 -67q38 -23 118 -23 q101 0 179 48q79 48 79 136h-188q-111 0 -168 -23t-57 -71z" />
<glyph unicode="&#xab;" horiz-adv-x="1214" d="M62 544l271 -400h273l-235 400l235 400h-273zM558 544l271 -400h273l-235 400l235 400h-273z" />
<glyph unicode="&#xac;" horiz-adv-x="1229" d="M96 623v230h1040v-630h-230v400h-810z" />
<glyph unicode="&#xad;" horiz-adv-x="758" d="M96 432v228h576v-228h-576z" />
<glyph unicode="&#xae;" horiz-adv-x="1638" d="M48 741q0 322 228 550q229 229 552 229q319 0 549 -234q230 -233 230 -546q0 -317 -231 -548q-230 -231 -549 -231q-323 0 -551 228q-228 229 -228 552zM263 740q0 -247 163 -406q163 -158 402 -158q235 0 399 160q165 160 165 409q0 238 -163 399t-397 161 q-236 0 -403 -161q-166 -160 -166 -404zM519 338v812h299q175 0 254 -62q80 -61 80 -178q0 -94 -62 -152q-62 -57 -139 -57l208 -363h-194l-183 345h-91v-345h-172zM691 819h150q63 0 95 25q33 26 33 79q0 46 -35 68q-34 23 -102 23h-141v-195z" />
<glyph unicode="&#xaf;" horiz-adv-x="606" d="M-128 1280v174h864v-174h-864zM304 1200z" />
<glyph unicode="&#xb0;" horiz-adv-x="819" d="M112 1164q0 122 87 209q87 88 211 88q122 0 209 -88q88 -87 88 -210t-88 -210q-87 -87 -210 -87t-210 87t-87 211zM259 1162q0 -63 44 -106q45 -43 110 -43q60 0 103 43q44 44 44 109q0 61 -44 105q-43 44 -103 44q-65 0 -110 -45q-44 -45 -44 -107z" />
<glyph unicode="&#xb1;" horiz-adv-x="1229" d="M96 0v230h1030v-230h-1030zM96 550v230h400v256h230v-256h400v-230h-400v-256h-230v256h-400z" />
<glyph unicode="&#xb2;" horiz-adv-x="985" d="M64 576v163l204 110q243 132 327 202q85 70 85 137q0 60 -44 87q-44 28 -124 28q-92 0 -138 -36t-46 -108h-260q0 157 105 230q105 74 360 74q200 0 305 -70q106 -70 106 -182q0 -90 -73 -179t-217 -167l-235 -129h529v-160h-884z" />
<glyph unicode="&#xb3;" horiz-adv-x="985" d="M25 841h264q8 -70 63 -106q55 -35 152 -35q86 0 138 37t52 86q0 58 -59 88q-58 30 -181 30h-61v160h59q109 0 165 24q56 25 56 78q0 51 -46 82t-122 31q-94 0 -137 -32q-42 -32 -42 -93h-264q0 134 106 203t318 69q230 0 340 -60q111 -59 111 -177q0 -165 -239 -199 q106 0 183 -58t77 -151q0 -124 -123 -195q-123 -70 -354 -70q-220 0 -337 72q-116 73 -119 216z" />
<glyph unicode="&#xb4;" horiz-adv-x="606" d="M128 1200l241 288h351l-358 -288h-234zM313 1200z" />
<glyph unicode="&#xb5;" d="M156 -400v1424h311v-549q0 -148 65 -226q65 -77 200 -77q143 0 231 98q89 98 89 261v493h311v-804q0 -108 10 -220h-297q-10 140 -10 175q-163 -212 -400 -212q-113 0 -199 77v-440h-311z" />
<glyph unicode="&#xb6;" horiz-adv-x="1270" d="M-16 1163q0 153 117 231t371 78h628v-1520h-230v1359h-208v-1359h-230v912q-209 0 -329 75q-119 76 -119 224z" />
<glyph unicode="&#xb7;" horiz-adv-x="758" d="M192 569q0 79 55 134q55 56 135 56q79 0 134 -56q56 -55 56 -134q0 -80 -56 -135q-55 -55 -134 -55q-80 0 -135 55t-55 135z" />
<glyph unicode="&#xb8;" horiz-adv-x="606" d="M0 -362l47 103q91 -38 178 -38q54 0 85 13t31 43t-22 46t-78 16q-48 0 -90 -19l-39 61l156 153h129l-133 -120q30 8 106 8q84 0 137 -39t53 -103q0 -77 -78 -121q-77 -44 -189 -44q-130 0 -293 41zM328 0z" />
<glyph unicode="&#xb9;" horiz-adv-x="985" d="M176 1120v182q191 62 281 138h235v-864h-244v666q-98 -82 -272 -122z" />
<glyph unicode="&#xba;" horiz-adv-x="985" d="M32 1125q0 166 117 251t349 85q233 0 346 -84q113 -83 113 -247q0 -170 -119 -253q-118 -83 -344 -83q-228 0 -345 83t-117 248zM285 1126q0 -93 56 -146q57 -52 155 -52q104 0 156 48q52 49 52 147t-57 151q-56 53 -148 53q-100 0 -157 -55t-57 -146z" />
<glyph unicode="&#xbb;" horiz-adv-x="1214" d="M112 144l235 400l-235 400h273l271 -400l-271 -400h-273zM608 144l235 400l-235 400h273l271 -400l-271 -400h-273z" />
<glyph unicode="&#xbc;" horiz-adv-x="2275" d="M115 1120v182q191 62 281 138h235v-864h-244v666q-98 -82 -272 -122zM379 -119l1133 1662h227l-1133 -1662h-227zM1253 161v212l494 485h306v-537h161v-160h-161v-167h-244v167h-556zM1447 321h362v344z" />
<glyph unicode="&#xbd;" horiz-adv-x="2275" d="M74 1120v182q191 62 281 138h235v-864h-244v666q-98 -82 -272 -122zM312 -119l1133 1662h227l-1133 -1662h-227zM1252 -6v163l204 110q243 132 327 202q85 70 85 137q0 60 -44 87q-44 28 -124 28q-92 0 -138 -36t-46 -108h-260q0 157 105 230q105 74 360 74 q200 0 305 -70q106 -70 106 -182q0 -90 -73 -179t-217 -167l-235 -129h529v-160h-884z" />
<glyph unicode="&#xbe;" horiz-adv-x="2275" d="M25 841h264q8 -70 63 -106q55 -35 152 -35q86 0 138 37t52 86q0 58 -59 88q-58 30 -181 30h-61v160h59q109 0 165 24q56 25 56 78q0 51 -46 82t-122 31q-94 0 -137 -32q-42 -32 -42 -93h-264q0 134 106 203t318 69q230 0 340 -60q111 -59 111 -177q0 -165 -239 -199 q106 0 183 -58t77 -151q0 -124 -123 -195q-123 -70 -354 -70q-220 0 -337 72q-116 73 -119 216zM504 -119l1133 1662h227l-1133 -1662h-227zM1314 161v212l494 485h306v-537h161v-160h-161v-167h-244v167h-556zM1508 321h362v344z" />
<glyph unicode="&#xbf;" horiz-adv-x="1366" d="M112 -13q0 207 241 342l173 94q132 71 132 201v68h251v-128q0 -98 -29 -153t-98 -97l-229 -147q-109 -69 -109 -158q0 -183 315 -183q207 0 345 40v-228q-194 -40 -372 -40q-317 0 -468 92q-152 92 -152 297zM640 820v288h287v-288h-287z" />
<glyph unicode="&#xc0;" horiz-adv-x="1972" d="M0 1510zM21 0l752 1472h420l752 -1472h-394l-171 330h-844l-157 -330h-358zM578 1846h351l241 -288h-234zM654 572h611l-305 641zM983 1558zM983 1558zM1855 0z" />
<glyph unicode="&#xc1;" horiz-adv-x="1972" d="M0 1510zM21 0l752 1472h420l752 -1472h-394l-171 330h-844l-157 -330h-358zM654 572h611l-305 641zM798 1558l241 288h351l-358 -288h-234zM983 1558zM983 1558zM1855 0z" />
<glyph unicode="&#xc2;" horiz-adv-x="1972" d="M0 1510zM21 0l752 1472h420l752 -1472h-394l-171 330h-844l-157 -330h-358zM571 1558l240 288h343l240 -288h-226l-194 172l-149 -172h-254zM654 572h611l-305 641zM983 1558zM983 1558zM1855 0z" />
<glyph unicode="&#xc3;" horiz-adv-x="1972" d="M0 1510zM21 0l752 1472h420l752 -1472h-394l-171 330h-844l-157 -330h-358zM527 1573q10 120 81 190q71 71 189 71q48 0 188 -38q141 -38 197 -38q45 0 74 22q30 22 39 54h144q-34 -131 -102 -196q-67 -65 -171 -65q-72 0 -203 38t-178 38q-40 0 -69 -21q-29 -20 -45 -55 h-144zM654 572h611l-305 641zM983 1558zM983 1558zM1855 0z" />
<glyph unicode="&#xc4;" horiz-adv-x="1972" d="M0 1510zM21 0l752 1472h420l752 -1472h-394l-171 330h-844l-157 -330h-358zM581 1590v242h250v-242h-250zM654 572h611l-305 641zM983 1558zM983 1558zM1135 1590v242h250v-242h-250zM1855 0z" />
<glyph unicode="&#xc5;" horiz-adv-x="1972" d="M0 1510zM21 0l752 1472h420l752 -1472h-394l-171 330h-844l-157 -330h-358zM654 572h611l-305 641zM729 1710q0 182 254 182q251 0 251 -182q0 -184 -251 -184q-254 0 -254 184zM850 1708q0 -88 135 -88q128 0 128 90q0 88 -128 88q-135 0 -135 -90zM983 1558zM983 1558z M1855 0z" />
<glyph unicode="&#xc6;" horiz-adv-x="2578" d="M10 0l1008 1472h1377v-242h-824l80 -344h697v-242h-648l94 -402h648v-242h-928l-78 330h-825l-223 -330h-378zM775 572h613l-148 693z" />
<glyph unicode="&#xc7;" horiz-adv-x="1821" d="M124 736q0 365 218 569q219 205 624 205q325 0 524 -137t208 -375h-342q-8 130 -121 200t-275 70q-217 0 -356 -140q-138 -139 -138 -392q0 -252 138 -392t357 -140q171 0 282 76q112 76 129 194h342q-13 -240 -215 -376t-574 -136q-392 0 -597 205q-204 206 -204 569z M638 -362l47 103q91 -38 178 -38q54 0 85 13t31 43t-22 46t-78 16q-48 0 -90 -19l-39 61l156 153h129l-133 -120q30 8 106 8q84 0 137 -39t53 -103q0 -77 -78 -121q-77 -44 -189 -44q-130 0 -293 41zM966 0zM966 0zM972 1558z" />
<glyph unicode="&#xc8;" horiz-adv-x="1518" d="M0 1510zM176 0v1472h1164v-242h-832v-344h801v-242h-801v-402h868v-242h-1200zM353 1846h351l241 -288h-234zM758 1558zM758 1558zM1290 0z" />
<glyph unicode="&#xc9;" horiz-adv-x="1518" d="M0 1510zM176 0v1472h1164v-242h-832v-344h801v-242h-801v-402h868v-242h-1200zM573 1558l241 288h351l-358 -288h-234zM758 1558zM758 1558zM1290 0z" />
<glyph unicode="&#xca;" horiz-adv-x="1518" d="M0 1510zM176 0v1472h1164v-242h-832v-344h801v-242h-801v-402h868v-242h-1200zM346 1558l240 288h343l240 -288h-226l-194 172l-149 -172h-254zM758 1558zM758 1558zM1290 0z" />
<glyph unicode="&#xcb;" horiz-adv-x="1518" d="M0 1510zM176 0v1472h1164v-242h-832v-344h801v-242h-801v-402h868v-242h-1200zM356 1590v242h250v-242h-250zM758 1558zM758 1558zM910 1590v242h250v-242h-250zM1290 0z" />
<glyph unicode="&#xcc;" horiz-adv-x="758" d="M-26 1846h351l241 -288h-234zM0 1510zM213 0v1472h332v-1472h-332zM379 1558zM379 1558zM410 0z" />
<glyph unicode="&#xcd;" horiz-adv-x="758" d="M0 1510zM194 1558l241 288h351l-358 -288h-234zM213 0v1472h332v-1472h-332zM379 1558zM379 1558zM410 0z" />
<glyph unicode="&#xce;" horiz-adv-x="758" d="M-33 1558l240 288h343l240 -288h-226l-194 172l-149 -172h-254zM0 1510zM213 0v1472h332v-1472h-332zM379 1558zM379 1558zM410 0z" />
<glyph unicode="&#xcf;" horiz-adv-x="758" d="M-23 1590v242h250v-242h-250zM0 1510zM213 0v1472h332v-1472h-332zM379 1558zM379 1558zM410 0zM531 1590v242h250v-242h-250z" />
<glyph unicode="&#xd0;" horiz-adv-x="1821" d="M31 644v230h145v598h705q373 0 592 -192q219 -191 219 -561q0 -315 -213 -517q-212 -202 -586 -202h-717v644h-145zM508 242h322q257 0 388 141q132 141 132 361q0 239 -141 362q-140 124 -375 124h-326v-356h400v-230h-400v-402z" />
<glyph unicode="&#xd1;" horiz-adv-x="1972" d="M0 1510zM181 0v1472h467l845 -1133v1133h301v-1472h-446l-866 1156v-1156h-301zM532 1573q10 120 81 190q71 71 189 71q48 0 188 -38q141 -38 197 -38q45 0 74 22q30 22 39 54h144q-34 -131 -102 -196q-67 -65 -171 -65q-72 0 -203 38t-178 38q-40 0 -69 -21 q-29 -20 -45 -55h-144zM988 0zM988 1558zM988 1558z" />
<glyph unicode="&#xd2;" horiz-adv-x="1974" d="M124 736q0 377 223 575q223 199 636 199q412 0 635 -197q224 -196 224 -571q0 -381 -219 -581q-218 -199 -640 -199q-396 0 -628 188q-231 189 -231 586zM466 736q0 -258 138 -395t383 -137q250 0 381 142q132 142 132 390q0 255 -137 393q-136 139 -376 139 q-251 0 -386 -142q-135 -141 -135 -390zM578 1846h351l241 -288h-234zM983 1558zM983 1558z" />
<glyph unicode="&#xd3;" horiz-adv-x="1974" d="M124 736q0 377 223 575q223 199 636 199q412 0 635 -197q224 -196 224 -571q0 -381 -219 -581q-218 -199 -640 -199q-396 0 -628 188q-231 189 -231 586zM466 736q0 -258 138 -395t383 -137q250 0 381 142q132 142 132 390q0 255 -137 393q-136 139 -376 139 q-251 0 -386 -142q-135 -141 -135 -390zM798 1558l241 288h351l-358 -288h-234zM983 1558zM983 1558z" />
<glyph unicode="&#xd4;" horiz-adv-x="1974" d="M124 736q0 377 223 575q223 199 636 199q412 0 635 -197q224 -196 224 -571q0 -381 -219 -581q-218 -199 -640 -199q-396 0 -628 188q-231 189 -231 586zM466 736q0 -258 138 -395t383 -137q250 0 381 142q132 142 132 390q0 255 -137 393q-136 139 -376 139 q-251 0 -386 -142q-135 -141 -135 -390zM571 1558l240 288h343l240 -288h-226l-194 172l-149 -172h-254zM983 1558zM983 1558z" />
<glyph unicode="&#xd5;" horiz-adv-x="1974" d="M124 736q0 377 223 575q223 199 636 199q412 0 635 -197q224 -196 224 -571q0 -381 -219 -581q-218 -199 -640 -199q-396 0 -628 188q-231 189 -231 586zM466 736q0 -258 138 -395t383 -137q250 0 381 142q132 142 132 390q0 255 -137 393q-136 139 -376 139 q-251 0 -386 -142q-135 -141 -135 -390zM527 1573q10 120 81 190q71 71 189 71q48 0 188 -38q141 -38 197 -38q45 0 74 22q30 22 39 54h144q-34 -131 -102 -196q-67 -65 -171 -65q-72 0 -203 38t-178 38q-40 0 -69 -21q-29 -20 -45 -55h-144zM983 1558zM983 1558z" />
<glyph unicode="&#xd6;" horiz-adv-x="1974" d="M124 736q0 377 223 575q223 199 636 199q412 0 635 -197q224 -196 224 -571q0 -381 -219 -581q-218 -199 -640 -199q-396 0 -628 188q-231 189 -231 586zM466 736q0 -258 138 -395t383 -137q250 0 381 142q132 142 132 390q0 255 -137 393q-136 139 -376 139 q-251 0 -386 -142q-135 -141 -135 -390zM581 1590v242h250v-242h-250zM983 1558zM983 1558zM1135 1590v242h250v-242h-250z" />
<glyph unicode="&#xd7;" horiz-adv-x="1229" d="M128 195l323 322l-323 322l158 158l322 -323l322 323l158 -158l-323 -322l323 -322l-158 -158l-322 323l-322 -323z" />
<glyph unicode="&#xd8;" horiz-adv-x="1974" d="M124 736q0 377 224 575q224 199 640 199q288 0 486 -98l176 200l114 -102l-164 -181q242 -200 242 -587q0 -369 -216 -575q-216 -205 -648 -205q-289 0 -486 97l-176 -199l-114 102l164 180q-242 201 -242 594zM466 739q0 -222 102 -357l714 811q-121 75 -296 75 q-250 0 -385 -141t-135 -388zM684 279q120 -75 300 -75q251 0 383 142q133 142 133 390q0 218 -103 354z" />
<glyph unicode="&#xd9;" horiz-adv-x="1821" d="M0 1510zM166 522v950h332v-890q0 -180 105 -285q106 -105 305 -105q205 0 307 99q103 100 103 296v885h332v-891q0 -327 -199 -473t-584 -146q-332 0 -517 156q-184 156 -184 404zM503 1846h351l241 -288h-234zM908 1558zM908 1558zM1065 0z" />
<glyph unicode="&#xda;" horiz-adv-x="1821" d="M0 1510zM166 522v950h332v-890q0 -180 105 -285q106 -105 305 -105q205 0 307 99q103 100 103 296v885h332v-891q0 -327 -199 -473t-584 -146q-332 0 -517 156q-184 156 -184 404zM723 1558l241 288h351l-358 -288h-234zM908 1558zM908 1558zM1065 0z" />
<glyph unicode="&#xdb;" horiz-adv-x="1821" d="M0 1510zM166 522v950h332v-890q0 -180 105 -285q106 -105 305 -105q205 0 307 99q103 100 103 296v885h332v-891q0 -327 -199 -473t-584 -146q-332 0 -517 156q-184 156 -184 404zM496 1558l240 288h343l240 -288h-226l-194 172l-149 -172h-254zM908 1558zM908 1558z M1065 0z" />
<glyph unicode="&#xdc;" horiz-adv-x="1821" d="M0 1510zM166 522v950h332v-890q0 -180 105 -285q106 -105 305 -105q205 0 307 99q103 100 103 296v885h332v-891q0 -327 -199 -473t-584 -146q-332 0 -517 156q-184 156 -184 404zM506 1590v242h250v-242h-250zM908 1558zM908 1558zM1060 1590v242h250v-242h-250zM1065 0 z" />
<glyph unicode="&#xdd;" horiz-adv-x="1821" d="M0 1510zM32 1472h435l466 -632l477 632h394l-720 -908v-564h-332v564zM733 1558l241 288h351l-358 -288h-234zM918 1558zM918 1558z" />
<glyph unicode="&#xde;" horiz-adv-x="1669" d="M202 0v1472h332v-245h382q341 0 499 -118q159 -118 159 -357q0 -222 -159 -338q-159 -115 -434 -115h-447v-299h-332zM534 541h387q156 0 233 53q78 53 78 160q0 121 -90 176q-89 55 -284 55h-324v-444z" />
<glyph unicode="&#xdf;" horiz-adv-x="1669" d="M156 0v980q0 259 169 395q169 137 525 137q282 0 437 -101q156 -100 156 -256q0 -85 -43 -150t-129 -101l-119 -48q-57 -24 -78 -44q-20 -19 -20 -43q0 -45 97 -75l203 -61q121 -36 183 -105t62 -181q0 -171 -133 -278q-133 -106 -381 -106q-236 0 -352 84t-116 251h326 q1 -66 42 -102q42 -36 126 -36q79 0 120 28q42 28 42 89q0 46 -31 78q-30 33 -90 51l-154 46q-142 43 -209 113q-66 71 -66 186q0 92 49 155q50 64 150 104l104 42q106 41 106 107q0 64 -75 110q-74 46 -195 46q-196 0 -296 -107q-99 -106 -99 -314v-894h-311z" />
<glyph unicode="&#xe0;" horiz-adv-x="1518" d="M88 277q0 195 156 284q157 89 514 89h273q0 117 -72 172q-71 55 -205 55q-95 0 -166 -33t-82 -103h-326q18 157 161 238q143 82 425 82q279 0 427 -109q149 -108 149 -330v-440q0 -110 10 -182h-287q-10 56 -10 144q-176 -181 -468 -181q-244 0 -372 87q-127 88 -127 227 zM355 1477h351l241 -288h-234zM414 303q0 -71 63 -114q64 -42 171 -42q155 0 269 88t114 231h-258q-184 0 -272 -42q-87 -42 -87 -121zM760 1189zM760 1189zM1263 0z" />
<glyph unicode="&#xe1;" horiz-adv-x="1518" d="M88 277q0 195 156 284q157 89 514 89h273q0 117 -72 172q-71 55 -205 55q-95 0 -166 -33t-82 -103h-326q18 157 161 238q143 82 425 82q279 0 427 -109q149 -108 149 -330v-440q0 -110 10 -182h-287q-10 56 -10 144q-176 -181 -468 -181q-244 0 -372 87q-127 88 -127 227 zM414 303q0 -71 63 -114q64 -42 171 -42q155 0 269 88t114 231h-258q-184 0 -272 -42q-87 -42 -87 -121zM575 1189l241 288h351l-358 -288h-234zM760 1189zM760 1189zM1263 0z" />
<glyph unicode="&#xe2;" horiz-adv-x="1518" d="M88 277q0 195 156 284q157 89 514 89h273q0 117 -72 172q-71 55 -205 55q-95 0 -166 -33t-82 -103h-326q18 157 161 238q143 82 425 82q279 0 427 -109q149 -108 149 -330v-440q0 -110 10 -182h-287q-10 56 -10 144q-176 -181 -468 -181q-244 0 -372 87q-127 88 -127 227 zM348 1189l240 288h343l240 -288h-226l-194 172l-149 -172h-254zM414 303q0 -71 63 -114q64 -42 171 -42q155 0 269 88t114 231h-258q-184 0 -272 -42q-87 -42 -87 -121zM760 1189zM760 1189zM1263 0z" />
<glyph unicode="&#xe3;" horiz-adv-x="1518" d="M88 277q0 195 156 284q157 89 514 89h273q0 117 -72 172q-71 55 -205 55q-95 0 -166 -33t-82 -103h-326q18 157 161 238q143 82 425 82q279 0 427 -109q149 -108 149 -330v-440q0 -110 10 -182h-287q-10 56 -10 144q-176 -181 -468 -181q-244 0 -372 87q-127 88 -127 227 zM304 1204q10 120 81 190q71 71 189 71q48 0 188 -38q141 -38 197 -38q45 0 74 22q30 22 39 54h144q-34 -131 -102 -196q-67 -65 -171 -65q-72 0 -203 38t-178 38q-40 0 -69 -21q-29 -20 -45 -55h-144zM414 303q0 -71 63 -114q64 -42 171 -42q155 0 269 88t114 231h-258 q-184 0 -272 -42q-87 -42 -87 -121zM760 1189zM760 1189zM1263 0z" />
<glyph unicode="&#xe4;" horiz-adv-x="1518" d="M88 277q0 195 156 284q157 89 514 89h273q0 117 -72 172q-71 55 -205 55q-95 0 -166 -33t-82 -103h-326q18 157 161 238q143 82 425 82q279 0 427 -109q149 -108 149 -330v-440q0 -110 10 -182h-287q-10 56 -10 144q-176 -181 -468 -181q-244 0 -372 87q-127 88 -127 227 zM358 1221v242h250v-242h-250zM414 303q0 -71 63 -114q64 -42 171 -42q155 0 269 88t114 231h-258q-184 0 -272 -42q-87 -42 -87 -121zM760 1189zM760 1189zM912 1221v242h250v-242h-250zM1263 0z" />
<glyph unicode="&#xe5;" horiz-adv-x="1518" d="M88 277q0 195 156 284q157 89 514 89h273q0 117 -72 172q-71 55 -205 55q-95 0 -166 -33t-82 -103h-326q18 157 161 238q143 82 425 82q279 0 427 -109q149 -108 149 -330v-440q0 -110 10 -182h-287q-10 56 -10 144q-176 -181 -468 -181q-244 0 -372 87q-127 88 -127 227 zM414 303q0 -71 63 -114q64 -42 171 -42q155 0 269 88t114 231h-258q-184 0 -272 -42q-87 -42 -87 -121zM506 1341q0 182 254 182q251 0 251 -182q0 -184 -251 -184q-254 0 -254 184zM627 1339q0 -88 135 -88q128 0 128 90q0 88 -128 88q-135 0 -135 -90zM760 1189z M760 1189zM1263 0z" />
<glyph unicode="&#xe6;" horiz-adv-x="2427" d="M73 297q0 156 138 242q139 87 458 87h364q-11 125 -84 188t-206 63q-86 0 -164 -38q-77 -38 -88 -114h-326q15 165 157 250q143 86 408 86q370 0 476 -167q139 167 476 167q311 0 466 -141q156 -140 156 -420v-58h-960q8 -138 92 -217q84 -78 255 -78q107 0 173 40 t85 128h331q-19 -170 -162 -261q-142 -91 -432 -91q-205 0 -341 58q-135 59 -200 174q-146 -232 -532 -232q-260 0 -400 94q-140 95 -140 240zM399 297q0 -71 66 -111q67 -39 177 -39q161 0 272 78q111 79 119 217h-347q-131 0 -209 -42q-78 -41 -78 -103zM1344 626h634 q-10 121 -96 186q-85 65 -216 65q-144 0 -227 -72q-83 -71 -95 -179z" />
<glyph unicode="&#xe7;" horiz-adv-x="1366" d="M88 512q0 242 155 395q156 154 467 154q264 0 417 -102t167 -298h-326q-4 94 -71 155t-180 61q-143 0 -223 -100t-80 -271q0 -173 74 -266t230 -93q122 0 184 56q63 57 76 160h326q0 -177 -158 -289q-157 -111 -417 -111q-308 0 -475 146q-166 147 -166 403zM396 -362 l47 103q91 -38 178 -38q54 0 85 13t31 43t-22 46t-78 16q-48 0 -90 -19l-39 61l156 153h129l-133 -120q30 8 106 8q84 0 137 -39t53 -103q0 -77 -78 -121q-77 -44 -189 -44q-130 0 -293 41zM691 1189zM724 0zM724 0z" />
<glyph unicode="&#xe8;" horiz-adv-x="1518" d="M107 512q0 259 165 404t501 145q295 0 465 -146q171 -145 171 -405v-68h-976q0 -130 92 -213q92 -82 274 -82q94 0 169 40q76 40 86 96h326q-17 -152 -187 -236q-169 -84 -420 -84q-323 0 -495 140q-171 140 -171 409zM353 1477h351l241 -288h-234zM433 626h650 q-17 125 -96 188q-78 63 -226 63q-149 0 -233 -72q-83 -71 -95 -179zM758 1189zM758 1189zM900 0z" />
<glyph unicode="&#xe9;" horiz-adv-x="1518" d="M107 512q0 259 165 404t501 145q295 0 465 -146q171 -145 171 -405v-68h-976q0 -130 92 -213q92 -82 274 -82q94 0 169 40q76 40 86 96h326q-17 -152 -187 -236q-169 -84 -420 -84q-323 0 -495 140q-171 140 -171 409zM433 626h650q-17 125 -96 188q-78 63 -226 63 q-149 0 -233 -72q-83 -71 -95 -179zM573 1189l241 288h351l-358 -288h-234zM758 1189zM758 1189zM900 0z" />
<glyph unicode="&#xea;" horiz-adv-x="1518" d="M107 512q0 259 165 404t501 145q295 0 465 -146q171 -145 171 -405v-68h-976q0 -130 92 -213q92 -82 274 -82q94 0 169 40q76 40 86 96h326q-17 -152 -187 -236q-169 -84 -420 -84q-323 0 -495 140q-171 140 -171 409zM346 1189l240 288h343l240 -288h-226l-194 172 l-149 -172h-254zM433 626h650q-17 125 -96 188q-78 63 -226 63q-149 0 -233 -72q-83 -71 -95 -179zM758 1189zM758 1189zM900 0z" />
<glyph unicode="&#xeb;" horiz-adv-x="1518" d="M107 512q0 259 165 404t501 145q295 0 465 -146q171 -145 171 -405v-68h-976q0 -130 92 -213q92 -82 274 -82q94 0 169 40q76 40 86 96h326q-17 -152 -187 -236q-169 -84 -420 -84q-323 0 -495 140q-171 140 -171 409zM356 1221v242h250v-242h-250zM433 626h650 q-17 125 -96 188q-78 63 -226 63q-149 0 -233 -72q-83 -71 -95 -179zM758 1189zM758 1189zM900 0zM910 1221v242h250v-242h-250z" />
<glyph unicode="&#xec;" horiz-adv-x="606" d="M-103 1477h351l241 -288h-234zM0 1061zM146 0v1024h311v-1024h-311zM302 1189zM302 1189z" />
<glyph unicode="&#xed;" horiz-adv-x="606" d="M0 1061zM117 1189l241 288h351l-358 -288h-234zM146 0v1024h311v-1024h-311zM302 1189zM302 1189z" />
<glyph unicode="&#xee;" horiz-adv-x="606" d="M-110 1189l240 288h343l240 -288h-226l-194 172l-149 -172h-254zM0 1061zM146 0v1024h311v-1024h-311zM302 1189zM302 1189z" />
<glyph unicode="&#xef;" horiz-adv-x="606" d="M-100 1221v242h250v-242h-250zM0 1061zM146 0v1024h311v-1024h-311zM302 1189zM302 1189zM454 1221v242h250v-242h-250z" />
<glyph unicode="&#xf0;" d="M88 511q0 251 165 395q165 145 440 145q175 0 306 -77q-41 73 -114 141t-179 127l-330 -143l-97 132l241 106q-93 44 -256 72l170 175q143 0 390 -114l268 114l97 -132l-193 -83q173 -109 299 -328q127 -219 127 -463q0 -315 -182 -465q-181 -150 -485 -150 q-324 0 -496 140q-171 140 -171 408zM414 513q0 -165 92 -259t252 -94q157 0 247 93q91 93 91 258q0 164 -89 260t-247 96q-163 0 -255 -94q-91 -93 -91 -260z" />
<glyph unicode="&#xf1;" d="M146 1024h297q10 -137 10 -171q143 208 437 208q197 0 335 -114t138 -317v-630h-311v549q0 156 -69 229q-68 74 -196 74q-144 0 -232 -99q-88 -98 -88 -260v-493h-311v804q0 108 -10 220zM304 1204q10 120 81 190q71 71 189 71q48 0 188 -38q141 -38 197 -38q45 0 74 22 q30 22 39 54h144q-34 -131 -102 -196q-67 -65 -171 -65q-72 0 -203 38t-178 38q-40 0 -69 -21q-29 -20 -45 -55h-144zM760 0zM760 1189zM760 1189z" />
<glyph unicode="&#xf2;" d="M88 512q0 270 171 409q172 140 496 140q328 0 497 -142q170 -142 170 -407q0 -264 -167 -407q-167 -142 -500 -142q-324 0 -496 140q-171 140 -171 409zM350 1477h351l241 -288h-234zM414 512q0 -164 92 -258t252 -94q157 0 247 92q91 93 91 257q0 174 -93 264 q-93 91 -243 91q-163 0 -255 -93q-91 -93 -91 -259zM755 1189zM755 1189z" />
<glyph unicode="&#xf3;" d="M88 512q0 270 171 409q172 140 496 140q328 0 497 -142q170 -142 170 -407q0 -264 -167 -407q-167 -142 -500 -142q-324 0 -496 140q-171 140 -171 409zM414 512q0 -164 92 -258t252 -94q157 0 247 92q91 93 91 257q0 174 -93 264q-93 91 -243 91q-163 0 -255 -93 q-91 -93 -91 -259zM570 1189l241 288h351l-358 -288h-234zM755 1189zM755 1189z" />
<glyph unicode="&#xf4;" d="M88 512q0 270 171 409q172 140 496 140q328 0 497 -142q170 -142 170 -407q0 -264 -167 -407q-167 -142 -500 -142q-324 0 -496 140q-171 140 -171 409zM343 1189l240 288h343l240 -288h-226l-194 172l-149 -172h-254zM414 512q0 -164 92 -258t252 -94q157 0 247 92 q91 93 91 257q0 174 -93 264q-93 91 -243 91q-163 0 -255 -93q-91 -93 -91 -259zM755 1189zM755 1189z" />
<glyph unicode="&#xf5;" d="M88 512q0 270 171 409q172 140 496 140q328 0 497 -142q170 -142 170 -407q0 -264 -167 -407q-167 -142 -500 -142q-324 0 -496 140q-171 140 -171 409zM299 1204q10 120 81 190q71 71 189 71q48 0 188 -38q141 -38 197 -38q45 0 74 22q30 22 39 54h144 q-34 -131 -102 -196q-67 -65 -171 -65q-72 0 -203 38t-178 38q-40 0 -69 -21q-29 -20 -45 -55h-144zM414 512q0 -164 92 -258t252 -94q157 0 247 92q91 93 91 257q0 174 -93 264q-93 91 -243 91q-163 0 -255 -93q-91 -93 -91 -259zM755 1189zM755 1189z" />
<glyph unicode="&#xf6;" d="M88 512q0 270 171 409q172 140 496 140q328 0 497 -142q170 -142 170 -407q0 -264 -167 -407q-167 -142 -500 -142q-324 0 -496 140q-171 140 -171 409zM353 1221v242h250v-242h-250zM414 512q0 -164 92 -258t252 -94q157 0 247 92q91 93 91 257q0 174 -93 264 q-93 91 -243 91q-163 0 -255 -93q-91 -93 -91 -259zM755 1189zM755 1189zM907 1221v242h250v-242h-250z" />
<glyph unicode="&#xf7;" horiz-adv-x="1229" d="M96 408v230h1027v-230h-1027zM432 104q0 72 51 124q52 52 128 52q73 0 124 -52q52 -52 52 -124q0 -75 -52 -126q-51 -50 -124 -50q-76 0 -128 50q-51 51 -51 126zM432 942q0 72 51 124q52 52 128 52q73 0 124 -52q52 -52 52 -124q0 -75 -52 -126q-51 -50 -124 -50 q-76 0 -128 50q-51 51 -51 126z" />
<glyph unicode="&#xf8;" d="M88 511q0 270 171 410q172 140 495 140q214 0 362 -62l160 174l88 -80l-141 -154q199 -140 199 -426q0 -263 -168 -407q-168 -143 -498 -143q-215 0 -362 61l-160 -173l-88 80l140 153q-198 140 -198 427zM414 513q0 -133 60 -222l475 523q-81 50 -190 50 q-162 0 -254 -93q-91 -93 -91 -258zM561 209q79 -49 196 -49q157 0 248 91q91 92 91 255q0 138 -60 227z" />
<glyph unicode="&#xf9;" d="M0 1061zM156 394v630h311v-549q0 -145 64 -224t201 -79q143 0 231 98q89 98 89 261v493h311v-804q0 -109 10 -220h-302q-4 52 -4 171q-144 -208 -438 -208q-200 0 -337 114q-136 114 -136 317zM350 1477h351l241 -288h-234zM755 1189zM755 1189zM1287 0z" />
<glyph unicode="&#xfa;" d="M0 1061zM156 394v630h311v-549q0 -145 64 -224t201 -79q143 0 231 98q89 98 89 261v493h311v-804q0 -109 10 -220h-302q-4 52 -4 171q-144 -208 -438 -208q-200 0 -337 114q-136 114 -136 317zM570 1189l241 288h351l-358 -288h-234zM755 1189zM755 1189zM1287 0z" />
<glyph unicode="&#xfb;" d="M0 1061zM156 394v630h311v-549q0 -145 64 -224t201 -79q143 0 231 98q89 98 89 261v493h311v-804q0 -109 10 -220h-302q-4 52 -4 171q-144 -208 -438 -208q-200 0 -337 114q-136 114 -136 317zM343 1189l240 288h343l240 -288h-226l-194 172l-149 -172h-254zM755 1189z M755 1189zM1287 0z" />
<glyph unicode="&#xfc;" d="M0 1061zM156 394v630h311v-549q0 -145 64 -224t201 -79q143 0 231 98q89 98 89 261v493h311v-804q0 -109 10 -220h-302q-4 52 -4 171q-144 -208 -438 -208q-200 0 -337 114q-136 114 -136 317zM353 1221v242h250v-242h-250zM755 1189zM755 1189zM907 1221v242h250v-242 h-250zM1287 0z" />
<glyph unicode="&#xfd;" horiz-adv-x="1518" d="M0 1061zM24 1024h370l381 -745l385 745h336l-772 -1424h-355l223 401zM575 1189l241 288h351l-358 -288h-234zM760 1189zM760 1189z" />
<glyph unicode="&#xfe;" horiz-adv-x="1518" d="M141 -400v1872h296v-603q135 192 422 192q266 0 417 -152q152 -151 152 -393q0 -268 -158 -411q-158 -142 -395 -142q-285 0 -423 192v-555h-311zM452 509q0 -144 89 -247q90 -102 233 -102q142 0 235 100t93 252q0 154 -94 253t-234 99q-146 0 -234 -105t-88 -250z" />
<glyph unicode="&#xff;" horiz-adv-x="1518" d="M0 1061zM24 1024h370l381 -745l385 745h336l-772 -1424h-355l223 401zM358 1221v242h250v-242h-250zM760 1189zM760 1189zM912 1221v242h250v-242h-250z" />
<glyph unicode="&#x152;" horiz-adv-x="2578" d="M93 742q0 349 217 547q218 198 648 198q78 0 254 -8q177 -7 248 -7h961v-242h-764v-344h733v-242h-733v-402h800v-242h-982q-38 0 -204 -8q-165 -7 -249 -7q-440 0 -685 198q-244 198 -244 559zM435 736q0 -247 168 -378t426 -131q91 0 296 31v963q-122 24 -285 24 q-284 0 -445 -132q-160 -131 -160 -377z" />
<glyph unicode="&#x153;" horiz-adv-x="2427" d="M88 512q0 253 166 401t450 148q349 0 502 -176q189 176 496 176q315 0 466 -134q151 -133 151 -417v-68h-928q0 -130 77 -213q78 -82 239 -82q112 0 179 49q68 50 83 119h326q-10 -161 -167 -257q-157 -95 -416 -95q-346 0 -506 192q-188 -192 -476 -192q-309 0 -476 149 q-166 149 -166 400zM414 515q0 -172 89 -264q90 -91 249 -91q137 0 232 98q96 98 96 257q0 173 -96 261q-95 88 -234 88q-157 0 -247 -95q-89 -94 -89 -254zM1391 626h602q-5 127 -79 189q-73 62 -210 62q-144 0 -227 -74q-83 -73 -86 -177z" />
<glyph unicode="&#x178;" horiz-adv-x="1821" d="M0 1510zM32 1472h435l466 -632l477 632h394l-720 -908v-564h-332v564zM516 1590v242h250v-242h-250zM918 1558zM918 1558zM1070 1590v242h250v-242h-250z" />
<glyph unicode="&#x2c6;" horiz-adv-x="606" d="M-112 1200l240 288h343l240 -288h-226l-194 172l-149 -172h-254zM300 1200z" />
<glyph unicode="&#x2dc;" horiz-adv-x="606" d="M-144 1215q10 120 81 190q71 71 189 71q48 0 188 -38q141 -38 197 -38q45 0 74 22q30 22 39 54h144q-34 -131 -102 -196q-67 -65 -171 -65q-72 0 -203 38t-178 38q-40 0 -69 -21q-29 -20 -45 -55h-144zM312 1200z" />
<glyph unicode="&#x2000;" horiz-adv-x="946" />
<glyph unicode="&#x2001;" horiz-adv-x="1892" />
<glyph unicode="&#x2002;" horiz-adv-x="946" />
<glyph unicode="&#x2003;" horiz-adv-x="1892" />
<glyph unicode="&#x2004;" horiz-adv-x="630" />
<glyph unicode="&#x2005;" horiz-adv-x="473" />
<glyph unicode="&#x2006;" horiz-adv-x="315" />
<glyph unicode="&#x2007;" horiz-adv-x="315" />
<glyph unicode="&#x2008;" horiz-adv-x="236" />
<glyph unicode="&#x2009;" horiz-adv-x="378" />
<glyph unicode="&#x200a;" horiz-adv-x="105" />
<glyph unicode="&#x2010;" horiz-adv-x="758" d="M96 432v228h576v-228h-576z" />
<glyph unicode="&#x2011;" horiz-adv-x="758" d="M96 432v228h576v-228h-576z" />
<glyph unicode="&#x2012;" horiz-adv-x="758" d="M96 432v228h576v-228h-576z" />
<glyph unicode="&#x2013;" horiz-adv-x="1024" d="M0 432v228h1024v-228h-1024z" />
<glyph unicode="&#x2014;" horiz-adv-x="2048" d="M0 432v228h2048v-228h-2048z" />
<glyph unicode="&#x2018;" horiz-adv-x="758" d="M118 1008l270 464h242l-180 -464h-332z" />
<glyph unicode="&#x2019;" horiz-adv-x="758" d="M128 1008l180 464h332l-270 -464h-242z" />
<glyph unicode="&#x201a;" horiz-adv-x="758" d="M108 -288l180 464h332l-270 -464h-242z" />
<glyph unicode="&#x201c;" horiz-adv-x="1366" d="M139 1008l270 464h242l-180 -464h-332zM715 1008l270 464h242l-180 -464h-332z" />
<glyph unicode="&#x201d;" horiz-adv-x="1366" d="M139 1008l180 464h332l-270 -464h-242zM715 1008l180 464h332l-270 -464h-242z" />
<glyph unicode="&#x201e;" horiz-adv-x="1366" d="M139 -288l180 464h332l-270 -464h-242zM715 -288l180 464h332l-270 -464h-242z" />
<glyph unicode="&#x2022;" horiz-adv-x="1024" d="M139 733q0 150 107 259q108 109 261 109q150 0 259 -109t109 -259q0 -153 -109 -261q-109 -107 -259 -107q-153 0 -261 107q-107 108 -107 261z" />
<glyph unicode="&#x2026;" horiz-adv-x="2048" d="M197 0v288h287v-288h-287zM885 0v288h287v-288h-287zM1573 0v288h287v-288h-287z" />
<glyph unicode="&#x202f;" horiz-adv-x="378" />
<glyph unicode="&#x2039;" horiz-adv-x="758" d="M106 544l271 -400h273l-235 400l235 400h-273z" />
<glyph unicode="&#x203a;" horiz-adv-x="758" d="M108 144l235 400l-235 400h273l271 -400l-271 -400h-273z" />
<glyph unicode="&#x205f;" horiz-adv-x="473" />
<glyph unicode="&#x20ac;" d="M56 478l35 175h157l2 128h-194l35 175h177q110 505 640 505q500 0 582 -415h-324q-51 192 -256 192q-264 0 -318 -282h524l-35 -175h-507q-2 -35 -2 -75v-53h480l-35 -175h-445q14 -118 106 -205t238 -87q215 0 260 192h324q-48 -219 -209 -317q-160 -98 -373 -98 q-551 0 -650 515h-212z" />
<glyph unicode="&#x2122;" horiz-adv-x="2048" d="M39 1300v172h696v-172h-233v-660h-230v660h-233zM893 640v832h312l186 -504l187 504h312v-832h-219v578l-197 -578h-165l-197 578v-578h-219z" />
<glyph unicode="&#x25fc;" horiz-adv-x="1025" d="M0 0v1025h1025v-1025h-1025z" />
</font>
</defs>
</svg>
