<?xml version="1.0" standalone="no"?>
<!DOCTYPE svg PUBLIC "-//W3C//DTD SVG 1.1//EN" "http://www.w3.org/Graphics/SVG/1.1/DTD/svg11.dtd" >
<svg xmlns="http://www.w3.org/2000/svg">
<metadata></metadata>
<defs>
<font id="univers_extendedoblique" horiz-adv-x="1516" >
<font-face units-per-em="2048" ascent="1638" descent="-410" />
<missing-glyph horiz-adv-x="758" />
<glyph horiz-adv-x="0" />
<glyph unicode="&#xd;" horiz-adv-x="758" />
<glyph unicode=" "  horiz-adv-x="758" />
<glyph unicode="&#x09;" horiz-adv-x="758" />
<glyph unicode="&#xa0;" horiz-adv-x="758" />
<glyph unicode="!" horiz-adv-x="1061" d="M419 0l48 225h225l-48 -225h-225zM524 359l202 1113h239l-272 -1113h-169z" />
<glyph unicode="&#x22;" horiz-adv-x="1214" d="M539 1040l92 432h179l-92 -432h-179zM938 1040l92 432h179l-92 -432h-179z" />
<glyph unicode="#" d="M341 427l32 152h208l99 272h-190l33 152h210l152 421h163l-152 -421h221l152 421h163l-152 -421h192l-33 -152h-212l-99 -272h193l-32 -152h-213l-153 -427h-163l153 427h-221l-153 -427h-163l153 427h-188zM744 579h221l99 272h-221z" />
<glyph unicode="$" d="M150 443h226q-23 -137 73 -221q98 -83 301 -91l113 529l-144 22q-241 37 -331 136q-89 99 -56 256q45 212 233 330q189 118 483 124l31 144h120l-32 -147q262 -17 380 -130q120 -112 91 -299h-226q12 111 -55 174q-67 64 -227 82l-107 -503l249 -45q338 -60 273 -362 q-44 -207 -232 -333q-187 -125 -478 -143l-32 -147h-120l31 144q-305 0 -451 121q-145 122 -113 359zM549 1091q-18 -85 50 -139q70 -53 308 -84l105 492q-175 0 -306 -71q-130 -71 -157 -198zM871 134q177 9 304 86q126 77 152 197q20 92 -49 143q-66 52 -269 83l-29 5z " />
<glyph unicode="%" horiz-adv-x="2273" d="M454 1077q38 180 156 282t293 102q176 0 246 -105q71 -104 32 -285q-40 -188 -163 -286q-121 -98 -280 -98q-184 0 -254 106q-68 107 -30 284zM499 -59l1443 1542h166l-1443 -1542h-166zM606 1074q-28 -133 16 -201q45 -68 142 -68q93 0 164 68q73 68 101 199 q27 130 -15 200q-41 71 -136 71q-99 0 -172 -71q-73 -70 -100 -198zM1410 353q39 180 156 282q118 102 293 102q179 0 248 -105q70 -104 31 -285q-40 -189 -163 -287q-122 -97 -281 -97q-185 0 -253 107t-31 283zM1563 350q-29 -133 16 -201q44 -68 141 -68q93 0 165 68 t100 199q28 130 -14 200q-41 71 -136 71q-103 0 -175 -74t-97 -195z" />
<glyph unicode="&#x26;" horiz-adv-x="1970" d="M239 403q29 138 153 255t382 199q-171 147 -134 319q31 148 163 241t321 93q175 0 265 -92q91 -92 60 -234q-51 -240 -360 -369l382 -366q193 190 287 487h200q-106 -357 -368 -604l344 -332h-316l-194 189q-300 -227 -655 -227q-288 0 -430 122t-100 319zM454 413 q-29 -135 70 -217q98 -82 277 -82q266 0 518 193l-427 435q-214 -67 -316 -150q-101 -83 -122 -179zM840 1177q-27 -125 140 -254q254 95 288 254q18 86 -34 140q-51 55 -140 55q-90 0 -163 -55q-73 -54 -91 -140z" />
<glyph unicode="'" horiz-adv-x="758" d="M510 1040l92 432h179l-92 -432h-179z" />
<glyph unicode="(" horiz-adv-x="758" d="M12 170q-37 224 10 444q41 190 159 409q119 219 352 488h169q-141 -164 -283 -407q-143 -244 -196 -490q-45 -213 -17 -451q27 -239 114 -446h-169q-102 228 -139 453z" />
<glyph unicode=")" horiz-adv-x="758" d="M56 -283q141 164 283 407q143 244 196 490q45 213 17 451q-27 239 -114 446h169q102 -228 139 -453q37 -224 -10 -444q-41 -190 -159 -409q-119 -219 -352 -488h-169z" />
<glyph unicode="*" horiz-adv-x="1212" d="M461 1034l35 166l294 -48l-143 241l161 79l51 -283l172 283l127 -79l-245 -241l314 48l-35 -166l-294 48l142 -241l-146 -79l-66 283l-185 -283l-114 79l246 241z" />
<glyph unicode="+" horiz-adv-x="1229" d="M188 431l38 180h432l92 432h180l-92 -432h432l-38 -180h-432l-92 -432h-180l92 432h-432z" />
<glyph unicode="," horiz-adv-x="758" d="M148 -208l222 432h243l-296 -432h-169z" />
<glyph unicode="-" horiz-adv-x="909" d="M209 453l38 179h688l-38 -179h-688z" />
<glyph unicode="." horiz-adv-x="758" d="M267 0l48 225h225l-48 -225h-225z" />
<glyph unicode="/" horiz-adv-x="909" d="M13 -38l993 1548h201l-993 -1548h-201z" />
<glyph unicode="0" d="M260 718q78 365 278 554q201 189 532 189q335 0 450 -197q116 -196 40 -552q-83 -390 -297 -570q-212 -179 -514 -179q-338 0 -450 204q-113 205 -39 551zM472 712q-124 -581 314 -581q206 0 352 145q147 145 209 436q60 281 -19 431q-78 150 -295 150q-226 0 -366 -159 q-139 -159 -195 -422z" />
<glyph unicode="1" d="M528 976l41 192q279 89 491 256h193l-304 -1424h-213l259 1215q-193 -155 -467 -239z" />
<glyph unicode="2" d="M146 0l40 188q576 291 837 483q262 192 293 337q28 131 -51 208q-78 77 -227 77q-179 0 -287 -80q-107 -79 -133 -200h-226q48 199 229 323q182 125 440 125q271 0 392 -118q122 -118 83 -300q-48 -226 -381 -471q-333 -244 -687 -404h929l-36 -168h-1215z" />
<glyph unicode="3" d="M201 379h213q-25 -116 69 -182t266 -66q194 0 328 69t161 196q55 257 -404 257h-111l36 168h115q195 0 320 58q126 58 149 169q24 111 -64 178q-87 67 -248 67q-177 0 -292 -57q-114 -56 -136 -159h-213q36 172 219 278q184 106 416 106q291 0 426 -105q136 -104 95 -294 q-27 -129 -124 -214t-235 -111q323 -66 262 -351q-42 -200 -234 -312q-191 -111 -509 -111q-288 0 -416 103t-89 313z" />
<glyph unicode="4" d="M140 342l49 228l998 854h256l-195 -914h316l-36 -168h-316l-73 -342h-200l73 342h-872zM349 510h699l155 728z" />
<glyph unicode="5" d="M244 379h226q-26 -120 60 -184q85 -64 243 -64q187 0 324 94q138 94 170 244q32 148 -67 238q-98 90 -271 90q-135 0 -248 -61q-112 -60 -158 -155h-206l217 843h1067l-36 -168h-871l-123 -449q84 69 195 113q112 45 261 45q229 0 366 -128q138 -128 89 -361 q-53 -247 -255 -380q-201 -133 -473 -133q-267 0 -410 108q-143 109 -100 308z" />
<glyph unicode="6" d="M272 683q166 778 844 778q249 0 375 -102t100 -298h-213q10 232 -309 232q-217 0 -367 -145q-149 -145 -202 -393q224 192 511 192q258 0 394 -131q136 -130 89 -353q-50 -235 -248 -368q-196 -132 -479 -132q-649 0 -495 720zM466 455q-30 -140 61 -232t277 -92 q177 0 310 89q134 89 165 235q29 136 -60 230q-88 94 -278 94q-170 0 -307 -88q-136 -87 -168 -236z" />
<glyph unicode="7" d="M409 1243l39 181h1184l-40 -184l-932 -1240h-250l957 1243h-958z" />
<glyph unicode="8" d="M201 379q32 149 162 247q131 98 299 115q-142 24 -217 118q-74 95 -48 217q39 180 214 282q175 103 468 103q278 0 412 -100q135 -100 96 -284q-26 -122 -142 -217q-114 -95 -273 -117q179 -19 261 -122t53 -241q-42 -198 -244 -308q-200 -109 -488 -109q-296 0 -445 113 q-148 114 -108 303zM417 392q-26 -120 78 -191q104 -70 296 -70q183 0 314 70q132 71 158 191q24 115 -81 188t-280 73q-190 0 -326 -75t-159 -186zM606 1055q-20 -96 71 -165q92 -69 263 -69q161 0 284 67q124 67 146 171q50 234 -329 234q-384 0 -435 -238z" />
<glyph unicode="9" d="M231 379h226q-12 -112 62 -180q76 -68 246 -68q203 0 349 147q147 148 228 454q-191 -223 -550 -223q-223 0 -361 127t-93 338q47 222 242 354q197 133 475 133q331 0 450 -172q119 -171 44 -524q-89 -420 -292 -611q-202 -191 -550 -191q-241 0 -372 104 q-129 105 -104 312zM553 987q-28 -132 63 -221t269 -89q180 0 308 89t156 217q26 125 -62 217q-88 93 -267 93q-187 0 -314 -91q-126 -90 -153 -215z" />
<glyph unicode=":" horiz-adv-x="758" d="M267 0l48 225h225l-48 -225h-225zM267 803l48 225h225l-48 -225h-225z" />
<glyph unicode=";" horiz-adv-x="758" d="M148 -208l222 432h243l-296 -432h-169zM324 803l48 225h225l-48 -225h-225z" />
<glyph unicode="&#x3c;" horiz-adv-x="1229" d="M-34 597l32 -152l1139 -464l-38 180l-885 360l731 360l-38 180z" />
<glyph unicode="=" horiz-adv-x="1229" d="M142 215l38 180h1040l-38 -180h-1040zM235 651l38 180h1040l-38 -180h-1040z" />
<glyph unicode="&#x3e;" horiz-adv-x="1229" d="M92 -19l38 180l885 360l-731 360l38 180l941 -464l-32 -152z" />
<glyph unicode="?" horiz-adv-x="1214" d="M415 0l48 225h225l-48 -225h-225zM470 1303l35 167q264 40 398 40q243 0 354 -98q111 -97 73 -277q-39 -184 -311 -367l-190 -131q-54 -37 -79 -69q-24 -32 -40 -109l-23 -106h-169l32 150q16 73 47 118q33 46 109 103l232 166q147 106 175 236q25 118 -51 175 q-74 57 -240 57q-165 0 -352 -55z" />
<glyph unicode="@" horiz-adv-x="1638" d="M186 721q74 348 353 568q279 221 641 221q296 0 474 -177q180 -177 121 -451q-55 -256 -262 -405t-396 -149q-124 0 -100 112q-116 -112 -272 -112q-116 0 -174 93t-30 225q41 192 198 340q159 148 333 148q147 0 197 -144l57 114h152l-211 -441q-49 -103 -55 -134 q-10 -46 49 -46q114 0 219 111q106 112 136 255q49 228 -88 368q-137 141 -396 141q-269 0 -489 -181q-219 -180 -275 -443q-60 -279 82 -447q144 -167 441 -167q294 0 534 200h166q-148 -171 -347 -262q-198 -90 -392 -90q-372 0 -556 207q-183 207 -110 546zM727 680 q-18 -83 17 -133q34 -50 104 -50q99 0 201 98q102 99 125 207q15 68 -18 115q-33 48 -103 48q-116 0 -210 -86q-92 -86 -116 -199z" />
<glyph unicode="A" horiz-adv-x="1819" d="M23 0l1066 1472h250l438 -1472h-243l-107 384h-898l-270 -384h-236zM322 1510zM653 553h729l-207 735zM1232 1558zM1722 0z" />
<glyph unicode="B" horiz-adv-x="1667" d="M196 0l314 1472h700q300 0 406 -94q78 -68 78 -186q0 -44 -11 -95q-29 -138 -126 -219q-96 -81 -247 -107q154 -21 235 -114q58 -67 59 -163q0 -38 -10 -81q-41 -192 -211 -303q-168 -110 -445 -110h-742zM445 169h517q174 0 277 62q104 63 131 191q8 35 8 65 q0 82 -56 130q-76 66 -263 66h-504zM591 852h536q143 0 228 55q86 56 110 167q7 33 7 61q0 75 -51 114q-68 54 -246 54h-488z" />
<glyph unicode="C" horiz-adv-x="1819" d="M350 736q71 335 336 554q266 220 658 220q262 0 420 -119q136 -102 136 -261q0 -25 -3 -52h-236v13q0 117 -89 181q-92 69 -270 69q-294 0 -481 -166q-187 -165 -245 -439q-20 -92 -20 -171q0 -159 79 -269q118 -165 406 -165q169 0 306 76q138 77 187 203h236 q-65 -200 -274 -324q-207 -124 -531 -124q-369 0 -529 216q-109 148 -109 355q0 95 23 203zM976 0zM1348 1558z" />
<glyph unicode="D" horiz-adv-x="1819" d="M210 0l314 1472h582q449 0 626 -178q120 -120 119 -340q0 -106 -27 -235q-75 -352 -332 -536q-257 -183 -666 -183h-616zM322 1510zM459 169h399q296 0 487 131q192 132 257 436q20 95 20 174q0 155 -78 250q-117 143 -496 143h-347zM1141 1558z" />
<glyph unicode="E" d="M220 0l314 1472h1109l-36 -169h-896l-98 -459h839l-36 -169h-839l-108 -506h919l-36 -169h-1132zM322 1510zM1107 1558zM1303 0z" />
<glyph unicode="F" horiz-adv-x="1366" d="M196 0l314 1472h1045l-36 -169h-832l-101 -474h792l-36 -169h-792l-141 -660h-213z" />
<glyph unicode="G" horiz-adv-x="1970" d="M330 736q73 344 341 559q269 215 676 215q300 0 472 -96q158 -89 158 -287q0 -16 -1 -33h-226q-7 127 -115 187t-312 60q-295 0 -503 -169q-207 -169 -264 -436q-16 -76 -16 -145q0 -168 97 -289q139 -171 453 -171q259 0 504 93l80 374h-475l36 169h688l-142 -663 q-378 -142 -742 -142q-410 0 -596 216q-134 155 -134 375q0 87 21 183zM1044 0zM1370 1558z" />
<glyph unicode="H" horiz-adv-x="1819" d="M220 0l314 1472h213l-132 -620h955l132 620h213l-314 -1472h-213l146 683h-955l-146 -683h-213z" />
<glyph unicode="I" horiz-adv-x="606" d="M196 0l314 1472h213l-314 -1472h-213zM322 1510zM357 0zM635 1558z" />
<glyph unicode="J" d="M181 426h226q-8 -39 -8 -74q0 -88 55 -144q79 -77 257 -77q194 0 317 105q124 105 169 319l196 917h213l-200 -938q-60 -282 -248 -427q-187 -145 -503 -145q-278 0 -398 133q-87 98 -87 232q0 47 11 99z" />
<glyph unicode="K" horiz-adv-x="1667" d="M246 0l314 1472h213l-141 -661l932 661h313l-980 -667l736 -805h-313l-693 788l-168 -788h-213zM896 0z" />
<glyph unicode="L" horiz-adv-x="1366" d="M246 0l314 1472h213l-278 -1303h848l-36 -169h-1061zM322 1510zM719 1558zM777 0z" />
<glyph unicode="M" horiz-adv-x="2425" d="M220 0l314 1472h339l378 -1294l930 1294h339l-314 -1472h-213l283 1328l-950 -1328h-226l-384 1328l-283 -1328h-213z" />
<glyph unicode="N" horiz-adv-x="1819" d="M203 0l314 1472h290l641 -1259l269 1259h213l-314 -1472h-290l-642 1259l-268 -1259h-213zM322 1510zM910 0zM1242 1558z" />
<glyph unicode="O" horiz-adv-x="1970" d="M310 736q73 341 346 557q274 217 652 217q390 0 565 -217q124 -153 125 -368q0 -89 -22 -189q-72 -336 -343 -555q-272 -219 -655 -219q-407 0 -572 225q-116 159 -116 367q0 86 20 182zM536 736q-18 -83 -17 -156q0 -167 91 -283q133 -166 404 -166q267 0 472 166 q206 167 264 439q17 79 17 150q0 164 -91 283q-129 172 -404 172q-271 0 -475 -168t-261 -437zM1318 1558z" />
<glyph unicode="P" horiz-adv-x="1667" d="M246 0l314 1472h679q315 0 432 -95q85 -69 85 -198q0 -48 -12 -105q-45 -209 -208 -320q-163 -110 -412 -110h-528l-137 -644h-213zM632 813h477q177 0 280 67q102 67 129 193q7 33 7 60q0 78 -54 117q-73 53 -267 53h-467z" />
<glyph unicode="Q" horiz-adv-x="1970" d="M310 736q71 332 336 553t662 221q390 0 565 -217q124 -154 124 -370q0 -89 -21 -189q-36 -168 -147 -321q-110 -152 -254 -244h424l-36 -169h-674q-145 -38 -303 -38q-405 0 -576 222q-120 157 -120 369q0 87 20 183zM536 736q-18 -83 -18 -156q0 -167 92 -283 q133 -166 404 -166q267 0 472 166q206 167 264 439q17 79 17 150q0 163 -91 283q-129 172 -404 172q-271 0 -475 -168t-261 -437z" />
<glyph unicode="R" horiz-adv-x="1667" d="M196 0l314 1472h733q299 0 405 -93q77 -66 76 -187q0 -48 -11 -104q-30 -142 -143 -232q-112 -89 -274 -113q135 -18 181 -81q39 -51 39 -194q0 -30 -2 -65l-7 -171q-2 -33 -2 -66q0 -84 13 -166h-226q-6 30 -6 118q0 49 2 116l4 227v11q0 115 -82 150q-85 38 -246 38 h-414l-141 -660h-213zM322 1510zM586 829h479q189 0 289 54q101 54 129 185q7 35 7 65q0 75 -47 114q-65 56 -257 56h-499zM859 0zM1110 1558z" />
<glyph unicode="S" horiz-adv-x="1667" d="M238 442h226q-5 -27 -5 -52q0 -107 87 -175q108 -84 332 -84q223 0 365 78q141 78 168 202q4 19 4 37q0 61 -48 100q-62 52 -225 75l-347 53q-223 33 -318 127q-68 68 -68 173q0 39 9 83q46 216 241 333q196 118 503 118q306 0 447 -114q115 -93 115 -246q0 -35 -6 -72 h-226q2 17 2 33q0 109 -91 165q-103 65 -324 65q-169 0 -295 -75q-125 -75 -149 -189q-4 -19 -4 -36q0 -55 42 -92q56 -49 184 -72l498 -85q175 -33 240 -121q44 -59 44 -146q0 -43 -11 -93q-47 -221 -262 -346q-214 -124 -539 -124q-322 0 -473 119q-122 97 -122 277 q0 40 6 84zM837 0zM1169 1558z" />
<glyph unicode="T" d="M308 1292l38 180h1461l-38 -180h-624l-276 -1292h-213l276 1292h-624zM322 1510zM763 0zM1095 1558z" />
<glyph unicode="U" horiz-adv-x="1819" d="M322 1510zM345 587l189 885h213l-189 -885q-15 -69 -14 -127q0 -127 67 -209q98 -120 331 -120q229 0 377 122q149 123 194 334l189 885h213l-189 -885q-62 -293 -283 -459q-219 -166 -524 -166q-346 0 -491 169q-101 119 -101 296q0 75 18 160zM1099 0zM1243 1558z" />
<glyph unicode="V" horiz-adv-x="1667" d="M346 1472h236l296 -1294l846 1294h226l-986 -1472h-260z" />
<glyph unicode="W" horiz-adv-x="2576" d="M346 1472h226l159 -1299l735 1299h286l181 -1299l713 1299h226l-826 -1472h-296l-178 1300l-732 -1300h-296z" />
<glyph unicode="X" horiz-adv-x="1667" d="M23 0l839 765l-458 707h286l348 -581l620 581h263l-780 -701l506 -771h-288l-387 633l-663 -633h-286z" />
<glyph unicode="Y" horiz-adv-x="1667" d="M322 1510zM330 1472h273l391 -684l684 684h273l-887 -857l-131 -615h-213l131 615zM1159 1558z" />
<glyph unicode="Z" d="M73 0l41 190l1332 1113h-1048l36 169h1281l-48 -224l-1292 -1079h1095l-36 -169h-1361zM322 1510zM1092 1558z" />
<glyph unicode="[" horiz-adv-x="758" d="M-78 -283l382 1794h419l-25 -119h-240l-332 -1556h240l-25 -119h-419z" />
<glyph unicode="\" horiz-adv-x="909" d="M343 1510h201l334 -1542h-201z" />
<glyph unicode="]" horiz-adv-x="758" d="M35 -283l25 119h240l332 1556h-240l25 119h419l-382 -1794h-419z" />
<glyph unicode="^" horiz-adv-x="1229" d="M253 585l577 832h169l223 -832h-180l-167 650l-442 -650h-180z" />
<glyph unicode="_" horiz-adv-x="1024" d="M-54 -254l22 103h1024l-22 -103h-1024z" />
<glyph unicode="`" horiz-adv-x="606" d="M314 1472h250l168 -288h-166zM554 1184z" />
<glyph unicode="a" horiz-adv-x="1364" d="M179 296q38 176 194 260t474 84h281l9 38q7 35 7 65q0 179 -267 179q-119 0 -205 -46q-85 -45 -107 -119h-213q45 141 194 222q149 82 388 82q233 0 339 -95q78 -69 78 -183q0 -41 -10 -87l-107 -503q-32 -153 -32 -193h-188q1 45 23 150q-62 -71 -175 -129 q-112 -58 -310 -58q-196 0 -300 91q-80 70 -80 175q0 32 7 67zM393 300q-4 -17 -3 -33q0 -57 44 -105q58 -60 197 -60q190 0 304 87q116 87 154 265l10 47h-122q-352 0 -457 -46q-104 -45 -127 -155zM943 1189zM1147 0z" />
<glyph unicode="b" d="M167 0q39 141 58 230l265 1242h201l-125 -587q195 176 497 176q240 0 369 -156q92 -111 92 -266q0 -62 -15 -131q-49 -233 -248 -389q-197 -156 -440 -156q-288 0 -411 192l-42 -155h-201zM486 512q-12 -59 -12 -111q0 -113 60 -189q90 -110 271 -110t316 109 q135 110 176 301q13 59 13 110q0 113 -61 189q-87 111 -266 111q-194 0 -327 -116q-132 -115 -170 -294z" />
<glyph unicode="c" horiz-adv-x="1364" d="M224 508q56 259 247 406q192 147 477 147q220 0 338 -97q104 -86 104 -234q0 -18 -1 -37h-213q1 13 1 25q0 96 -64 147q-71 57 -191 57q-180 0 -312 -110q-131 -110 -172 -300q-13 -62 -13 -116q0 -111 57 -185q85 -109 253 -109q149 0 248 65q100 66 125 164h213 q-45 -166 -217 -267q-173 -101 -407 -101q-290 0 -408 149q-81 103 -81 253q0 67 16 143zM696 0zM976 1189z" />
<glyph unicode="d" d="M224 508q52 244 250 398q198 155 432 155q301 0 423 -176l125 587h201l-265 -1242q-19 -89 -40 -230h-201l23 148q-205 -185 -492 -185q-244 0 -375 156q-94 113 -94 267q0 58 13 122zM438 512q-13 -60 -13 -112q0 -113 61 -189q90 -109 271 -109q180 0 315 110 q137 111 177 300q13 60 13 111q0 112 -60 188q-86 111 -274 111q-179 0 -315 -111q-135 -110 -175 -299z" />
<glyph unicode="e" horiz-adv-x="1364" d="M205 491q58 273 245 421q189 149 475 149q276 0 389 -143q76 -97 76 -244q0 -69 -17 -150l-14 -66h-960q-4 -32 -4 -61q0 -117 64 -196q81 -99 245 -99q137 0 240 62q104 63 146 151h213q-57 -165 -223 -259q-166 -93 -398 -93q-284 0 -406 145q-86 102 -86 251 q0 62 15 132zM437 597h738q9 42 9 80q0 91 -53 154q-74 91 -241 91q-176 0 -291 -92q-114 -91 -162 -233zM776 0zM948 1189z" />
<glyph unicode="f" horiz-adv-x="909" d="M237 885l29 139h272l15 70q43 199 150 294q107 96 296 96q114 0 188 -12l-30 -140q-58 13 -135 13q-99 0 -167 -53q-69 -52 -96 -174l-20 -94h336l-29 -139h-336l-189 -885h-201l189 885h-272z" />
<glyph unicode="g" d="M138 -77h213q-3 -18 -3 -35q0 -74 59 -121q73 -57 225 -57q233 0 358 99q126 99 170 302l20 97q-190 -192 -467 -192q-263 0 -398 145q-97 106 -97 258q0 58 14 123q49 233 244 379q197 146 462 146q261 0 402 -176l36 133h188q-40 -146 -50 -193l-148 -694 q-66 -310 -250 -438t-517 -128q-262 0 -376 85q-91 68 -91 197q0 33 6 70zM445 545q-12 -57 -12 -107q0 -106 55 -178q83 -105 278 -105q190 0 318 103q129 104 168 287q12 58 12 107q0 109 -60 177q-88 99 -277 99q-186 0 -315 -101q-128 -100 -167 -282zM972 1195z" />
<glyph unicode="h" d="M188 0l314 1472h201l-136 -635q181 224 491 224q230 0 338 -126q76 -87 75 -224q0 -62 -15 -135l-123 -576h-201l120 565q12 56 12 105q0 90 -42 154q-65 98 -224 98q-186 0 -324 -117t-182 -322l-103 -483h-201z" />
<glyph unicode="i" horiz-adv-x="606" d="M204 0l218 1024h201l-218 -1024h-201zM354 0zM474 1264l43 205h201l-43 -205h-201z" />
<glyph unicode="j" horiz-adv-x="606" d="M-155 -404l31 147q19 -4 79 -4q129 0 172 50q43 51 70 176l225 1059h201l-241 -1134q-34 -158 -129 -231q-94 -72 -284 -72q-102 0 -124 9zM474 1264l43 205h201l-43 -205h-201z" />
<glyph unicode="k" horiz-adv-x="1364" d="M204 0l314 1472h201l-185 -868l636 420h285l-663 -444l545 -580h-298l-514 564l-120 -564h-201zM726 0z" />
<glyph unicode="l" horiz-adv-x="606" d="M204 0l314 1472h201l-314 -1472h-201zM305 0zM639 1568z" />
<glyph unicode="m" horiz-adv-x="2273" d="M188 0l169 792q28 133 40 232h188q-8 -81 -31 -187q203 224 485 224q138 0 222 -68q83 -67 98 -188q208 256 475 256q240 0 332 -123q60 -79 60 -207q0 -70 -18 -155l-123 -576h-201l111 522q19 89 19 158q0 84 -28 140q-51 102 -198 102q-158 0 -282 -118 q-123 -118 -169 -336l-100 -468h-201l112 526q20 94 20 165q0 231 -210 231q-169 0 -297 -119q-126 -118 -168 -316l-104 -487h-201z" />
<glyph unicode="n" d="M188 0l169 792q28 133 40 232h188q-12 -97 -32 -187q205 224 505 224q230 0 338 -126q76 -87 75 -224q0 -62 -15 -135l-123 -576h-201l120 565q12 57 12 106q0 91 -42 154q-65 97 -224 97q-190 0 -327 -119q-136 -118 -179 -320l-103 -483h-201zM761 0zM1015 1189z" />
<glyph unicode="o" d="M224 508q56 261 252 407q197 146 509 146q318 0 449 -145q92 -102 93 -261q0 -67 -17 -143q-58 -271 -256 -410q-199 -139 -488 -139q-335 0 -466 145q-92 103 -92 260q0 65 16 140zM438 512q-12 -58 -13 -108q0 -116 67 -193q95 -109 289 -109q197 0 336 111 q140 111 180 299q12 55 12 103q0 114 -65 194q-93 113 -289 113q-195 0 -336 -111q-141 -110 -181 -299zM1013 1189z" />
<glyph unicode="p" d="M91 -400l253 1190q20 90 41 234h201l-24 -155q205 192 493 192q243 0 374 -158q95 -115 95 -268q0 -57 -13 -119q-51 -240 -247 -397q-195 -156 -435 -156q-302 0 -422 176l-115 -539h-201zM484 501l3 14q-13 -61 -13 -113q0 -115 63 -191q92 -109 271 -109t313 110 q136 111 176 300q13 60 13 112q0 113 -61 188q-88 110 -270 110q-184 0 -320 -115q-134 -114 -175 -306z" />
<glyph unicode="q" d="M226 516q49 229 247 387q197 158 441 158q287 0 411 -192l42 153h201q-40 -143 -59 -233l-253 -1189h-201l115 539q-197 -176 -498 -176q-238 0 -368 156q-92 113 -92 268q0 61 14 129zM438 512q-13 -60 -13 -111q0 -113 60 -189q89 -110 268 -110q193 0 325 114 q133 115 172 299l-3 -14q13 61 13 114q0 114 -60 192q-86 115 -269 115q-182 0 -318 -110q-134 -110 -175 -300z" />
<glyph unicode="r" horiz-adv-x="909" d="M188 0l169 792q28 133 40 232h188q-5 -64 -32 -187q90 119 185 171q95 53 268 53h73l-38 -181q-41 13 -83 13q-178 0 -301 -106q-123 -105 -162 -288l-106 -499h-201zM289 0zM806 1189z" />
<glyph unicode="s" horiz-adv-x="1364" d="M190 299h213q-1 -12 -1 -23q0 -77 61 -122q70 -52 221 -52q173 0 270 42q98 42 116 130q3 12 3 24q0 45 -46 68q-56 30 -165 50l-251 49q-161 29 -231 96q-52 51 -52 126q0 26 6 54q33 155 183 237q149 83 380 83t351 -76q99 -61 99 -175q0 -25 -5 -53h-194 q3 165 -264 165q-147 0 -239 -45q-91 -45 -104 -109q-2 -10 -2 -19q0 -89 189 -126l299 -58q188 -37 235 -102q32 -44 33 -106q0 -30 -8 -64q-34 -163 -195 -247q-161 -83 -442 -83q-239 0 -364 85q-101 71 -101 194q0 27 5 57zM686 0zM920 1189z" />
<glyph unicode="t" horiz-adv-x="909" d="M223 885l29 139h270l40 187l219 85l-58 -272h304l-29 -139h-304l-130 -606q-9 -45 -9 -78q0 -44 17 -64q32 -35 107 -35q67 0 162 13l-30 -139q-109 -13 -197 -13q-174 0 -231 72q-35 45 -35 123q0 46 12 104l133 623h-270zM556 0z" />
<glyph unicode="u" d="M226 1061zM284 448l122 576h201l-120 -565q-12 -56 -12 -104q0 -93 45 -157q69 -96 222 -96q178 0 319 113t186 326l103 483h201l-169 -792q-28 -134 -40 -232h-188q11 96 31 187q-205 -224 -504 -224q-231 0 -339 125q-74 86 -74 223q0 63 16 137zM1014 1189zM1288 0z " />
<glyph unicode="v" horiz-adv-x="1364" d="M250 1024h226l254 -844l607 844h226l-746 -1024h-257z" />
<glyph unicode="w" horiz-adv-x="2273" d="M240 1024h232l191 -844l569 844h251l222 -856l563 856h207l-682 -1024h-263l-217 856l-576 -856h-251z" />
<glyph unicode="x" horiz-adv-x="1364" d="M22 0l627 536l-378 488h276l276 -376l440 376h257l-594 -488l417 -536h-285l-300 416l-473 -416h-263z" />
<glyph unicode="y" horiz-adv-x="1364" d="M226 1061zM240 1024h238l258 -840l619 840h213l-1051 -1424h-226l298 395zM940 1189z" />
<glyph unicode="z" horiz-adv-x="1214" d="M97 0l36 168l879 704h-698l32 152h961l-35 -168l-880 -704h751l-32 -152h-1014zM226 1061zM862 1189z" />
<glyph unicode="{" horiz-adv-x="758" d="M197 550l30 139q74 0 138 61q64 62 81 140l80 374q22 105 105 180q84 76 174 76h159l-25 -120h-102q-103 0 -135 -147l-84 -394q-23 -107 -98 -168q-73 -60 -148 -72q81 -17 123 -81q41 -64 21 -157l-83 -391q-34 -158 69 -158h102l-25 -120h-143q-121 0 -166 72 q-44 73 -22 177l81 379q20 94 -22 152t-110 58z" />
<glyph unicode="|" horiz-adv-x="455" d="M135 -40l333 1560h180l-333 -1560h-180z" />
<glyph unicode="}" horiz-adv-x="758" d="M51 -288l25 120h101q50 0 85 35q34 36 51 112l84 398q21 97 96 160q74 63 150 76q-71 12 -118 76t-26 163l82 385q17 83 -1 123q-17 40 -68 40h-101l25 120h153q117 0 159 -73q41 -73 19 -175l-81 -382q-20 -95 21 -149q43 -54 111 -58l-30 -139q-71 0 -137 -62 q-65 -62 -82 -140l-80 -377q-24 -111 -99 -182q-74 -71 -191 -71h-148z" />
<glyph unicode="~" horiz-adv-x="1229" d="M247 497q122 183 298 183q76 0 214 -72q137 -72 188 -72q81 0 210 144l43 -141q-158 -183 -294 -183q-80 0 -202 72q-120 72 -210 72q-113 0 -204 -144z" />
<glyph unicode="&#xa1;" horiz-adv-x="1061" d="M96 -376l272 1113h169l-202 -1113h-239zM369 871l48 225h225l-48 -225h-225z" />
<glyph unicode="&#xa2;" d="M300 515q56 262 250 411q195 150 483 150q53 0 87 -6l112 198l87 -42l-98 -175q266 -78 245 -343h-213q12 145 -111 201l-441 -793q50 -14 109 -14q160 0 255 72q97 73 115 157h213q-45 -166 -217 -267q-173 -101 -407 -101q-81 0 -150 13l-111 -205l-98 42l107 192 q-140 53 -199 185q-59 133 -18 325zM514 519q-53 -247 92 -358l437 772q-14 4 -39 4q-182 0 -316 -112q-133 -112 -174 -306z" />
<glyph unicode="&#xa3;" d="M133 0l36 168h210l114 537h-210l33 152h210l35 165q53 247 238 376q186 130 421 130q256 0 367 -113q111 -112 67 -319h-213q18 118 -47 191q-63 73 -207 73q-152 0 -266 -91q-114 -90 -149 -257l-33 -155h433l-33 -152h-433l-114 -537h814l-36 -168h-1237z" />
<glyph unicode="&#xa4;" d="M304 289l139 117q-72 135 -35 305q36 170 165 305l-89 117l125 103l92 -115q157 101 327 101q169 0 283 -101l142 115l81 -103l-140 -117q72 -135 36 -305q-37 -170 -166 -305l90 -117l-125 -103l-91 114q-157 -100 -328 -100q-172 0 -286 100l-139 -114zM582 711 q-30 -140 47 -239q78 -98 218 -98q139 0 259 98q120 99 150 239q29 139 -49 238t-217 99q-140 0 -260 -99q-119 -99 -148 -238z" />
<glyph unicode="&#xa5;" d="M342 329l30 139h384l44 208h-384l30 139h288l-306 668h250l258 -666l543 666h250l-590 -668h288l-30 -139h-384l-44 -208h384l-30 -139h-384l-70 -329h-213l70 329h-384z" />
<glyph unicode="&#xa6;" horiz-adv-x="455" d="M137 -32l123 576h180l-123 -576h-180zM345 944l123 576h180l-123 -576h-180z" />
<glyph unicode="&#xa7;" horiz-adv-x="1212" d="M184 -12l39 180q187 -104 393 -104q99 0 174 36q77 37 91 103q11 50 -13 83q-24 34 -120 71l-185 71q-158 60 -218 122q-59 62 -41 147q16 77 79 136q62 60 244 141q-113 52 -150 109q-37 58 -20 136q30 139 161 215q131 77 317 77q175 0 371 -62l-38 -178 q-186 88 -353 88q-213 0 -242 -136q-15 -71 77 -123q42 -26 193 -83q152 -56 209 -100q89 -70 68 -168q-36 -169 -324 -262q244 -80 204 -267q-31 -146 -174 -227q-144 -81 -345 -81q-194 0 -397 76zM511 726q-18 -85 102 -130l150 -53q229 82 250 179q11 53 -31 92 q-43 39 -222 104q-226 -83 -249 -192z" />
<glyph unicode="&#xa8;" horiz-adv-x="606" d="M254 1264l43 205h205l-43 -205h-205zM553 1184zM683 1264l43 205h205l-43 -205h-205z" />
<glyph unicode="&#xa9;" horiz-adv-x="1638" d="M206 739q68 323 346 552t602 229q323 0 503 -230q180 -229 111 -552q-69 -324 -348 -553q-277 -228 -600 -228q-324 0 -504 229q-179 229 -110 553zM376 738q-54 -253 87 -432q141 -178 394 -178q252 0 469 179q218 179 272 432q53 252 -87 431q-141 179 -394 179 t-470 -179t-271 -432zM568 736q43 201 189 330q147 130 355 130q159 0 239 -91t68 -230h-152q-2 73 -53 121q-49 48 -133 48q-127 0 -217 -86q-88 -85 -117 -222q-28 -133 29 -221q58 -87 173 -87q92 0 160 47q69 47 99 125h152q-50 -143 -172 -234q-121 -90 -263 -90 q-200 0 -301 128q-100 128 -56 332z" />
<glyph unicode="&#xaa;" horiz-adv-x="889" d="M291 1002q22 103 124 159q103 56 298 56h197q8 69 -34 102q-41 34 -127 34q-80 0 -126 -22q-45 -21 -62 -62h-166q19 89 123 140q106 52 271 52q163 0 232 -56q70 -55 46 -166l-65 -305q-18 -85 -18 -119h-153l19 92q-101 -113 -305 -113q-131 0 -203 57q-71 58 -51 151z M457 1005q-8 -37 31 -70t122 -33q105 0 179 48t92 133l6 26h-182q-125 0 -182 -29q-56 -29 -66 -75z" />
<glyph unicode="&#xab;" horiz-adv-x="1214" d="M42 544l364 400h169l-332 -400l162 -400h-179zM458 544l364 400h169l-332 -400l162 -400h-179z" />
<glyph unicode="&#xac;" horiz-adv-x="1229" d="M236 655l38 180h1040l-130 -612h-180l92 432h-860z" />
<glyph unicode="&#xad;" horiz-adv-x="909" d="M209 453l38 179h688l-38 -179h-688z" />
<glyph unicode="&#xae;" horiz-adv-x="1638" d="M206 739q68 323 346 552t602 229q323 0 503 -230q180 -229 111 -552q-69 -324 -348 -553q-277 -228 -600 -228q-324 0 -504 229q-179 229 -110 553zM376 738q-54 -253 87 -432q141 -178 394 -178q252 0 469 179q218 179 272 432q53 252 -87 431q-141 179 -394 179 t-470 -179t-271 -432zM587 299l185 867h343q334 0 281 -249q-46 -214 -278 -234l151 -384h-193l-137 384h-101l-82 -384h-169zM863 803h159q170 0 197 125q25 118 -155 118h-149z" />
<glyph unicode="&#xaf;" horiz-adv-x="606" d="M228 1296l30 141h704l-30 -141h-704zM556 1184z" />
<glyph unicode="&#xb0;" horiz-adv-x="819" d="M361 1167q26 121 129 207q105 87 228 87q121 0 188 -87q68 -86 42 -207q-26 -123 -132 -209q-104 -85 -225 -85q-123 0 -190 85q-66 86 -40 209zM468 1168q-17 -78 27 -133q43 -54 121 -54q75 0 142 54q66 55 83 133q16 75 -27 130t-118 55q-78 0 -145 -55t-83 -130z" />
<glyph unicode="&#xb1;" horiz-adv-x="1229" d="M96 0l38 180h1044l-38 -180h-1044zM216 564l39 180h432l64 304h180l-64 -304h432l-39 -180h-432l-65 -304h-180l65 304h-432z" />
<glyph unicode="&#xb2;" horiz-adv-x="985" d="M203 576l30 142q403 181 559 289t175 196q11 56 -34 88q-45 33 -148 33q-118 0 -184 -43q-65 -42 -82 -122h-181q29 137 152 220q124 84 314 84q184 0 271 -72q86 -72 60 -193q-26 -123 -209 -252q-184 -128 -444 -231h577l-29 -139h-827z" />
<glyph unicode="&#xb3;" horiz-adv-x="985" d="M251 841h170q-12 -73 40 -111t168 -38q121 0 200 33q80 34 92 90q13 62 -57 98q-69 37 -202 37h-83l29 139h77q110 0 194 30q84 31 97 91q9 43 -44 78q-53 36 -150 36q-118 0 -182 -34q-64 -33 -78 -99h-167q25 119 137 195q111 77 299 77q209 0 296 -62t61 -183 q-34 -158 -248 -193q103 -13 155 -74t33 -147q-25 -119 -153 -185t-349 -66q-202 0 -281 73q-77 73 -54 215z" />
<glyph unicode="&#xb4;" horiz-adv-x="606" d="M364 1184l292 288h250l-376 -288h-166zM540 1184z" />
<glyph unicode="&#xb5;" d="M103 -400l303 1424h201l-120 -565q-34 -159 31 -258q66 -99 224 -99q183 0 321 115q140 116 184 324l103 483h201l-169 -792q-29 -136 -40 -232h-188q13 98 33 191q-109 -119 -234 -174q-125 -54 -273 -54q-87 0 -166 29q-77 30 -111 75l-99 -467h-201z" />
<glyph unicode="&#xb6;" horiz-adv-x="1229" d="M296 1163q34 159 164 234q131 75 375 75h570l-321 -1504h-179l288 1352h-237l-288 -1352h-179l191 896q-200 0 -307 77q-108 78 -77 222z" />
<glyph unicode="&#xb7;" horiz-adv-x="758" d="M375 635q12 56 61 95q48 40 106 40q56 0 86 -41q32 -40 20 -97t-62 -96q-48 -39 -105 -39t-87 40q-31 40 -19 98z" />
<glyph unicode="&#xb8;" horiz-adv-x="606" d="M-50 -386l50 85q69 -35 165 -35q128 0 143 68q13 63 -93 63q-39 0 -96 -16l-28 49l171 188h106l-153 -160q54 16 101 16q87 0 135 -39q49 -38 36 -100q-16 -76 -101 -119q-84 -43 -201 -43q-139 0 -235 43zM316 0z" />
<glyph unicode="&#xb9;" horiz-adv-x="985" d="M438 1152l33 154q122 33 310 134h157l-184 -864h-167l153 720q-144 -101 -302 -144z" />
<glyph unicode="&#xba;" horiz-adv-x="985" d="M304 1125q34 158 165 247t342 89q217 0 307 -85q91 -85 56 -249t-161 -249q-126 -84 -335 -84q-221 0 -315 82q-95 82 -59 249zM468 1115q-19 -89 44 -151t179 -62q125 0 210 61q86 62 108 165q21 101 -40 163q-59 62 -181 62q-120 0 -210 -66q-88 -66 -110 -172z" />
<glyph unicode="&#xbb;" horiz-adv-x="1214" d="M223 144l332 400l-162 400h179l184 -400l-364 -400h-169zM639 144l332 400l-162 400h179l184 -400l-364 -400h-169z" />
<glyph unicode="&#xbc;" horiz-adv-x="2273" d="M276 -126l1645 1676h153l-1645 -1676h-153zM520 1152l33 154q122 33 310 134h157l-184 -864h-167l153 720q-144 -101 -302 -144zM1268 177l35 164l636 515h210l-115 -540h205l-30 -139h-205l-39 -185h-167l39 185h-569zM1449 316h418l85 397z" />
<glyph unicode="&#xbd;" horiz-adv-x="2273" d="M276 -126l1645 1676h153l-1645 -1676h-153zM520 1152l33 154q122 33 310 134h157l-184 -864h-167l153 720q-144 -101 -302 -144zM1389 -8l30 142q403 181 559 289t175 196q11 56 -34 88q-45 33 -148 33q-118 0 -184 -43q-65 -42 -82 -122h-181q29 137 152 220 q124 84 314 84q184 0 271 -72q86 -72 60 -193q-26 -123 -209 -252q-184 -128 -444 -231h577l-29 -139h-827z" />
<glyph unicode="&#xbe;" horiz-adv-x="2273" d="M353 841h170q-12 -73 40 -111t168 -38q121 0 200 33q80 34 92 90q13 62 -57 98q-69 37 -202 37h-83l29 139h77q110 0 194 30q84 31 97 91q9 43 -44 78q-53 36 -150 36q-118 0 -182 -34q-64 -33 -78 -99h-167q25 119 137 195q111 77 299 77q209 0 296 -62t61 -183 q-34 -158 -248 -193q103 -13 155 -74t33 -147q-25 -119 -153 -185t-349 -66q-202 0 -281 73q-77 73 -54 215zM481 -126l1645 1676h153l-1645 -1676h-153zM1417 177l35 164l636 515h210l-115 -540h205l-30 -139h-205l-39 -185h-167l39 185h-569zM1598 316h418l85 397z" />
<glyph unicode="&#xbf;" horiz-adv-x="1214" d="M-116 -39q39 184 311 367l190 131q54 37 79 69q24 32 40 109l23 106h169l-32 -150q-16 -73 -47 -118q-33 -46 -109 -103l-232 -166q-147 -106 -175 -236q-25 -118 51 -175q74 -57 240 -57q165 0 352 55l-35 -167q-264 -40 -398 -40q-243 0 -354 98q-111 97 -73 277z M526 871l48 225h225l-48 -225h-225z" />
<glyph unicode="&#xc0;" horiz-adv-x="1819" d="M23 0l1066 1472h250l438 -1472h-243l-107 384h-898l-270 -384h-236zM322 1510zM653 553h729l-207 735zM992 1846h250l168 -288h-166zM1232 1558zM1232 1558zM1722 0z" />
<glyph unicode="&#xc1;" horiz-adv-x="1819" d="M23 0l1066 1472h250l438 -1472h-243l-107 384h-898l-270 -384h-236zM322 1510zM653 553h729l-207 735zM1056 1558l292 288h250l-376 -288h-166zM1232 1558zM1232 1558zM1722 0z" />
<glyph unicode="&#xc2;" horiz-adv-x="1819" d="M23 0l1066 1472h250l438 -1472h-243l-107 384h-898l-270 -384h-236zM322 1510zM653 553h729l-207 735zM873 1558l302 288h237l178 -288h-166l-148 210l-237 -210h-166zM1232 1558zM1232 1558zM1722 0z" />
<glyph unicode="&#xc3;" horiz-adv-x="1819" d="M23 0l1066 1472h250l438 -1472h-243l-107 384h-898l-270 -384h-236zM322 1510zM653 553h729l-207 735zM864 1606q24 112 79 174q55 63 152 63q53 0 170 -42q119 -41 150 -41q42 0 71 25q29 26 36 58h122q-23 -108 -82 -166t-153 -58q-68 0 -187 37q-117 37 -144 37 q-74 0 -92 -87h-122zM1232 1558zM1232 1558zM1722 0z" />
<glyph unicode="&#xc4;" horiz-adv-x="1819" d="M23 0l1066 1472h250l438 -1472h-243l-107 384h-898l-270 -384h-236zM322 1510zM653 553h729l-207 735zM933 1638l43 205h205l-43 -205h-205zM1232 1558zM1232 1558zM1362 1638l43 205h205l-43 -205h-205zM1722 0z" />
<glyph unicode="&#xc5;" horiz-adv-x="1819" d="M23 0l1066 1472h250l438 -1472h-243l-107 384h-898l-270 -384h-236zM322 1510zM653 553h729l-207 735zM1065 1734q18 84 91 144q73 61 158 61q86 0 134 -62q48 -61 29 -146q-18 -85 -92 -145q-73 -60 -159 -60q-85 0 -132 61t-29 147zM1158 1732q-11 -49 14 -81 q27 -32 76 -32q46 0 85 32q41 33 52 82q10 46 -17 79q-26 34 -72 34q-49 0 -89 -34t-49 -80zM1232 1558zM1232 1558zM1722 0z" />
<glyph unicode="&#xc6;" horiz-adv-x="2730" d="M23 0l1450 1472h1369l-38 -180h-999l-20 -448h866l-36 -169h-828l-22 -506h822l-36 -169h-1008l20 407h-886l-398 -407h-256zM842 576h719l29 729h-31z" />
<glyph unicode="&#xc7;" horiz-adv-x="1819" d="M350 736q71 335 336 554q266 220 658 220q262 0 420 -119q158 -118 133 -313h-236q5 126 -89 194q-92 69 -270 69q-294 0 -481 -166q-187 -165 -245 -439q-59 -275 59 -440t406 -165q169 0 306 76q138 77 187 203h236q-65 -200 -274 -324q-207 -124 -531 -124 q-369 0 -529 216q-159 216 -86 558zM610 -386l50 85q69 -35 165 -35q128 0 143 68q13 63 -93 63q-39 0 -96 -16l-28 49l171 188h106l-153 -160q54 16 101 16q87 0 135 -39q49 -38 36 -100q-16 -76 -101 -119q-84 -43 -201 -43q-139 0 -235 43zM976 0zM976 0zM1348 1558z" />
<glyph unicode="&#xc8;" d="M220 0l314 1472h1109l-36 -169h-896l-98 -459h839l-36 -169h-839l-108 -506h919l-36 -169h-1132zM322 1510zM867 1846h250l168 -288h-166zM1107 1558zM1107 1558zM1303 0z" />
<glyph unicode="&#xc9;" d="M220 0l314 1472h1109l-36 -169h-896l-98 -459h839l-36 -169h-839l-108 -506h919l-36 -169h-1132zM322 1510zM931 1558l292 288h250l-376 -288h-166zM1107 1558zM1107 1558zM1303 0z" />
<glyph unicode="&#xca;" d="M220 0l314 1472h1109l-36 -169h-896l-98 -459h839l-36 -169h-839l-108 -506h919l-36 -169h-1132zM322 1510zM748 1558l302 288h237l178 -288h-166l-148 210l-237 -210h-166zM1107 1558zM1107 1558zM1303 0z" />
<glyph unicode="&#xcb;" d="M220 0l314 1472h1109l-36 -169h-896l-98 -459h839l-36 -169h-839l-108 -506h919l-36 -169h-1132zM322 1510zM808 1638l43 205h205l-43 -205h-205zM1107 1558zM1107 1558zM1237 1638l43 205h205l-43 -205h-205zM1303 0z" />
<glyph unicode="&#xcc;" horiz-adv-x="606" d="M196 0l314 1472h213l-314 -1472h-213zM322 1510zM357 0zM395 1846h250l168 -288h-166zM635 1558zM635 1558z" />
<glyph unicode="&#xcd;" horiz-adv-x="606" d="M196 0l314 1472h213l-314 -1472h-213zM322 1510zM357 0zM459 1558l292 288h250l-376 -288h-166zM635 1558zM635 1558z" />
<glyph unicode="&#xce;" horiz-adv-x="606" d="M196 0l314 1472h213l-314 -1472h-213zM276 1558l302 288h237l178 -288h-166l-148 210l-237 -210h-166zM322 1510zM357 0zM635 1558zM635 1558z" />
<glyph unicode="&#xcf;" horiz-adv-x="606" d="M196 0l314 1472h213l-314 -1472h-213zM322 1510zM336 1638l43 205h205l-43 -205h-205zM357 0zM635 1558zM635 1558zM765 1638l43 205h205l-43 -205h-205z" />
<glyph unicode="&#xd0;" horiz-adv-x="1819" d="M179 698l32 152h180l133 622h582q449 0 626 -178t92 -575q-75 -352 -332 -536q-257 -183 -666 -183h-616l149 698h-180zM459 169h399q299 0 490 136t254 431q64 301 -70 434t-484 133h-347l-97 -453h464l-32 -152h-464z" />
<glyph unicode="&#xd1;" horiz-adv-x="1819" d="M203 0l314 1472h290l641 -1259l269 1259h213l-314 -1472h-290l-642 1259l-268 -1259h-213zM322 1510zM874 1606q24 112 79 174q55 63 152 63q53 0 170 -42q119 -41 150 -41q42 0 71 25q29 26 36 58h122q-23 -108 -82 -166t-153 -58q-68 0 -187 37q-117 37 -144 37 q-74 0 -92 -87h-122zM910 0zM1242 1558zM1242 1558z" />
<glyph unicode="&#xd2;" horiz-adv-x="1970" d="M310 736q73 341 346 557q274 217 652 217q390 0 565 -217q176 -216 103 -557q-72 -336 -343 -555q-272 -219 -655 -219q-407 0 -572 225t-96 549zM536 736q-58 -272 74 -439q133 -166 404 -166q267 0 472 166q206 167 264 439q56 262 -74 433q-129 172 -404 172 q-271 0 -475 -168t-261 -437zM1078 1846h250l168 -288h-166zM1318 1558zM1318 1558z" />
<glyph unicode="&#xd3;" horiz-adv-x="1970" d="M310 736q73 341 346 557q274 217 652 217q390 0 565 -217q176 -216 103 -557q-72 -336 -343 -555q-272 -219 -655 -219q-407 0 -572 225t-96 549zM536 736q-58 -272 74 -439q133 -166 404 -166q267 0 472 166q206 167 264 439q56 262 -74 433q-129 172 -404 172 q-271 0 -475 -168t-261 -437zM1142 1558l292 288h250l-376 -288h-166zM1318 1558zM1318 1558z" />
<glyph unicode="&#xd4;" horiz-adv-x="1970" d="M310 736q73 341 346 557q274 217 652 217q390 0 565 -217q176 -216 103 -557q-72 -336 -343 -555q-272 -219 -655 -219q-407 0 -572 225t-96 549zM536 736q-58 -272 74 -439q133 -166 404 -166q267 0 472 166q206 167 264 439q56 262 -74 433q-129 172 -404 172 q-271 0 -475 -168t-261 -437zM959 1558l302 288h237l178 -288h-166l-148 210l-237 -210h-166zM1318 1558zM1318 1558z" />
<glyph unicode="&#xd5;" horiz-adv-x="1970" d="M310 736q73 341 346 557q274 217 652 217q390 0 565 -217q176 -216 103 -557q-72 -336 -343 -555q-272 -219 -655 -219q-407 0 -572 225t-96 549zM536 736q-58 -272 74 -439q133 -166 404 -166q267 0 472 166q206 167 264 439q56 262 -74 433q-129 172 -404 172 q-271 0 -475 -168t-261 -437zM950 1606q24 112 79 174q55 63 152 63q53 0 170 -42q119 -41 150 -41q42 0 71 25q29 26 36 58h122q-23 -108 -82 -166t-153 -58q-68 0 -187 37q-117 37 -144 37q-74 0 -92 -87h-122zM1318 1558zM1318 1558z" />
<glyph unicode="&#xd6;" horiz-adv-x="1970" d="M310 736q73 341 346 557q274 217 652 217q390 0 565 -217q176 -216 103 -557q-72 -336 -343 -555q-272 -219 -655 -219q-407 0 -572 225t-96 549zM536 736q-58 -272 74 -439q133 -166 404 -166q267 0 472 166q206 167 264 439q56 262 -74 433q-129 172 -404 172 q-271 0 -475 -168t-261 -437zM1019 1638l43 205h205l-43 -205h-205zM1318 1558zM1318 1558zM1448 1638l43 205h205l-43 -205h-205z" />
<glyph unicode="&#xd7;" horiz-adv-x="1229" d="M181 172l418 345l-271 345l154 127l271 -345l419 345l100 -127l-419 -345l272 -345l-154 -127l-272 345l-418 -345z" />
<glyph unicode="&#xd8;" horiz-adv-x="1970" d="M224 -26l203 184q-194 215 -118 574q73 343 347 560q274 218 652 218q304 0 481 -132l210 188l63 -65l-207 -186q198 -216 122 -576q-70 -328 -339 -553q-269 -224 -658 -224q-310 0 -486 132l-211 -188zM537 740q-55 -259 62 -425l1026 914q-132 112 -351 112 q-272 0 -477 -167q-203 -167 -260 -434zM661 243q132 -112 351 -112q268 0 474 167t265 441q54 254 -69 420z" />
<glyph unicode="&#xd9;" horiz-adv-x="1819" d="M322 1510zM345 587l189 885h213l-189 -885q-46 -216 53 -336q98 -120 331 -120q229 0 377 122q149 123 194 334l189 885h213l-189 -885q-62 -293 -283 -459q-219 -166 -524 -166q-346 0 -491 169q-144 170 -83 456zM1003 1846h250l168 -288h-166zM1099 0zM1243 1558z M1243 1558z" />
<glyph unicode="&#xda;" horiz-adv-x="1819" d="M322 1510zM345 587l189 885h213l-189 -885q-46 -216 53 -336q98 -120 331 -120q229 0 377 122q149 123 194 334l189 885h213l-189 -885q-62 -293 -283 -459q-219 -166 -524 -166q-346 0 -491 169q-144 170 -83 456zM1067 1558l292 288h250l-376 -288h-166zM1099 0z M1243 1558zM1243 1558z" />
<glyph unicode="&#xdb;" horiz-adv-x="1819" d="M322 1510zM345 587l189 885h213l-189 -885q-46 -216 53 -336q98 -120 331 -120q229 0 377 122q149 123 194 334l189 885h213l-189 -885q-62 -293 -283 -459q-219 -166 -524 -166q-346 0 -491 169q-144 170 -83 456zM884 1558l302 288h237l178 -288h-166l-148 210 l-237 -210h-166zM1099 0zM1243 1558zM1243 1558z" />
<glyph unicode="&#xdc;" horiz-adv-x="1819" d="M322 1510zM345 587l189 885h213l-189 -885q-46 -216 53 -336q98 -120 331 -120q229 0 377 122q149 123 194 334l189 885h213l-189 -885q-62 -293 -283 -459q-219 -166 -524 -166q-346 0 -491 169q-144 170 -83 456zM944 1638l43 205h205l-43 -205h-205zM1099 0z M1243 1558zM1243 1558zM1373 1638l43 205h205l-43 -205h-205z" />
<glyph unicode="&#xdd;" horiz-adv-x="1667" d="M322 1510zM330 1472h273l391 -684l684 684h273l-887 -857l-131 -615h-213l131 615zM983 1558l292 288h250l-376 -288h-166zM1159 1558zM1159 1558z" />
<glyph unicode="&#xde;" horiz-adv-x="1667" d="M246 0l314 1472h213l-62 -291h466q315 0 432 -94q118 -94 74 -300q-43 -202 -204 -314q-160 -112 -415 -112h-528l-77 -361h-213zM572 530h477q171 0 275 63q105 63 133 193q25 121 -48 173q-73 53 -267 53h-467z" />
<glyph unicode="&#xdf;" horiz-adv-x="1667" d="M204 0l175 821q78 367 267 529q188 162 506 162q235 0 352 -83q116 -82 88 -213q-15 -74 -75 -144q-60 -69 -157 -129q-118 -72 -152 -102q-33 -29 -40 -61q-7 -34 21 -62q29 -27 83 -50l194 -81q104 -43 152 -110q47 -67 24 -179q-36 -165 -180 -250t-362 -85 q-211 0 -302 83q-91 84 -61 254h213q-15 -100 33 -149q50 -49 163 -49q121 0 198 55q78 55 94 131q16 73 -35 120t-194 99q-156 55 -215 115q-60 60 -39 158q12 56 63 113q52 57 170 127l123 76q22 15 57 45q36 31 44 67q16 76 -54 130q-68 54 -220 54q-220 0 -358 -138 q-137 -137 -186 -368l-189 -886h-201z" />
<glyph unicode="&#xe0;" horiz-adv-x="1364" d="M179 296q38 176 194 260t474 84h281l9 38q52 244 -260 244q-119 0 -205 -46q-85 -45 -107 -119h-213q45 141 194 222q149 82 388 82q233 0 339 -95q106 -94 68 -270l-107 -503q-32 -153 -32 -193h-188q1 45 23 150q-62 -71 -175 -129q-112 -58 -310 -58q-196 0 -300 91 q-105 91 -73 242zM393 300q-16 -77 41 -138q58 -60 197 -60q190 0 304 87q116 87 154 265l10 47h-122q-352 0 -457 -46q-104 -45 -127 -155zM703 1477h250l168 -288h-166zM943 1189zM943 1189zM1147 0z" />
<glyph unicode="&#xe1;" horiz-adv-x="1364" d="M179 296q38 176 194 260t474 84h281l9 38q52 244 -260 244q-119 0 -205 -46q-85 -45 -107 -119h-213q45 141 194 222q149 82 388 82q233 0 339 -95q106 -94 68 -270l-107 -503q-32 -153 -32 -193h-188q1 45 23 150q-62 -71 -175 -129q-112 -58 -310 -58q-196 0 -300 91 q-105 91 -73 242zM393 300q-16 -77 41 -138q58 -60 197 -60q190 0 304 87q116 87 154 265l10 47h-122q-352 0 -457 -46q-104 -45 -127 -155zM767 1189l292 288h250l-376 -288h-166zM943 1189zM943 1189zM1147 0z" />
<glyph unicode="&#xe2;" horiz-adv-x="1364" d="M179 296q38 176 194 260t474 84h281l9 38q52 244 -260 244q-119 0 -205 -46q-85 -45 -107 -119h-213q45 141 194 222q149 82 388 82q233 0 339 -95q106 -94 68 -270l-107 -503q-32 -153 -32 -193h-188q1 45 23 150q-62 -71 -175 -129q-112 -58 -310 -58q-196 0 -300 91 q-105 91 -73 242zM393 300q-16 -77 41 -138q58 -60 197 -60q190 0 304 87q116 87 154 265l10 47h-122q-352 0 -457 -46q-104 -45 -127 -155zM584 1189l302 288h237l178 -288h-166l-148 210l-237 -210h-166zM943 1189zM943 1189zM1147 0z" />
<glyph unicode="&#xe3;" horiz-adv-x="1364" d="M179 296q38 176 194 260t474 84h281l9 38q52 244 -260 244q-119 0 -205 -46q-85 -45 -107 -119h-213q45 141 194 222q149 82 388 82q233 0 339 -95q106 -94 68 -270l-107 -503q-32 -153 -32 -193h-188q1 45 23 150q-62 -71 -175 -129q-112 -58 -310 -58q-196 0 -300 91 q-105 91 -73 242zM393 300q-16 -77 41 -138q58 -60 197 -60q190 0 304 87q116 87 154 265l10 47h-122q-352 0 -457 -46q-104 -45 -127 -155zM575 1237q24 112 79 174q55 63 152 63q53 0 170 -42q119 -41 150 -41q42 0 71 25q29 26 36 58h122q-23 -108 -82 -166t-153 -58 q-68 0 -187 37q-117 37 -144 37q-74 0 -92 -87h-122zM943 1189zM943 1189zM1147 0z" />
<glyph unicode="&#xe4;" horiz-adv-x="1364" d="M179 296q38 176 194 260t474 84h281l9 38q52 244 -260 244q-119 0 -205 -46q-85 -45 -107 -119h-213q45 141 194 222q149 82 388 82q233 0 339 -95q106 -94 68 -270l-107 -503q-32 -153 -32 -193h-188q1 45 23 150q-62 -71 -175 -129q-112 -58 -310 -58q-196 0 -300 91 q-105 91 -73 242zM393 300q-16 -77 41 -138q58 -60 197 -60q190 0 304 87q116 87 154 265l10 47h-122q-352 0 -457 -46q-104 -45 -127 -155zM644 1269l43 205h205l-43 -205h-205zM943 1189zM943 1189zM1073 1269l43 205h205l-43 -205h-205zM1147 0z" />
<glyph unicode="&#xe5;" horiz-adv-x="1364" d="M179 296q38 176 194 260t474 84h281l9 38q52 244 -260 244q-119 0 -205 -46q-85 -45 -107 -119h-213q45 141 194 222q149 82 388 82q233 0 339 -95q106 -94 68 -270l-107 -503q-32 -153 -32 -193h-188q1 45 23 150q-62 -71 -175 -129q-112 -58 -310 -58q-196 0 -300 91 q-105 91 -73 242zM393 300q-16 -77 41 -138q58 -60 197 -60q190 0 304 87q116 87 154 265l10 47h-122q-352 0 -457 -46q-104 -45 -127 -155zM776 1365q18 84 91 144q73 61 158 61q86 0 134 -62q48 -61 29 -146q-18 -85 -92 -145q-73 -60 -159 -60q-85 0 -132 61t-29 147z M869 1363q-11 -49 14 -81q27 -32 76 -32q46 0 85 32q41 33 52 82q10 46 -17 79q-26 34 -72 34q-49 0 -89 -34t-49 -80zM943 1189zM943 1189zM1147 0z" />
<glyph unicode="&#xe6;" horiz-adv-x="2273" d="M176 282q33 155 176 235q144 80 420 80h399l12 53q24 127 -48 199q-71 73 -233 73q-264 0 -346 -197h-213q47 154 199 245q151 91 368 91q201 0 293 -54q92 -53 127 -156q189 210 495 210q256 0 370 -159t54 -444h-928q-26 -144 52 -250q79 -106 249 -106q128 0 225 59 q98 59 133 154h213q-59 -161 -222 -257q-162 -95 -373 -95q-173 0 -288 73t-140 171q-91 -120 -228 -182q-136 -62 -329 -62q-241 0 -353 91q-113 92 -84 228zM376 279q-14 -70 55 -124q71 -53 201 -53q244 0 361 106q118 106 149 250h-353q-173 0 -284 -47 q-110 -46 -129 -132zM1350 597h702q30 138 -42 231q-72 94 -236 94q-147 0 -262 -93t-162 -232z" />
<glyph unicode="&#xe7;" horiz-adv-x="1364" d="M224 508q56 259 247 406q192 147 477 147q220 0 338 -97q117 -96 103 -271h-213q9 115 -63 172q-71 57 -191 57q-180 0 -312 -110q-131 -110 -172 -300q-41 -191 44 -301q85 -109 253 -109q149 0 248 65q100 66 125 164h213q-45 -166 -217 -267q-173 -101 -407 -101 q-290 0 -408 149q-117 149 -65 396zM330 -386l50 85q69 -35 165 -35q128 0 143 68q13 63 -93 63q-39 0 -96 -16l-28 49l171 188h106l-153 -160q54 16 101 16q87 0 135 -39q49 -38 36 -100q-16 -76 -101 -119q-84 -43 -201 -43q-139 0 -235 43zM696 0zM696 0zM976 1189z" />
<glyph unicode="&#xe8;" horiz-adv-x="1364" d="M205 491q58 273 245 421q189 149 475 149q276 0 389 -143q112 -143 59 -394l-14 -66h-960q-20 -158 60 -257q81 -99 245 -99q137 0 240 62q104 63 146 151h213q-57 -165 -223 -259q-166 -93 -398 -93q-284 0 -406 145t-71 383zM437 597h738q31 144 -44 234 q-74 91 -241 91q-176 0 -291 -92q-114 -91 -162 -233zM708 1477h250l168 -288h-166zM776 0zM948 1189zM948 1189z" />
<glyph unicode="&#xe9;" horiz-adv-x="1364" d="M205 491q58 273 245 421q189 149 475 149q276 0 389 -143q112 -143 59 -394l-14 -66h-960q-20 -158 60 -257q81 -99 245 -99q137 0 240 62q104 63 146 151h213q-57 -165 -223 -259q-166 -93 -398 -93q-284 0 -406 145t-71 383zM437 597h738q31 144 -44 234 q-74 91 -241 91q-176 0 -291 -92q-114 -91 -162 -233zM772 1189l292 288h250l-376 -288h-166zM776 0zM948 1189zM948 1189z" />
<glyph unicode="&#xea;" horiz-adv-x="1364" d="M205 491q58 273 245 421q189 149 475 149q276 0 389 -143q112 -143 59 -394l-14 -66h-960q-20 -158 60 -257q81 -99 245 -99q137 0 240 62q104 63 146 151h213q-57 -165 -223 -259q-166 -93 -398 -93q-284 0 -406 145t-71 383zM437 597h738q31 144 -44 234 q-74 91 -241 91q-176 0 -291 -92q-114 -91 -162 -233zM589 1189l302 288h237l178 -288h-166l-148 210l-237 -210h-166zM776 0zM948 1189zM948 1189z" />
<glyph unicode="&#xeb;" horiz-adv-x="1364" d="M205 491q58 273 245 421q189 149 475 149q276 0 389 -143q112 -143 59 -394l-14 -66h-960q-20 -158 60 -257q81 -99 245 -99q137 0 240 62q104 63 146 151h213q-57 -165 -223 -259q-166 -93 -398 -93q-284 0 -406 145t-71 383zM437 597h738q31 144 -44 234 q-74 91 -241 91q-176 0 -291 -92q-114 -91 -162 -233zM649 1269l43 205h205l-43 -205h-205zM776 0zM948 1189zM948 1189zM1078 1269l43 205h205l-43 -205h-205z" />
<glyph unicode="&#xec;" horiz-adv-x="606" d="M204 0l218 1024h201l-218 -1024h-201zM226 1061zM319 1477h250l168 -288h-166zM559 1189zM559 1189z" />
<glyph unicode="&#xed;" horiz-adv-x="606" d="M204 0l218 1024h201l-218 -1024h-201zM226 1061zM383 1189l292 288h250l-376 -288h-166zM559 1189zM559 1189z" />
<glyph unicode="&#xee;" horiz-adv-x="606" d="M200 1189l302 288h237l178 -288h-166l-148 210l-237 -210h-166zM204 0l218 1024h201l-218 -1024h-201zM226 1061zM559 1189zM559 1189z" />
<glyph unicode="&#xef;" horiz-adv-x="606" d="M204 0l218 1024h201l-218 -1024h-201zM226 1061zM260 1269l43 205h205l-43 -205h-205zM559 1189zM559 1189zM689 1269l43 205h205l-43 -205h-205z" />
<glyph unicode="&#xf0;" d="M225 510q48 226 230 370t447 144q249 0 386 -137q-48 115 -152 217q-103 102 -181 147l-237 -131l-68 81l199 108q-113 65 -181 80l169 115q79 -32 203 -96l247 135l68 -81l-224 -115q258 -175 345 -380q88 -205 36 -447q-59 -275 -262 -416q-202 -141 -500 -141 q-316 0 -447 148q-132 149 -78 399zM433 487q-37 -172 60 -279q98 -106 288 -106q196 0 335 108q140 108 176 277q39 185 -58 291q-96 107 -297 107q-195 0 -331 -110q-135 -110 -173 -288z" />
<glyph unicode="&#xf1;" d="M188 0l169 792q28 133 40 232h188q-12 -97 -32 -187q205 224 505 224q230 0 338 -126q110 -126 60 -359l-123 -576h-201l120 565q35 163 -30 260t-224 97q-190 0 -327 -119q-136 -118 -179 -320l-103 -483h-201zM647 1237q24 112 79 174q55 63 152 63q53 0 170 -42 q119 -41 150 -41q42 0 71 25q29 26 36 58h122q-23 -108 -82 -166t-153 -58q-68 0 -187 37q-117 37 -144 37q-74 0 -92 -87h-122zM761 0zM1015 1189zM1015 1189z" />
<glyph unicode="&#xf2;" d="M224 508q56 261 252 407q197 146 509 146q318 0 449 -145t76 -404q-58 -271 -256 -410q-199 -139 -488 -139q-335 0 -466 145q-130 146 -76 400zM438 512q-41 -191 54 -301q95 -109 289 -109q197 0 336 111q140 111 180 299q39 184 -53 297q-93 113 -289 113 q-195 0 -336 -111q-141 -110 -181 -299zM773 1477h250l168 -288h-166zM1013 1189zM1013 1189z" />
<glyph unicode="&#xf3;" d="M224 508q56 261 252 407q197 146 509 146q318 0 449 -145t76 -404q-58 -271 -256 -410q-199 -139 -488 -139q-335 0 -466 145q-130 146 -76 400zM438 512q-41 -191 54 -301q95 -109 289 -109q197 0 336 111q140 111 180 299q39 184 -53 297q-93 113 -289 113 q-195 0 -336 -111q-141 -110 -181 -299zM837 1189l292 288h250l-376 -288h-166zM1013 1189zM1013 1189z" />
<glyph unicode="&#xf4;" d="M224 508q56 261 252 407q197 146 509 146q318 0 449 -145t76 -404q-58 -271 -256 -410q-199 -139 -488 -139q-335 0 -466 145q-130 146 -76 400zM438 512q-41 -191 54 -301q95 -109 289 -109q197 0 336 111q140 111 180 299q39 184 -53 297q-93 113 -289 113 q-195 0 -336 -111q-141 -110 -181 -299zM654 1189l302 288h237l178 -288h-166l-148 210l-237 -210h-166zM1013 1189zM1013 1189z" />
<glyph unicode="&#xf5;" d="M224 508q56 261 252 407q197 146 509 146q318 0 449 -145t76 -404q-58 -271 -256 -410q-199 -139 -488 -139q-335 0 -466 145q-130 146 -76 400zM438 512q-41 -191 54 -301q95 -109 289 -109q197 0 336 111q140 111 180 299q39 184 -53 297q-93 113 -289 113 q-195 0 -336 -111q-141 -110 -181 -299zM645 1237q24 112 79 174q55 63 152 63q53 0 170 -42q119 -41 150 -41q42 0 71 25q29 26 36 58h122q-23 -108 -82 -166t-153 -58q-68 0 -187 37q-117 37 -144 37q-74 0 -92 -87h-122zM1013 1189zM1013 1189z" />
<glyph unicode="&#xf6;" d="M224 508q56 261 252 407q197 146 509 146q318 0 449 -145t76 -404q-58 -271 -256 -410q-199 -139 -488 -139q-335 0 -466 145q-130 146 -76 400zM438 512q-41 -191 54 -301q95 -109 289 -109q197 0 336 111q140 111 180 299q39 184 -53 297q-93 113 -289 113 q-195 0 -336 -111q-141 -110 -181 -299zM714 1269l43 205h205l-43 -205h-205zM1013 1189zM1013 1189zM1143 1269l43 205h205l-43 -205h-205z" />
<glyph unicode="&#xf7;" horiz-adv-x="1229" d="M188 431l38 180h1046l-38 -180h-1046zM483 89q13 62 68 106q54 44 120 44q63 0 99 -44t23 -106q-14 -65 -69 -110q-55 -44 -118 -44q-66 0 -101 44q-36 45 -22 110zM668 957q13 62 68 106q54 44 120 44q63 0 99 -44t23 -106q-14 -65 -69 -110q-55 -44 -118 -44 q-66 0 -101 44q-36 45 -22 110z" />
<glyph unicode="&#xf8;" d="M157 -72l171 154q-164 141 -104 425q56 261 252 407q197 147 508 147q223 0 356 -77l189 173l50 -59l-168 -156q160 -143 99 -429q-56 -265 -254 -408q-196 -142 -493 -142q-260 0 -369 77l-190 -173zM438 511q-39 -181 45 -290l709 635q-91 66 -238 66q-194 0 -335 -111 t-181 -300zM537 169q92 -67 243 -67q198 0 337 111q140 111 180 299q39 182 -45 294z" />
<glyph unicode="&#xf9;" d="M226 1061zM284 448l122 576h201l-120 -565q-35 -164 33 -261q69 -96 222 -96q178 0 319 113t186 326l103 483h201l-169 -792q-28 -134 -40 -232h-188q11 96 31 187q-205 -224 -504 -224q-231 0 -339 125q-108 126 -58 360zM774 1477h250l168 -288h-166zM1014 1189z M1014 1189zM1288 0z" />
<glyph unicode="&#xfa;" d="M226 1061zM284 448l122 576h201l-120 -565q-35 -164 33 -261q69 -96 222 -96q178 0 319 113t186 326l103 483h201l-169 -792q-28 -134 -40 -232h-188q11 96 31 187q-205 -224 -504 -224q-231 0 -339 125q-108 126 -58 360zM838 1189l292 288h250l-376 -288h-166z M1014 1189zM1014 1189zM1288 0z" />
<glyph unicode="&#xfb;" d="M226 1061zM284 448l122 576h201l-120 -565q-35 -164 33 -261q69 -96 222 -96q178 0 319 113t186 326l103 483h201l-169 -792q-28 -134 -40 -232h-188q11 96 31 187q-205 -224 -504 -224q-231 0 -339 125q-108 126 -58 360zM655 1189l302 288h237l178 -288h-166l-148 210 l-237 -210h-166zM1014 1189zM1014 1189zM1288 0z" />
<glyph unicode="&#xfc;" d="M226 1061zM284 448l122 576h201l-120 -565q-35 -164 33 -261q69 -96 222 -96q178 0 319 113t186 326l103 483h201l-169 -792q-28 -134 -40 -232h-188q11 96 31 187q-205 -224 -504 -224q-231 0 -339 125q-108 126 -58 360zM715 1269l43 205h205l-43 -205h-205zM1014 1189 zM1014 1189zM1144 1269l43 205h205l-43 -205h-205zM1288 0z" />
<glyph unicode="&#xfd;" horiz-adv-x="1364" d="M226 1061zM240 1024h238l258 -840l619 840h213l-1051 -1424h-226l298 395zM764 1189l292 288h250l-376 -288h-166zM940 1189zM940 1189z" />
<glyph unicode="&#xfe;" d="M91 -400l399 1872h201l-129 -603q217 192 493 192q243 0 374 -158t82 -387q-53 -249 -253 -401t-429 -152q-302 0 -422 176l-115 -539h-201zM486 512q-39 -183 44 -297q84 -113 278 -113q179 0 313 110q136 111 176 300q41 190 -48 300q-88 110 -270 110 q-184 0 -319 -112q-134 -111 -174 -298z" />
<glyph unicode="&#xff;" horiz-adv-x="1364" d="M226 1061zM240 1024h238l258 -840l619 840h213l-1051 -1424h-226l298 395zM641 1269l43 205h205l-43 -205h-205zM940 1189zM940 1189zM1070 1269l43 205h205l-43 -205h-205z" />
<glyph unicode="&#x152;" horiz-adv-x="2730" d="M309 730q77 363 364 560t729 197h115q67 0 223 -8q157 -7 285 -7h798l-36 -169h-911l-98 -459h848l-36 -169h-848l-108 -506h944l-36 -169h-911q-56 0 -225 -8q-168 -7 -223 -7q-537 0 -744 194q-206 195 -130 551zM523 736q-59 -278 96 -430q156 -152 516 -152 q150 0 286 13l242 1137q-13 7 -114 10q-99 4 -142 4q-363 0 -594 -149q-229 -149 -290 -433z" />
<glyph unicode="&#x153;" horiz-adv-x="2425" d="M218 508q56 259 252 406t512 147q170 0 301 -65q133 -64 175 -175q83 111 210 175q128 65 319 65q262 0 373 -159q112 -159 59 -444h-960q-15 -158 63 -257t240 -99q139 0 245 64q107 65 146 149h213q-51 -156 -217 -254t-420 -98q-166 0 -274 63t-143 161 q-200 -224 -588 -224q-299 0 -430 144q-130 145 -76 401zM432 512q-41 -191 56 -301q97 -109 290 -109q196 0 335 112q139 113 178 298q39 184 -51 297q-91 113 -287 113q-195 0 -338 -111q-143 -110 -183 -299zM1488 597h734q31 142 -41 233q-70 92 -242 92t-288 -93 t-163 -232z" />
<glyph unicode="&#x178;" horiz-adv-x="1667" d="M322 1510zM330 1472h273l391 -684l684 684h273l-887 -857l-131 -615h-213l131 615zM860 1638l43 205h205l-43 -205h-205zM1159 1558zM1159 1558zM1289 1638l43 205h205l-43 -205h-205z" />
<glyph unicode="&#x2c6;" horiz-adv-x="606" d="M204 1184l302 288h237l178 -288h-166l-148 210l-237 -210h-166zM563 1184z" />
<glyph unicode="&#x2dc;" horiz-adv-x="606" d="M199 1232q24 112 79 174q55 63 152 63q53 0 170 -42q119 -41 150 -41q42 0 71 25q29 26 36 58h122q-23 -108 -82 -166t-153 -58q-68 0 -187 37q-117 37 -144 37q-74 0 -92 -87h-122zM567 1184z" />
<glyph unicode="&#x2000;" horiz-adv-x="969" />
<glyph unicode="&#x2001;" horiz-adv-x="1939" />
<glyph unicode="&#x2002;" horiz-adv-x="969" />
<glyph unicode="&#x2003;" horiz-adv-x="1939" />
<glyph unicode="&#x2004;" horiz-adv-x="646" />
<glyph unicode="&#x2005;" horiz-adv-x="484" />
<glyph unicode="&#x2006;" horiz-adv-x="323" />
<glyph unicode="&#x2007;" horiz-adv-x="323" />
<glyph unicode="&#x2008;" horiz-adv-x="242" />
<glyph unicode="&#x2009;" horiz-adv-x="387" />
<glyph unicode="&#x200a;" horiz-adv-x="107" />
<glyph unicode="&#x2010;" horiz-adv-x="909" d="M209 453l38 179h688l-38 -179h-688z" />
<glyph unicode="&#x2011;" horiz-adv-x="909" d="M209 453l38 179h688l-38 -179h-688z" />
<glyph unicode="&#x2012;" horiz-adv-x="909" d="M209 453l38 179h688l-38 -179h-688z" />
<glyph unicode="&#x2013;" horiz-adv-x="1024" d="M99 464l36 167h1024l-36 -167h-1024z" />
<glyph unicode="&#x2014;" horiz-adv-x="2048" d="M99 464l36 167h2048l-36 -167h-2048z" />
<glyph unicode="&#x2018;" horiz-adv-x="758" d="M-116 1040l291 432h169l-217 -432h-243z" />
<glyph unicode="&#x2019;" horiz-adv-x="758" d="M414 1040l217 432h243l-291 -432h-169z" />
<glyph unicode="&#x201a;" horiz-adv-x="758" d="M414 -332l217 432h243l-291 -432h-169z" />
<glyph unicode="&#x201c;" horiz-adv-x="1214" d="M-126 1040l291 432h169l-217 -432h-243zM338 1040l291 432h169l-217 -432h-243z" />
<glyph unicode="&#x201d;" horiz-adv-x="1214" d="M416 1040l217 432h243l-291 -432h-169zM880 1040l217 432h243l-291 -432h-169z" />
<glyph unicode="&#x201e;" horiz-adv-x="1214" d="M416 -332l217 432h243l-291 -432h-169zM880 -332l217 432h243l-291 -432h-169z" />
<glyph unicode="&#x2022;" horiz-adv-x="1024" d="M296 736q32 151 162 258t284 107q152 0 237 -107q85 -106 53 -258q-33 -154 -166 -263q-132 -108 -284 -108q-154 0 -237 108q-82 109 -49 263z" />
<glyph unicode="&#x2026;" horiz-adv-x="2048" d="M229 0l48 225h225l-48 -225h-225zM917 0l48 225h225l-48 -225h-225zM1605 0l48 225h225l-48 -225h-225z" />
<glyph unicode="&#x202f;" horiz-adv-x="387" />
<glyph unicode="&#x2039;" horiz-adv-x="758" d="M-17 544l364 400h169l-332 -400l162 -400h-179z" />
<glyph unicode="&#x203a;" horiz-adv-x="758" d="M242 144l332 400l-162 400h179l184 -400l-364 -400h-169z" />
<glyph unicode="&#x205f;" horiz-adv-x="484" />
<glyph unicode="&#x20ac;" d="M180 518l65 150h135q3 23 8 45q9 40 22 83h-170l65 150h166q118 239 316 377q199 138 463 138q212 0 343 -111q131 -110 128 -281h-213q-26 224 -302 224q-335 0 -509 -347h671l-65 -150h-667q-13 -41 -22 -82q-5 -23 -8 -46h638l-65 -150h-584q11 -189 97 -288t243 -99 q298 0 401 240h213q-57 -177 -227 -293q-170 -115 -439 -115q-256 0 -384 155t-133 400h-186z" />
<glyph unicode="&#x2122;" horiz-adv-x="2028" d="M338 1333l30 139h679l-30 -139h-250l-148 -693h-179l148 693h-250zM1057 640l178 832h256l103 -569l345 569h256l-178 -832h-169l137 640l-384 -640h-128l-110 640l-137 -640h-169z" />
<glyph unicode="&#x25fc;" horiz-adv-x="1025" d="M0 0v1025h1025v-1025h-1025z" />
</font>
</defs>
</svg>
