<?xml version="1.0" standalone="no"?>
<!DOCTYPE svg PUBLIC "-//W3C//DTD SVG 1.1//EN" "http://www.w3.org/Graphics/SVG/1.1/DTD/svg11.dtd" >
<svg xmlns="http://www.w3.org/2000/svg">
<metadata></metadata>
<defs>
<font id="universmedium_italic" horiz-adv-x="1284" >
<font-face units-per-em="2048" ascent="1638" descent="-410" />
<missing-glyph horiz-adv-x="680" />
<glyph horiz-adv-x="0" />
<glyph unicode="&#xd;" horiz-adv-x="680" />
<glyph unicode=" "  horiz-adv-x="680" />
<glyph unicode="&#x09;" horiz-adv-x="680" />
<glyph unicode="&#xa0;" horiz-adv-x="680" />
<glyph unicode="!" horiz-adv-x="680" d="M95 0l57 194h213l-57 -194h-213zM226 344l262 1053h228l-346 -1053h-144z" />
<glyph unicode="&#x22;" horiz-adv-x="1020" d="M431 921l90 476h223l-192 -476h-121zM764 921l90 476h223l-192 -476h-121z" />
<glyph unicode="#" d="M192 414l38 132h184l105 357h-188l38 132h193l108 362h145l-105 -362h237l112 362h142l-107 -362h171l-35 -132h-178l-107 -357h178l-41 -132h-175l-126 -414h-145l122 414h-238l-125 -414h-145l123 414h-181zM559 546h241l105 357h-234z" />
<glyph unicode="$" d="M287 413q0 49 20 125h184q-15 -57 -15 -92q0 -55 37 -85q38 -30 112 -30q97 0 166 48t69 118q0 76 -86 121l-132 71q-114 59 -156 113t-42 119q0 106 81 192q82 86 252 103l64 237h183l-64 -237q104 -25 144 -77q41 -51 41 -115q0 -32 -12 -91h-183q6 20 6 49 q0 48 -35 80q-35 33 -103 33q-78 0 -130 -39t-52 -102q0 -70 86 -117l187 -100q143 -77 143 -201q0 -108 -85 -206q-84 -98 -281 -121l-74 -266h-183l71 264q-112 22 -163 76q-50 54 -50 130z" />
<glyph unicode="%" horiz-adv-x="2039" d="M327 904q0 175 111 348q112 174 322 174q128 0 202 -72q75 -71 75 -185q0 -165 -110 -345q-109 -180 -320 -180q-132 0 -206 69t-74 191zM461 -73l1098 1521h136l-1095 -1521h-139zM472 907q0 -145 143 -150q121 4 199 144q78 141 78 269q0 140 -141 143 q-123 -2 -201 -148t-78 -258zM1134 231q0 177 109 349q110 173 324 173q128 0 202 -71q75 -71 75 -186q0 -167 -111 -346q-110 -179 -319 -179q-133 0 -207 69q-73 69 -73 191zM1279 234q0 -150 143 -150q124 0 200 145q77 145 77 268q0 143 -141 143q-126 0 -203 -147 q-76 -147 -76 -259z" />
<glyph unicode="&#x26;" horiz-adv-x="1548" d="M173 339q0 128 81 237q81 110 291 208q-35 66 -58 134t-23 144q0 155 106 259q106 105 279 105q144 0 224 -77q81 -77 81 -194q0 -139 -117 -250t-266 -172l299 -373q71 84 103 205q33 121 50 264h161q-17 -194 -63 -330t-143 -254l206 -245h-224l-114 120 q-114 -83 -217 -116q-102 -33 -210 -33q-197 0 -322 102q-124 102 -124 266zM373 356q0 -115 75 -182q75 -66 186 -66q94 0 187 44t136 85l-334 433q-142 -68 -196 -143t-54 -171zM634 1055q0 -41 11 -83t62 -126q160 71 218 140q59 69 59 156q0 69 -40 108t-102 39 q-83 0 -146 -64q-62 -64 -62 -170z" />
<glyph unicode="'" horiz-adv-x="680" d="M431 921l90 476h223l-192 -476h-121z" />
<glyph unicode="(" horiz-adv-x="680" d="M213 183q0 481 151 769q150 288 293 460h139q-297 -511 -371 -822q-75 -312 -75 -683q0 -50 -1 -100h-124q-12 225 -12 376z" />
<glyph unicode=")" horiz-adv-x="680" d="M-34 -193q297 511 371 822q75 312 75 683q0 50 1 100h124q12 -225 12 -376q0 -481 -151 -769q-150 -288 -293 -460h-139z" />
<glyph unicode="*" d="M431 1004v140l297 -30l-174 239l124 73l118 -275l119 275l121 -73l-174 -239l297 30v-140l-297 30l174 -242l-121 -70l-119 272l-118 -272l-124 70l174 242z" />
<glyph unicode="+" horiz-adv-x="2039" d="M476 509v119h520v520h119v-520h520v-119h-520v-520h-119v520h-520z" />
<glyph unicode="," horiz-adv-x="680" d="M-30 -241l250 476h255l-353 -476h-152z" />
<glyph unicode="-" horiz-adv-x="680" d="M91 459l40 134h490l-40 -134h-490z" />
<glyph unicode="." horiz-adv-x="680" d="M89 0l68 230h216l-68 -230h-216z" />
<glyph unicode="/" horiz-adv-x="680" d="M-137 -116l931 1513h124l-929 -1513h-126z" />
<glyph unicode="0" d="M128 420q0 341 189 673q189 333 540 333q199 0 321 -121q123 -120 123 -339q0 -335 -194 -665q-193 -330 -539 -330q-202 0 -321 113t-119 336zM320 426q0 -141 64 -225q65 -83 189 -83q232 0 384 276q152 277 152 568q0 139 -62 228t-185 89q-231 0 -387 -280 q-155 -280 -155 -573z" />
<glyph unicode="1" d="M446 966l59 198q159 59 232 104q74 46 176 129h151l-414 -1397h-197l338 1142q-71 -62 -174 -111q-103 -48 -171 -65z" />
<glyph unicode="2" d="M96 0l52 206q650 441 768 587q118 147 118 276q0 97 -61 156t-179 59q-113 0 -179 -53t-80 -177h-189q0 171 125 271q125 101 339 101q198 0 307 -102q109 -101 109 -258q0 -212 -204 -403t-673 -501h752l-49 -162h-956z" />
<glyph unicode="3" d="M128 299q0 55 12 103h186q-9 -53 -9 -94q0 -93 70 -142q71 -48 196 -48q157 0 263 87q107 88 107 221q0 109 -73 161q-73 53 -180 53q-57 0 -82 -5l35 164h52q190 0 290 70q100 71 100 193q0 91 -65 156q-64 66 -180 66q-110 0 -186 -58q-76 -57 -109 -172h-189 q36 181 166 276q130 96 323 96q202 0 317 -101q115 -100 115 -250q0 -128 -86 -227q-86 -98 -251 -141q195 -74 195 -273q0 -192 -154 -328q-153 -135 -414 -135q-223 0 -336 92t-113 236z" />
<glyph unicode="4" d="M55 342l41 157l907 898h241l-265 -893h250l-48 -162h-249l-101 -342h-198l101 342h-679zM300 504h482l200 675z" />
<glyph unicode="5" d="M136 314v43h189q0 -130 72 -185q72 -54 192 -54q161 0 276 134q115 135 115 314q0 104 -60 167t-171 63q-91 0 -172 -49q-80 -49 -156 -181h-186l270 831h800l-44 -162h-623l-133 -405q80 59 146 83q67 25 153 25q158 0 265 -94q108 -94 108 -261q0 -225 -156 -419 q-155 -193 -450 -193q-199 0 -317 88t-118 255z" />
<glyph unicode="6" d="M186 357q0 313 191 691t556 378q159 0 262 -75q104 -74 110 -237h-189q-17 97 -68 132t-131 35q-160 0 -269 -133q-108 -133 -186 -382q62 64 150 102q89 38 189 38q147 0 248 -90q102 -89 102 -268q0 -228 -148 -403q-147 -174 -402 -174q-189 0 -302 95 q-113 96 -113 291zM378 346q0 -95 59 -162q59 -66 175 -66q150 0 248 132q99 133 99 293q0 94 -57 158q-57 65 -156 65q-154 0 -261 -120t-107 -300z" />
<glyph unicode="7" d="M298 0l769 1235h-725l49 162h873l-26 -175l-705 -1222h-235z" />
<glyph unicode="8" d="M116 347q0 163 115 277q116 114 297 142q-174 100 -174 276q0 156 131 270q132 114 358 114q198 0 314 -91q117 -91 117 -246q0 -140 -104 -240q-104 -99 -247 -124q81 -31 149 -111t68 -198q0 -183 -160 -314t-396 -131q-202 0 -335 101t-133 275zM308 363 q0 -103 74 -174q75 -71 211 -71q144 0 249 86q106 86 106 228q0 91 -72 164q-71 73 -206 73q-149 0 -256 -89q-106 -88 -106 -217zM546 1038q0 -89 60 -150q61 -60 183 -60q125 0 209 67q84 68 84 188q0 87 -60 144t-177 57q-125 0 -212 -69t-87 -177z" />
<glyph unicode="9" d="M100 318l189 10q10 -122 70 -167t154 -45q177 0 290 146q114 146 170 397q-53 -54 -137 -86q-83 -32 -177 -32q-156 0 -259 90t-103 263q0 214 149 373t381 159q178 0 291 -98q114 -97 114 -288q0 -326 -174 -698q-174 -371 -556 -371q-183 0 -286 77q-102 78 -116 270z M489 891q0 -84 54 -147q55 -63 161 -63q141 0 238 105q98 106 98 265q0 104 -56 168q-55 65 -164 65q-138 0 -235 -117q-96 -117 -96 -276z" />
<glyph unicode=":" horiz-adv-x="680" d="M89 0l68 230h216l-68 -230h-216zM311 747l68 230h216l-68 -230h-216z" />
<glyph unicode=";" horiz-adv-x="680" d="M-30 -241l250 476h255l-353 -476h-152zM317 747l68 230h216l-68 -230h-216z" />
<glyph unicode="&#x3c;" horiz-adv-x="2039" d="M411 547l1219 -550v135l-1043 482l1043 498v135l-1219 -565v-135z" />
<glyph unicode="=" horiz-adv-x="2039" d="M476 335v119h1144v-119h-1144zM476 707v119h1144v-119h-1144z" />
<glyph unicode="&#x3e;" horiz-adv-x="2039" d="M411 -3v135l1043 482l-1043 498v135l1219 -565v-135z" />
<glyph unicode="?" horiz-adv-x="1057" d="M181 0l57 194h213l-57 -194h-213zM301 343l56 190q14 49 33 74q20 25 84 66l107 67q105 65 193 161q88 97 88 191q0 77 -59 127q-58 50 -161 50q-131 0 -271 -27l44 157q107 27 223 27q222 0 323 -92q102 -92 102 -230q0 -125 -76 -232q-75 -107 -199 -182l-169 -107 q-55 -32 -74 -52q-18 -19 -37 -76l-36 -112h-171z" />
<glyph unicode="@" horiz-adv-x="2040" d="M235 713q0 411 256 664t649 253q360 0 591 -234q232 -233 232 -625q0 -237 -100 -394q-100 -156 -289 -156q-113 0 -175 51t-75 141q-30 -89 -104 -139q-73 -49 -180 -49q-165 0 -268 126q-102 126 -102 336q0 202 104 328q105 126 279 126q81 0 139 -34q59 -34 103 -109 l-1 119h179v-548q0 -190 117 -190q78 0 127 99q49 100 49 290q0 325 -177 509q-176 185 -459 185q-298 0 -498 -200q-200 -199 -200 -544q0 -340 192 -548q192 -207 538 -207q69 0 157 13q89 13 145 32v-175q-56 -18 -133 -28q-76 -10 -150 -10q-425 0 -686 240 q-260 240 -260 678zM856 683q0 -141 54 -230q55 -88 162 -88q50 0 95 23q46 23 76 68q52 80 52 220q0 137 -45 214q-62 111 -172 111q-100 0 -161 -81t-61 -237z" />
<glyph unicode="A" horiz-adv-x="1511" d="M-82 0l1026 1397h209l149 -1397h-191l-38 349h-681l-244 -349h-230zM0 1426zM503 506h553l-52 733zM1043 1515zM1145 0z" />
<glyph unicode="B" d="M49 0l414 1397h420h63q176 0 269 -81q94 -81 94 -221q0 -154 -102 -262q-102 -107 -305 -120q141 -23 202 -99q61 -75 61 -180q0 -178 -136 -306q-135 -128 -418 -128h-65h-497zM297 165h252q253 0 333 88t80 194q0 77 -53 135t-203 58h-268zM486 800h207q239 0 332 78 t93 190q0 75 -53 122t-195 47h-255z" />
<glyph unicode="C" horiz-adv-x="1435" d="M176 448q0 374 216 676q217 302 612 302q217 0 329 -101q113 -100 113 -269q0 -32 -3 -61h-191v28q0 130 -75 193t-202 63q-260 0 -430 -259q-169 -258 -169 -558q0 -162 90 -251q91 -88 245 -88q119 0 213 60q95 61 132 189h227q-63 -196 -207 -299q-144 -102 -368 -102 q-250 0 -391 122t-141 355zM687 0zM1024 1515z" />
<glyph unicode="D" horiz-adv-x="1473" d="M0 1426zM39 0l414 1397h387h74q228 0 358 -130t130 -378q0 -341 -216 -615t-579 -274h-117h-451zM287 165h240h42q311 0 472 234q161 235 161 499q0 152 -75 245q-75 94 -272 94h-40h-210zM900 1515z" />
<glyph unicode="E" horiz-adv-x="1171" d="M0 1426zM49 0l414 1397h847l-47 -160h-648l-132 -444h621l-47 -160h-621l-139 -468h684l-49 -165h-883zM721 0zM905 1515z" />
<glyph unicode="F" horiz-adv-x="1133" d="M49 0l414 1397h847l-47 -160h-648l-138 -466h630l-47 -160h-630l-181 -611h-200z" />
<glyph unicode="G" horiz-adv-x="1511" d="M181 460q0 350 205 658q206 308 617 308q243 0 363 -100q117 -97 117 -259v-8l-1 -37h-194v15q0 142 -90 190q-95 52 -211 52q-275 0 -441 -262q-165 -262 -165 -551q0 -181 100 -262t304 -81q137 0 245 48l120 404h-335l47 160h535l-206 -695q-138 -41 -243 -55 t-193 -14q-285 0 -430 123q-144 123 -144 366zM749 0zM1026 1515z" />
<glyph unicode="H" horiz-adv-x="1473" d="M0 1426zM33 0l414 1397h200l-175 -590h700l175 590h200l-414 -1397h-200l192 647h-700l-192 -647h-200zM985 1515z" />
<glyph unicode="I" horiz-adv-x="566" d="M0 1426zM33 0l414 1397h200l-414 -1397h-200zM106 0zM570 1515z" />
<glyph unicode="J" horiz-adv-x="1133" d="M0 1426zM6 267q0 38 7 69q7 32 25 81h199q-11 -34 -21 -72t-10 -74q0 -68 47 -108t129 -40q139 0 229 95q91 96 160 323l254 856h200l-256 -863q-103 -348 -251 -456q-147 -107 -348 -107q-177 0 -271 79q-93 80 -93 217zM1108 1515z" />
<glyph unicode="K" horiz-adv-x="1360" d="M70 0l414 1397h200l-176 -611l702 611h270l-774 -655l460 -742h-224l-455 715l-217 -715h-200zM614 0z" />
<glyph unicode="L" horiz-adv-x="1095" d="M0 1426zM49 0l414 1397h200l-365 -1232h647l-49 -165h-847zM519 0zM604 1515z" />
<glyph unicode="M" horiz-adv-x="1850" d="M49 0l431 1397h312l43 -1173l739 1173h336l-372 -1397h-193l344 1282l-819 -1282h-197l-72 1261l-370 -1261h-182z" />
<glyph unicode="N" horiz-adv-x="1473" d="M0 1426zM42 0l414 1397h261l320 -1179l349 1179h185l-414 -1397h-243l-325 1211l-362 -1211h-185zM639 0zM1053 1515z" />
<glyph unicode="O" horiz-adv-x="1548" d="M173 465q0 334 207 647q208 314 599 314q242 0 375 -126q134 -126 134 -380q0 -345 -212 -647q-211 -302 -584 -302q-242 0 -381 126q-138 126 -138 368zM373 457q0 -145 81 -240q82 -94 241 -94q259 0 426 263q167 264 167 545q0 180 -89 264q-88 84 -233 84 q-255 0 -424 -256q-169 -255 -169 -566zM1041 1515z" />
<glyph unicode="P" horiz-adv-x="1208" d="M45 0l414 1397h464q209 0 301 -86q93 -86 93 -226q0 -214 -138 -355q-137 -141 -502 -141h-258l-174 -589h-200zM466 749h249q199 0 300 80q102 81 102 229q0 95 -59 137t-178 42h-269z" />
<glyph unicode="Q" horiz-adv-x="1586" d="M185 448q0 351 209 664q209 314 603 314q239 0 371 -128q132 -127 132 -382q0 -238 -102 -453q-102 -214 -273 -316h330l-39 -147h-292q-136 0 -276 -15q-140 -14 -187 -14q-227 0 -352 126q-124 127 -124 351zM385 475q0 -352 307 -352q280 0 444 253q164 254 164 569 q0 167 -89 250q-88 84 -233 84q-265 0 -429 -264t-164 -540z" />
<glyph unicode="R" horiz-adv-x="1322" d="M0 1426zM45 0l414 1397h479q208 0 310 -84q103 -84 103 -216q0 -139 -106 -253q-105 -113 -309 -145q92 -14 141 -62q50 -47 50 -176q0 -55 -9 -174q-9 -118 -9 -168q0 -71 20 -119h-200q-13 30 -13 87q0 50 9 165q10 115 10 187q0 98 -52 146t-259 48h-192l-187 -633 h-200zM479 793h224q245 0 346 79q102 80 102 193q0 84 -60 128q-59 44 -209 44h-271zM608 0zM919 1515z" />
<glyph unicode="S" horiz-adv-x="1322" d="M104 292q0 64 21 125h185q-12 -62 -12 -98q0 -89 76 -143q77 -53 222 -53q167 0 281 71q115 71 115 183q0 92 -89 150q-88 58 -182 106l-153 78q-122 65 -182 135q-59 71 -59 174q0 166 147 286q148 120 398 120q209 0 337 -80q129 -79 129 -242q0 -53 -3 -94h-194 q3 30 3 58q0 115 -73 160q-72 46 -191 46q-166 0 -261 -63t-95 -161q0 -79 75 -128t135 -79l169 -86q169 -85 227 -166q59 -81 59 -186q0 -182 -163 -308q-162 -126 -447 -126q-225 0 -350 82t-125 239zM557 0zM919 1515z" />
<glyph unicode="T" d="M0 1426zM292 1237l47 160h1144l-47 -160h-439l-366 -1237h-200l366 1237h-505zM506 0zM982 1515z" />
<glyph unicode="U" horiz-adv-x="1473" d="M0 1426zM163 366q0 117 48 282l222 749h200l-224 -756q-52 -173 -52 -249v-6q1 -132 77 -198q76 -65 197 -65q141 0 248 82q108 83 172 247q21 49 35 95l28 94l224 756h200l-223 -752q-17 -58 -32 -108t-39 -114q-86 -218 -244 -335q-157 -117 -378 -117q-210 0 -335 111 q-124 112 -124 284zM765 0zM1005 1515z" />
<glyph unicode="V" horiz-adv-x="1473" d="M327 1397h209l189 -1201l732 1201h209l-877 -1397h-209z" />
<glyph unicode="W" horiz-adv-x="2039" d="M297 1397h206l97 -1206l574 1206h212l98 -1206l578 1206h200l-713 -1397h-212l-100 1217l-579 -1217h-212z" />
<glyph unicode="X" horiz-adv-x="1473" d="M-21 0l708 726l-365 671h224l283 -546l536 546h249l-691 -698l379 -699h-223l-301 568l-535 -568h-264z" />
<glyph unicode="Y" horiz-adv-x="1397" d="M0 1426zM309 1397h209l262 -715l572 715h221l-726 -868l-157 -529h-200l160 540zM986 1515z" />
<glyph unicode="Z" horiz-adv-x="1246" d="M-30 0l24 169l1085 1068h-785l45 160h1013l-36 -186l-1085 -1046h851l-49 -165h-1063zM0 1426zM873 1515z" />
<glyph unicode="[" horiz-adv-x="680" d="M30 -182l465 1570h367l-23 -77h-193l-419 -1416h193l-23 -77h-367z" />
<glyph unicode="\" horiz-adv-x="680" d="M300 1397h105l88 -1516h-105z" />
<glyph unicode="]" horiz-adv-x="680" d="M-107 -182l23 77h193l419 1416h-193l23 77h367l-465 -1570h-367z" />
<glyph unicode="^" horiz-adv-x="1020" d="M115 992v93q262 179 357 446h105q106 -262 357 -446v-93q-223 73 -410 248q-178 -169 -409 -248z" />
<glyph unicode="_" horiz-adv-x="1020" d="M0 -400h1020v-105h-1020v105z" />
<glyph unicode="`" d="M609 1397h209l103 -297h-132zM792 1100z" />
<glyph unicode="a" horiz-adv-x="1095" d="M48 228q0 166 144 280q145 115 504 115h93q25 85 25 137q0 58 -49 92q-48 34 -135 34q-98 0 -150 -39t-80 -122h-194q43 153 147 217q105 65 278 65q180 0 274 -64q95 -64 95 -172q0 -79 -70 -322q-70 -242 -107 -449h-175l19 123q-70 -79 -155 -114t-174 -35 q-130 0 -210 67q-80 68 -80 187zM242 247q0 -144 153 -144q121 0 219 100t151 301h-76q-223 0 -335 -64t-112 -193zM673 1096zM680 0z" />
<glyph unicode="b" horiz-adv-x="1171" d="M17 0l418 1412h188l-155 -524q87 67 158 93q72 26 148 26q135 0 219 -89q85 -88 85 -246q0 -232 -141 -465q-140 -233 -403 -233q-107 0 -178 38q-71 39 -111 125l-58 -137h-170zM312 296q0 -86 52 -140q53 -53 140 -53q151 0 265 188q115 189 115 387q0 208 -178 208 q-167 0 -281 -214q-113 -213 -113 -376z" />
<glyph unicode="c" horiz-adv-x="1095" d="M93 297q0 252 152 481q153 229 445 229q144 0 242 -65q98 -64 98 -190q0 -49 -14 -87h-188q8 48 8 86q0 61 -46 98q-45 37 -117 37q-169 0 -278 -197q-108 -197 -108 -402q0 -184 187 -184q77 0 142 36q65 37 122 162h194q-46 -156 -168 -242q-122 -85 -320 -85 q-168 0 -260 90q-91 90 -91 233zM446 0zM720 1096z" />
<glyph unicode="d" horiz-adv-x="1171" d="M92 309q0 245 149 471q150 227 406 227q81 0 158 -35q78 -34 125 -114l164 554h188l-418 -1412h-169l24 108q-79 -67 -158 -101q-79 -33 -163 -33q-139 0 -223 90q-83 90 -83 245zM286 308q0 -205 178 -205q176 0 291 217q115 218 115 373q0 75 -53 134q-52 59 -143 59 q-157 0 -273 -192q-115 -192 -115 -386z" />
<glyph unicode="e" horiz-adv-x="1095" d="M96 297q0 252 154 481t445 229q164 0 258 -79q95 -79 95 -217q0 -117 -45 -257h-685q-28 -102 -28 -160q0 -83 53 -137t152 -54q81 0 145 37q65 38 118 131h194q-78 -163 -198 -230t-297 -67q-181 0 -271 88q-90 89 -90 235zM360 583h466q28 76 28 141q0 79 -49 120 q-49 42 -127 42q-109 0 -186 -72q-77 -71 -132 -231zM591 0zM721 1096z" />
<glyph unicode="f" horiz-adv-x="755" d="M104 0l252 850h-193l39 131h193l63 207q72 235 331 235q59 0 149 -12l-38 -127q-37 2 -72 2q-155 0 -197 -143l-48 -162h213l-39 -131h-213l-252 -850h-188z" />
<glyph unicode="g" horiz-adv-x="1171" d="M-9 -144q0 44 3 78h194q-3 -32 -3 -66q0 -61 45 -97q45 -35 131 -35q123 0 193 72t119 215q17 53 32 108q-76 -65 -142 -88q-65 -23 -136 -23q-148 0 -239 90q-90 91 -90 249q0 217 146 432q147 216 406 216q102 0 170 -39q69 -39 115 -119l39 132h171l-283 -955 q-74 -243 -198 -331t-314 -88q-170 0 -265 62q-94 62 -94 187zM292 359q0 -210 201 -210q172 0 274 216q103 216 103 343q0 70 -50 124t-142 54q-159 0 -273 -178q-113 -177 -113 -349zM704 1096z" />
<glyph unicode="h" horiz-adv-x="1171" d="M11 0l418 1412h188l-164 -554q91 83 180 116q90 33 186 33q116 0 191 -66q75 -65 75 -174q0 -75 -23 -156l-181 -611h-188l181 610q19 63 19 113q0 47 -17 82q-34 73 -143 73q-143 0 -244 -120q-101 -119 -161 -322l-129 -436h-188zM832 1501z" />
<glyph unicode="i" horiz-adv-x="491" d="M11 0l291 981h188l-291 -981h-188zM82 0zM347 1219l58 195h211l-58 -195h-211z" />
<glyph unicode="j" horiz-adv-x="491" d="M-251 -372l39 131h27q64 0 100 35q37 35 58 108l320 1079h188l-318 -1074l-11 -34q-44 -150 -114 -202q-70 -51 -172 -51q-66 0 -117 8zM336 1219l58 195h211l-58 -195h-211z" />
<glyph unicode="k" horiz-adv-x="1095" d="M17 0l418 1412h188l-234 -795l448 364h259l-539 -422l332 -559h-205l-315 548l-164 -548h-188zM477 0z" />
<glyph unicode="l" horiz-adv-x="491" d="M11 0l418 1412h188l-418 -1412h-188zM109 0zM528 1501z" />
<glyph unicode="m" horiz-adv-x="1775" d="M11 0l291 981h159l-33 -123q87 84 176 116q90 33 178 33q86 0 151 -38q66 -38 105 -140q153 178 377 178q132 0 208 -66q77 -65 77 -154q0 -63 -52 -234l-164 -553h-188l165 556q19 67 30 111q11 41 11 75v6q-2 54 -41 92q-38 38 -111 38q-125 0 -219 -102 q-93 -102 -148 -286l-145 -490h-188l164 552l20 70q18 62 18 109q0 49 -20 82q-39 65 -129 65q-121 0 -216 -110q-94 -110 -143 -278l-145 -490h-188z" />
<glyph unicode="n" horiz-adv-x="1171" d="M11 0l291 981h166l-30 -137q84 87 181 125q98 38 199 38q120 0 193 -66q73 -65 73 -178q0 -80 -37 -194l-169 -569h-188l170 573q23 84 29 133q2 16 2 31q0 31 -10 57q-14 38 -53 61q-38 23 -87 23q-131 0 -239 -109q-108 -108 -189 -385l-114 -384h-188zM451 0z M743 1096z" />
<glyph unicode="o" horiz-adv-x="1171" d="M82 309q0 234 148 466q149 232 447 232q188 0 287 -88q100 -87 100 -243q0 -231 -152 -467q-151 -235 -454 -235q-186 0 -281 88q-95 89 -95 247zM276 302q0 -93 49 -146q50 -53 146 -53q177 0 288 207t111 383q0 85 -49 139t-144 54q-170 0 -286 -190 q-115 -189 -115 -394zM726 1096z" />
<glyph unicode="p" horiz-adv-x="1171" d="M-97 -356l396 1337h160l-18 -108q94 79 173 106q79 28 155 28q127 0 213 -88q87 -87 87 -247q0 -235 -145 -467q-145 -231 -420 -231q-83 0 -158 31q-74 32 -118 103l-137 -464h-188zM291 285q0 -72 51 -131t144 -59q151 0 270 190q119 191 119 402q0 89 -46 141t-135 52 q-169 0 -286 -206t-117 -389z" />
<glyph unicode="q" horiz-adv-x="1171" d="M89 309q0 245 146 471q147 227 402 227q119 0 188 -47q70 -46 106 -109l50 130h170l-396 -1337h-188l131 441q-140 -111 -297 -111q-141 0 -227 88q-85 89 -85 247zM283 308q0 -95 45 -150t134 -55q169 0 283 203q114 204 114 390q0 85 -56 137q-56 53 -140 53 q-155 0 -268 -191q-112 -191 -112 -387z" />
<glyph unicode="r" horiz-adv-x="718" d="M25 0l291 981h156l-32 -167q86 111 156 152q71 41 152 41q17 0 18 -1q2 0 45 -5l-61 -187q-45 4 -78 4q-119 0 -196 -93t-131 -278l-132 -447h-188zM109 0zM586 1096z" />
<glyph unicode="s" horiz-adv-x="1020" d="M30 210q0 48 23 106h182q-11 -55 -11 -90q0 -48 47 -86q48 -37 137 -37q95 0 178 44q83 45 83 122q0 56 -45 87t-156 87q-121 58 -198 113t-77 154q0 126 118 211q119 86 316 86q153 0 242 -59q90 -59 90 -175q0 -30 -3 -63h-191v21q0 155 -170 155q-77 0 -143 -32 q-65 -32 -65 -96q0 -60 69 -102q70 -42 105 -62l103 -53q122 -65 160 -118q39 -53 39 -124q0 -155 -133 -240t-329 -85q-182 0 -277 59q-94 59 -94 177zM367 0zM676 1096z" />
<glyph unicode="t" horiz-adv-x="755" d="M162 850l39 131h204l59 200l204 53l-75 -253h208l-39 -131h-208l-162 -546q-26 -87 -26 -132q0 -23 7 -35q22 -34 88 -34q43 0 113 16l-38 -127q-23 -6 -67 -12t-96 -6q-87 0 -142 42q-55 43 -55 112q0 80 45 231l145 491h-204zM318 0z" />
<glyph unicode="u" horiz-adv-x="1171" d="M0 1007zM80 212q0 86 47 242l156 527h188l-156 -525q-39 -135 -39 -212q0 -47 14 -73q38 -68 132 -68q118 0 223 100q106 101 194 397l113 381h188l-207 -671q-67 -219 -84 -310h-160l33 137q-172 -163 -351 -163q-149 0 -220 66t-71 172zM690 0zM739 1096z" />
<glyph unicode="v" horiz-adv-x="1133" d="M193 981h194l119 -805l485 805h205l-639 -981h-186z" />
<glyph unicode="w" horiz-adv-x="1775" d="M219 981h197l70 -789l432 789h203l74 -789l429 789h211l-595 -981h-203l-63 763l-433 -763h-203z" />
<glyph unicode="x" horiz-adv-x="1133" d="M-34 0l483 510l-244 471h205l173 -330l313 330h214l-452 -475l261 -506h-205l-189 364l-345 -364h-214z" />
<glyph unicode="y" horiz-adv-x="1133" d="M0 1007zM177 -356l225 366l-225 971h183l173 -768l444 768h211l-820 -1337h-191zM706 1096z" />
<glyph unicode="z" horiz-adv-x="982" d="M-3 0l31 157l694 664h-534l48 160h742l-31 -161l-680 -660h539l-39 -160h-770zM0 1007zM639 1096z" />
<glyph unicode="{" horiz-adv-x="906" d="M243 481l37 156q71 14 110 43q61 42 105 135q36 82 89 358q50 245 142 315q92 71 268 71h66l-37 -156q-126 0 -168 -34q-41 -34 -63 -122l-89 -372q-35 -136 -88 -202q-52 -66 -150 -119q90 -89 90 -207q0 -128 -52 -332q-52 -203 -52 -241t30 -58q30 -19 133 -24 l-37 -156h-40q-154 0 -217 50q-63 51 -63 158q0 76 52 262t52 282q0 93 -31 141q-22 34 -87 52z" />
<glyph unicode="|" horiz-adv-x="1020" d="M461 -505v2036h105v-2036h-105z" />
<glyph unicode="}" horiz-adv-x="906" d="M-149 -464l37 156h26q88 0 137 45q49 46 82 185l45 192q50 198 113 283q63 86 155 126q-42 36 -66 97q-24 62 -24 170q8 109 56 296t48 235q0 49 -36 65q-36 17 -127 17l37 156h82q134 0 186 -59q52 -58 52 -149q0 -51 -24 -162q-24 -110 -52 -215q-28 -108 -28 -184 q0 -132 58 -169q19 -13 60 -24l-37 -156q-42 -9 -62 -17q-72 -30 -117 -97q-44 -67 -81 -228l-44 -177q-54 -230 -136 -308t-240 -78h-100z" />
<glyph unicode="~" horiz-adv-x="2039" d="M415 464q52 89 149 162q97 74 196 74q29 0 80 -7t258 -68q77 -23 164 -41q88 -18 131 -18q62 0 120 31q59 32 127 103l38 -21q-58 -121 -144 -192q-85 -70 -183 -70q-53 0 -152 23q-99 24 -286 75q-126 36 -198 36t-136 -29t-132 -90z" />
<glyph unicode="&#xa1;" horiz-adv-x="680" d="M-38 -424l346 1053h144l-262 -1053h-228zM313 779l57 194h213l-57 -194h-213z" />
<glyph unicode="&#xa2;" d="M284 498q0 118 39 248q40 131 121 256q112 176 299 206l29 5l67 240h179l-66 -237q209 -66 209 -233q0 -36 -15 -95h-186q12 55 12 86q0 121 -135 121q-132 0 -222 -145q-38 -63 -89 -208q-50 -144 -50 -246q0 -158 166 -158q81 0 130 46q50 46 101 146h189 q-42 -148 -151 -235t-242 -87l-72 -258h-174l75 269q-214 63 -214 279z" />
<glyph unicode="&#xa3;" d="M78 0l39 130h107l171 576h-149l39 130h148l65 219q63 198 197 284q134 87 314 87q182 0 264 -71t82 -157q0 -36 -13 -84h-189q6 34 6 59q0 54 -43 88q-42 35 -119 35q-92 0 -178 -60q-86 -59 -124 -181l-65 -219h276l-39 -130h-275l-171 -576h621l-39 -130h-925z" />
<glyph unicode="&#xa4;" d="M215 323l137 138q-47 69 -68 134q-20 66 -20 149q0 97 29 166q30 70 59 108l-137 138l80 80l138 -138q75 50 134 69q60 20 142 20q96 0 166 -28q71 -27 115 -61l138 138l80 -80l-140 -138q28 -27 59 -108q32 -81 32 -173q0 -94 -28 -163q-27 -69 -61 -113l138 -138 l-80 -80l-138 137q-65 -49 -137 -69q-72 -19 -139 -19q-90 0 -164 26q-74 27 -117 62l-138 -137zM386 739q0 -138 96 -232q97 -93 230 -93q134 0 229 95q96 96 96 231q0 123 -92 224q-91 101 -234 101q-134 0 -230 -96q-95 -95 -95 -230z" />
<glyph unicode="&#xa5;" d="M146 144l31 103h311l31 104h-312l31 103h311l24 81l-324 862h212l249 -704l595 704h223l-759 -868l-22 -75h352l-31 -103h-352l-31 -104h353l-31 -103h-352l-43 -144h-197l43 144h-312z" />
<glyph unicode="&#xa6;" horiz-adv-x="1020" d="M461 -452v922h105v-922h-105zM461 574v922h105v-922h-105z" />
<glyph unicode="&#xa7;" d="M392 664q0 90 60 158q61 69 174 109q-124 45 -162 98t-38 133q0 126 105 194t262 68q73 0 124 -12q51 -11 86 -21v-145q-80 28 -125 36q-44 8 -88 8q-79 0 -128 -34t-49 -99q0 -59 44 -91q45 -31 170 -73q236 -77 236 -239q0 -88 -58 -148q-57 -59 -164 -89 q124 -49 177 -110q53 -60 53 -143q0 -118 -96 -205q-95 -86 -285 -86q-60 0 -123 8t-138 27v158q157 -59 252 -59q87 0 145 39t58 109q0 59 -45 94q-44 35 -157 70l-98 30q-192 60 -192 215zM558 712q0 -60 43 -97q43 -36 123 -58q181 53 181 175q0 59 -48 97 q-47 39 -133 62q-89 -35 -128 -82q-38 -47 -38 -97z" />
<glyph unicode="&#xa8;" d="M580 1204l61 202h190l-59 -202h-192zM814 1100zM935 1204l60 202h191l-61 -202h-190z" />
<glyph unicode="&#xa9;" horiz-adv-x="1020" d="M325 1041q0 187 136 331t338 144q192 0 333 -139t141 -337q0 -188 -137 -332q-136 -143 -337 -143q-193 0 -334 138q-140 139 -140 338zM396 1040q0 -157 114 -281q114 -123 289 -123q162 0 282 117q121 117 121 288q0 156 -115 280q-114 124 -288 124q-166 0 -285 -119 q-118 -119 -118 -286zM548 1058q0 111 77 192q78 82 190 82q50 0 99 -19q50 -18 95 -55l-63 -63q-20 23 -55 43q-35 21 -80 21q-79 0 -135 -61q-55 -60 -55 -143q0 -81 53 -142q54 -61 136 -61q39 0 77 22q38 23 64 57l58 -63q-27 -34 -84 -62q-57 -27 -112 -27 q-107 0 -186 80q-79 81 -79 199z" />
<glyph unicode="&#xaa;" horiz-adv-x="831" d="M232 933q0 115 105 180q105 66 384 66q13 49 13 78q0 34 -36 55q-35 21 -80 21q-110 0 -139 -85h-151q24 93 97 135q74 43 188 43q130 0 195 -41t65 -119q0 -45 -34 -162l-48 -171q-31 -111 -31 -159h-134l19 86q-24 -32 -89 -64q-64 -32 -137 -32q-77 0 -132 42 q-55 43 -55 127zM368 939q0 -34 26 -56q27 -21 68 -21q70 0 135 54q66 55 99 167q-195 0 -262 -42q-66 -41 -66 -102z" />
<glyph unicode="&#xab;" horiz-adv-x="1133" d="M163 480l324 372h166l-309 -402l87 -342h-137zM579 480l322 372h168l-309 -409l87 -335h-139z" />
<glyph unicode="&#xac;" horiz-adv-x="2039" d="M476 767v119h1144v-639h-119v520h-1025z" />
<glyph unicode="&#xad;" horiz-adv-x="680" d="M91 459l40 134h490l-40 -134h-490z" />
<glyph unicode="&#xae;" horiz-adv-x="1020" d="M325 1041q0 187 136 331t338 144q192 0 333 -139t141 -337q0 -188 -137 -332q-136 -143 -337 -143q-193 0 -334 138q-140 139 -140 338zM396 1040q0 -157 114 -281q114 -123 289 -123q162 0 282 117q121 117 121 288q0 156 -115 280q-114 124 -288 124q-166 0 -285 -119 q-118 -119 -118 -286zM650 803v505h161q152 0 152 -147q0 -91 -84 -131l90 -227h-97l-79 211h-70v-211h-73zM723 1087h92q75 0 75 73q0 75 -75 75h-92v-148z" />
<glyph unicode="&#xaf;" horiz-adv-x="1020" d="M0 1531v105h1020v-105h-1020z" />
<glyph unicode="&#xb0;" d="M416 1049q0 162 97 269q97 108 277 108q164 0 260 -98q97 -98 97 -259q0 -160 -99 -268q-99 -107 -281 -107q-164 0 -258 90q-93 91 -93 265zM567 1058q0 -121 56 -189q57 -67 157 -67q88 0 152 67t64 201q0 103 -52 175q-52 73 -152 73q-97 0 -161 -72q-64 -71 -64 -188 z" />
<glyph unicode="&#xb1;" horiz-adv-x="2039" d="M476 0v119h1159v-119h-1159zM476 624v119h520v416h119v-416h520v-119h-520v-416h-119v416h-520z" />
<glyph unicode="&#xb2;" horiz-adv-x="793" d="M178 669l37 126q123 71 287 206q165 136 165 239q0 36 -29 64t-81 28q-43 0 -76 -23t-44 -82h-137q15 100 88 154q74 54 193 54q114 0 175 -60q61 -59 61 -148q0 -120 -129 -241q-128 -120 -282 -201h348l-30 -116h-546z" />
<glyph unicode="&#xb3;" horiz-adv-x="793" d="M187 828q0 19 7 56h132q-2 -16 -2 -32q0 -44 38 -66t90 -22q75 0 129 43q55 44 55 103q0 45 -41 72q-40 27 -140 27l24 107h25q61 0 131 27q71 27 71 89q0 44 -35 72t-83 28q-53 0 -88 -31q-34 -31 -50 -74h-141q13 95 86 151q73 57 188 57q124 0 191 -53t67 -137 q0 -65 -45 -118q-44 -52 -133 -70q108 -36 108 -147q0 -109 -94 -179q-93 -70 -237 -70q-114 0 -184 41q-69 42 -69 126z" />
<glyph unicode="&#xb4;" d="M684 1100l219 297h242l-296 -297h-165zM808 1100z" />
<glyph unicode="&#xb5;" horiz-adv-x="1133" d="M-125 -342q126 284 196 519q71 235 102 338l133 466h193l-166 -579q-24 -90 -24 -144q0 -60 45 -102t115 -42q111 0 193 116t158 385l104 366h188l-147 -510q-73 -253 -73 -471h-188q0 104 9 169q-64 -111 -129 -153t-135 -42q-87 0 -133 45q-46 46 -59 114l-171 -475 h-211z" />
<glyph unicode="&#xb6;" d="M277 1033q0 211 162 347q163 136 499 136h189v-78h-138v-1765h-79v1765h-98v-1765h-79v892q-253 43 -355 174q-101 131 -101 294z" />
<glyph unicode="&#xb8;" d="M238 -377l215 253h171l-174 -253h-212zM509 0z" />
<glyph unicode="&#xb9;" horiz-adv-x="793" d="M372 1174l40 134q127 37 243 119h104l-225 -758h-141l173 583q-126 -67 -194 -78z" />
<glyph unicode="&#xba;" horiz-adv-x="831" d="M223 992q0 152 101 293q102 141 305 141q127 0 200 -54q74 -54 74 -161q0 -152 -103 -300q-103 -147 -309 -147q-129 0 -199 57q-69 57 -69 171zM368 981q0 -52 33 -87q33 -34 92 -34q113 0 189 124t76 236q0 51 -32 80q-32 30 -91 30q-99 0 -183 -112t-84 -237z" />
<glyph unicode="&#xbb;" horiz-adv-x="1133" d="M59 108l309 409l-87 335h139l129 -372l-322 -372h-168zM475 108l309 402l-87 342h137l131 -372l-324 -372h-166z" />
<glyph unicode="&#xbc;" horiz-adv-x="2039" d="M388 -73l1095 1506h139l-1092 -1506h-142zM500 1174l40 134q127 37 243 119h104l-225 -758h-141l173 583q-126 -67 -194 -78zM1017 174l28 109l486 471h163l-140 -473h128l-32 -107h-128l-53 -178h-133l53 178h-372zM1181 281h239l96 323z" />
<glyph unicode="&#xbd;" horiz-adv-x="2039" d="M346 -73l1095 1506h139l-1092 -1506h-142zM463 1174l40 134q127 37 243 119h104l-225 -758h-141l173 583q-126 -67 -194 -78zM1094 -4l37 126q123 71 287 206q165 136 165 239q0 36 -29 64t-81 28q-43 0 -76 -23t-44 -82h-137q15 100 88 154q74 54 193 54q114 0 175 -60 q61 -59 61 -148q0 -120 -129 -241q-128 -120 -282 -201h348l-30 -116h-546z" />
<glyph unicode="&#xbe;" horiz-adv-x="2039" d="M354 828q0 19 7 56h132q-2 -16 -2 -32q0 -44 38 -66t90 -22q75 0 129 43q55 44 55 103q0 45 -41 72q-40 27 -140 27l24 107h25q61 0 131 27q71 27 71 89q0 44 -35 72t-83 28q-53 0 -88 -31q-34 -31 -50 -74h-141q13 95 86 151q73 57 188 57q124 0 191 -53t67 -137 q0 -65 -45 -118q-44 -52 -133 -70q108 -36 108 -147q0 -109 -94 -179q-93 -70 -237 -70q-114 0 -184 41q-69 42 -69 126zM517 -73l1095 1506h139l-1092 -1506h-142zM1160 174l28 109l486 471h163l-140 -473h128l-32 -107h-128l-53 -178h-133l53 178h-372zM1324 281h239 l96 323z" />
<glyph unicode="&#xbf;" horiz-adv-x="1057" d="M30 -131q0 125 76 232q75 107 199 182l169 107q55 32 74 52q18 19 37 76l36 112h171l-56 -190q-14 -49 -33 -74q-20 -25 -84 -66l-107 -67q-105 -65 -193 -161q-88 -97 -88 -191q0 -77 59 -127q58 -50 161 -50q131 0 271 27l-44 -157q-107 -27 -223 -27q-222 0 -323 92 q-102 92 -102 230zM642 779l57 194h213l-57 -194h-213z" />
<glyph unicode="&#xc0;" horiz-adv-x="1511" d="M-82 0l1026 1397h209l149 -1397h-191l-38 349h-681l-244 -349h-230zM0 1426zM503 506h553l-52 733zM860 1812h209l103 -297h-132zM1043 1515zM1043 1515zM1145 0z" />
<glyph unicode="&#xc1;" horiz-adv-x="1511" d="M-82 0l1026 1397h209l149 -1397h-191l-38 349h-681l-244 -349h-230zM0 1426zM503 506h553l-52 733zM919 1515l219 297h242l-296 -297h-165zM1043 1515zM1043 1515zM1145 0z" />
<glyph unicode="&#xc2;" horiz-adv-x="1511" d="M-82 0l1026 1397h209l149 -1397h-191l-38 349h-681l-244 -349h-230zM0 1426zM503 506h553l-52 733zM733 1515l327 297h183l119 -297h-138l-98 176l-231 -176h-162zM1043 1515zM1043 1515zM1145 0z" />
<glyph unicode="&#xc3;" horiz-adv-x="1511" d="M-82 0l1026 1397h209l149 -1397h-191l-38 349h-681l-244 -349h-230zM0 1426zM503 506h553l-52 733zM755 1551q51 235 198 235q67 0 146 -48q79 -47 125 -47q52 0 81 88h126q-44 -235 -198 -235q-66 0 -152 49q-85 49 -120 49q-55 0 -80 -91h-126zM1043 1515zM1043 1515z M1145 0z" />
<glyph unicode="&#xc4;" horiz-adv-x="1511" d="M-82 0l1026 1397h209l149 -1397h-191l-38 349h-681l-244 -349h-230zM0 1426zM503 506h553l-52 733zM809 1619l61 202h190l-59 -202h-192zM1043 1515zM1043 1515zM1145 0zM1164 1619l60 202h191l-61 -202h-190z" />
<glyph unicode="&#xc5;" horiz-adv-x="1511" d="M-82 0l1026 1397h209l149 -1397h-191l-38 349h-681l-244 -349h-230zM0 1426zM503 506h553l-52 733zM858 1760q0 98 69 164t161 66q91 0 160 -64t69 -166q0 -98 -68 -164t-162 -66q-97 0 -163 66t-66 164zM975 1760q0 -50 32 -81t81 -31q47 0 79 30q33 31 33 82 q0 44 -30 78q-29 34 -82 34t-83 -33t-30 -79zM1043 1515zM1043 1515zM1145 0z" />
<glyph unicode="&#xc6;" horiz-adv-x="2001" d="M-124 0l1227 1397h1047l-45 -160h-756l-64 -430h662l-45 -160h-638l-73 -467v-15h632l-45 -165h-817l59 356h-597l-304 -356h-243zM562 516h482l126 723z" />
<glyph unicode="&#xc7;" horiz-adv-x="1435" d="M176 448q0 374 216 676q217 302 612 302q217 0 329 -101q113 -100 113 -269q0 -32 -3 -61h-191v28q0 130 -75 193t-202 63q-260 0 -430 -259q-169 -258 -169 -558q0 -162 90 -251q91 -88 245 -88q119 0 213 60q95 61 132 189h227q-63 -196 -207 -299q-144 -102 -368 -102 q-250 0 -391 122t-141 355zM416 -377l215 253h171l-174 -253h-212zM687 0zM687 0zM1024 1515z" />
<glyph unicode="&#xc8;" horiz-adv-x="1171" d="M0 1426zM49 0l414 1397h847l-47 -160h-648l-132 -444h621l-47 -160h-621l-139 -468h684l-49 -165h-883zM721 0zM722 1812h209l103 -297h-132zM905 1515zM905 1515z" />
<glyph unicode="&#xc9;" horiz-adv-x="1171" d="M0 1426zM49 0l414 1397h847l-47 -160h-648l-132 -444h621l-47 -160h-621l-139 -468h684l-49 -165h-883zM721 0zM781 1515l219 297h242l-296 -297h-165zM905 1515zM905 1515z" />
<glyph unicode="&#xca;" horiz-adv-x="1171" d="M0 1426zM49 0l414 1397h847l-47 -160h-648l-132 -444h621l-47 -160h-621l-139 -468h684l-49 -165h-883zM595 1515l327 297h183l119 -297h-138l-98 176l-231 -176h-162zM721 0zM905 1515zM905 1515z" />
<glyph unicode="&#xcb;" horiz-adv-x="1171" d="M0 1426zM49 0l414 1397h847l-47 -160h-648l-132 -444h621l-47 -160h-621l-139 -468h684l-49 -165h-883zM671 1619l61 202h190l-59 -202h-192zM721 0zM905 1515zM905 1515zM1026 1619l60 202h191l-61 -202h-190z" />
<glyph unicode="&#xcc;" horiz-adv-x="566" d="M0 1426zM33 0l414 1397h200l-414 -1397h-200zM106 0zM387 1812h209l103 -297h-132zM570 1515zM570 1515z" />
<glyph unicode="&#xcd;" horiz-adv-x="566" d="M0 1426zM33 0l414 1397h200l-414 -1397h-200zM106 0zM446 1515l219 297h242l-296 -297h-165zM570 1515zM570 1515z" />
<glyph unicode="&#xce;" horiz-adv-x="566" d="M0 1426zM33 0l414 1397h200l-414 -1397h-200zM106 0zM260 1515l327 297h183l119 -297h-138l-98 176l-231 -176h-162zM570 1515zM570 1515z" />
<glyph unicode="&#xcf;" horiz-adv-x="566" d="M0 1426zM33 0l414 1397h200l-414 -1397h-200zM106 0zM336 1619l61 202h190l-59 -202h-192zM570 1515zM570 1515zM691 1619l60 202h191l-61 -202h-190z" />
<glyph unicode="&#xd0;" horiz-adv-x="1473" d="M39 0l194 655h-130l40 135h130l180 607h387h81q230 0 355 -135q126 -135 126 -373q0 -320 -205 -605q-205 -284 -604 -284h-103h-451zM288 165h240h55q284 0 451 227q168 228 168 506q0 150 -75 244q-75 95 -263 95h-49h-210l-132 -447h290l-40 -135h-290z" />
<glyph unicode="&#xd1;" horiz-adv-x="1473" d="M0 1426zM42 0l414 1397h261l320 -1179l349 1179h185l-414 -1397h-243l-325 1211l-362 -1211h-185zM639 0zM765 1551q51 235 198 235q67 0 146 -48q79 -47 125 -47q52 0 81 88h126q-44 -235 -198 -235q-66 0 -152 49q-85 49 -120 49q-55 0 -80 -91h-126zM1053 1515z M1053 1515z" />
<glyph unicode="&#xd2;" horiz-adv-x="1548" d="M173 465q0 334 207 647q208 314 599 314q242 0 375 -126q134 -126 134 -380q0 -345 -212 -647q-211 -302 -584 -302q-242 0 -381 126q-138 126 -138 368zM373 457q0 -145 81 -240q82 -94 241 -94q259 0 426 263q167 264 167 545q0 180 -89 264q-88 84 -233 84 q-255 0 -424 -256q-169 -255 -169 -566zM858 1812h209l103 -297h-132zM1041 1515zM1041 1515z" />
<glyph unicode="&#xd3;" horiz-adv-x="1548" d="M173 465q0 334 207 647q208 314 599 314q242 0 375 -126q134 -126 134 -380q0 -345 -212 -647q-211 -302 -584 -302q-242 0 -381 126q-138 126 -138 368zM373 457q0 -145 81 -240q82 -94 241 -94q259 0 426 263q167 264 167 545q0 180 -89 264q-88 84 -233 84 q-255 0 -424 -256q-169 -255 -169 -566zM917 1515l219 297h242l-296 -297h-165zM1041 1515zM1041 1515z" />
<glyph unicode="&#xd4;" horiz-adv-x="1548" d="M173 465q0 334 207 647q208 314 599 314q242 0 375 -126q134 -126 134 -380q0 -345 -212 -647q-211 -302 -584 -302q-242 0 -381 126q-138 126 -138 368zM373 457q0 -145 81 -240q82 -94 241 -94q259 0 426 263q167 264 167 545q0 180 -89 264q-88 84 -233 84 q-255 0 -424 -256q-169 -255 -169 -566zM731 1515l327 297h183l119 -297h-138l-98 176l-231 -176h-162zM1041 1515zM1041 1515z" />
<glyph unicode="&#xd5;" horiz-adv-x="1548" d="M173 465q0 334 207 647q208 314 599 314q242 0 375 -126q134 -126 134 -380q0 -345 -212 -647q-211 -302 -584 -302q-242 0 -381 126q-138 126 -138 368zM373 457q0 -145 81 -240q82 -94 241 -94q259 0 426 263q167 264 167 545q0 180 -89 264q-88 84 -233 84 q-255 0 -424 -256q-169 -255 -169 -566zM753 1551q51 235 198 235q67 0 146 -48q79 -47 125 -47q52 0 81 88h126q-44 -235 -198 -235q-66 0 -152 49q-85 49 -120 49q-55 0 -80 -91h-126zM1041 1515zM1041 1515z" />
<glyph unicode="&#xd6;" horiz-adv-x="1548" d="M173 465q0 334 207 647q208 314 599 314q242 0 375 -126q134 -126 134 -380q0 -345 -212 -647q-211 -302 -584 -302q-242 0 -381 126q-138 126 -138 368zM373 457q0 -145 81 -240q82 -94 241 -94q259 0 426 263q167 264 167 545q0 180 -89 264q-88 84 -233 84 q-255 0 -424 -256q-169 -255 -169 -566zM807 1619l61 202h190l-59 -202h-192zM1041 1515zM1041 1515zM1162 1619l60 202h191l-61 -202h-190z" />
<glyph unicode="&#xd7;" horiz-adv-x="2039" d="M580 139l432 432l-432 432l81 81l432 -432l432 432l81 -81l-432 -432l432 -432l-81 -81l-432 432l-432 -432z" />
<glyph unicode="&#xd8;" horiz-adv-x="1548" d="M9 85l199 164q-35 83 -35 207q0 363 214 666q215 304 600 304q147 0 249 -47q102 -46 170 -135l185 154l73 -84l-206 -171q30 -101 30 -207q0 -359 -209 -662t-594 -303q-130 0 -240 43q-110 44 -180 139l-186 -154zM373 480q0 -61 5 -87l873 723q-38 79 -111 121 q-72 42 -170 42q-264 0 -431 -261q-166 -261 -166 -538zM418 281q33 -72 106 -115t171 -43q273 0 433 273t160 531v72z" />
<glyph unicode="&#xd9;" horiz-adv-x="1473" d="M0 1426zM163 366q0 117 48 282l222 749h200l-224 -756q-54 -179 -52 -255q1 -132 77 -198q76 -65 197 -65q141 0 248 82q108 83 172 247q21 49 35 95l28 94l224 756h200l-223 -752q-17 -58 -32 -108t-39 -114q-86 -218 -244 -335q-157 -117 -378 -117q-210 0 -335 111 q-124 112 -124 284zM765 0zM822 1812h209l103 -297h-132zM1005 1515zM1005 1515z" />
<glyph unicode="&#xda;" horiz-adv-x="1473" d="M0 1426zM163 366q0 117 48 282l222 749h200l-224 -756q-54 -179 -52 -255q1 -132 77 -198q76 -65 197 -65q141 0 248 82q108 83 172 247q21 49 35 95l28 94l224 756h200l-223 -752q-17 -58 -32 -108t-39 -114q-86 -218 -244 -335q-157 -117 -378 -117q-210 0 -335 111 q-124 112 -124 284zM765 0zM881 1515l219 297h242l-296 -297h-165zM1005 1515zM1005 1515z" />
<glyph unicode="&#xdb;" horiz-adv-x="1473" d="M0 1426zM163 366q0 117 48 282l222 749h200l-224 -756q-54 -179 -52 -255q1 -132 77 -198q76 -65 197 -65q141 0 248 82q108 83 172 247q21 49 35 95l28 94l224 756h200l-223 -752q-17 -58 -32 -108t-39 -114q-86 -218 -244 -335q-157 -117 -378 -117q-210 0 -335 111 q-124 112 -124 284zM695 1515l327 297h183l119 -297h-138l-98 176l-231 -176h-162zM765 0zM1005 1515zM1005 1515z" />
<glyph unicode="&#xdc;" horiz-adv-x="1473" d="M0 1426zM163 366q0 117 48 282l222 749h200l-224 -756q-54 -179 -52 -255q1 -132 77 -198q76 -65 197 -65q141 0 248 82q108 83 172 247q21 49 35 95l28 94l224 756h200l-223 -752q-17 -58 -32 -108t-39 -114q-86 -218 -244 -335q-157 -117 -378 -117q-210 0 -335 111 q-124 112 -124 284zM765 0zM771 1619l61 202h190l-59 -202h-192zM1005 1515zM1005 1515zM1126 1619l60 202h191l-61 -202h-190z" />
<glyph unicode="&#xdd;" horiz-adv-x="1397" d="M0 1426zM309 1397h209l262 -715l572 715h221l-726 -868l-157 -529h-200l160 540zM862 1515l219 297h242l-296 -297h-165zM986 1515zM986 1515z" />
<glyph unicode="&#xde;" horiz-adv-x="1208" d="M45 0l414 1397h200l-84 -284h238q241 0 328 -89t87 -242q0 -197 -133 -341q-132 -143 -482 -143h-280l-88 -298h-200zM380 458h267q178 0 278 82t100 233q0 91 -53 135q-53 45 -160 45h-18h-267z" />
<glyph unicode="&#xdf;" horiz-adv-x="1246" d="M28 0l311 1051q57 194 187 283t338 89q182 0 282 -74t100 -198q0 -81 -48 -142t-113 -112q-93 -69 -141 -105q-47 -36 -47 -73q0 -32 36 -76t106 -115q114 -116 114 -240q0 -133 -109 -224q-108 -90 -311 -90q-169 0 -254 55t-85 154q0 22 3 45t9 43h187q-2 -7 -4 -21 q-1 -14 -1 -34q0 -52 43 -83q43 -30 112 -30q85 0 150 46q66 47 66 137q0 46 -25 83q-25 38 -107 121q-46 48 -85 110q-39 63 -39 123q0 35 24 82q25 47 138 129q98 72 142 123q45 52 45 96q0 65 -54 107t-153 42q-126 0 -203 -61q-77 -60 -114 -188l-312 -1053h-188z" />
<glyph unicode="&#xe0;" horiz-adv-x="1095" d="M48 228q0 166 144 280q145 115 504 115h93q25 85 25 137q0 58 -49 92q-48 34 -135 34q-98 0 -150 -39t-80 -122h-194q43 153 147 217q105 65 278 65q180 0 274 -64q95 -64 95 -172q0 -79 -70 -322q-70 -242 -107 -449h-175l19 123q-70 -79 -155 -114t-174 -35 q-130 0 -210 67q-80 68 -80 187zM242 247q0 -144 153 -144q121 0 219 100t151 301h-76q-223 0 -335 -64t-112 -193zM490 1393h209l103 -297h-132zM673 1096zM673 1096zM680 0z" />
<glyph unicode="&#xe1;" horiz-adv-x="1095" d="M48 228q0 166 144 280q145 115 504 115h93q25 85 25 137q0 58 -49 92q-48 34 -135 34q-98 0 -150 -39t-80 -122h-194q43 153 147 217q105 65 278 65q180 0 274 -64q95 -64 95 -172q0 -79 -70 -322q-70 -242 -107 -449h-175l19 123q-70 -79 -155 -114t-174 -35 q-130 0 -210 67q-80 68 -80 187zM242 247q0 -144 153 -144q121 0 219 100t151 301h-76q-223 0 -335 -64t-112 -193zM549 1096l219 297h242l-296 -297h-165zM673 1096zM673 1096zM680 0z" />
<glyph unicode="&#xe2;" horiz-adv-x="1095" d="M48 228q0 166 144 280q145 115 504 115h93q25 85 25 137q0 58 -49 92q-48 34 -135 34q-98 0 -150 -39t-80 -122h-194q43 153 147 217q105 65 278 65q180 0 274 -64q95 -64 95 -172q0 -79 -70 -322q-70 -242 -107 -449h-175l19 123q-70 -79 -155 -114t-174 -35 q-130 0 -210 67q-80 68 -80 187zM242 247q0 -144 153 -144q121 0 219 100t151 301h-76q-223 0 -335 -64t-112 -193zM363 1096l327 297h183l119 -297h-138l-98 176l-231 -176h-162zM673 1096zM673 1096zM680 0z" />
<glyph unicode="&#xe3;" horiz-adv-x="1095" d="M48 228q0 166 144 280q145 115 504 115h93q25 85 25 137q0 58 -49 92q-48 34 -135 34q-98 0 -150 -39t-80 -122h-194q43 153 147 217q105 65 278 65q180 0 274 -64q95 -64 95 -172q0 -79 -70 -322q-70 -242 -107 -449h-175l19 123q-70 -79 -155 -114t-174 -35 q-130 0 -210 67q-80 68 -80 187zM242 247q0 -144 153 -144q121 0 219 100t151 301h-76q-223 0 -335 -64t-112 -193zM385 1132q51 235 198 235q67 0 146 -48q79 -47 125 -47q52 0 81 88h126q-44 -235 -198 -235q-66 0 -152 49q-85 49 -120 49q-55 0 -80 -91h-126zM673 1096z M673 1096zM680 0z" />
<glyph unicode="&#xe4;" horiz-adv-x="1095" d="M48 228q0 166 144 280q145 115 504 115h93q25 85 25 137q0 58 -49 92q-48 34 -135 34q-98 0 -150 -39t-80 -122h-194q43 153 147 217q105 65 278 65q180 0 274 -64q95 -64 95 -172q0 -79 -70 -322q-70 -242 -107 -449h-175l19 123q-70 -79 -155 -114t-174 -35 q-130 0 -210 67q-80 68 -80 187zM242 247q0 -144 153 -144q121 0 219 100t151 301h-76q-223 0 -335 -64t-112 -193zM439 1200l61 202h190l-59 -202h-192zM673 1096zM673 1096zM680 0zM794 1200l60 202h191l-61 -202h-190z" />
<glyph unicode="&#xe5;" horiz-adv-x="1095" d="M48 228q0 166 144 280q145 115 504 115h93q25 85 25 137q0 58 -49 92q-48 34 -135 34q-98 0 -150 -39t-80 -122h-194q43 153 147 217q105 65 278 65q180 0 274 -64q95 -64 95 -172q0 -79 -70 -322q-70 -242 -107 -449h-175l19 123q-70 -79 -155 -114t-174 -35 q-130 0 -210 67q-80 68 -80 187zM242 247q0 -144 153 -144q121 0 219 100t151 301h-76q-223 0 -335 -64t-112 -193zM488 1341q0 98 69 164t161 66q91 0 160 -64t69 -166q0 -98 -68 -164t-162 -66q-97 0 -163 66t-66 164zM605 1341q0 -50 32 -81t81 -31q47 0 79 30 q33 31 33 82q0 44 -30 78q-29 34 -82 34t-83 -33t-30 -79zM673 1096zM673 1096zM680 0z" />
<glyph unicode="&#xe6;" horiz-adv-x="1737" d="M51 226q0 166 146 280t534 114h68q10 36 17 73q8 37 8 65q0 59 -49 93q-49 35 -138 35q-99 0 -152 -39t-82 -122h-194q42 149 148 215q106 67 272 67q114 0 194 -35q80 -34 127 -114q90 86 169 117q80 32 172 32q149 0 248 -76t99 -220q0 -115 -45 -257h-685 q-28 -102 -28 -160q0 -84 54 -138q54 -53 151 -53q81 0 144 38q63 39 119 130h194q-77 -162 -196 -230q-118 -67 -293 -67q-236 0 -314 182q-152 -182 -395 -182q-131 0 -212 67t-81 185zM245 246q0 -143 156 -143q123 0 222 99q100 100 153 299l-92 -3q-271 -8 -355 -81 t-84 -171zM950 583h466q28 89 28 141q0 162 -176 162q-109 0 -183 -70q-73 -69 -135 -233z" />
<glyph unicode="&#xe7;" horiz-adv-x="1095" d="M93 297q0 252 152 481q153 229 445 229q144 0 242 -65q98 -64 98 -190q0 -49 -14 -87h-188q8 48 8 86q0 61 -46 98q-45 37 -117 37q-169 0 -278 -197q-108 -197 -108 -402q0 -184 187 -184q77 0 142 36q65 37 122 162h194q-46 -156 -168 -242q-122 -85 -320 -85 q-168 0 -260 90q-91 90 -91 233zM175 -377l215 253h171l-174 -253h-212zM446 0zM446 0zM720 1096z" />
<glyph unicode="&#xe8;" horiz-adv-x="1095" d="M96 297q0 252 154 481t445 229q164 0 258 -79q95 -79 95 -217q0 -117 -45 -257h-685q-28 -102 -28 -160q0 -83 53 -137t152 -54q81 0 145 37q65 38 118 131h194q-78 -163 -198 -230t-297 -67q-181 0 -271 88q-90 89 -90 235zM360 583h466q28 76 28 141q0 79 -49 120 q-49 42 -127 42q-109 0 -186 -72q-77 -71 -132 -231zM538 1393h209l103 -297h-132zM591 0zM721 1096zM721 1096z" />
<glyph unicode="&#xe9;" horiz-adv-x="1095" d="M96 297q0 252 154 481t445 229q164 0 258 -79q95 -79 95 -217q0 -117 -45 -257h-685q-28 -102 -28 -160q0 -83 53 -137t152 -54q81 0 145 37q65 38 118 131h194q-78 -163 -198 -230t-297 -67q-181 0 -271 88q-90 89 -90 235zM360 583h466q28 76 28 141q0 79 -49 120 q-49 42 -127 42q-109 0 -186 -72q-77 -71 -132 -231zM591 0zM597 1096l219 297h242l-296 -297h-165zM721 1096zM721 1096z" />
<glyph unicode="&#xea;" horiz-adv-x="1095" d="M96 297q0 252 154 481t445 229q164 0 258 -79q95 -79 95 -217q0 -117 -45 -257h-685q-28 -102 -28 -160q0 -83 53 -137t152 -54q81 0 145 37q65 38 118 131h194q-78 -163 -198 -230t-297 -67q-181 0 -271 88q-90 89 -90 235zM360 583h466q28 76 28 141q0 79 -49 120 q-49 42 -127 42q-109 0 -186 -72q-77 -71 -132 -231zM411 1096l327 297h183l119 -297h-138l-98 176l-231 -176h-162zM591 0zM721 1096zM721 1096z" />
<glyph unicode="&#xeb;" horiz-adv-x="1095" d="M96 297q0 252 154 481t445 229q164 0 258 -79q95 -79 95 -217q0 -117 -45 -257h-685q-28 -102 -28 -160q0 -83 53 -137t152 -54q81 0 145 37q65 38 118 131h194q-78 -163 -198 -230t-297 -67q-181 0 -271 88q-90 89 -90 235zM360 583h466q28 76 28 141q0 79 -49 120 q-49 42 -127 42q-109 0 -186 -72q-77 -71 -132 -231zM487 1200l61 202h190l-59 -202h-192zM591 0zM721 1096zM721 1096zM842 1200l60 202h191l-61 -202h-190z" />
<glyph unicode="&#xec;" horiz-adv-x="491" d="M0 1007zM11 0l291 981h188l-291 -981h-188zM223 1393h209l103 -297h-132zM406 1096zM406 1096z" />
<glyph unicode="&#xed;" horiz-adv-x="491" d="M0 1007zM11 0l291 981h188l-291 -981h-188zM282 1096l219 297h242l-296 -297h-165zM406 1096zM406 1096z" />
<glyph unicode="&#xee;" horiz-adv-x="491" d="M0 1007zM11 0l291 981h188l-291 -981h-188zM96 1096l327 297h183l119 -297h-138l-98 176l-231 -176h-162zM406 1096zM406 1096z" />
<glyph unicode="&#xef;" horiz-adv-x="491" d="M0 1007zM11 0l291 981h188l-291 -981h-188zM172 1200l61 202h190l-59 -202h-192zM406 1096zM406 1096zM527 1200l60 202h191l-61 -202h-190z" />
<glyph unicode="&#xf0;" horiz-adv-x="1171" d="M93 309q0 242 151 470t431 228q53 0 112 -12q60 -11 107 -41q-35 125 -93 200l-192 -58l-34 98l152 47q-64 72 -129 116l158 55q72 -62 127 -124l184 58l34 -100l-148 -46q137 -218 137 -480q0 -277 -155 -512q-155 -234 -460 -234q-187 0 -285 88q-97 89 -97 247z M287 311q0 -102 51 -155q52 -53 151 -53q173 0 290 204t117 383q0 86 -50 141q-49 55 -147 55q-176 0 -294 -190t-118 -385z" />
<glyph unicode="&#xf1;" horiz-adv-x="1171" d="M11 0l291 981h166l-30 -137q84 87 181 125q98 38 199 38q120 0 193 -66q73 -65 73 -178q0 -80 -37 -194l-169 -569h-188l170 573q23 84 29 133q7 50 -8 88q-14 38 -53 61q-38 23 -87 23q-131 0 -239 -109q-108 -108 -189 -385l-114 -384h-188zM451 0zM455 1132 q51 235 198 235q67 0 146 -48q79 -47 125 -47q52 0 81 88h126q-44 -235 -198 -235q-66 0 -152 49q-85 49 -120 49q-55 0 -80 -91h-126zM743 1096zM743 1096z" />
<glyph unicode="&#xf2;" horiz-adv-x="1171" d="M82 309q0 234 148 466q149 232 447 232q188 0 287 -88q100 -87 100 -243q0 -231 -152 -467q-151 -235 -454 -235q-186 0 -281 88q-95 89 -95 247zM276 302q0 -93 49 -146q50 -53 146 -53q177 0 288 207t111 383q0 85 -49 139t-144 54q-170 0 -286 -190 q-115 -189 -115 -394zM543 1393h209l103 -297h-132zM726 1096zM726 1096z" />
<glyph unicode="&#xf3;" horiz-adv-x="1171" d="M82 309q0 234 148 466q149 232 447 232q188 0 287 -88q100 -87 100 -243q0 -231 -152 -467q-151 -235 -454 -235q-186 0 -281 88q-95 89 -95 247zM276 302q0 -93 49 -146q50 -53 146 -53q177 0 288 207t111 383q0 85 -49 139t-144 54q-170 0 -286 -190 q-115 -189 -115 -394zM602 1096l219 297h242l-296 -297h-165zM726 1096zM726 1096z" />
<glyph unicode="&#xf4;" horiz-adv-x="1171" d="M82 309q0 234 148 466q149 232 447 232q188 0 287 -88q100 -87 100 -243q0 -231 -152 -467q-151 -235 -454 -235q-186 0 -281 88q-95 89 -95 247zM276 302q0 -93 49 -146q50 -53 146 -53q177 0 288 207t111 383q0 85 -49 139t-144 54q-170 0 -286 -190 q-115 -189 -115 -394zM416 1096l327 297h183l119 -297h-138l-98 176l-231 -176h-162zM726 1096zM726 1096z" />
<glyph unicode="&#xf5;" horiz-adv-x="1171" d="M82 309q0 234 148 466q149 232 447 232q188 0 287 -88q100 -87 100 -243q0 -231 -152 -467q-151 -235 -454 -235q-186 0 -281 88q-95 89 -95 247zM276 302q0 -93 49 -146q50 -53 146 -53q177 0 288 207t111 383q0 85 -49 139t-144 54q-170 0 -286 -190 q-115 -189 -115 -394zM438 1132q51 235 198 235q67 0 146 -48q79 -47 125 -47q52 0 81 88h126q-44 -235 -198 -235q-66 0 -152 49q-85 49 -120 49q-55 0 -80 -91h-126zM726 1096zM726 1096z" />
<glyph unicode="&#xf6;" horiz-adv-x="1171" d="M82 309q0 234 148 466q149 232 447 232q188 0 287 -88q100 -87 100 -243q0 -231 -152 -467q-151 -235 -454 -235q-186 0 -281 88q-95 89 -95 247zM276 302q0 -93 49 -146q50 -53 146 -53q177 0 288 207t111 383q0 85 -49 139t-144 54q-170 0 -286 -190 q-115 -189 -115 -394zM492 1200l61 202h190l-59 -202h-192zM726 1096zM726 1096zM847 1200l60 202h191l-61 -202h-190z" />
<glyph unicode="&#xf7;" horiz-adv-x="2039" d="M476 509v119h1141v-119h-1141zM952 278q0 40 27 68q28 29 68 29q38 0 66 -29q28 -28 28 -68t-28 -68q-27 -28 -65 -28q-40 0 -68 28t-28 68zM952 857q0 40 27 69q28 29 67 29t67 -29q28 -28 28 -68t-28 -68t-66 -28q-40 0 -68 27q-27 28 -27 68z" />
<glyph unicode="&#xf8;" horiz-adv-x="1171" d="M-5 63l117 96q-30 79 -30 160q0 252 156 470t441 218q95 0 178 -28q84 -27 136 -87l105 85l62 -72l-118 -97q22 -56 22 -123q0 -225 -151 -468t-447 -243q-95 0 -176 24q-80 25 -126 80l-107 -89zM276 296l577 478q-50 112 -177 112q-169 0 -285 -188 q-115 -188 -115 -402zM302 192q24 -47 65 -68t101 -21q166 0 273 175q107 176 129 388z" />
<glyph unicode="&#xf9;" horiz-adv-x="1171" d="M0 1007zM80 212q0 86 47 242l156 527h188l-156 -525q-63 -216 -25 -285q38 -68 132 -68q118 0 223 100q106 101 194 397l113 381h188l-207 -671q-67 -219 -84 -310h-160l33 137q-172 -163 -351 -163q-149 0 -220 66t-71 172zM556 1393h209l103 -297h-132zM690 0z M739 1096zM739 1096z" />
<glyph unicode="&#xfa;" horiz-adv-x="1171" d="M0 1007zM80 212q0 86 47 242l156 527h188l-156 -525q-63 -216 -25 -285q38 -68 132 -68q118 0 223 100q106 101 194 397l113 381h188l-207 -671q-67 -219 -84 -310h-160l33 137q-172 -163 -351 -163q-149 0 -220 66t-71 172zM615 1096l219 297h242l-296 -297h-165zM690 0 zM739 1096zM739 1096z" />
<glyph unicode="&#xfb;" horiz-adv-x="1171" d="M0 1007zM80 212q0 86 47 242l156 527h188l-156 -525q-63 -216 -25 -285q38 -68 132 -68q118 0 223 100q106 101 194 397l113 381h188l-207 -671q-67 -219 -84 -310h-160l33 137q-172 -163 -351 -163q-149 0 -220 66t-71 172zM429 1096l327 297h183l119 -297h-138l-98 176 l-231 -176h-162zM690 0zM739 1096zM739 1096z" />
<glyph unicode="&#xfc;" horiz-adv-x="1171" d="M0 1007zM80 212q0 86 47 242l156 527h188l-156 -525q-63 -216 -25 -285q38 -68 132 -68q118 0 223 100q106 101 194 397l113 381h188l-207 -671q-67 -219 -84 -310h-160l33 137q-172 -163 -351 -163q-149 0 -220 66t-71 172zM505 1200l61 202h190l-59 -202h-192zM690 0z M739 1096zM739 1096zM860 1200l60 202h191l-61 -202h-190z" />
<glyph unicode="&#xfd;" horiz-adv-x="1133" d="M0 1007zM177 -356l225 366l-225 971h183l173 -768l444 768h211l-820 -1337h-191zM582 1096l219 297h242l-296 -297h-165zM706 1096zM706 1096z" />
<glyph unicode="&#xfe;" horiz-adv-x="1171" d="M-94 -356l524 1768h184l-158 -524q77 64 154 91q77 28 155 28q134 0 220 -89q87 -89 87 -246q0 -249 -148 -474q-147 -224 -414 -224q-90 0 -157 27q-66 27 -122 107l-137 -464h-188zM294 285q0 -86 58 -138t140 -52q150 0 268 190q118 191 118 402q0 96 -50 144 q-49 49 -133 49q-168 0 -285 -206q-116 -206 -116 -389z" />
<glyph unicode="&#xff;" horiz-adv-x="1133" d="M0 1007zM177 -356l225 366l-225 971h183l173 -768l444 768h211l-820 -1337h-191zM472 1200l61 202h190l-59 -202h-192zM706 1096zM706 1096zM827 1200l60 202h191l-61 -202h-190z" />
<glyph unicode="&#x152;" horiz-adv-x="2039" d="M182 484q0 327 222 623q223 297 675 297q123 0 190 -4q67 -3 120 -3h781l-47 -160h-641l-132 -444h617l-47 -160h-617l-139 -468h677l-49 -165h-754q-36 0 -95 -4q-59 -3 -106 -3q-336 0 -496 128q-159 129 -159 363zM382 492q0 -339 457 -339h59q28 1 64 4l320 1082 q-32 4 -86 8q-54 5 -88 5q-346 0 -536 -250q-190 -249 -190 -510z" />
<glyph unicode="&#x153;" horiz-adv-x="1850" d="M98 317q0 256 159 473q160 217 442 217q105 0 187 -33t142 -116q149 149 368 149q161 0 258 -77q98 -77 98 -219q0 -128 -45 -257h-685q-28 -102 -28 -160q0 -191 201 -191q79 0 141 39q62 40 117 133h203q-75 -160 -191 -231q-116 -70 -284 -70q-235 0 -313 163 q-155 -163 -391 -163q-184 0 -282 88q-97 88 -97 255zM292 302q0 -199 197 -199q185 0 298 206q114 206 114 381q0 196 -197 196q-176 0 -294 -190q-118 -189 -118 -394zM1064 583h466q28 79 28 141q0 162 -176 162q-109 0 -187 -74q-77 -74 -131 -229z" />
<glyph unicode="&#x178;" horiz-adv-x="1397" d="M0 1426zM309 1397h209l262 -715l572 715h221l-726 -868l-157 -529h-200l160 540zM752 1619l61 202h190l-59 -202h-192zM986 1515zM986 1515zM1107 1619l60 202h191l-61 -202h-190z" />
<glyph unicode="&#x2c6;" d="M520 1100l327 297h183l119 -297h-138l-98 176l-231 -176h-162zM830 1100z" />
<glyph unicode="&#x2dc;" d="M535 1136q51 235 198 235q67 0 146 -48q79 -47 125 -47q52 0 81 88h126q-44 -235 -198 -235q-66 0 -152 49q-85 49 -120 49q-55 0 -80 -91h-126zM823 1100z" />
<glyph unicode="&#x2000;" horiz-adv-x="995" />
<glyph unicode="&#x2001;" horiz-adv-x="1990" />
<glyph unicode="&#x2002;" horiz-adv-x="995" />
<glyph unicode="&#x2003;" horiz-adv-x="1990" />
<glyph unicode="&#x2004;" horiz-adv-x="663" />
<glyph unicode="&#x2005;" horiz-adv-x="497" />
<glyph unicode="&#x2006;" horiz-adv-x="331" />
<glyph unicode="&#x2007;" horiz-adv-x="331" />
<glyph unicode="&#x2008;" horiz-adv-x="248" />
<glyph unicode="&#x2009;" horiz-adv-x="398" />
<glyph unicode="&#x200a;" horiz-adv-x="110" />
<glyph unicode="&#x2010;" horiz-adv-x="680" d="M91 459l40 134h490l-40 -134h-490z" />
<glyph unicode="&#x2011;" horiz-adv-x="680" d="M91 459l40 134h490l-40 -134h-490z" />
<glyph unicode="&#x2012;" horiz-adv-x="680" d="M91 459l40 134h490l-40 -134h-490z" />
<glyph unicode="&#x2013;" d="M134 459l34 117h1021l-32 -117h-1023z" />
<glyph unicode="&#x2014;" horiz-adv-x="2039" d="M282 459l34 117h1467l-37 -117h-1464z" />
<glyph unicode="&#x2018;" horiz-adv-x="680" d="M281 921l353 476h152l-239 -476h-266z" />
<glyph unicode="&#x2019;" horiz-adv-x="680" d="M312 921l239 476h266l-353 -476h-152z" />
<glyph unicode="&#x201a;" horiz-adv-x="680" d="M-83 -251l239 476h266l-353 -476h-152z" />
<glyph unicode="&#x201c;" horiz-adv-x="1020" d="M273 921l353 476h152l-239 -476h-266zM659 921l353 476h152l-239 -476h-266z" />
<glyph unicode="&#x201d;" horiz-adv-x="1020" d="M287 921l239 476h266l-353 -476h-152zM673 921l239 476h266l-353 -476h-152z" />
<glyph unicode="&#x201e;" horiz-adv-x="1020" d="M-21 -251l239 476h266l-353 -476h-152zM365 -251l239 476h266l-353 -476h-152z" />
<glyph unicode="&#x2022;" horiz-adv-x="1020" d="M139 734q0 153 108 262q109 109 264 109q153 0 262 -109t109 -263t-111 -263q-110 -108 -261 -108t-261 108q-110 109 -110 264z" />
<glyph unicode="&#x2026;" horiz-adv-x="2039" d="M126 0v214h213v-214h-213zM810 0v214h213v-214h-213zM1494 0v214h213v-214h-213z" />
<glyph unicode="&#x202f;" horiz-adv-x="398" />
<glyph unicode="&#x2039;" horiz-adv-x="755" d="M196 480l322 372h168l-309 -409l87 -335h-139z" />
<glyph unicode="&#x203a;" horiz-adv-x="755" d="M131 108l309 409l-87 335h139l129 -372l-322 -372h-168z" />
<glyph unicode="&#x205f;" horiz-adv-x="497" />
<glyph unicode="&#x20ac;" d="M111 515l58 132h95q6 45 22 107l3 12h-135l58 132h119q89 245 256 386q168 142 398 142q202 0 294 -100t92 -252q0 -34 -3 -65h-183v27q0 121 -57 181t-159 60q-132 0 -242 -97t-184 -282h564l-58 -132h-551q-15 -53 -27 -119h517l-58 -132h-475q-2 -41 -2 -63 q0 -155 69 -244q70 -88 196 -88q99 0 181 60q83 60 120 193h192q-66 -211 -191 -307q-125 -95 -314 -95q-217 0 -338 124t-121 361q0 32 2 59h-138z" />
<glyph unicode="&#x2122;" horiz-adv-x="1248" d="M325 1299v84h382v-84h-149v-526h-84v526h-149zM781 773v610h162l112 -481l100 481h160v-610h-84v550l-124 -550h-108l-123 550h-11v-550h-84z" />
<glyph unicode="&#x25fc;" horiz-adv-x="980" d="M0 0v980h980v-980h-980z" />
</font>
</defs>
</svg>
