<?xml version="1.0" standalone="no"?>
<!DOCTYPE svg PUBLIC "-//W3C//DTD SVG 1.1//EN" "http://www.w3.org/Graphics/SVG/1.1/DTD/svg11.dtd" >
<svg xmlns="http://www.w3.org/2000/svg">
<metadata></metadata>
<defs>
<font id="universbold" horiz-adv-x="1284" >
<font-face units-per-em="2048" ascent="1638" descent="-410" />
<missing-glyph horiz-adv-x="680" />
<glyph horiz-adv-x="0" />
<glyph unicode="&#xd;" horiz-adv-x="680" />
<glyph unicode=" "  horiz-adv-x="680" />
<glyph unicode="&#x09;" horiz-adv-x="680" />
<glyph unicode="&#xa0;" horiz-adv-x="680" />
<glyph unicode="!" horiz-adv-x="680" d="M217 1397h249l-32 -1007h-185zM224 0v238h235v-238h-235z" />
<glyph unicode="&#x22;" horiz-adv-x="1057" d="M208 1397h259l-57 -446h-145zM585 1397h259l-57 -446h-145z" />
<glyph unicode="#" d="M45 383l50 163h191l103 342h-195l50 163h193l106 346h190l-105 -346h222l105 346h194l-104 -346h195l-50 -163h-192l-102 -342h195l-50 -163h-194l-113 -383h-194l113 383h-224l-115 -383h-190l115 383h-194zM478 546h222l103 342h-222z" />
<glyph unicode="$" d="M203 494h256q12 -92 59 -124t128 -32q74 0 130 36q57 37 57 108t-81 94l-269 75q-124 33 -190 100q-65 67 -65 165q0 102 81 183q82 82 246 109v238h182v-238q171 -17 243 -87t72 -195h-256q-19 79 -62 102q-42 24 -89 24q-57 0 -109 -32t-52 -92q0 -58 68 -79l194 -58 l128 -41q133 -40 174 -108q41 -67 41 -146q0 -113 -81 -201q-80 -88 -271 -113v-238h-182v238q-196 14 -274 89q-78 76 -78 223z" />
<glyph unicode="%" horiz-adv-x="2039" d="M163 1032q0 160 93 277q94 117 270 117q155 0 258 -104q104 -103 104 -296q0 -177 -98 -286q-97 -108 -265 -108q-159 0 -261 103q-101 103 -101 297zM353 1031q0 -118 44 -189q45 -70 131 -70q81 0 125 64q45 64 45 199q0 251 -174 251q-83 0 -127 -64t-44 -191z M490 -65l841 1506h199l-841 -1506h-199zM1147 365q0 170 92 285t268 115q162 0 263 -103q102 -102 102 -288q0 -191 -99 -297q-98 -106 -266 -106q-159 0 -260 102q-100 102 -100 292zM1337 368q0 -113 44 -185q45 -72 131 -72q79 0 124 63q46 63 46 194q0 257 -173 257 q-86 0 -129 -65t-43 -192z" />
<glyph unicode="&#x26;" horiz-adv-x="1548" d="M131 393q0 120 67 220q68 100 220 182q-67 73 -114 155t-47 170q0 141 110 223q110 83 284 83q171 0 273 -76t102 -207q0 -87 -53 -177q-53 -89 -229 -211q157 -168 348 -352q36 91 36 383h239q0 -387 -110 -529l259 -257h-315l-108 95q-178 -124 -442 -124 q-234 0 -377 120t-143 302zM401 410q0 -103 80 -183q80 -79 215 -79q146 0 248 80l-1 12q-206 193 -401 402q-84 -54 -113 -114q-28 -60 -28 -118zM491 1114q0 -45 24 -86q24 -40 107 -136q95 77 132 126q38 49 38 105t-37 91t-102 35q-75 0 -119 -38q-43 -37 -43 -97z" />
<glyph unicode="'" horiz-adv-x="680" d="M208 1397h259l-57 -446h-145z" />
<glyph unicode="(" horiz-adv-x="680" d="M150 597q0 -311 185 -788h199q-149 493 -149 775q0 298 163 813h-199q-199 -469 -199 -800z" />
<glyph unicode=")" horiz-adv-x="680" d="M157 1397h199q199 -469 199 -800q0 -311 -185 -788h-199q149 493 149 775q0 298 -163 813z" />
<glyph unicode="*" d="M238 932v197l312 -45l-185 244l171 98l108 -287l108 287l171 -98l-185 -244l312 45v-197l-312 45l185 -244l-171 -98l-108 287l-108 -287l-171 98l185 244z" />
<glyph unicode="+" horiz-adv-x="2039" d="M446 509v145h505v505h145v-505h505v-145h-505v-505h-145v505h-505z" />
<glyph unicode="," horiz-adv-x="680" d="M163 -166l128 431h274l-206 -431h-196z" />
<glyph unicode="-" horiz-adv-x="680" d="M134 439v172h490v-172h-490z" />
<glyph unicode="." horiz-adv-x="680" d="M245 0v263h263v-263h-263z" />
<glyph unicode="/" horiz-adv-x="680" d="M96 -65l394 1491h156l-394 -1491h-156z" />
<glyph unicode="0" d="M95 681q0 323 138 534t411 211q248 0 398 -188q151 -187 151 -517q0 -355 -144 -553q-144 -197 -405 -197q-245 0 -397 178q-152 179 -152 532zM376 715q0 -540 268 -540q127 0 197 135q71 136 71 384q0 528 -262 528q-139 0 -207 -137q-67 -137 -67 -370z" />
<glyph unicode="1" d="M282 936v243q68 23 185 88q117 66 189 130h248v-1397h-265v1127q-53 -47 -166 -114q-113 -66 -191 -77z" />
<glyph unicode="2" d="M153 0v251l407 332q323 262 323 449q0 71 -53 130q-53 60 -149 60q-88 0 -142 -52q-54 -51 -72 -160h-281q0 214 132 315t365 101q219 0 350 -102q131 -101 131 -290q0 -234 -234 -439t-492 -381h763v-214h-1048z" />
<glyph unicode="3" d="M116 387h281q8 -115 71 -164q63 -48 173 -48q112 0 189 60q78 60 78 155q0 99 -80 160q-79 61 -244 61h-67v204q213 10 285 64q73 54 73 146q0 80 -56 138q-56 59 -163 59q-94 0 -157 -42q-62 -41 -69 -140h-281q1 188 145 287t359 99q216 0 359 -106q144 -105 144 -282 q0 -130 -74 -218t-203 -104q165 -30 237 -124q73 -93 73 -222q0 -177 -153 -288q-152 -111 -396 -111q-248 0 -386 107t-138 309z" />
<glyph unicode="4" d="M62 320v252l597 825h339v-863h248v-214h-248v-320h-265v320h-671zM290 534h443v636z" />
<glyph unicode="5" d="M153 357h281q0 -59 54 -121q54 -61 166 -61q99 0 176 70q77 71 77 207q0 119 -61 193q-60 75 -169 75q-87 0 -146 -42q-58 -41 -80 -126h-269l29 845h878v-214h-638l-8 -393q142 134 329 134q183 0 299 -122q117 -121 117 -325q0 -218 -141 -362t-389 -144 q-241 0 -373 113q-132 114 -132 273z" />
<glyph unicode="6" d="M132 647q0 374 148 576q149 203 437 203q193 0 317 -86t146 -286h-281q-27 168 -188 168q-119 0 -196 -105q-77 -104 -102 -403q131 204 366 204q182 0 302 -127t120 -324q0 -210 -149 -353q-148 -143 -390 -143q-251 0 -391 170q-139 170 -139 506zM454 447 q0 -109 58 -191q59 -81 170 -81q90 0 164 68t74 199q0 115 -59 193q-59 79 -172 79q-89 0 -162 -70q-73 -69 -73 -197z" />
<glyph unicode="7" d="M149 1183v214h996v-186l-483 -1211h-327l533 1183h-719z" />
<glyph unicode="8" d="M99 380q0 228 292 350q-277 77 -277 318q0 168 149 273t382 105q243 0 383 -99t140 -273q0 -117 -73 -207t-212 -117q128 -28 214 -123q86 -94 86 -230q0 -170 -147 -288q-146 -118 -395 -118q-240 0 -391 118t-151 291zM380 395q0 -85 65 -153q66 -67 190 -67 q116 0 191 61q76 61 76 162q0 83 -68 151q-68 69 -189 69q-110 0 -188 -62q-77 -62 -77 -161zM395 1025q0 -76 63 -140q63 -63 179 -63q100 0 175 55t75 145q0 80 -64 140t-180 60q-101 0 -175 -53q-73 -53 -73 -144z" />
<glyph unicode="9" d="M124 953q0 205 140 339q141 134 382 134q269 0 408 -166q139 -165 139 -527q0 -417 -150 -590q-149 -172 -443 -172q-211 0 -333 86q-121 86 -135 286h281q0 -77 51 -123q51 -45 150 -45q146 0 215 115q69 116 83 404q-81 -102 -165 -144q-84 -41 -186 -41 q-183 0 -310 119q-127 120 -127 325zM405 956q0 -106 66 -175q66 -68 165 -68q97 0 166 70t69 186q0 115 -63 184q-62 69 -163 69t-171 -72q-69 -71 -69 -194z" />
<glyph unicode=":" horiz-adv-x="680" d="M245 0v263h263v-263h-263zM245 715v263h263v-263h-263z" />
<glyph unicode=";" horiz-adv-x="680" d="M163 -166l128 431h274l-206 -431h-196zM252 715v263h263v-263h-263z" />
<glyph unicode="&#x3c;" horiz-adv-x="2039" d="M412 547l1219 -550v199l-962 426l962 426v199l-1219 -550v-150z" />
<glyph unicode="=" horiz-adv-x="2039" d="M446 305v145h1144v-145h-1144zM446 673v145h1144v-145h-1144z" />
<glyph unicode="&#x3e;" horiz-adv-x="2039" d="M410 -3v199l962 426l-962 426v199l1219 -550v-150z" />
<glyph unicode="?" horiz-adv-x="1057" d="M162 1217v176q163 33 269 33q246 0 367 -94q122 -93 122 -259q0 -100 -46 -180t-144 -169l-124 -112q-51 -46 -62 -74q-10 -28 -10 -60v-91h-203v98q0 70 17 108t74 98l99 103q122 126 122 237q0 88 -69 151q-69 64 -187 64q-95 0 -225 -29zM313 0v238h235v-238h-235z " />
<glyph unicode="@" horiz-adv-x="2039" d="M88 713q0 390 279 653q279 264 700 264q383 0 630 -237t247 -611q0 -219 -109 -395t-316 -176q-95 0 -166 40t-107 136q-95 -168 -281 -168q-169 0 -294 131q-124 132 -124 351q0 206 112 348q113 142 292 142q78 0 139 -30t111 -107l9 107h259v-554q0 -146 18 -178 q19 -31 56 -31q62 0 106 91q44 92 44 267q0 315 -170 493q-170 179 -459 179q-312 0 -519 -211q-206 -210 -206 -521q0 -293 192 -496q193 -203 578 -203q199 0 363 45v-213q-179 -34 -351 -34q-489 0 -761 252q-272 253 -272 666zM798 695q0 -116 54 -207q55 -90 159 -90 q49 0 91 23t72 69q57 90 57 233q0 43 -12 115q-11 72 -47 125q-26 22 -59 35q-33 14 -84 14q-101 0 -166 -88q-65 -87 -65 -229z" />
<glyph unicode="A" horiz-adv-x="1511" d="M0 1426zM41 0l520 1397h369l520 -1397h-315l-108 298h-582l-98 -298h-306zM516 516h444l-224 668zM740 1515zM1131 0z" />
<glyph unicode="B" d="M144 0v1397h314h230q252 0 362 -102q110 -101 110 -253q0 -128 -72 -199t-189 -104q168 -43 244 -133t76 -219q0 -165 -131 -276q-130 -111 -383 -111h-288h-273zM432 218h109q248 0 319 55q71 56 71 147q0 85 -67 141q-66 57 -206 57h-117h-109v-400zM432 836h107 q184 0 258 38q75 39 75 129q0 85 -63 130q-62 46 -211 46h-59h-107v-343z" />
<glyph unicode="C" horiz-adv-x="1435" d="M117 693q0 360 168 546q169 187 467 187q234 0 397 -125t163 -351h-288q-13 122 -86 190q-72 68 -190 68q-165 0 -254 -120q-89 -119 -89 -358q0 -290 89 -416q90 -125 260 -125q109 0 191 63q83 64 94 209h288q-14 -232 -180 -361q-165 -129 -401 -129q-288 0 -459 179 q-170 179 -170 543zM743 0zM757 1515z" />
<glyph unicode="D" horiz-adv-x="1473" d="M0 1426zM153 0v1397h296h246q363 0 522 -193q160 -192 160 -500q0 -328 -181 -516q-180 -188 -592 -188h-169h-282zM441 218h185q238 0 350 120q113 120 113 361q0 223 -107 351q-106 129 -407 129h-134v-961zM674 1515z" />
<glyph unicode="E" horiz-adv-x="1171" d="M0 1426zM149 0v1397h927v-218h-639v-350h603v-218h-603v-393h662v-218h-950zM638 1515zM833 0z" />
<glyph unicode="F" horiz-adv-x="1133" d="M149 0v1397h912v-218h-624v-357h588v-218h-588v-604h-288z" />
<glyph unicode="G" horiz-adv-x="1511" d="M113 687q0 337 188 538q189 201 517 201q227 0 388 -108t161 -342v-26h-288q0 140 -79 199q-78 59 -199 59q-182 0 -291 -138q-109 -137 -109 -379q0 -253 112 -378q113 -124 326 -124q94 0 225 31v304h-277v218h565v-699q-262 -72 -503 -72q-357 0 -547 183 q-189 183 -189 533zM804 0zM804 1515z" />
<glyph unicode="H" horiz-adv-x="1473" d="M0 1426zM153 0v1397h288v-561h589v561h288v-1397h-288v618h-589v-618h-288zM736 1515z" />
<glyph unicode="I" horiz-adv-x="566" d="M0 1426zM140 0v1397h288v-1397h-288zM283 0zM284 1515z" />
<glyph unicode="J" horiz-adv-x="1133" d="M0 1426zM32 404v43h288l1 -44q4 -106 51 -160t134 -54q86 0 140 49q55 50 55 219v86v854h288v-858v-111q0 -211 -123 -334q-122 -123 -370 -123q-238 0 -351 108q-113 109 -113 325zM843 1515z" />
<glyph unicode="K" horiz-adv-x="1360" d="M176 0v1397h288v-617l432 617h311l-446 -633l514 -764h-347l-464 709v-709h-288zM726 0z" />
<glyph unicode="L" horiz-adv-x="1095" d="M0 1426zM149 0v1397h288v-1179h595v-218h-883zM349 1515zM591 0z" />
<glyph unicode="M" horiz-adv-x="1850" d="M144 0v1397h482l286 -1075l286 1075h482v-1397h-266v1239l-358 -1239h-288l-358 1239v-1239h-266z" />
<glyph unicode="N" horiz-adv-x="1473" d="M0 1426zM140 0v1397h419l503 -1015v1015h266v-1397h-387l-535 1102v-1102h-266zM739 0zM776 1515z" />
<glyph unicode="O" horiz-adv-x="1548" d="M113 687q0 355 170 547q171 192 487 192q302 0 479 -181q178 -180 178 -541q0 -353 -165 -543q-164 -190 -492 -190q-316 0 -487 180q-170 180 -170 536zM401 706q0 -273 95 -395t277 -122q187 0 276 129q90 129 90 388q0 233 -88 367q-88 135 -281 135q-191 0 -280 -126 q-89 -125 -89 -376zM770 1515z" />
<glyph unicode="P" horiz-adv-x="1208" d="M149 0v1397h397h130q249 0 369 -117t120 -313q0 -230 -141 -333q-140 -103 -402 -103h-71h-114v-531h-288zM437 749h117h30q166 0 229 57q64 57 64 161q0 87 -48 149q-48 63 -190 63h-85h-117v-430z" />
<glyph unicode="Q" horiz-adv-x="1586" d="M117 687q0 355 171 547q172 192 486 192q310 0 483 -191q174 -190 174 -509q0 -342 -210 -515h329v-218h-374q-49 0 -175 -11t-229 -11q-323 0 -489 184q-166 185 -166 532zM405 710q0 -275 95 -398t274 -123q194 0 281 128q88 128 88 389q0 239 -86 370 q-86 132 -280 132q-184 0 -278 -116t-94 -382z" />
<glyph unicode="R" horiz-adv-x="1322" d="M0 1426zM149 0v1397h387h201q256 0 372 -101t116 -262q0 -134 -81 -222t-212 -114q100 -9 165 -68q65 -58 85 -241q37 -329 84 -389h-311q-28 90 -53 312q-15 153 -57 204q-41 51 -171 51h-89h-148v-567h-288zM437 785h176q164 0 244 50q80 51 80 153q0 83 -60 137 q-59 54 -187 54h-110h-143v-394zM687 0zM687 1515z" />
<glyph unicode="S" horiz-adv-x="1322" d="M89 447h288q0 -134 74 -196t205 -62q113 0 194 51q81 52 81 147q0 73 -66 110q-65 38 -193 74l-165 47q-168 47 -271 134q-102 88 -102 240q0 191 147 312q148 122 393 122q220 0 360 -108t140 -323h-288q-6 118 -68 165q-61 48 -151 48q-102 0 -174 -53 q-71 -52 -71 -131q0 -88 88 -132q89 -43 173 -65l187 -51q190 -51 269 -145q80 -93 80 -228q0 -189 -158 -311q-158 -121 -407 -121q-292 0 -429 117q-136 117 -136 359zM670 0zM674 1515z" />
<glyph unicode="T" d="M0 1426zM59 1179v218h1150v-218h-431v-1179h-288v1179h-431zM634 0zM634 1515z" />
<glyph unicode="U" horiz-adv-x="1473" d="M0 1426zM135 551v66v780h288v-783v-88q0 -165 81 -251t219 -86q136 0 220 78q84 79 84 267v80v783h288v-780v-109q0 -245 -163 -391q-162 -146 -427 -146q-259 0 -425 136q-165 136 -165 444zM725 1515zM849 0z" />
<glyph unicode="V" horiz-adv-x="1473" d="M45 1397h311l375 -1080l372 1080h288l-520 -1397h-306z" />
<glyph unicode="W" horiz-adv-x="2039" d="M45 1397h288l242 -1075l273 1075h338l273 -1075l242 1075h288l-372 -1397h-311l-287 1059l-291 -1059h-311z" />
<glyph unicode="X" horiz-adv-x="1473" d="M50 0l509 726l-468 671h356l307 -469l305 469h329l-472 -671l508 -726h-357l-346 524l-347 -524h-324z" />
<glyph unicode="Y" horiz-adv-x="1397" d="M0 1426zM45 1397h342l325 -600l310 600h306l-490 -857v-540h-288v540zM687 1515z" />
<glyph unicode="Z" horiz-adv-x="1246" d="M0 1426zM99 0v246l729 933h-688v218h999v-262l-720 -917h734v-218h-1054zM667 1515z" />
<glyph unicode="[" horiz-adv-x="680" d="M197 -182h406v111h-193v1357h193v111h-406v-1579z" />
<glyph unicode="\" horiz-adv-x="680" d="M64 1426h156l394 -1500h-156z" />
<glyph unicode="]" horiz-adv-x="680" d="M103 -71h193v1357h-193v111h406v-1579h-406v111z" />
<glyph unicode="^" horiz-adv-x="1020" d="M115 992v93q262 179 357 446h105q106 -262 357 -446v-93q-223 73 -410 248q-178 -169 -409 -248z" />
<glyph unicode="_" horiz-adv-x="1020" d="M0 -400h1020v-105h-1020v105z" />
<glyph unicode="`" d="M312 1397h315l190 -297h-224zM618 1100z" />
<glyph unicode="a" horiz-adv-x="1095" d="M87 278q0 163 123 259q124 96 463 96h53v57q0 65 -41 104q-41 40 -133 40q-163 0 -163 -139h-265q0 156 108 234t319 78q213 0 326 -84q114 -84 114 -282v-363q0 -182 25 -278h-257l-21 117q-66 -83 -141 -113q-74 -30 -169 -30q-166 0 -254 83q-87 84 -87 221zM352 290 q0 -67 45 -105q46 -38 120 -38q108 0 158 72q51 73 51 208v44q-247 0 -311 -55q-63 -54 -63 -126zM562 1096zM791 0z" />
<glyph unicode="b" horiz-adv-x="1171" d="M132 0v1412h265v-539q50 63 123 98q74 36 172 36q198 0 301 -145q103 -144 103 -372q0 -246 -116 -381t-296 -135q-86 0 -158 33t-129 116v-123h-265zM397 474q0 -149 51 -238q52 -89 161 -89q105 0 163 90q59 91 59 272q0 153 -53 239q-52 86 -162 86q-107 0 -163 -96 t-56 -264z" />
<glyph unicode="c" horiz-adv-x="1095" d="M99 491q0 243 130 379q131 137 369 137q183 0 295 -85q113 -85 125 -287h-265q0 199 -176 199q-114 0 -164 -83q-49 -82 -49 -247q0 -357 214 -357q90 0 132 53q43 53 43 160h265q0 -190 -121 -288t-317 -98q-233 0 -357 134t-124 383zM584 0zM584 1096z" />
<glyph unicode="d" horiz-adv-x="1171" d="M91 482q0 229 109 377t309 148q79 0 148 -27q69 -26 133 -92v524h265v-1412h-248v152q-39 -78 -115 -128q-75 -50 -184 -50q-193 0 -305 134q-112 135 -112 374zM356 474q0 -156 56 -242q56 -85 165 -85q99 0 160 84t61 262q0 167 -54 254t-162 87t-167 -90t-59 -270z " />
<glyph unicode="e" horiz-adv-x="1095" d="M87 478q0 247 125 388q126 141 352 141q208 0 325 -129t117 -386v-63h-654q0 -282 198 -282q67 0 120 46q54 47 54 138h265q0 -164 -117 -261q-117 -96 -316 -96q-233 0 -351 131q-118 132 -118 373zM356 591h385q-17 243 -186 243q-88 0 -140 -61q-51 -60 -59 -182z M561 1096zM633 0z" />
<glyph unicode="f" horiz-adv-x="755" d="M60 808v173h178v151q0 151 76 221t260 70q55 0 137 -3v-167q-84 0 -109 -3q-55 -7 -77 -42q-22 -34 -22 -106v-121h208v-173h-208v-808h-265v808h-178z" />
<glyph unicode="g" horiz-adv-x="1171" d="M95 515q0 215 114 353q115 139 303 139q102 0 172 -43q71 -42 95 -84v101h265v-879v-51q0 -248 -123 -345q-122 -97 -333 -97q-196 0 -322 79q-126 80 -126 248h265q16 -154 167 -154q89 0 148 55q59 56 59 183v136q-111 -141 -278 -141q-188 0 -297 138 q-109 139 -109 362zM360 514q0 -141 53 -234q54 -92 159 -92q90 0 152 78q63 78 63 235q0 150 -55 241q-54 92 -162 92q-95 0 -153 -81q-57 -81 -57 -239zM588 1096z" />
<glyph unicode="h" horiz-adv-x="1171" d="M120 0v1412h265v-583q97 178 319 178q164 0 257 -94t93 -343v-570h-265v583q0 251 -183 251q-107 0 -164 -75q-57 -74 -57 -248v-511h-265zM598 1501z" />
<glyph unicode="i" horiz-adv-x="491" d="M104 1159v254h281v-254h-281zM112 0v981h265v-981h-265zM238 0z" />
<glyph unicode="j" horiz-adv-x="491" d="M-82 -210l63 3q88 4 109 46q22 42 22 126v1016h265v-925q0 -176 -12 -236q-18 -102 -86 -151q-67 -49 -219 -49q-28 0 -77 2t-65 3v165zM104 1159v254h281v-254h-281z" />
<glyph unicode="k" horiz-adv-x="1095" d="M141 0v1412h265v-830l301 399h294l-326 -422l351 -559h-310l-310 513v-513h-265zM584 0z" />
<glyph unicode="l" horiz-adv-x="491" d="M112 0v1412h265v-1412h-265zM245 0zM245 1501z" />
<glyph unicode="m" horiz-adv-x="1775" d="M128 0v981h265v-152q57 100 130 139q74 39 174 39q101 0 184 -39q84 -38 130 -139q91 178 317 178q158 0 250 -91q93 -90 93 -276v-105v-535h-265v534v67q0 138 -48 185q-47 48 -124 48q-94 0 -148 -74t-54 -229v-531h-265v528v58q0 133 -45 190q-45 58 -129 58 q-97 0 -149 -76q-51 -75 -51 -230v-528h-265z" />
<glyph unicode="n" horiz-adv-x="1171" d="M120 0v981h265v-152q87 178 316 178q165 0 259 -92t94 -300v-68v-547h-265v570q0 264 -186 264q-105 0 -162 -73q-56 -72 -56 -230v-531h-265zM587 0zM620 1096z" />
<glyph unicode="o" horiz-adv-x="1171" d="M87 495q0 236 127 374q128 138 377 138q244 0 366 -136q123 -135 123 -381q0 -234 -130 -375q-129 -141 -367 -141q-229 0 -363 136q-133 136 -133 385zM352 493q0 -346 235 -346q228 0 228 341q0 346 -228 346q-235 0 -235 -341zM591 1096z" />
<glyph unicode="p" horiz-adv-x="1171" d="M124 -356v1337h253v-123q71 87 138 118t156 31q188 0 302 -134q115 -134 115 -378q0 -245 -115 -383t-305 -138q-79 0 -146 28t-133 91v-449h-265zM377 485q0 -172 60 -255q61 -83 165 -83q100 0 160 92q61 93 61 273q0 143 -56 232q-56 90 -164 90q-105 0 -166 -88 q-60 -87 -60 -261z" />
<glyph unicode="q" horiz-adv-x="1171" d="M124 486q0 227 105 374q106 147 312 147q101 0 173 -41q72 -40 121 -108v123h253v-1337h-265v449q-127 -119 -279 -119q-176 0 -298 129t-122 383zM389 507q0 -158 55 -259t166 -101q95 0 160 78q65 79 65 260q0 178 -63 263q-62 86 -163 86q-99 0 -160 -82 q-60 -82 -60 -245z" />
<glyph unicode="r" horiz-adv-x="718" d="M124 0v981h265v-163q65 108 131 148q66 41 151 41v-257q-161 0 -222 -74q-60 -74 -60 -211v-37v-428h-265zM254 0zM387 1096z" />
<glyph unicode="s" horiz-adv-x="1020" d="M79 316h265q14 -169 174 -169q76 0 121 39t45 89q0 46 -36 73q-35 27 -202 68q-213 51 -278 126q-64 76 -64 170q0 123 108 209t308 86q175 0 278 -70q103 -69 113 -242h-265q-9 85 -44 112t-99 27q-72 0 -110 -31q-37 -31 -37 -77q0 -41 40 -67q41 -26 163 -54 q234 -57 305 -128q72 -70 72 -180q0 -143 -119 -233t-313 -90q-185 0 -305 80t-120 262zM515 0zM515 1096z" />
<glyph unicode="t" horiz-adv-x="755" d="M49 808v173h174v150l265 132v-282h208v-173h-208v-429v-74q0 -96 36 -127q37 -31 100 -31q36 0 63 8v-167q-66 -14 -179 -14q-151 0 -218 67t-67 252v111v404h-174zM479 0z" />
<glyph unicode="u" horiz-adv-x="1171" d="M0 1007zM116 355v107v519h265v-476v-118q0 -123 49 -182q49 -58 134 -58q99 0 160 65q61 66 61 238v36v495h265v-981h-257v137q-48 -74 -129 -119q-80 -44 -194 -44q-179 0 -267 95q-87 95 -87 286zM583 1096zM820 0z" />
<glyph unicode="v" horiz-adv-x="1133" d="M59 981h294l237 -751l230 751h269l-342 -981h-331z" />
<glyph unicode="w" horiz-adv-x="1775" d="M79 981h265l197 -694l192 694h298l216 -694l198 694h240l-297 -981h-306l-206 655l-194 -655h-306z" />
<glyph unicode="x" horiz-adv-x="1133" d="M54 0l343 521l-306 460h335l166 -295l166 295h277l-298 -464l339 -517h-327l-207 353l-207 -353h-281z" />
<glyph unicode="y" horiz-adv-x="1133" d="M0 1007zM50 981h294l229 -642l244 642h273l-544 -1337h-256l158 355zM570 1096z" />
<glyph unicode="z" horiz-adv-x="982" d="M0 1007zM91 0v211l488 597h-476v173h761v-199l-479 -609h500v-173h-794zM504 1096z" />
<glyph unicode="{" horiz-adv-x="1020" d="M160 454v190q141 23 188 91q56 79 56 283v207q0 164 89 249t285 85h118v-190h-66q-109 0 -146 -27q-36 -27 -36 -135v-188q0 -219 -48 -308t-147 -155v-14q118 -80 156 -186q39 -105 39 -227v-52v-189v-33q0 -79 44 -104t172 -25h32v-190h-112q-211 0 -296 80 q-84 81 -84 257v207q0 261 -101 328q-47 30 -143 46z" />
<glyph unicode="|" horiz-adv-x="1020" d="M461 -505v2036h105v-2036h-105z" />
<glyph unicode="}" horiz-adv-x="1020" d="M126 -274h42q120 0 163 29q43 30 43 134v189q0 217 47 306q48 90 148 158v14q-124 81 -160 177q-35 96 -35 223v64v188q0 107 -44 134q-43 27 -132 27h-72v190h96q219 0 307 -85q89 -85 89 -251v-206q0 -265 101 -327q62 -38 143 -46v-190q-97 -17 -145 -50 q-99 -65 -99 -326v-207q0 -185 -91 -260q-90 -75 -325 -75h-76v190z" />
<glyph unicode="~" horiz-adv-x="2039" d="M415 538q94 141 175 188t171 47q108 0 210 -33q68 -21 216 -61t222 -40q61 0 119 33q58 34 116 101l34 -70q-35 -113 -130 -182q-95 -68 -197 -68q-59 0 -160 21t-311 83q-101 30 -176 30q-57 0 -124 -30q-66 -30 -134 -89z" />
<glyph unicode="&#xa1;" horiz-adv-x="680" d="M220 -418l32 1007h185l32 -1007h-249zM227 741v238h235v-238h-235z" />
<glyph unicode="&#xa2;" d="M182 679q0 232 94 357q95 125 287 164v253h182v-253q148 0 250 -87q103 -86 118 -270h-256q-14 115 -65 158t-133 43q-119 0 -170 -85t-51 -251q0 -199 54 -281q55 -82 167 -82q83 0 140 50q58 51 58 151h256q0 -314 -368 -357v-253h-182v253q-178 13 -280 137 q-101 125 -101 353z" />
<glyph unicode="&#xa3;" d="M157 677v166h145v198q0 385 416 385q195 0 289 -81q95 -80 95 -261h-256q0 186 -133 186q-80 0 -113 -55t-33 -169v-203h248v-166h-248v-482h535v-195h-920v195h120v482h-145z" />
<glyph unicode="&#xa4;" d="M98 308l133 133q-45 72 -60 133q-14 62 -14 121q0 72 16 135q17 63 58 134l-133 130l131 133l130 -127q62 38 131 60q70 22 154 22q81 0 147 -22q67 -21 124 -60l131 127l128 -133l-136 -130q80 -106 80 -269q0 -168 -78 -257l134 -130l-128 -128l-134 126 q-107 -85 -272 -85q-168 0 -278 85l-133 -126zM360 701q0 -123 80 -200t198 -77q117 0 197 79t80 199q0 116 -79 196q-78 81 -199 81q-118 0 -198 -80q-79 -79 -79 -198z" />
<glyph unicode="&#xa5;" d="M0 1397h339l314 -617l319 617h306l-490 -857v-87h312v-102h-312v-104h312v-102h-312v-145h-298v145h-312v102h312v104h-312v102h312v87z" />
<glyph unicode="&#xa6;" horiz-adv-x="1020" d="M461 -452v922h105v-922h-105zM461 574v922h105v-922h-105z" />
<glyph unicode="&#xa7;" d="M281 671q0 193 235 266q-117 45 -158 99t-41 127q0 113 99 187q100 74 290 74q73 0 145 -13q73 -12 125 -23v-187q-63 17 -125 30t-120 13q-74 0 -109 -31t-35 -69q0 -68 71 -92t142 -49q146 -52 200 -116q54 -63 54 -144q0 -181 -232 -249q126 -42 175 -103 q50 -61 50 -143q0 -122 -109 -199q-108 -76 -284 -76q-89 0 -176 11q-86 12 -154 26v201q93 -36 152 -47q60 -11 119 -11q91 0 136 31q46 31 46 79q0 65 -90 100q-89 35 -137 51q-161 49 -215 109q-54 61 -54 148zM519 719q0 -62 35 -96q36 -34 111 -66q79 16 120 60t41 99 q0 75 -58 116q-57 42 -129 54q-56 -34 -88 -75t-32 -92z" />
<glyph unicode="&#xa8;" d="M327 1145v236h243v-236h-243zM652 1100zM733 1145v236h243v-236h-243z" />
<glyph unicode="&#xa9;" horiz-adv-x="1020" d="M71 1041q0 187 136 331t339 144q192 0 333 -139t141 -337q0 -188 -137 -332q-136 -143 -338 -143q-193 0 -334 138q-140 139 -140 338zM143 1040q0 -156 114 -280q114 -123 289 -123q161 0 281 116q121 117 121 288q0 155 -115 279q-114 124 -288 124q-170 0 -286 -119 q-116 -118 -116 -285zM294 1058q0 104 73 189t194 85q106 0 194 -74l-61 -65q-64 63 -134 63t-130 -54q-60 -53 -60 -147q0 -79 52 -140q52 -60 136 -60q80 0 140 74l57 -61q-89 -89 -196 -89q-110 0 -188 81q-77 82 -77 198z" />
<glyph unicode="&#xaa;" horiz-adv-x="831" d="M124 950q0 97 79 159q80 62 237 62h85q0 82 -28 111t-82 29q-100 0 -100 -93h-170q5 106 78 157t184 51q128 0 208 -54q80 -53 80 -186v-14v-263q0 -50 12 -147h-161l-13 86q-61 -99 -195 -99q-106 0 -160 58q-54 59 -54 143zM294 958q0 -48 26 -71q27 -23 71 -23 q54 0 94 43t40 125v40q-123 -2 -177 -26t-54 -88z" />
<glyph unicode="&#xab;" horiz-adv-x="1133" d="M122 490l200 -372h231l-164 372l164 372h-231zM598 490l203 -372h228l-168 372l168 372h-228z" />
<glyph unicode="&#xac;" horiz-adv-x="2039" d="M446 752v145h1144v-650h-145v505h-999z" />
<glyph unicode="&#xad;" horiz-adv-x="680" d="M134 439v172h490v-172h-490z" />
<glyph unicode="&#xae;" horiz-adv-x="1020" d="M71 1041q0 187 136 331t339 144q192 0 333 -139t141 -337q0 -188 -137 -332q-136 -143 -338 -143q-193 0 -334 138q-140 139 -140 338zM143 1040q0 -156 114 -280q114 -123 289 -123q161 0 281 116q121 117 121 288q0 155 -115 279q-114 124 -288 124q-165 0 -284 -119 q-118 -118 -118 -285zM394 803v505h164q154 0 154 -148q0 -99 -84 -133l92 -224h-95l-85 208h-70v-208h-76zM470 1087h91q39 0 57 19t18 52q0 74 -75 74h-91v-145z" />
<glyph unicode="&#xaf;" horiz-adv-x="1020" d="M0 1531v105h1020v-105h-1020z" />
<glyph unicode="&#xb0;" d="M268 1050q0 164 98 270q99 106 277 106q175 0 281 -101t106 -275q0 -172 -100 -277t-278 -105q-174 0 -279 100q-105 101 -105 282zM450 1045q0 -122 58 -183q59 -60 144 -60q80 0 138 61q58 62 58 182q0 104 -52 175q-52 72 -149 72q-82 0 -140 -64q-57 -64 -57 -183z " />
<glyph unicode="&#xb1;" horiz-adv-x="2039" d="M446 0v145h1155v-145h-1155zM446 621v145h505v372h145v-372h505v-145h-505v-372h-145v372h-505z" />
<glyph unicode="&#xb2;" horiz-adv-x="793" d="M104 669v153q162 111 285 217q124 107 124 179q0 31 -26 58t-72 27q-90 0 -111 -106h-186q0 112 78 175t215 63q129 0 208 -57q80 -56 80 -159q0 -63 -35 -128q-34 -64 -171 -173q-100 -78 -145 -108h359v-141h-603z" />
<glyph unicode="&#xb3;" horiz-adv-x="793" d="M96 884h186q23 -91 118 -91q51 0 89 25q38 26 38 76q0 43 -36 69q-35 26 -157 26v132q109 7 140 34q31 28 31 62t-27 60t-78 26q-50 0 -75 -24q-24 -24 -24 -52h-189q0 86 72 147q73 61 213 61q132 0 213 -57q81 -56 81 -154q0 -121 -112 -164q134 -43 134 -171 q0 -102 -89 -165t-236 -63q-137 0 -215 60q-77 60 -77 163z" />
<glyph unicode="&#xb4;" d="M476 1100l197 297h308l-281 -297h-224zM661 1100z" />
<glyph unicode="&#xb5;" horiz-adv-x="1208" d="M-119 -342l386 1323h298l-130 -434q-26 -87 -36 -131q-9 -43 -9 -79q0 -61 40 -103q41 -41 109 -41q67 0 118 49t92 194l159 545h300l-282 -981h-234l35 119q-73 -85 -130 -115t-120 -30q-124 0 -176 135l-133 -451h-287z" />
<glyph unicode="&#xb6;" d="M207 1033q0 211 162 347q163 136 499 136h189v-78h-138v-1765h-79v1765h-98v-1765h-79v892q-253 43 -355 174q-101 131 -101 294z" />
<glyph unicode="&#xb8;" d="M431 -405l169 282h217l-112 -282h-274zM687 0z" />
<glyph unicode="&#xb9;" horiz-adv-x="793" d="M179 1159v161q120 52 197 107h156v-758h-175v581q-94 -59 -178 -91z" />
<glyph unicode="&#xba;" horiz-adv-x="831" d="M89 1098q0 151 82 239q83 89 249 89q161 0 246 -87q85 -86 85 -252q0 -155 -84 -247q-83 -91 -247 -91q-162 0 -247 88q-84 89 -84 261zM275 1107q0 -145 39 -194q40 -49 106 -49q75 0 110 52q35 53 35 163q0 126 -37 179q-36 53 -109 53q-65 0 -105 -45 q-39 -45 -39 -159z" />
<glyph unicode="&#xbb;" horiz-adv-x="1133" d="M119 118l168 372l-168 372h228l203 -372l-203 -372h-228zM595 118l164 372l-164 372h231l200 -372l-200 -372h-231z" />
<glyph unicode="&#xbc;" horiz-adv-x="2039" d="M278 1159v161q120 52 197 107h156v-758h-175v581q-94 -59 -178 -91zM397 -73l852 1499h203l-856 -1499h-199zM1059 158v156l330 440h205v-455h129v-141h-129v-162h-175v162h-360zM1212 299h207v283z" />
<glyph unicode="&#xbd;" horiz-adv-x="2039" d="M278 1159v161q120 52 197 107h156v-758h-175v581q-94 -59 -178 -91zM397 -73l852 1499h203l-856 -1499h-199zM1101 -4v153q162 111 285 217q124 107 124 179q0 31 -26 58t-72 27q-90 0 -111 -106h-186q0 112 78 175t215 63q129 0 208 -57q80 -56 80 -159q0 -63 -35 -128 q-34 -64 -171 -173q-100 -78 -145 -108h359v-141h-603z" />
<glyph unicode="&#xbe;" horiz-adv-x="2039" d="M250 884h186q23 -91 118 -91q51 0 89 25q38 26 38 76q0 43 -36 69q-35 26 -157 26v132q109 7 140 34q31 28 31 62t-27 60t-78 26q-50 0 -75 -24q-24 -24 -24 -52h-189q0 86 72 147q73 61 213 61q132 0 213 -57q81 -56 81 -154q0 -121 -112 -164q134 -43 134 -171 q0 -102 -89 -165t-236 -63q-137 0 -215 60q-77 60 -77 163zM494 -73l852 1499h203l-856 -1499h-199zM1135 158v156l330 440h205v-455h129v-141h-129v-162h-175v162h-360zM1288 299h207v283z" />
<glyph unicode="&#xbf;" horiz-adv-x="1057" d="M179 -107q0 100 46 180t144 169l124 112q51 46 62 74q10 28 10 60v91h203v-98q0 -70 -17 -108t-74 -98l-99 -103q-122 -126 -122 -237q0 -88 69 -151q69 -64 187 -64q95 0 225 29v-176q-163 -33 -269 -33q-246 0 -367 94q-122 93 -122 259zM551 728v238h235v-238h-235z " />
<glyph unicode="&#xc0;" horiz-adv-x="1511" d="M0 1426zM41 0l520 1397h369l520 -1397h-315l-108 298h-582l-98 -298h-306zM434 1812h315l190 -297h-224zM516 516h444l-224 668zM740 1515zM740 1515zM1131 0z" />
<glyph unicode="&#xc1;" horiz-adv-x="1511" d="M0 1426zM41 0l520 1397h369l520 -1397h-315l-108 298h-582l-98 -298h-306zM516 516h444l-224 668zM555 1515l197 297h308l-281 -297h-224zM740 1515zM740 1515zM1131 0z" />
<glyph unicode="&#xc2;" horiz-adv-x="1511" d="M0 1426zM41 0l520 1397h369l520 -1397h-315l-108 298h-582l-98 -298h-306zM404 1515l208 297h270l193 -297h-201l-133 162l-147 -162h-190zM516 516h444l-224 668zM740 1515zM740 1515zM1131 0z" />
<glyph unicode="&#xc3;" horiz-adv-x="1511" d="M0 1426zM41 0l520 1397h369l520 -1397h-315l-108 298h-582l-98 -298h-306zM383 1511q0 147 57 218q58 72 153 72q79 0 163 -56t122 -56q36 0 47 28t11 84h160q0 -141 -54 -216q-54 -74 -152 -74q-93 0 -177 56q-83 56 -112 56q-22 0 -36 -16q-14 -15 -19 -96h-163z M516 516h444l-224 668zM740 1515zM740 1515zM1131 0z" />
<glyph unicode="&#xc4;" horiz-adv-x="1511" d="M0 1426zM41 0l520 1397h369l520 -1397h-315l-108 298h-582l-98 -298h-306zM415 1560v236h243v-236h-243zM516 516h444l-224 668zM740 1515zM740 1515zM821 1560v236h243v-236h-243zM1131 0z" />
<glyph unicode="&#xc5;" horiz-adv-x="1511" d="M0 1426zM41 0l520 1397h369l520 -1397h-315l-108 298h-582l-98 -298h-306zM512 1742q0 99 66 165t162 66q91 0 159 -65q69 -65 69 -166q0 -92 -66 -160q-66 -67 -160 -67q-99 0 -165 67q-65 68 -65 160zM516 516h444l-224 668zM641 1742q0 -39 26 -68q27 -28 74 -28 q38 0 68 25t30 72q0 42 -31 70q-30 29 -69 29q-46 0 -72 -30t-26 -70zM740 1515zM740 1515zM1131 0z" />
<glyph unicode="&#xc6;" horiz-adv-x="2001" d="M41 0l758 1397h1092v-218h-666v-11l49 -339h576v-218h-543l62 -393h545v-218h-788l-51 320h-563l-165 -320h-306zM615 538h428l-99 641z" />
<glyph unicode="&#xc7;" horiz-adv-x="1435" d="M117 693q0 360 168 546q169 187 467 187q234 0 397 -125t163 -351h-288q-13 122 -86 190q-72 68 -190 68q-165 0 -254 -120q-89 -119 -89 -358q0 -290 89 -416q90 -125 260 -125q109 0 191 63q83 64 94 209h288q-14 -232 -180 -361q-165 -129 -401 -129q-288 0 -459 179 q-170 179 -170 543zM487 -405l169 282h217l-112 -282h-274zM743 0zM743 0zM757 1515z" />
<glyph unicode="&#xc8;" horiz-adv-x="1171" d="M0 1426zM149 0v1397h927v-218h-639v-350h603v-218h-603v-393h662v-218h-950zM332 1812h315l190 -297h-224zM638 1515zM638 1515zM833 0z" />
<glyph unicode="&#xc9;" horiz-adv-x="1171" d="M0 1426zM149 0v1397h927v-218h-639v-350h603v-218h-603v-393h662v-218h-950zM453 1515l197 297h308l-281 -297h-224zM638 1515zM638 1515zM833 0z" />
<glyph unicode="&#xca;" horiz-adv-x="1171" d="M0 1426zM149 0v1397h927v-218h-639v-350h603v-218h-603v-393h662v-218h-950zM302 1515l208 297h270l193 -297h-201l-133 162l-147 -162h-190zM638 1515zM638 1515zM833 0z" />
<glyph unicode="&#xcb;" horiz-adv-x="1171" d="M0 1426zM149 0v1397h927v-218h-639v-350h603v-218h-603v-393h662v-218h-950zM313 1560v236h243v-236h-243zM638 1515zM638 1515zM719 1560v236h243v-236h-243zM833 0z" />
<glyph unicode="&#xcc;" horiz-adv-x="566" d="M-22 1812h315l190 -297h-224zM0 1426zM140 0v1397h288v-1397h-288zM283 0zM284 1515zM284 1515z" />
<glyph unicode="&#xcd;" horiz-adv-x="566" d="M0 1426zM99 1515l197 297h308l-281 -297h-224zM140 0v1397h288v-1397h-288zM283 0zM284 1515zM284 1515z" />
<glyph unicode="&#xce;" horiz-adv-x="566" d="M-52 1515l208 297h270l193 -297h-201l-133 162l-147 -162h-190zM0 1426zM140 0v1397h288v-1397h-288zM283 0zM284 1515zM284 1515z" />
<glyph unicode="&#xcf;" horiz-adv-x="566" d="M-41 1560v236h243v-236h-243zM0 1426zM140 0v1397h288v-1397h-288zM283 0zM284 1515zM284 1515zM365 1560v236h243v-236h-243z" />
<glyph unicode="&#xd0;" horiz-adv-x="1473" d="M40 633v171h113v593h296h213q399 0 557 -195t158 -498q0 -330 -183 -517q-182 -187 -616 -187h-143h-282v633h-113zM441 218h185q238 0 350 120q113 120 113 361q0 236 -113 358q-112 122 -373 122h-28h-134v-375h223v-171h-223v-415z" />
<glyph unicode="&#xd1;" horiz-adv-x="1473" d="M0 1426zM140 0v1397h419l503 -1015v1015h266v-1397h-387l-535 1102v-1102h-266zM419 1511q0 147 57 218q58 72 153 72q79 0 163 -56t122 -56q36 0 47 28t11 84h160q0 -141 -54 -216q-54 -74 -152 -74q-93 0 -177 56q-83 56 -112 56q-22 0 -36 -16q-14 -15 -19 -96h-163z M739 0zM776 1515zM776 1515z" />
<glyph unicode="&#xd2;" horiz-adv-x="1548" d="M113 687q0 355 170 547q171 192 487 192q302 0 479 -181q178 -180 178 -541q0 -353 -165 -543q-164 -190 -492 -190q-316 0 -487 180q-170 180 -170 536zM401 706q0 -273 95 -395t277 -122q187 0 276 129q90 129 90 388q0 233 -88 367q-88 135 -281 135q-191 0 -280 -126 q-89 -125 -89 -376zM464 1812h315l190 -297h-224zM770 1515zM770 1515z" />
<glyph unicode="&#xd3;" horiz-adv-x="1548" d="M113 687q0 355 170 547q171 192 487 192q302 0 479 -181q178 -180 178 -541q0 -353 -165 -543q-164 -190 -492 -190q-316 0 -487 180q-170 180 -170 536zM401 706q0 -273 95 -395t277 -122q187 0 276 129q90 129 90 388q0 233 -88 367q-88 135 -281 135q-191 0 -280 -126 q-89 -125 -89 -376zM585 1515l197 297h308l-281 -297h-224zM770 1515zM770 1515z" />
<glyph unicode="&#xd4;" horiz-adv-x="1548" d="M113 687q0 355 170 547q171 192 487 192q302 0 479 -181q178 -180 178 -541q0 -353 -165 -543q-164 -190 -492 -190q-316 0 -487 180q-170 180 -170 536zM401 706q0 -273 95 -395t277 -122q187 0 276 129q90 129 90 388q0 233 -88 367q-88 135 -281 135q-191 0 -280 -126 q-89 -125 -89 -376zM434 1515l208 297h270l193 -297h-201l-133 162l-147 -162h-190zM770 1515zM770 1515z" />
<glyph unicode="&#xd5;" horiz-adv-x="1548" d="M113 687q0 355 170 547q171 192 487 192q302 0 479 -181q178 -180 178 -541q0 -353 -165 -543q-164 -190 -492 -190q-316 0 -487 180q-170 180 -170 536zM401 706q0 -273 95 -395t277 -122q187 0 276 129q90 129 90 388q0 233 -88 367q-88 135 -281 135q-191 0 -280 -126 q-89 -125 -89 -376zM413 1511q0 147 57 218q58 72 153 72q79 0 163 -56t122 -56q36 0 47 28t11 84h160q0 -141 -54 -216q-54 -74 -152 -74q-93 0 -177 56q-83 56 -112 56q-22 0 -36 -16q-14 -15 -19 -96h-163zM770 1515zM770 1515z" />
<glyph unicode="&#xd6;" horiz-adv-x="1548" d="M113 687q0 355 170 547q171 192 487 192q302 0 479 -181q178 -180 178 -541q0 -353 -165 -543q-164 -190 -492 -190q-316 0 -487 180q-170 180 -170 536zM401 706q0 -273 95 -395t277 -122q187 0 276 129q90 129 90 388q0 233 -88 367q-88 135 -281 135q-191 0 -280 -126 q-89 -125 -89 -376zM445 1560v236h243v-236h-243zM770 1515zM770 1515zM851 1560v236h243v-236h-243z" />
<glyph unicode="&#xd7;" horiz-adv-x="2039" d="M490 153l418 418l-418 418l102 102l418 -418l418 418l102 -102l-418 -418l418 -418l-102 -102l-418 418l-418 -418z" />
<glyph unicode="&#xd8;" horiz-adv-x="1548" d="M99 66l136 149q-122 163 -122 487q0 333 169 528q169 196 483 196q153 0 266 -42q113 -41 180 -93l122 135l108 -99l-136 -150q122 -199 122 -476q0 -343 -163 -537q-162 -193 -487 -193q-129 0 -242 31q-113 32 -197 106l-126 -137zM401 697q0 -158 35 -245l10 -4 l592 655q-74 105 -261 105q-199 0 -288 -128q-88 -128 -88 -383zM509 297q49 -51 117 -80q68 -28 151 -28q179 0 270 125q92 125 92 404q0 155 -36 230z" />
<glyph unicode="&#xd9;" horiz-adv-x="1473" d="M0 1426zM135 551v66v780h288v-783v-88q0 -165 81 -251t219 -86q136 0 220 78q84 79 84 267v80v783h288v-780v-109q0 -245 -163 -391q-162 -146 -427 -146q-259 0 -425 136q-165 136 -165 444zM419 1812h315l190 -297h-224zM725 1515zM725 1515zM849 0z" />
<glyph unicode="&#xda;" horiz-adv-x="1473" d="M0 1426zM135 551v66v780h288v-783v-88q0 -165 81 -251t219 -86q136 0 220 78q84 79 84 267v80v783h288v-780v-109q0 -245 -163 -391q-162 -146 -427 -146q-259 0 -425 136q-165 136 -165 444zM540 1515l197 297h308l-281 -297h-224zM725 1515zM725 1515zM849 0z" />
<glyph unicode="&#xdb;" horiz-adv-x="1473" d="M0 1426zM135 551v66v780h288v-783v-88q0 -165 81 -251t219 -86q136 0 220 78q84 79 84 267v80v783h288v-780v-109q0 -245 -163 -391q-162 -146 -427 -146q-259 0 -425 136q-165 136 -165 444zM389 1515l208 297h270l193 -297h-201l-133 162l-147 -162h-190zM725 1515z M725 1515zM849 0z" />
<glyph unicode="&#xdc;" horiz-adv-x="1473" d="M0 1426zM135 551v66v780h288v-783v-88q0 -165 81 -251t219 -86q136 0 220 78q84 79 84 267v80v783h288v-780v-109q0 -245 -163 -391q-162 -146 -427 -146q-259 0 -425 136q-165 136 -165 444zM400 1560v236h243v-236h-243zM725 1515zM725 1515zM806 1560v236h243v-236 h-243zM849 0z" />
<glyph unicode="&#xdd;" horiz-adv-x="1397" d="M0 1426zM45 1397h342l325 -600l310 600h306l-490 -857v-540h-288v540zM502 1515l197 297h308l-281 -297h-224zM687 1515zM687 1515z" />
<glyph unicode="&#xde;" horiz-adv-x="1208" d="M149 0v1397h288v-248h114h112q264 0 383 -117q119 -116 119 -309q0 -200 -122 -316q-121 -116 -399 -116h-93h-114v-291h-288zM437 509h117h55q134 0 201 53q67 54 67 161q0 93 -56 150q-56 58 -180 58h-87h-117v-422z" />
<glyph unicode="&#xdf;" horiz-adv-x="1246" d="M137 0v978q0 226 120 315q121 90 331 90q171 0 297 -72t126 -203q0 -71 -33 -123t-89 -107q-46 -44 -75 -77q-28 -32 -28 -56q0 -26 28 -50q29 -23 91 -60l141 -90q97 -62 130 -121q34 -59 34 -140q0 -125 -100 -218q-99 -92 -291 -92q-152 0 -237 58t-98 237h223 q0 -122 111 -122q58 0 92 36q35 36 35 97q0 68 -44 106t-117 72q-151 74 -207 133q-56 60 -56 125t39 114q40 49 135 152q31 34 41 55q10 22 10 44q0 54 -46 91q-46 38 -122 38q-91 0 -134 -48q-42 -47 -42 -188v-974h-265z" />
<glyph unicode="&#xe0;" horiz-adv-x="1095" d="M87 278q0 163 123 259q124 96 463 96h53v57q0 65 -41 104q-41 40 -133 40q-163 0 -163 -139h-265q0 156 108 234t319 78q213 0 326 -84q114 -84 114 -282v-363q0 -182 25 -278h-257l-21 117q-66 -83 -141 -113q-74 -30 -169 -30q-166 0 -254 83q-87 84 -87 221zM256 1393 h315l190 -297h-224zM352 290q0 -67 45 -105q46 -38 120 -38q108 0 158 72q51 73 51 208v44q-247 0 -311 -55q-63 -54 -63 -126zM562 1096zM562 1096zM791 0z" />
<glyph unicode="&#xe1;" horiz-adv-x="1095" d="M87 278q0 163 123 259q124 96 463 96h53v57q0 65 -41 104q-41 40 -133 40q-163 0 -163 -139h-265q0 156 108 234t319 78q213 0 326 -84q114 -84 114 -282v-363q0 -182 25 -278h-257l-21 117q-66 -83 -141 -113q-74 -30 -169 -30q-166 0 -254 83q-87 84 -87 221zM352 290 q0 -67 45 -105q46 -38 120 -38q108 0 158 72q51 73 51 208v44q-247 0 -311 -55q-63 -54 -63 -126zM377 1096l197 297h308l-281 -297h-224zM562 1096zM562 1096zM791 0z" />
<glyph unicode="&#xe2;" horiz-adv-x="1095" d="M87 278q0 163 123 259q124 96 463 96h53v57q0 65 -41 104q-41 40 -133 40q-163 0 -163 -139h-265q0 156 108 234t319 78q213 0 326 -84q114 -84 114 -282v-363q0 -182 25 -278h-257l-21 117q-66 -83 -141 -113q-74 -30 -169 -30q-166 0 -254 83q-87 84 -87 221zM226 1096 l208 297h270l193 -297h-201l-133 162l-147 -162h-190zM352 290q0 -67 45 -105q46 -38 120 -38q108 0 158 72q51 73 51 208v44q-247 0 -311 -55q-63 -54 -63 -126zM562 1096zM562 1096zM791 0z" />
<glyph unicode="&#xe3;" horiz-adv-x="1095" d="M87 278q0 163 123 259q124 96 463 96h53v57q0 65 -41 104q-41 40 -133 40q-163 0 -163 -139h-265q0 156 108 234t319 78q213 0 326 -84q114 -84 114 -282v-363q0 -182 25 -278h-257l-21 117q-66 -83 -141 -113q-74 -30 -169 -30q-166 0 -254 83q-87 84 -87 221zM205 1092 q0 147 57 218q58 72 153 72q79 0 163 -56t122 -56q36 0 47 28t11 84h160q0 -141 -54 -216q-54 -74 -152 -74q-93 0 -177 56q-83 56 -112 56q-22 0 -36 -16q-14 -15 -19 -96h-163zM352 290q0 -67 45 -105q46 -38 120 -38q108 0 158 72q51 73 51 208v44q-247 0 -311 -55 q-63 -54 -63 -126zM562 1096zM562 1096zM791 0z" />
<glyph unicode="&#xe4;" horiz-adv-x="1095" d="M87 278q0 163 123 259q124 96 463 96h53v57q0 65 -41 104q-41 40 -133 40q-163 0 -163 -139h-265q0 156 108 234t319 78q213 0 326 -84q114 -84 114 -282v-363q0 -182 25 -278h-257l-21 117q-66 -83 -141 -113q-74 -30 -169 -30q-166 0 -254 83q-87 84 -87 221zM237 1141 v236h243v-236h-243zM352 290q0 -67 45 -105q46 -38 120 -38q108 0 158 72q51 73 51 208v44q-247 0 -311 -55q-63 -54 -63 -126zM562 1096zM562 1096zM643 1141v236h243v-236h-243zM791 0z" />
<glyph unicode="&#xe5;" horiz-adv-x="1095" d="M87 278q0 163 123 259q124 96 463 96h53v57q0 65 -41 104q-41 40 -133 40q-163 0 -163 -139h-265q0 156 108 234t319 78q213 0 326 -84q114 -84 114 -282v-363q0 -182 25 -278h-257l-21 117q-66 -83 -141 -113q-74 -30 -169 -30q-166 0 -254 83q-87 84 -87 221zM334 1323 q0 99 66 165t162 66q91 0 159 -65q69 -65 69 -166q0 -92 -66 -160q-66 -67 -160 -67q-99 0 -165 67q-65 68 -65 160zM352 290q0 -67 45 -105q46 -38 120 -38q108 0 158 72q51 73 51 208v44q-247 0 -311 -55q-63 -54 -63 -126zM463 1323q0 -39 26 -68q27 -28 74 -28 q38 0 68 25t30 72q0 42 -31 70q-30 29 -69 29q-46 0 -72 -30t-26 -70zM562 1096zM562 1096zM791 0z" />
<glyph unicode="&#xe6;" horiz-adv-x="1737" d="M87 282q0 156 118 258q119 102 421 102h100v49q0 73 -43 108t-131 35q-89 0 -125 -34q-36 -33 -38 -105h-265q0 160 110 236q111 76 287 76q121 0 207 -40t138 -134q42 73 138 123q97 51 215 51q188 0 307 -127q119 -126 119 -370v-81h-654v-27q0 -124 56 -190 q56 -65 142 -65q67 0 120 46q54 47 54 138h265q0 -168 -120 -263q-119 -94 -304 -94q-147 0 -234 56q-86 57 -134 170q-134 -226 -401 -226q-173 0 -261 83q-87 83 -87 225zM352 294q0 -62 41 -105q42 -42 124 -42q103 0 156 72q53 73 53 192v69q-259 -3 -317 -58 q-57 -54 -57 -128zM995 591h385q0 109 -47 176q-46 67 -139 67q-88 0 -139 -59t-60 -184z" />
<glyph unicode="&#xe7;" horiz-adv-x="1095" d="M99 491q0 243 130 379q131 137 369 137q183 0 295 -85q113 -85 125 -287h-265q0 199 -176 199q-114 0 -164 -83q-49 -82 -49 -247q0 -357 214 -357q90 0 132 53q43 53 43 160h265q0 -190 -121 -288t-317 -98q-233 0 -357 134t-124 383zM328 -405l169 282h217l-112 -282 h-274zM584 0zM584 0zM584 1096z" />
<glyph unicode="&#xe8;" horiz-adv-x="1095" d="M87 478q0 247 125 388q126 141 352 141q208 0 325 -129t117 -386v-63h-654q0 -282 198 -282q67 0 120 46q54 47 54 138h265q0 -164 -117 -261q-117 -96 -316 -96q-233 0 -351 131q-118 132 -118 373zM255 1393h315l190 -297h-224zM356 591h385q-17 243 -186 243 q-88 0 -140 -61q-51 -60 -59 -182zM561 1096zM561 1096zM633 0z" />
<glyph unicode="&#xe9;" horiz-adv-x="1095" d="M87 478q0 247 125 388q126 141 352 141q208 0 325 -129t117 -386v-63h-654q0 -282 198 -282q67 0 120 46q54 47 54 138h265q0 -164 -117 -261q-117 -96 -316 -96q-233 0 -351 131q-118 132 -118 373zM356 591h385q-17 243 -186 243q-88 0 -140 -61q-51 -60 -59 -182z M376 1096l197 297h308l-281 -297h-224zM561 1096zM561 1096zM633 0z" />
<glyph unicode="&#xea;" horiz-adv-x="1095" d="M87 478q0 247 125 388q126 141 352 141q208 0 325 -129t117 -386v-63h-654q0 -282 198 -282q67 0 120 46q54 47 54 138h265q0 -164 -117 -261q-117 -96 -316 -96q-233 0 -351 131q-118 132 -118 373zM225 1096l208 297h270l193 -297h-201l-133 162l-147 -162h-190z M356 591h385q-17 243 -186 243q-88 0 -140 -61q-51 -60 -59 -182zM561 1096zM561 1096zM633 0z" />
<glyph unicode="&#xeb;" horiz-adv-x="1095" d="M87 478q0 247 125 388q126 141 352 141q208 0 325 -129t117 -386v-63h-654q0 -282 198 -282q67 0 120 46q54 47 54 138h265q0 -164 -117 -261q-117 -96 -316 -96q-233 0 -351 131q-118 132 -118 373zM236 1141v236h243v-236h-243zM356 591h385q-17 243 -186 243 q-88 0 -140 -61q-51 -60 -59 -182zM561 1096zM561 1096zM633 0zM642 1141v236h243v-236h-243z" />
<glyph unicode="&#xec;" horiz-adv-x="491" d="M-61 1393h315l190 -297h-224zM0 1007zM112 0v981h265v-981h-265zM245 1096zM245 1096z" />
<glyph unicode="&#xed;" horiz-adv-x="491" d="M0 1007zM60 1096l197 297h308l-281 -297h-224zM112 0v981h265v-981h-265zM245 1096zM245 1096z" />
<glyph unicode="&#xee;" horiz-adv-x="491" d="M-91 1096l208 297h270l193 -297h-201l-133 162l-147 -162h-190zM0 1007zM112 0v981h265v-981h-265zM245 1096zM245 1096z" />
<glyph unicode="&#xef;" horiz-adv-x="491" d="M-80 1141v236h243v-236h-243zM0 1007zM112 0v981h265v-981h-265zM245 1096zM245 1096zM326 1141v236h243v-236h-243z" />
<glyph unicode="&#xf0;" horiz-adv-x="1171" d="M83 486q0 234 124 377q124 144 344 144q48 0 87 -7t62 -12q-65 110 -148 193l-238 -85l-37 111l188 68q-68 72 -114 112l219 70l96 -92l15 -13l209 75l37 -111l-158 -57q143 -166 225 -369t82 -414q0 -216 -127 -359q-126 -143 -366 -143q-233 0 -367 135 q-133 135 -133 377zM348 496q0 -349 232 -349q121 0 176 83q55 84 55 271q0 333 -228 333q-127 0 -181 -86q-54 -85 -54 -252z" />
<glyph unicode="&#xf1;" horiz-adv-x="1171" d="M120 0v981h265v-152q87 178 316 178q165 0 259 -92t94 -300v-68v-547h-265v570q0 264 -186 264q-105 0 -162 -73q-56 -72 -56 -230v-531h-265zM263 1092q0 147 57 218q58 72 153 72q79 0 163 -56t122 -56q36 0 47 28t11 84h160q0 -141 -54 -216q-54 -74 -152 -74 q-93 0 -177 56q-83 56 -112 56q-22 0 -36 -16q-14 -15 -19 -96h-163zM587 0zM620 1096zM620 1096z" />
<glyph unicode="&#xf2;" horiz-adv-x="1171" d="M87 495q0 236 127 374q128 138 377 138q244 0 366 -136q123 -135 123 -381q0 -234 -130 -375q-129 -141 -367 -141q-229 0 -363 136q-133 136 -133 385zM285 1393h315l190 -297h-224zM352 493q0 -346 235 -346q228 0 228 341q0 346 -228 346q-235 0 -235 -341zM591 1096z M591 1096z" />
<glyph unicode="&#xf3;" horiz-adv-x="1171" d="M87 495q0 236 127 374q128 138 377 138q244 0 366 -136q123 -135 123 -381q0 -234 -130 -375q-129 -141 -367 -141q-229 0 -363 136q-133 136 -133 385zM352 493q0 -346 235 -346q228 0 228 341q0 346 -228 346q-235 0 -235 -341zM406 1096l197 297h308l-281 -297h-224z M591 1096zM591 1096z" />
<glyph unicode="&#xf4;" horiz-adv-x="1171" d="M87 495q0 236 127 374q128 138 377 138q244 0 366 -136q123 -135 123 -381q0 -234 -130 -375q-129 -141 -367 -141q-229 0 -363 136q-133 136 -133 385zM255 1096l208 297h270l193 -297h-201l-133 162l-147 -162h-190zM352 493q0 -346 235 -346q228 0 228 341 q0 346 -228 346q-235 0 -235 -341zM591 1096zM591 1096z" />
<glyph unicode="&#xf5;" horiz-adv-x="1171" d="M87 495q0 236 127 374q128 138 377 138q244 0 366 -136q123 -135 123 -381q0 -234 -130 -375q-129 -141 -367 -141q-229 0 -363 136q-133 136 -133 385zM234 1092q0 147 57 218q58 72 153 72q79 0 163 -56t122 -56q36 0 47 28t11 84h160q0 -141 -54 -216 q-54 -74 -152 -74q-93 0 -177 56q-83 56 -112 56q-22 0 -36 -16q-14 -15 -19 -96h-163zM352 493q0 -346 235 -346q228 0 228 341q0 346 -228 346q-235 0 -235 -341zM591 1096zM591 1096z" />
<glyph unicode="&#xf6;" horiz-adv-x="1171" d="M87 495q0 236 127 374q128 138 377 138q244 0 366 -136q123 -135 123 -381q0 -234 -130 -375q-129 -141 -367 -141q-229 0 -363 136q-133 136 -133 385zM266 1141v236h243v-236h-243zM352 493q0 -346 235 -346q228 0 228 341q0 346 -228 346q-235 0 -235 -341zM591 1096z M591 1096zM672 1141v236h243v-236h-243z" />
<glyph unicode="&#xf7;" horiz-adv-x="2039" d="M446 509v145h1153v-145h-1153zM907 273q0 48 33 82q34 35 83 35q47 0 81 -35t34 -83q0 -50 -34 -85t-82 -35t-82 35q-33 35 -33 86zM907 895q0 48 33 82q34 34 83 34q47 0 81 -35q34 -34 34 -82q0 -51 -34 -86t-82 -35t-82 35q-33 36 -33 87z" />
<glyph unicode="&#xf8;" horiz-adv-x="1171" d="M87 58l94 99q-94 142 -94 335q0 239 128 377t370 138q90 0 172 -23q82 -22 147 -66l85 89l95 -84l-93 -97q89 -126 89 -337q0 -238 -131 -377q-130 -138 -360 -138q-90 0 -173 23q-82 23 -147 70l-87 -93zM352 509q0 -60 15 -152l384 401q-55 76 -165 76q-118 0 -176 -82 q-58 -81 -58 -243zM417 222q59 -75 166 -75q116 0 174 82t58 252q0 68 -14 143z" />
<glyph unicode="&#xf9;" horiz-adv-x="1171" d="M0 1007zM116 355v107v519h265v-476v-118q0 -123 49 -182q49 -58 134 -58q99 0 160 65q61 66 61 238v36v495h265v-981h-257v137q-48 -74 -129 -119q-80 -44 -194 -44q-179 0 -267 95q-87 95 -87 286zM277 1393h315l190 -297h-224zM583 1096zM583 1096zM820 0z" />
<glyph unicode="&#xfa;" horiz-adv-x="1171" d="M0 1007zM116 355v107v519h265v-476v-118q0 -123 49 -182q49 -58 134 -58q99 0 160 65q61 66 61 238v36v495h265v-981h-257v137q-48 -74 -129 -119q-80 -44 -194 -44q-179 0 -267 95q-87 95 -87 286zM398 1096l197 297h308l-281 -297h-224zM583 1096zM583 1096zM820 0z " />
<glyph unicode="&#xfb;" horiz-adv-x="1171" d="M0 1007zM116 355v107v519h265v-476v-118q0 -123 49 -182q49 -58 134 -58q99 0 160 65q61 66 61 238v36v495h265v-981h-257v137q-48 -74 -129 -119q-80 -44 -194 -44q-179 0 -267 95q-87 95 -87 286zM247 1096l208 297h270l193 -297h-201l-133 162l-147 -162h-190z M583 1096zM583 1096zM820 0z" />
<glyph unicode="&#xfc;" horiz-adv-x="1171" d="M0 1007zM116 355v107v519h265v-476v-118q0 -123 49 -182q49 -58 134 -58q99 0 160 65q61 66 61 238v36v495h265v-981h-257v137q-48 -74 -129 -119q-80 -44 -194 -44q-179 0 -267 95q-87 95 -87 286zM258 1141v236h243v-236h-243zM583 1096zM583 1096zM664 1141v236h243 v-236h-243zM820 0z" />
<glyph unicode="&#xfd;" horiz-adv-x="1133" d="M0 1007zM50 981h294l229 -642l244 642h273l-544 -1337h-256l158 355zM385 1096l197 297h308l-281 -297h-224zM570 1096zM570 1096z" />
<glyph unicode="&#xfe;" horiz-adv-x="1171" d="M124 -356v1768h265v-554q95 149 287 149q186 0 299 -134t113 -378q0 -257 -124 -389q-123 -132 -296 -132q-79 0 -146 28t-133 91v-449h-265zM377 485q0 -172 60 -255q61 -83 165 -83q100 0 160 92q61 93 61 273q0 143 -56 232q-56 90 -164 90q-105 0 -166 -88 q-60 -87 -60 -261z" />
<glyph unicode="&#xff;" horiz-adv-x="1133" d="M0 1007zM50 981h294l229 -642l244 642h273l-544 -1337h-256l158 355zM245 1141v236h243v-236h-243zM570 1096zM570 1096zM651 1141v236h243v-236h-243z" />
<glyph unicode="&#x152;" horiz-adv-x="2039" d="M122 687q0 338 182 527q182 190 543 190h39q52 0 117 -4q66 -3 127 -3h803v-218h-646v-350h605v-218h-605v-393h669v-218h-831q-24 0 -110 -4q-85 -3 -164 -3q-351 0 -540 176t-189 518zM410 695q0 -246 115 -365q116 -119 366 -119q53 0 108 8v956q-65 11 -124 11 q-233 0 -349 -118t-116 -373z" />
<glyph unicode="&#x153;" horiz-adv-x="1850" d="M103 495q0 248 137 380q138 132 350 132q119 0 220 -49t152 -159q49 98 137 153q89 55 217 55q189 0 311 -125q123 -124 123 -393v-60h-654q0 -155 57 -219q58 -63 150 -63q77 0 128 48q51 49 54 136h265q-4 -166 -121 -262q-117 -95 -310 -95q-132 0 -218 44 q-85 45 -139 164q-57 -109 -148 -159q-90 -49 -221 -49q-217 0 -354 137q-136 137 -136 384zM368 493q0 -199 59 -273q59 -73 176 -73q112 0 170 81t58 260q0 178 -53 262q-52 84 -175 84q-118 0 -177 -81q-58 -81 -58 -260zM1100 591h385q-4 126 -54 184q-50 59 -132 59 q-88 0 -142 -63q-53 -62 -57 -180z" />
<glyph unicode="&#x178;" horiz-adv-x="1397" d="M0 1426zM45 1397h342l325 -600l310 600h306l-490 -857v-540h-288v540zM362 1560v236h243v-236h-243zM687 1515zM687 1515zM768 1560v236h243v-236h-243z" />
<glyph unicode="&#x2c6;" d="M312 1100l208 297h270l193 -297h-201l-133 162l-147 -162h-190zM648 1100z" />
<glyph unicode="&#x2dc;" d="M312 1096q0 147 57 218q58 72 153 72q79 0 163 -56t122 -56q36 0 47 28t11 84h160q0 -141 -54 -216q-54 -74 -152 -74q-93 0 -177 56q-83 56 -112 56q-22 0 -36 -16q-14 -15 -19 -96h-163zM669 1100z" />
<glyph unicode="&#x2000;" horiz-adv-x="986" />
<glyph unicode="&#x2001;" horiz-adv-x="1973" />
<glyph unicode="&#x2002;" horiz-adv-x="986" />
<glyph unicode="&#x2003;" horiz-adv-x="1973" />
<glyph unicode="&#x2004;" horiz-adv-x="657" />
<glyph unicode="&#x2005;" horiz-adv-x="493" />
<glyph unicode="&#x2006;" horiz-adv-x="328" />
<glyph unicode="&#x2007;" horiz-adv-x="328" />
<glyph unicode="&#x2008;" horiz-adv-x="246" />
<glyph unicode="&#x2009;" horiz-adv-x="394" />
<glyph unicode="&#x200a;" horiz-adv-x="109" />
<glyph unicode="&#x2010;" horiz-adv-x="680" d="M134 439v172h490v-172h-490z" />
<glyph unicode="&#x2011;" horiz-adv-x="680" d="M134 439v172h490v-172h-490z" />
<glyph unicode="&#x2012;" horiz-adv-x="680" d="M134 439v172h490v-172h-490z" />
<glyph unicode="&#x2013;" d="M185 459v135h981v-135h-981z" />
<glyph unicode="&#x2014;" horiz-adv-x="2039" d="M313 459v135h1471v-135h-1471z" />
<glyph unicode="&#x2018;" horiz-adv-x="680" d="M166 966l209 431h192l-131 -431h-270z" />
<glyph unicode="&#x2019;" horiz-adv-x="680" d="M163 966l131 431h270l-209 -431h-192z" />
<glyph unicode="&#x201a;" horiz-adv-x="680" d="M163 -179l131 431h270l-209 -431h-192z" />
<glyph unicode="&#x201c;" horiz-adv-x="1020" d="M128 966l209 431h192l-131 -431h-270zM500 966l209 431h192l-131 -431h-270z" />
<glyph unicode="&#x201d;" horiz-adv-x="1020" d="M124 966l131 431h270l-209 -431h-192zM496 966l131 431h270l-209 -431h-192z" />
<glyph unicode="&#x201e;" horiz-adv-x="1020" d="M124 -179l131 431h270l-209 -431h-192zM496 -179l131 431h270l-209 -431h-192z" />
<glyph unicode="&#x2022;" horiz-adv-x="1020" d="M139 734q0 153 108 262q109 109 264 109q153 0 262 -109t109 -263t-111 -263q-110 -108 -261 -108t-261 108q-110 109 -110 264z" />
<glyph unicode="&#x2026;" horiz-adv-x="2039" d="M220 0v238h242v-238h-242zM889 0v238h242v-238h-242zM1558 0v238h242v-238h-242z" />
<glyph unicode="&#x202f;" horiz-adv-x="394" />
<glyph unicode="&#x2039;" horiz-adv-x="755" d="M107 490l203 -372h228l-168 372l168 372h-228z" />
<glyph unicode="&#x203a;" horiz-adv-x="755" d="M142 118l168 372l-168 372h228l203 -372l-203 -372h-228z" />
<glyph unicode="&#x205f;" horiz-adv-x="493" />
<glyph unicode="&#x20ac;" d="M33 505l37 150h124v34q0 22 1 55h-162l37 150h141q44 280 192 406t356 126q203 0 347 -116t144 -323h-269q-16 128 -77 183t-148 55q-107 0 -170 -84q-62 -83 -82 -236v-11h423l-33 -150h-398v-30q0 -25 1 -59h371l-33 -150h-327q0 -118 66 -221q66 -102 178 -102 q71 0 142 44q71 45 91 179h269q-12 -211 -159 -323q-147 -111 -345 -111q-213 0 -359 127q-145 127 -185 407h-173z" />
<glyph unicode="&#x2122;" horiz-adv-x="1248" d="M70 1299v84h382v-84h-149v-526h-84v526h-149zM526 773v610h160l110 -472l102 472h160v-610h-84v550l-124 -550h-107l-122 550h-11v-550h-84z" />
<glyph unicode="&#x25fc;" horiz-adv-x="980" d="M0 0v980h980v-980h-980z" />
</font>
</defs>
</svg>
