<?xml version="1.0" standalone="no"?>
<!DOCTYPE svg PUBLIC "-//W3C//DTD SVG 1.1//EN" "http://www.w3.org/Graphics/SVG/1.1/DTD/svg11.dtd" >
<svg xmlns="http://www.w3.org/2000/svg">
<metadata></metadata>
<defs>
<font id="univers_67_condensedboldRg" horiz-adv-x="1024" >
<font-face units-per-em="2048" ascent="1638" descent="-410" />
<missing-glyph horiz-adv-x="454" />
<glyph horiz-adv-x="0" />
<glyph unicode="&#xd;" horiz-adv-x="454" />
<glyph unicode=" "  horiz-adv-x="454" />
<glyph unicode="&#x09;" horiz-adv-x="454" />
<glyph unicode="&#xa0;" horiz-adv-x="454" />
<glyph unicode="!" horiz-adv-x="681" d="M197 1479h286l-45 -1084h-196zM217 0v246h246v-246h-246z" />
<glyph unicode="&#x22;" horiz-adv-x="681" d="M31 948v531h245v-531h-245zM406 948v531h245v-531h-245z" />
<glyph unicode="#" horiz-adv-x="909" d="M-4 395v209h180l29 221h-150v209h176l52 396h176l-51 -396h176l51 396h176l-51 -396h153v-209h-180l-28 -221h149v-209h-176l-51 -395h-176l51 395h-176l-52 -395h-176l52 395h-154zM352 604h176l29 221h-176z" />
<glyph unicode="$" horiz-adv-x="909" d="M20 432h283q0 -104 14 -149q23 -76 93 -88v397q-176 104 -246 180q-125 131 -125 305q0 334 371 371v158h88v-158q207 -4 290 -109q76 -94 76 -305h-270q14 182 -96 201v-369q207 -127 256 -174q133 -127 133 -317q0 -365 -389 -393v-177h-88v177q-231 2 -320 124 q-70 98 -70 326zM322 1096q0 -100 88 -172v311q-88 -27 -88 -139zM498 195q106 20 106 151q0 109 -106 189v-340z" />
<glyph unicode="%" horiz-adv-x="1593" d="M66 1042q0 184 55 275q68 113 239 113q172 0 240 -113q55 -90 55 -275q0 -190 -61 -274q-68 -94 -234 -94t-233 94q-61 84 -61 274zM260 1065q0 -135 16 -178q21 -51 84 -51t84 51q16 43 17 178q0 90 -10 129q-23 74 -91 74t-90 -74q-10 -39 -10 -129zM416 -43l598 1499 h151l-598 -1499h-151zM938 369q0 184 55 274q68 113 240 113t240 -113q55 -90 55 -274q0 -190 -62 -275q-67 -94 -233 -94t-234 94q-61 84 -61 275zM1133 391q0 -135 16 -178q21 -51 84 -51t84 51q16 43 16 178q0 90 -10 129q-23 74 -90 74q-68 0 -90 -74q-10 -39 -10 -129z " />
<glyph unicode="&#x26;" horiz-adv-x="1366" d="M25 424q0 231 290 422q-164 211 -163 371q0 123 128 204.5t318 81.5q137 0 240 -61q135 -78 135 -228q0 -127 -82 -231q-35 -45 -170 -166l231 -303q33 119 33 295h250q0 -346 -100 -506l223 -303h-303l-90 117q-143 -141 -412 -142q-256 0 -392 116t-136 333zM334 424 q0 -106 59.5 -166.5t165.5 -60.5q149 0 225 98l-301 369q-150 -117 -149 -240zM434 1202q0 -88 109 -213q147 92 147 203q0 127 -127 127q-51 0 -90 -33t-39 -84z" />
<glyph unicode="'" horiz-adv-x="512" d="M133 948v531h246v-531h-246z" />
<glyph unicode="(" horiz-adv-x="569" d="M68 666q0 327 217 880h161q-133 -559 -133 -882q0 -229 49 -496q41 -207 84 -416h-161q-115 342 -146 451q-72 266 -71 463z" />
<glyph unicode=")" horiz-adv-x="569" d="M123 -248q133 559 133 883q0 229 -47 495q-43 207 -86 416h162q115 -342 145 -450q72 -266 72 -463q0 -328 -217 -881h-162z" />
<glyph unicode="*" horiz-adv-x="909" d="M66 1024v199l280 -35l-166 221l172 94l103 -254l102 254l172 -94l-166 -221l281 35v-199l-281 37l182 -232l-174 -106l-116 281l-117 -281l-174 106l182 232z" />
<glyph unicode="+" d="M51 403v228h348v403h228v-403h346v-228h-346v-403h-228v403h-348z" />
<glyph unicode="," horiz-adv-x="454" d="M51 -199l84 469h268l-155 -469h-197z" />
<glyph unicode="-" horiz-adv-x="681" d="M90 449v208h502v-208h-502z" />
<glyph unicode="." horiz-adv-x="454" d="M104 0v270h246v-270h-246z" />
<glyph unicode="/" horiz-adv-x="569" d="M-66 -197l490 1676h209l-488 -1676h-211z" />
<glyph unicode="0" horiz-adv-x="909" d="M41 719q0 426 76 569q82 160 338 160t340 -160q74 -143 73 -569q0 -391 -61 -537q-88 -201 -352 -200q-264 0 -351 200q-63 145 -63 537zM330 715q0 -336 20 -424q20 -100 105 -101q84 0 106 101q18 88 19 424q0 348 -17 428q-20 96 -108 96t-109 -96q-16 -80 -16 -428z " />
<glyph unicode="1" horiz-adv-x="909" d="M100 940v268q188 104 277 222h274v-1430h-309v1100q-101 -84 -242 -160z" />
<glyph unicode="2" horiz-adv-x="909" d="M25 0v252l442 582q102 150 102 266q0 139 -108 139q-80 0 -107 -68q-18 -43 -18 -137h-289q-14 199 89.5 306.5t303.5 107.5q418 0 418 -369q0 -205 -207 -485q-63 -84 -323 -373h544v-221h-847z" />
<glyph unicode="3" horiz-adv-x="909" d="M25 387h288q0 -98 15 -133q25 -63 106 -64q141 0 141 222q0 147 -59 186q-45 33 -209 33v227q150 -6 198 31t48 180q0 170 -111 170q-70 0 -96 -51q-16 -37 -16 -115h-289q0 217 98 299q90 76 312 76q203 0 297 -89t94 -292q0 -289 -195 -317v-5q127 -25 178 -124 q39 -78 39 -224q0 -416 -446 -415q-215 0 -304 90t-89 315z" />
<glyph unicode="4" horiz-adv-x="909" d="M45 326v288l346 816h379v-883h113v-221h-113v-326h-283v326h-442zM266 547h246l18 682h-4z" />
<glyph unicode="5" horiz-adv-x="909" d="M59 336h289q0 -70 21 -103q27 -43 88 -43q92 0 118 103q10 43 11 180q0 127 -13 178q-27 109 -110 109q-57 0 -86 -55q-23 -43 -23 -105h-278v830h747v-222h-465v-356l4 -4q63 96 207 96q170 0 242 -119q63 -109 63 -352q0 -276 -108 -389q-98 -102 -328 -102 q-391 0 -379 354z" />
<glyph unicode="6" horiz-adv-x="909" d="M39 594q0 479 65 641q88 213 373 213q379 0 377 -328h-301q8 131 -100 131q-92 0 -113 -77q-18 -63 -18 -349q66 57 104 76q49 23 125 23q317 0 317 -455q0 -487 -430 -487q-250 0 -340 196q-59 131 -59 416zM328 442q-1 -252 118 -252q76 0 105 57.5t29 219.5 q0 143 -27 201.5t-104 58.5q-78 0 -103 -74q-18 -55 -18 -211z" />
<glyph unicode="7" horiz-adv-x="909" d="M63 1208v222h768v-273l-348 -1157h-321l391 1208h-490z" />
<glyph unicode="8" horiz-adv-x="909" d="M41 367q0 154 37 235q47 106 174 152v4q-199 51 -199 311q0 379 402 379q401 0 401 -379q0 -260 -199 -311v-4q127 -45 174 -152q37 -82 37 -235q1 -385 -413 -385t-414 385zM330 385q0 -195 125 -195t125 195q0 111 -15 160q-26 94 -110 94t-111 -94q-14 -49 -14 -160z M342 1053q0 -193 113 -193t112 193q1 186 -112 186t-113 -186z" />
<glyph unicode="9" horiz-adv-x="909" d="M39 940q0 508 407 508q285 0 371 -219q51 -133 51 -520q0 -354 -55 -496q-90 -231 -369 -231q-197 0 -286 75q-103 84 -99 279h287q0 -145 107 -146q98 0 116 101q10 51 11 356q-94 -94 -238 -94q-154 0 -233 123q-70 104 -70 264zM328 997q0 -248 123 -247 q129 0 129 254q0 248 -127 247q-125 0 -125 -254z" />
<glyph unicode=":" horiz-adv-x="454" d="M104 0v270h246v-270h-246zM104 764v270h246v-270h-246z" />
<glyph unicode=";" horiz-adv-x="454" d="M25 -199l84 469h268l-156 -469h-196zM104 768v266h246v-266h-246z" />
<glyph unicode="&#x3c;" d="M86 412v202l854 465v-227l-608 -342l608 -332v-227z" />
<glyph unicode="=" d="M51 203v227h922v-227h-922zM51 604v227h922v-227h-922z" />
<glyph unicode="&#x3e;" d="M84 -49v227l608 332l-608 342v227l854 -465v-202z" />
<glyph unicode="?" horiz-adv-x="909" d="M76 1083q0 180 45 265q86 156 340 155q164 0 264 -84q109 -90 109 -250q0 -145 -76 -268q-8 -14 -140 -182q-76 -98 -75 -176v-148h-211v211q0 88 109.5 268.5t109.5 272.5q0 147 -119 147q-74 0 -96 -69q-14 -41 -14 -142h-246zM317 0v246h246v-246h-246z" />
<glyph unicode="@" horiz-adv-x="1628" d="M88 741q0 317 223.5 539.5t540.5 222.5q348 0 539 -225q150 -176 149 -389q0 -238 -135 -408t-313 -170q-47 0 -88 31t-52 84l-4 4q-92 -119 -237 -119q-129 0 -199 119q-59 100 -59 238q0 190 96 321q106 143 287 144q154 0 202 -119h4l19 92h190l-71 -399 q-33 -182 -33 -201q0 -33 39 -33q76 0 142.5 111.5t68.5 249.5q6 305 -219 440q-141 86 -326 86q-258 0 -439.5 -181.5t-181.5 -437.5q0 -258 181.5 -440t439.5 -182t434 180h187q-100 -150 -267.5 -237t-353.5 -87q-317 0 -540.5 224.5t-223.5 541.5zM657 653 q0 -180 117 -180q219 0 219 358q0 72 -36 115t-97 43q-90 0 -146.5 -97t-56.5 -239z" />
<glyph unicode="A" horiz-adv-x="1251" d="M16 0l410 1479h408l401 -1479h-326l-82 328h-421l-84 -328h-306zM467 555h295l-150 639h-4z" />
<glyph unicode="B" horiz-adv-x="1251" d="M133 0v1479h549q203 0 303 -74q127 -90 127 -309q0 -276 -252 -326v-4q156 -23 221 -123q55 -86 56 -252q0 -391 -457 -391h-547zM442 227h172q213 0 213 209q0 211 -204 211h-181v-420zM442 874h207q61 0 107 41q55 49 55 148q0 82 -50 135t-128 53h-191v-377z" />
<glyph unicode="C" horiz-adv-x="1138" d="M115 739q0 387 63 529q106 235 444 235h3q431 0 431 -452q0 -19 -1 -39h-303q0 147 -29 208.5t-98 61.5q-123 0 -164 -129q-33 -106 -33 -414q0 -307 33 -413q41 -129 164 -129q92 0 123 106q12 47 18 195h305q0 -287 -115 -410q-104 -113 -331 -113q-340 0 -447 238 q-63 141 -63 526z" />
<glyph unicode="D" horiz-adv-x="1251" d="M135 0v1479h516q285 0 393 -193q88 -160 89 -538q0 -324 -50 -459q-104 -289 -444 -289h-504zM444 227h150q137 0 184 117q41 104 41 395q0 264 -26 359q-45 153 -187 153h-2h-160v-1024z" />
<glyph unicode="E" d="M129 0v1479h807v-228h-498v-364h459v-228h-459v-432h514v-227h-823z" />
<glyph unicode="F" horiz-adv-x="909" d="M123 0v1479h768v-228h-459v-379h438v-227h-438v-645h-309z" />
<glyph unicode="G" horiz-adv-x="1251" d="M115 752q0 365 71 516q115 235 450 235h3q231 0 359 -125q115 -113 115 -310q0 -21 -1 -44h-307v14q0 112 -31 166q-41 78 -153 78q-129 0 -168 -166q-25 -100 -25 -381q0 -342 43 -443.5t178 -101.5q72 0 154 29v328h-168v227h477v-749q-252 -49 -418 -50 q-371 0 -485 179q-94 145 -94 598z" />
<glyph unicode="H" horiz-adv-x="1251" d="M139 0v1479h310v-592h354v592h309v-1479h-309v659h-354v-659h-310z" />
<glyph unicode="I" horiz-adv-x="569" d="M129 0v1479h309v-1479h-309z" />
<glyph unicode="J" d="M31 492h315q0 -162 6 -193q25 -102 129 -102q51 0 85 38.5t34 88.5v1155h309v-1135q0 -182 -131 -281q-117 -88 -297 -88q-299 0 -387 134q-63 92 -63 383z" />
<glyph unicode="K" horiz-adv-x="1138" d="M111 0v1479h309v-633h4l362 633h340l-413 -664l413 -815h-348l-354 758h-4v-758h-309z" />
<glyph unicode="L" horiz-adv-x="909" d="M131 0v1479h309v-1233h463v-246h-772z" />
<glyph unicode="M" horiz-adv-x="1705" d="M123 0v1479h498l231 -1006h4l246 1006h481v-1479h-301v1141h-4l-285 -1141h-295l-270 1141h-4v-1141h-301z" />
<glyph unicode="N" horiz-adv-x="1366" d="M131 0v1479h418l393 -1024h4v1024h289v-1479h-408l-403 1081h-4v-1081h-289z" />
<glyph unicode="O" horiz-adv-x="1251" d="M115 739q0 387 63 529q106 235 444 235h3q340 0 446 -235q63 -141 64 -529q0 -385 -64 -526q-106 -238 -446 -238t-447 238q-63 141 -63 526zM428 739q0 -307 33 -413q41 -129 164 -129t163 129q33 106 33 413t-33 414q-41 129 -163 129q-123 0 -164 -129 q-33 -106 -33 -414z" />
<glyph unicode="P" horiz-adv-x="1138" d="M131 0v1479h557q393 0 393 -443q0 -434 -411 -434h-230v-602h-309zM440 829h172q68 0 113 64q43 57 43 135q0 223 -172 223h-156v-422z" />
<glyph unicode="Q" horiz-adv-x="1251" d="M115 739q0 387 63 529q106 235 444 235h3q340 0 446 -235q63 -141 64 -529q0 -231 -43 -360q-41 -119 -138 -199l4 -4q14 4 84 31q53 20 72 20h129v-227h-436q-31 0 -90.5 -7t-87.5 -7q-322 0 -428 184q-86 150 -86 569zM428 739q0 -299 33 -403q41 -129 164 -129 t163 129q33 104 33 403q0 307 -33 414q-41 129 -163 129q-123 0 -164 -129q-33 -106 -33 -414z" />
<glyph unicode="R" horiz-adv-x="1138" d="M123 0v1479h571q162 0 254 -100.5t92 -286.5q0 -317 -274 -363v-4q268 -33 268 -291q0 -360 35 -434h-303q-27 57 -31 141q-2 16 -2 146q0 178 -20 229q-43 96 -201 96h-80v-612h-309zM432 840h137q84 0 125 73q33 57 33 144q0 194 -156 194h-2h-137v-411z" />
<glyph unicode="S" horiz-adv-x="1138" d="M90 393q0 31 2 64h309q0 -133 25 -183q37 -77 149 -77h3q155 0 155 166q0 108 -162 210q-291 182 -299 191q-162 135 -161 323q0 416 487 416q432 0 432 -393q0 -25 -2 -51h-301q0 223 -143 223q-160 0 -160 -158q0 -113 162 -209q289 -172 299 -180q162 -133 162 -332 q0 -256 -170 -358q-119 -70 -347 -70q-440 0 -440 418z" />
<glyph unicode="T" d="M12 1233v246h998v-246h-344v-1233h-310v1233h-344z" />
<glyph unicode="U" horiz-adv-x="1251" d="M123 430v1049h309v-1028q0 -254 191 -254q197 0 196 254v1028h309v-1049q0 -190 -108 -309q-133 -145 -393 -146q-250 0 -379 123q-125 117 -125 332z" />
<glyph unicode="V" horiz-adv-x="1138" d="M10 1479h322l229 -1076h4l258 1076h305l-391 -1479h-362z" />
<glyph unicode="W" horiz-adv-x="1820" d="M-2 1479h317l193 -1039h4l233 1039h365l221 -1039h4l185 1039h303l-328 -1479h-342l-231 1081h-4l-256 -1081h-336z" />
<glyph unicode="X" horiz-adv-x="1138" d="M6 0l383 774l-356 705h352l211 -486l207 486h321l-368 -731l374 -748h-350l-227 510l-227 -510h-320z" />
<glyph unicode="Y" horiz-adv-x="1138" d="M14 1479h338l221 -625l236 625h315l-413 -967v-512h-310v512z" />
<glyph unicode="Z" d="M45 0v270l621 981h-592v228h891v-269l-623 -983h637v-227h-934z" />
<glyph unicode="[" horiz-adv-x="569" d="M90 -248v1794h434v-178h-207v-1438h207v-178h-434z" />
<glyph unicode="\" horiz-adv-x="512" d="M-170 1479h219l631 -1479h-219z" />
<glyph unicode="]" horiz-adv-x="569" d="M45 -70h207v1438h-207v178h434v-1794h-434v178z" />
<glyph unicode="^" d="M6 561l373 869h266l373 -869h-258l-248 613l-248 -613h-258z" />
<glyph unicode="_" d="M0 -154h1024v-102h-1024v102z" />
<glyph unicode="`" horiz-adv-x="569" d="M0 1479h276l185 -293h-133z" />
<glyph unicode="a" d="M84 309q0 229 166 305q103 48 338 48h28v79q0 78 -18 109q-27 43 -98 43q-68 0 -92 -47q-16 -35 -17 -111h-282q0 319 376 320q250 0 344 -103q70 -75 70 -243v-516q0 -45 14 -193h-268l-12 137h-4q-89 -157 -269 -157h-2q-274 0 -274 329zM367 322q0 -164 106 -164 q109 0 135 129q8 39 8 213q-143 -6 -178 -23q-72 -33 -71 -155z" />
<glyph unicode="b" d="M115 0v1479h288v-543h5q80 119 235 119q190 0 250 -187q33 -100 33 -344q0 -250 -33 -352q-61 -192 -254 -192h-2q-172 0 -244 135h-4v-115h-274zM403 526q0 -168 9 -219q22 -149 108 -149q90 0 115 147q8 51 8 221q0 193 -14 252q-25 98 -109 99q-80 0 -102 -99 q-14 -59 -15 -252z" />
<glyph unicode="c" d="M90 530q0 256 68 369q94 156 354 156q418 0 418 -389h-289q0 113 -29.5 158.5t-99.5 45.5q-86 0 -113 -82q-20 -61 -20 -241q0 -236 26.5 -309.5t106.5 -73.5q133 0 133 217h289q0 -401 -422 -401q-258 0 -350 153q-72 119 -72 397z" />
<glyph unicode="d" d="M94 524q0 244 33 344q59 186 250 187q156 0 235 -119h4v543h289v-1479h-274v115h-4q-72 -135 -244 -135q-195 0 -256 192q-33 102 -33 352zM377 526q0 -170 8 -221q25 -147 115 -147q86 0 108 149q8 51 8 219q0 193 -14 252q-23 98 -102 99q-84 0 -109 -99 q-14 -59 -14 -252z" />
<glyph unicode="e" d="M90 530q0 256 68 369q94 156 354 156q268 0 360 -168q63 -112 63 -358q0 -28 -1 -58h-553q0 -307 131 -307q123 0 123 184h293q-6 -182 -118 -275t-298 -93q-258 0 -350 153q-72 119 -72 397zM381 633h264q0 115 -14 160q-29 84 -119 84q-86 0 -115 -89q-16 -49 -16 -155 z" />
<glyph unicode="f" horiz-adv-x="569" d="M0 856v178h131v74q0 137 6 176q14 106 78 154q74 51 242 51q32 0 102 -4v-185q-13 1 -25 1q-63 0 -88 -27q-28 -33 -28 -115v-125h135v-178h-135v-856h-289v856h-129z" />
<glyph unicode="g" d="M90 539q0 240 39 344q68 172 266 172q172 0 232 -142h4v121h274v-1077q0 -354 -393 -354q-397 0 -406 307h283q0 -145 121 -146q106 0 106 173v198h-4q-66 -121 -219 -121q-209 0 -270 174q-33 92 -33 351zM373 485q0 -137 10 -182q25 -110 113 -110h2q86 0 110 126 q8 49 8 201q0 193 -18 264q-25 92 -98 93q-98 0 -121 -156q-6 -35 -6 -236z" />
<glyph unicode="h" d="M115 0v1479h288v-549h5q76 125 243 125q109 0 183.5 -60.5t74.5 -165.5v-829h-288v713q0 164 -109 164t-109 -164v-713h-288z" />
<glyph unicode="i" horiz-adv-x="569" d="M139 0v1034h289v-1034h-289zM139 1251v228h289v-228h-289z" />
<glyph unicode="j" horiz-adv-x="569" d="M63 -203q76 0 76 80v1157h289v-1128q0 -297 -268 -297q-47 0 -97 6v182zM139 1251v228h289v-228h-289z" />
<glyph unicode="k" d="M109 0v1479h288v-881h4l261 436h301l-293 -461l325 -573h-325l-269 563h-4v-563h-288z" />
<glyph unicode="l" horiz-adv-x="569" d="M139 0v1479h289v-1479h-289z" />
<glyph unicode="m" horiz-adv-x="1478" d="M92 0v1034h289v-104h4q78 125 244 125q156 0 231 -131q98 131 268 131q109 0 183.5 -60.5t74.5 -165.5v-829h-288v713q0 164 -109 164t-108 -164v-713h-283v713q0 164 -109 164t-108 -164v-713h-289z" />
<glyph unicode="n" d="M115 0v1034h288v-104h5q76 125 243 125q109 0 183.5 -60.5t74.5 -165.5v-829h-288v713q0 164 -109 164t-109 -164v-713h-288z" />
<glyph unicode="o" d="M90 530q0 256 68 369q94 156 354 156t354 -156q68 -113 68 -369q0 -279 -72 -397q-92 -153 -350 -153t-350 153q-72 119 -72 397zM379 547q0 -236 26.5 -309.5t106.5 -73.5t106.5 73.5t26.5 309.5q0 180 -20 241q-27 82 -113 82t-113 -82q-20 -61 -20 -241z" />
<glyph unicode="p" d="M115 -444v1478h274v-114h4q72 135 244 135q195 0 256 -193q33 -102 33 -352q0 -244 -33 -344q-59 -186 -250 -186q-156 0 -235 118h-5v-542h-288zM403 526q0 -168 9 -219q22 -149 108 -149q90 0 115 147q8 51 8 221q0 193 -14 252q-25 98 -109 99q-80 0 -102 -99 q-14 -59 -15 -252z" />
<glyph unicode="q" d="M98 510q0 250 33 352q61 193 256 193q172 0 244 -135h4v114h274v-1478h-288v542h-5q-79 -118 -232 -118h-3q-190 0 -250 186q-33 100 -33 344zM381 526q0 -170 8 -221q25 -147 115 -147q86 0 108 149q8 51 9 219q0 193 -15 252q-23 98 -102 99q-84 0 -109 -99 q-14 -59 -14 -252z" />
<glyph unicode="r" horiz-adv-x="681" d="M115 0v1034h274v-133h4q70 154 269 154v-258q-18 1 -35 1q-139 0 -189 -73q-35 -49 -35 -162v-563h-288z" />
<glyph unicode="s" horiz-adv-x="909" d="M59 332h283q-1 -16 -1 -30q0 -63 15 -95q23 -49 105 -49q106 0 106 106q0 88 -131 154q-123 59 -246 119q-131 86 -131 227q0 154 134 229q109 61 274 62q162 0 260 -76q99 -75 99 -210q0 -16 -1 -32h-282q0 129 -56 150q-18 6 -47 6q-98 0 -98 -111q0 -63 131 -125 q207 -96 246 -125q131 -94 131 -237q0 -137 -105.5 -226t-281.5 -89q-209 0 -303 67q-102 74 -102 247q0 19 1 38z" />
<glyph unicode="t" horiz-adv-x="569" d="M-2 856v178h117v164l288 129v-293h150v-178h-150v-553q0 -72 11 -94q18 -35 82 -35q37 0 51 4v-178q-96 -10 -150 -10q-162 0 -235 90q-47 61 -47 139v637h-117z" />
<glyph unicode="u" d="M115 205v829h288v-717q0 -159 108 -159h1q109 0 109 159v717h288v-829q0 -92 11 -205h-299v104h-5q-77 -124 -240 -124h-3q-109 0 -180 59q-78 61 -78 166z" />
<glyph unicode="v" horiz-adv-x="909" d="M16 1034h293l146 -776h4l151 776h283l-285 -1034h-317z" />
<glyph unicode="w" horiz-adv-x="1593" d="M23 1034h286l142 -778h4l198 778h299l183 -778h4l155 778h277l-281 -1034h-303l-186 707h-4l-209 -707h-307z" />
<glyph unicode="x" d="M10 0l305 543l-280 491h323l152 -313l174 313h289l-277 -495l297 -539h-325l-181 362l-190 -362h-287z" />
<glyph unicode="y" horiz-adv-x="909" d="M18 1034h287l148 -727h4l155 727h279l-399 -1425h-304l111 383z" />
<glyph unicode="z" horiz-adv-x="796" d="M47 0v205l406 645h-392v184h682v-205l-411 -645h418v-184h-703z" />
<glyph unicode="{" horiz-adv-x="561" d="M-66 580v178q168 0 168 207v315q0 137 54.5 201.5t183.5 64.5h152v-162q-162 0 -162 -225v-229q0 -117 -31 -172q-39 -63 -137 -86v-4q168 -25 168 -277v-254q0 -223 162 -223v-162h-134q-150 0 -206 76q-49 66 -50 227v320q0 205 -168 205z" />
<glyph unicode="|" horiz-adv-x="512" d="M141 -512v2048h228v-2048h-228z" />
<glyph unicode="}" horiz-adv-x="561" d="M80 -86q162 0 162 223v254q0 252 168 277v4q-98 23 -136 86q-33 55 -32 172v229q0 225 -162 225v162h151q129 0 183.5 -64.5t54.5 -201.5v-315q0 -207 168 -207v-178q-168 0 -168 -205v-320q0 -162 -49 -227q-57 -76 -207 -76h-133v162z" />
<glyph unicode="~" d="M51 459q129 254 275 254q72 0 209 -67.5t174 -67.5q49 0 88 53q30 49 59 98l117 -149q-70 -123 -105 -162q-72 -78 -159 -78q-68 0 -211.5 67.5t-169.5 67.5q-53 0 -97 -57q-10 -14 -61 -111z" />
<glyph unicode="&#xa1;" horiz-adv-x="681" d="M197 -424l45 1083h196l45 -1083h-286zM217 809v246h246v-246h-246z" />
<glyph unicode="&#xa2;" horiz-adv-x="909" d="M33 530q0 256 67 369q94 156 355 156q72 0 127 -13l77 168l91 -45l-72 -153q195 -78 194 -346h-288q-1 73 -13 116l-233 -501q20 -115 117 -115q133 0 133 221h289q0 -406 -422 -405q-152 0 -236 49l-80 -160l-90 49l88 172q-104 115 -104 438zM322 487h4l174 377 q-18 6 -45 6q-86 0 -113 -82q-20 -61 -20 -241v-60z" />
<glyph unicode="&#xa3;" horiz-adv-x="909" d="M0 680v209h119v178q0 381 375 381q379 0 374 -371h-241q2 66 -25 114t-82 48q-113 0 -112 -160v-190h243v-209h-243v-471h450v-209h-854v209h115v471h-119z" />
<glyph unicode="&#xa4;" horiz-adv-x="909" d="M-41 281l86 90q-72 133 -72 262q0 141 72 264l-86 86l156 164l86 -88q127 78 252 78q137 0 260 -78l88 88l147 -164l-84 -86q74 -123 74 -262q0 -156 -74 -264l84 -90l-147 -162l-88 88q-129 -78 -252 -78q-141 0 -260 78l-86 -88zM215 635q0 -106 66 -193 q72 -92 176 -92t176 92q63 86 63 193q0 106 -63 190q-72 90 -176 90t-173 -87t-69 -193z" />
<glyph unicode="&#xa5;" horiz-adv-x="909" d="M-82 1430h336l205 -556l217 556h313l-334 -701h234v-184h-303v-162h303v-184h-303v-199h-289v199h-277v184h277v162h-277v184h211z" />
<glyph unicode="&#xa6;" horiz-adv-x="512" d="M141 -358v716h228v-716h-228zM141 666v716h228v-716h-228z" />
<glyph unicode="&#xa7;" horiz-adv-x="909" d="M55 711q0 168 195 262q-152 88 -152 250q0 123 99.5 201.5t287.5 78.5q134 0 316 -63v-230q-190 84 -295 84q-119 0 -119 -86q0 -61 121 -112q188 -80 223 -103q121 -82 121 -219q0 -160 -180 -264q160 -76 159 -231q0 -166 -143 -244q-111 -59 -293 -60q-168 0 -319 60 v239q207 -90 315 -90q131 0 131 101q0 61 -121 108q-186 72 -225 99q-121 78 -121 219zM301 752q0 -95 168 -156q137 80 137 154q0 90 -157 141q-147 -55 -148 -139z" />
<glyph unicode="&#xa8;" horiz-adv-x="569" d="M-10 1208v222h227v-222h-227zM352 1208v222h228v-222h-228z" />
<glyph unicode="&#xa9;" horiz-adv-x="1699" d="M88 741q0 317 223.5 539.5t540.5 222.5t538.5 -222t221.5 -540q0 -317 -222.5 -541.5t-537.5 -224.5q-317 0 -540.5 224.5t-223.5 541.5zM231 741q0 -258 181.5 -440t439.5 -182q254 0 435 183t181 439t-181 437.5t-435 181.5q-258 0 -439.5 -181.5t-181.5 -437.5z M522 741q0 231 41 316q68 141 289 141q295 0 283 -295h-201q0 88 -22.5 124t-77.5 36q-80 0 -103 -123q-8 -49 -8 -188q0 -174 4 -203q20 -131 111 -131q70 0 92 63q10 29 12 115h201q0 -172 -72 -242.5t-219 -70.5q-219 0 -289 141q-41 86 -41 317z" />
<glyph unicode="&#xaa;" horiz-adv-x="614" d="M33 1057q0 137 108 182q70 29 238 27v49q0 92 -76 92q-70 0 -70 -96h-184q0 193 244 192q162 0 225 -61q45 -45 45 -146v-311q0 -37 8 -115h-174l-8 82h-4q-59 -96 -174 -96q-178 0 -178 201zM217 1063q0 -100 68 -100q72 0 88 77q6 25 6 129q-92 -2 -117 -12 q-45 -20 -45 -94z" />
<glyph unicode="&#xab;" horiz-adv-x="909" d="M59 557l189 393h237l-180 -393l176 -403h-235zM424 557l188 393h238l-180 -393l176 -403h-236z" />
<glyph unicode="&#xac;" d="M51 604v227h922v-616h-228v389h-694z" />
<glyph unicode="&#xad;" horiz-adv-x="681" d="M90 449v208h502v-208h-502z" />
<glyph unicode="&#xae;" horiz-adv-x="1699" d="M88 741q0 317 223.5 539.5t540.5 222.5t538.5 -222t221.5 -540q0 -317 -222.5 -541.5t-537.5 -224.5q-317 0 -540.5 224.5t-223.5 541.5zM231 741q0 -258 181.5 -440t439.5 -182q254 0 435 183t181 439t-181 437.5t-435 181.5q-258 0 -439.5 -181.5t-181.5 -437.5z M555 301v887h371q104 0 164.5 -60.5t60.5 -173.5q0 -188 -178 -217v-4q174 -8 174 -172q0 -215 22 -260h-196q-27 53 -27 172q0 111 -10 137q-27 57 -129 58h-51v-367h-201zM756 793h90q104 0 104 131q0 117 -104 116h-90v-247z" />
<glyph unicode="&#xaf;" horiz-adv-x="569" d="M-12 1239v147h592v-147h-592z" />
<glyph unicode="&#xb0;" horiz-adv-x="819" d="M102 1141q0 127 90.5 217t217.5 90t217 -90t90 -217t-90 -217t-217 -90t-217.5 90t-90.5 217zM264 1141q0 -61 43 -103.5t105 -42.5q59 0 101 42t42 104q0 59 -42 102t-103 43q-59 0 -102.5 -43t-43.5 -102z" />
<glyph unicode="&#xb1;" d="M51 -25v228h922v-228h-922zM51 555v227h348v273h228v-273h346v-227h-346v-272h-228v272h-348z" />
<glyph unicode="&#xb2;" horiz-adv-x="544" d="M-4 580v151q143 174 287 348q68 90 67 160q0 76 -71 76q-80 0 -80 -115h-189q-10 123 64 189q68 59 192 59q270 0 271 -221q0 -123 -134 -291q-50 -63 -210 -223h354v-133h-551z" />
<glyph unicode="&#xb3;" horiz-adv-x="544" d="M-2 811h188q0 -57 9 -82q18 -39 69 -39q92 0 92 135q0 88 -33.5 110.5t-140.5 22.5v136q96 -4 128 18.5t32 108.5q0 102 -72 102q-73 0 -73 -100h-187q0 135 68 184q57 41 198 41q254 0 254 -229q0 -172 -127 -191v-4q141 -23 142 -207q0 -252 -291 -252 q-139 0 -197.5 55.5t-58.5 190.5z" />
<glyph unicode="&#xb4;" horiz-adv-x="569" d="M109 1186l184 293h276l-327 -293h-133z" />
<glyph unicode="&#xb6;" horiz-adv-x="1126" d="M41 1114q0 199 109 287q98 78 301 78h632v-246h-90v-1430h-245v1430h-140v-1430h-246v961q-156 0 -238.5 96t-82.5 254z" />
<glyph unicode="&#xb7;" horiz-adv-x="454" d="M104 322v270h246v-270h-246z" />
<glyph unicode="&#xb8;" horiz-adv-x="569" d="M33 -410l39 82q86 -33 133 -32q125 0 125 84q0 72 -103 71q-43 0 -73 -14l-45 39l135 180h100l-90 -119l4 -4q25 8 45 8q78 0 129 -37q59 -43 60 -116q0 -96 -78 -150q-70 -45 -170 -45q-90 0 -211 53z" />
<glyph unicode="&#xb9;" horiz-adv-x="544" d="M51 1145v160q125 66 180 143h179v-868h-201v659q-62 -47 -158 -94z" />
<glyph unicode="&#xba;" horiz-adv-x="614" d="M33 1188q0 154 45 221q61 94 229 94t230 -94q45 -68 45 -221q0 -166 -47 -238q-62 -94 -228 -94t-227 94q-47 72 -47 238zM221 1198q0 -117 4 -141q16 -90 82 -90t82 90q4 25 4 141q0 109 -12 145q-18 49 -74 50q-55 0 -74 -50q-12 -37 -12 -145z" />
<glyph unicode="&#xbb;" horiz-adv-x="909" d="M59 154l181 393l-177 403h236l186 -403l-188 -393h-238zM424 154l180 393l-176 403h236l186 -403l-188 -393h-238z" />
<glyph unicode="&#xbc;" horiz-adv-x="1363" d="M51 1145v160q125 66 180 143h179v-868h-201v659q-62 -47 -158 -94zM287 -57l538 1558h133l-544 -1558h-127zM750 195v174l225 489h246v-530h73v-133h-73v-195h-185v195h-286zM893 328h160l12 409h-4z" />
<glyph unicode="&#xbd;" horiz-adv-x="1363" d="M51 1145v160q125 66 180 143h179v-868h-201v659q-62 -47 -158 -94zM276 -57l539 1558h133l-545 -1558h-127zM782 0v152q143 174 287 348q68 90 68 159q0 76 -72 76q-80 0 -80 -114h-188q-10 123 63 188q68 59 193 59q270 0 270 -221q0 -123 -133 -291q-51 -63 -211 -223 h354v-133h-551z" />
<glyph unicode="&#xbe;" horiz-adv-x="1363" d="M2 811h188q0 -57 9 -82q18 -39 69 -39q92 0 92 135q0 88 -33.5 110.5t-140.5 22.5v136q96 -4 128 18.5t32 108.5q0 102 -72 102q-73 0 -73 -100h-187q0 135 68 184q57 41 199 41q254 0 254 -229q0 -172 -127 -191v-4q141 -23 141 -207q0 -252 -291 -252 q-139 0 -197.5 55.5t-58.5 190.5zM373 -57l538 1558h133l-544 -1558h-127zM795 195v174l225 489h246v-530h73v-133h-73v-195h-185v195h-286zM938 328h160l12 409h-4z" />
<glyph unicode="&#xbf;" horiz-adv-x="909" d="M76 -115q0 145 76 269q8 14 139 182q76 98 76 176v147h211v-210q0 -88 -110 -268.5t-110 -272.5q0 -147 119 -148q74 0 96 70q14 41 15 141h246q0 -180 -46 -264q-86 -156 -339 -156q-164 0 -265 84q-109 90 -108 250zM346 809v246h246v-246h-246z" />
<glyph unicode="&#xc0;" horiz-adv-x="1251" d="M16 0l410 1479h408l401 -1479h-326l-82 328h-421l-84 -328h-306zM342 1923h276l185 -293h-133zM467 555h295l-150 639h-4z" />
<glyph unicode="&#xc1;" horiz-adv-x="1251" d="M16 0l410 1479h408l401 -1479h-326l-82 328h-421l-84 -328h-306zM451 1630l184 293h276l-327 -293h-133zM467 555h295l-150 639h-4z" />
<glyph unicode="&#xc2;" horiz-adv-x="1251" d="M16 0l410 1479h408l401 -1479h-326l-82 328h-421l-84 -328h-306zM293 1630l217 293h227l221 -293h-190l-143 182l-146 -182h-186zM467 555h295l-150 639h-4z" />
<glyph unicode="&#xc3;" horiz-adv-x="1251" d="M16 0l410 1479h408l401 -1479h-326l-82 328h-421l-84 -328h-306zM262 1634q12 96 64 170q61 88 149 88q47 0 164 -53q98 -45 127 -45q84 0 94 98h125q-16 -104 -65 -168q-68 -90 -150 -90q-74 0 -164 47q-82 43 -143 43q-63 0 -80 -90h-121zM467 555h295l-150 639h-4z " />
<glyph unicode="&#xc4;" horiz-adv-x="1251" d="M16 0l410 1479h408l401 -1479h-326l-82 328h-421l-84 -328h-306zM332 1652v222h227v-222h-227zM467 555h295l-150 639h-4zM694 1652v222h228v-222h-228z" />
<glyph unicode="&#xc5;" horiz-adv-x="1251" d="M16 0l410 1479h408l401 -1479h-326l-82 328h-421l-84 -328h-306zM414 1771q0 86 62.5 149.5t150.5 63.5t150.5 -63.5t62.5 -149.5q0 -88 -62.5 -150.5t-150.5 -62.5t-150.5 62.5t-62.5 150.5zM467 555h295l-150 639h-4zM506 1771q0 -51 34.5 -86t86.5 -35q49 0 85 35 t36 86q0 49 -36 85t-85 36q-51 0 -86 -36t-35 -85z" />
<glyph unicode="&#xc6;" horiz-adv-x="1705" d="M16 0l488 1479h1100v-228h-592l67 -364h496v-228h-457l82 -432h442v-227h-708l-55 328h-461l-99 -328h-303zM492 555h346l-127 729h-4z" />
<glyph unicode="&#xc7;" horiz-adv-x="1138" d="M115 739q0 387 63 529q106 236 447 235q448 1 430 -491h-303q0 147 -29 208.5t-98 61.5q-123 0 -164 -129q-33 -106 -33 -414q0 -307 33 -413q41 -129 164 -129q92 0 123 106q12 47 18 195h305q0 -287 -115 -410q-104 -113 -331 -113h-15l-71 -94l4 -4q25 8 45 8 q78 0 129 -37q59 -43 59 -116q0 -96 -78 -150q-70 -45 -170 -45q-90 0 -211 53l39 82q86 -33 133 -32q125 0 125 84q0 72 -102 71q-43 0 -74 -14l-45 39l123 162q-268 35 -350 264q-51 139 -51 493z" />
<glyph unicode="&#xc8;" d="M129 0v1479h807v-228h-498v-364h459v-228h-459v-432h514v-227h-823zM227 1923h276l185 -293h-133z" />
<glyph unicode="&#xc9;" d="M129 0v1479h807v-228h-498v-364h459v-228h-459v-432h514v-227h-823zM336 1630l184 293h276l-327 -293h-133z" />
<glyph unicode="&#xca;" d="M129 0v1479h807v-228h-498v-364h459v-228h-459v-432h514v-227h-823zM178 1630l217 293h227l221 -293h-190l-143 182l-146 -182h-186z" />
<glyph unicode="&#xcb;" d="M129 0v1479h807v-228h-498v-364h459v-228h-459v-432h514v-227h-823zM217 1652v222h227v-222h-227zM579 1652v222h228v-222h-228z" />
<glyph unicode="&#xcc;" horiz-adv-x="569" d="M0 1923h276l185 -293h-133zM129 0v1479h309v-1479h-309z" />
<glyph unicode="&#xcd;" horiz-adv-x="569" d="M109 1630l184 293h276l-327 -293h-133zM129 0v1479h309v-1479h-309z" />
<glyph unicode="&#xce;" horiz-adv-x="569" d="M-49 1630l217 293h227l221 -293h-190l-143 182l-146 -182h-186zM129 0v1479h309v-1479h-309z" />
<glyph unicode="&#xcf;" horiz-adv-x="569" d="M-10 1652v222h227v-222h-227zM129 0v1479h309v-1479h-309zM352 1652v222h228v-222h-228z" />
<glyph unicode="&#xd0;" horiz-adv-x="1251" d="M14 725v162h121v592h516q285 0 393 -193q88 -160 89 -538q0 -324 -50 -459q-104 -289 -444 -289h-504v725h-121zM444 227h150q137 0 184 117q41 104 41 395q0 264 -26 359q-45 154 -189 153h-160v-364h199v-162h-199v-498z" />
<glyph unicode="&#xd1;" horiz-adv-x="1366" d="M131 0v1479h418l393 -1024h4v1024h289v-1479h-408l-403 1081h-4v-1081h-289zM319 1634q12 96 64 170q61 88 149 88q47 0 164 -53q98 -45 127 -45q84 0 94 98h125q-16 -104 -65 -168q-68 -90 -150 -90q-74 0 -164 47q-82 43 -143 43q-63 0 -80 -90h-121z" />
<glyph unicode="&#xd2;" horiz-adv-x="1251" d="M115 739q0 387 63 529q106 236 447 235q340 0 446 -235q63 -141 64 -529q0 -385 -64 -526q-106 -238 -446 -238t-447 238q-63 141 -63 526zM342 1923h276l185 -293h-133zM428 739q0 -307 33 -413q41 -129 164 -129t163 129q33 106 33 413t-33 414q-41 129 -163 129 q-123 0 -164 -129q-33 -106 -33 -414z" />
<glyph unicode="&#xd3;" horiz-adv-x="1251" d="M115 739q0 387 63 529q106 236 447 235q340 0 446 -235q63 -141 64 -529q0 -385 -64 -526q-106 -238 -446 -238t-447 238q-63 141 -63 526zM428 739q0 -307 33 -413q41 -129 164 -129t163 129q33 106 33 413t-33 414q-41 129 -163 129q-123 0 -164 -129 q-33 -106 -33 -414zM451 1630l184 293h276l-327 -293h-133z" />
<glyph unicode="&#xd4;" horiz-adv-x="1251" d="M115 739q0 387 63 529q106 236 447 235q340 0 446 -235q63 -141 64 -529q0 -385 -64 -526q-106 -238 -446 -238t-447 238q-63 141 -63 526zM293 1630l217 293h227l221 -293h-190l-143 182l-146 -182h-186zM428 739q0 -307 33 -413q41 -129 164 -129t163 129 q33 106 33 413t-33 414q-41 129 -163 129q-123 0 -164 -129q-33 -106 -33 -414z" />
<glyph unicode="&#xd5;" horiz-adv-x="1251" d="M115 739q0 387 63 529q106 236 447 235q340 0 446 -235q63 -141 64 -529q0 -385 -64 -526q-106 -238 -446 -238t-447 238q-63 141 -63 526zM262 1634q12 96 64 170q61 88 149 88q47 0 164 -53q98 -45 127 -45q84 0 94 98h125q-16 -104 -65 -168q-68 -90 -150 -90 q-74 0 -164 47q-82 43 -143 43q-63 0 -80 -90h-121zM428 739q0 -307 33 -413q41 -129 164 -129t163 129q33 106 33 413t-33 414q-41 129 -163 129q-123 0 -164 -129q-33 -106 -33 -414z" />
<glyph unicode="&#xd6;" horiz-adv-x="1251" d="M115 739q0 387 63 529q106 236 447 235q340 0 446 -235q63 -141 64 -529q0 -385 -64 -526q-106 -238 -446 -238t-447 238q-63 141 -63 526zM332 1652v222h227v-222h-227zM428 739q0 -307 33 -413q41 -129 164 -129t163 129q33 106 33 413t-33 414q-41 129 -163 129 q-123 0 -164 -129q-33 -106 -33 -414zM694 1652v222h228v-222h-228z" />
<glyph unicode="&#xd7;" d="M51 217l301 301l-301 301l160 160l301 -301l301 301l160 -160l-301 -301l301 -301l-160 -160l-301 301l-301 -301z" />
<glyph unicode="&#xd8;" horiz-adv-x="1251" d="M57 4l129 193q-72 143 -71 542q0 387 63 529q106 236 447 235q246 0 362 -117l109 160l106 -73l-135 -201q68 -141 68 -533q0 -385 -64 -526q-106 -238 -446 -238q-234 0 -355 111l-106 -158zM428 739q0 -129 2 -176h4l363 543q-33 176 -172 176q-123 0 -164 -129 q-33 -106 -33 -414zM453 358q37 -162 172 -161q123 0 163 129q33 106 33 413q0 119 -2 162h-4z" />
<glyph unicode="&#xd9;" horiz-adv-x="1251" d="M123 430v1049h309v-1028q0 -254 191 -254q197 0 196 254v1028h309v-1049q0 -190 -108 -309q-133 -145 -393 -146q-250 0 -379 123q-125 117 -125 332zM342 1923h276l185 -293h-133z" />
<glyph unicode="&#xda;" horiz-adv-x="1251" d="M123 430v1049h309v-1028q0 -254 191 -254q197 0 196 254v1028h309v-1049q0 -190 -108 -309q-133 -145 -393 -146q-250 0 -379 123q-125 117 -125 332zM451 1630l184 293h276l-327 -293h-133z" />
<glyph unicode="&#xdb;" horiz-adv-x="1251" d="M123 430v1049h309v-1028q0 -254 191 -254q197 0 196 254v1028h309v-1049q0 -190 -108 -309q-133 -145 -393 -146q-250 0 -379 123q-125 117 -125 332zM293 1630l217 293h227l221 -293h-190l-143 182l-146 -182h-186z" />
<glyph unicode="&#xdc;" horiz-adv-x="1251" d="M123 430v1049h309v-1028q0 -254 191 -254q197 0 196 254v1028h309v-1049q0 -190 -108 -309q-133 -145 -393 -146q-250 0 -379 123q-125 117 -125 332zM332 1652v222h227v-222h-227zM694 1652v222h228v-222h-228z" />
<glyph unicode="&#xdd;" horiz-adv-x="1138" d="M14 1479h338l221 -625l236 625h315l-413 -967v-512h-310v512zM394 1630l184 293h276l-327 -293h-133z" />
<glyph unicode="&#xde;" horiz-adv-x="1138" d="M131 0v1479h309v-265h248q393 0 393 -442q0 -434 -411 -434h-230v-338h-309zM440 565h172q68 0 113 64q43 57 43 135q0 223 -172 223h-156v-422z" />
<glyph unicode="&#xdf;" horiz-adv-x="1138" d="M115 0v1124q0 379 450 379q416 0 416 -309q0 -94 -49 -162q-2 -4 -88 -96q-49 -51 -49 -105q0 -55 71 -133q117 -125 135 -151q72 -102 72 -221q0 -162 -110.5 -254t-300.5 -92q-59 0 -136 20v211q37 -10 90 -10q174 0 175 116q0 76 -139.5 236t-139.5 254q0 68 93 161 t93 201q0 152 -133 152q-90 0 -137 -70q-31 -47 -31 -94v-1157h-282z" />
<glyph unicode="&#xe0;" d="M84 309q0 229 166 305q109 51 366 48v79q0 78 -18 109q-27 43 -98 43q-68 0 -92 -47q-16 -35 -17 -111h-282q0 319 376 320q250 0 344 -103q70 -75 70 -243v-516q0 -45 14 -193h-268l-12 137h-4q-90 -158 -271 -157q-274 0 -274 329zM227 1479h276l185 -293h-133z M367 322q0 -164 106 -164q109 0 135 129q8 39 8 213q-143 -6 -178 -23q-72 -33 -71 -155z" />
<glyph unicode="&#xe1;" d="M84 309q0 229 166 305q109 51 366 48v79q0 78 -18 109q-27 43 -98 43q-68 0 -92 -47q-16 -35 -17 -111h-282q0 319 376 320q250 0 344 -103q70 -75 70 -243v-516q0 -45 14 -193h-268l-12 137h-4q-90 -158 -271 -157q-274 0 -274 329zM336 1186l184 293h276l-327 -293 h-133zM367 322q0 -164 106 -164q109 0 135 129q8 39 8 213q-143 -6 -178 -23q-72 -33 -71 -155z" />
<glyph unicode="&#xe2;" d="M84 309q0 229 166 305q109 51 366 48v79q0 78 -18 109q-27 43 -98 43q-68 0 -92 -47q-16 -35 -17 -111h-282q0 319 376 320q250 0 344 -103q70 -75 70 -243v-516q0 -45 14 -193h-268l-12 137h-4q-90 -158 -271 -157q-274 0 -274 329zM178 1186l217 293h227l221 -293h-190 l-143 182l-146 -182h-186zM367 322q0 -164 106 -164q109 0 135 129q8 39 8 213q-143 -6 -178 -23q-72 -33 -71 -155z" />
<glyph unicode="&#xe3;" d="M84 309q0 229 166 305q109 51 366 48v79q0 78 -18 109q-27 43 -98 43q-68 0 -92 -47q-16 -35 -17 -111h-282q0 319 376 320q250 0 344 -103q70 -75 70 -243v-516q0 -45 14 -193h-268l-12 137h-4q-90 -158 -271 -157q-274 0 -274 329zM147 1190q12 96 64 170q61 88 149 88 q47 0 164 -53q98 -45 127 -45q84 0 94 98h125q-16 -104 -65 -168q-68 -90 -150 -90q-74 0 -164 47q-82 43 -143 43q-63 0 -80 -90h-121zM367 322q0 -164 106 -164q109 0 135 129q8 39 8 213q-143 -6 -178 -23q-72 -33 -71 -155z" />
<glyph unicode="&#xe4;" d="M84 309q0 229 166 305q109 51 366 48v79q0 78 -18 109q-27 43 -98 43q-68 0 -92 -47q-16 -35 -17 -111h-282q0 319 376 320q250 0 344 -103q70 -75 70 -243v-516q0 -45 14 -193h-268l-12 137h-4q-90 -158 -271 -157q-274 0 -274 329zM217 1208v222h227v-222h-227z M367 322q0 -164 106 -164q109 0 135 129q8 39 8 213q-143 -6 -178 -23q-72 -33 -71 -155zM579 1208v222h228v-222h-228z" />
<glyph unicode="&#xe5;" d="M84 309q0 229 166 305q109 51 366 48v79q0 78 -18 109q-27 43 -98 43q-68 0 -92 -47q-16 -35 -17 -111h-282q0 319 376 320q250 0 344 -103q70 -75 70 -243v-516q0 -45 14 -193h-268l-12 137h-4q-90 -158 -271 -157q-274 0 -274 329zM299 1327q0 86 62.5 149.5 t150.5 63.5t150.5 -63.5t62.5 -149.5q0 -88 -62.5 -150.5t-150.5 -62.5t-150.5 62.5t-62.5 150.5zM367 322q0 -164 106 -164q109 0 135 129q8 39 8 213q-143 -6 -178 -23q-72 -33 -71 -155zM391 1327q0 -51 34.5 -86t86.5 -35q49 0 85 35t36 86q0 49 -36 85t-85 36 q-51 0 -86 -36t-35 -85z" />
<glyph unicode="&#xe6;" horiz-adv-x="1593" d="M84 305q0 213 147 287q123 61 431 51q0 141 -9 168q-25 82 -131 82q-129 0 -129 -160h-282q2 182 118 260q94 61 285 62q233 0 297 -146q88 145 274 146q266 0 361 -166q69 -125 61 -408h-563q0 -143 19 -209q33 -109 122 -108q123 0 123 184h293q-8 -174 -110 -268 q-106 -100 -306 -100q-254 0 -313 180q-98 -180 -346 -180q-160 0 -251 82.5t-91 242.5zM367 297q0 -133 131 -133q125 0 153 110q10 37 11 207q-59 4 -93 4q-109 0 -151 -34q-51 -43 -51 -154zM944 643h275q0 111 -15 160q-29 90 -119 90q-141 0 -141 -250z" />
<glyph unicode="&#xe7;" d="M90 530q0 256 68 369q94 156 354 156q418 0 418 -389h-289q0 113 -29.5 158.5t-99.5 45.5q-86 0 -113 -82q-20 -61 -20 -241q0 -236 26.5 -309.5t106.5 -73.5q133 0 133 217h289q0 -381 -375 -399l-78 -101l4 -4q25 8 45 8q78 0 129 -37q59 -43 60 -116q0 -96 -78 -150 q-70 -45 -170 -45q-90 0 -211 53l39 82q86 -33 133 -32q125 0 125 84q0 72 -102 71q-43 0 -74 -14l-45 39l123 164q-223 14 -305 166q-63 117 -64 380z" />
<glyph unicode="&#xe8;" d="M90 530q0 256 68 369q94 156 354 156q268 0 360 -168q70 -125 62 -416h-553q0 -307 131 -307q123 0 123 184h293q-6 -182 -118 -275t-298 -93q-258 0 -350 153q-72 119 -72 397zM227 1479h276l185 -293h-133zM381 633h264q0 115 -14 160q-29 84 -119 84q-86 0 -115 -89 q-16 -49 -16 -155z" />
<glyph unicode="&#xe9;" d="M90 530q0 256 68 369q94 156 354 156q268 0 360 -168q70 -125 62 -416h-553q0 -307 131 -307q123 0 123 184h293q-6 -182 -118 -275t-298 -93q-258 0 -350 153q-72 119 -72 397zM336 1186l184 293h276l-327 -293h-133zM381 633h264q0 115 -14 160q-29 84 -119 84 q-86 0 -115 -89q-16 -49 -16 -155z" />
<glyph unicode="&#xea;" d="M90 530q0 256 68 369q94 156 354 156q268 0 360 -168q70 -125 62 -416h-553q0 -307 131 -307q123 0 123 184h293q-6 -182 -118 -275t-298 -93q-258 0 -350 153q-72 119 -72 397zM178 1186l217 293h227l221 -293h-190l-143 182l-146 -182h-186zM381 633h264q0 115 -14 160 q-29 84 -119 84q-86 0 -115 -89q-16 -49 -16 -155z" />
<glyph unicode="&#xeb;" d="M90 530q0 256 68 369q94 156 354 156q268 0 360 -168q70 -125 62 -416h-553q0 -307 131 -307q123 0 123 184h293q-6 -182 -118 -275t-298 -93q-258 0 -350 153q-72 119 -72 397zM217 1208v222h227v-222h-227zM381 633h264q0 115 -14 160q-29 84 -119 84q-86 0 -115 -89 q-16 -49 -16 -155zM579 1208v222h228v-222h-228z" />
<glyph unicode="&#xec;" horiz-adv-x="569" d="M0 1479h276l185 -293h-133zM139 0v1034h289v-1034h-289z" />
<glyph unicode="&#xed;" horiz-adv-x="569" d="M109 1186l184 293h276l-327 -293h-133zM139 0v1034h289v-1034h-289z" />
<glyph unicode="&#xee;" horiz-adv-x="569" d="M-49 1186l217 293h227l221 -293h-190l-143 182l-146 -182h-186zM139 0v1034h289v-1034h-289z" />
<glyph unicode="&#xef;" horiz-adv-x="569" d="M-10 1208v222h227v-222h-227zM139 0v1034h289v-1034h-289zM352 1208v222h228v-222h-228z" />
<glyph unicode="&#xf0;" d="M90 520q0 514 359 514q115 0 208 -94l5 4q-74 186 -220 281l-176 -113l-82 72l158 102q-68 47 -149 72v8l155 172q125 -37 217 -108l168 108l76 -76l-147 -96q162 -184 210 -322q61 -174 62 -524q0 -274 -72 -389q-92 -152 -350 -151q-258 0 -350 151q-72 115 -72 389z M379 537q0 -227 26.5 -300t106.5 -73t106.5 72.5t26.5 300.5q0 174 -20 233q-27 80 -113 80t-113 -80q-20 -59 -20 -233z" />
<glyph unicode="&#xf1;" d="M115 0v1034h288v-104h5q76 125 243 125q109 0 183.5 -60.5t74.5 -165.5v-829h-288v713q0 164 -109 164t-109 -164v-713h-288zM147 1190q12 96 64 170q61 88 149 88q47 0 164 -53q98 -45 127 -45q84 0 94 98h125q-16 -104 -65 -168q-68 -90 -150 -90q-74 0 -164 47 q-82 43 -143 43q-63 0 -80 -90h-121z" />
<glyph unicode="&#xf2;" d="M90 530q0 256 68 369q94 156 354 156t354 -156q68 -113 68 -369q0 -279 -72 -397q-92 -153 -350 -153t-350 153q-72 119 -72 397zM227 1479h276l185 -293h-133zM379 547q0 -236 26.5 -309.5t106.5 -73.5t106.5 73.5t26.5 309.5q0 180 -20 241q-27 82 -113 82t-113 -82 q-20 -61 -20 -241z" />
<glyph unicode="&#xf3;" d="M90 530q0 256 68 369q94 156 354 156t354 -156q68 -113 68 -369q0 -279 -72 -397q-92 -153 -350 -153t-350 153q-72 119 -72 397zM336 1186l184 293h276l-327 -293h-133zM379 547q0 -236 26.5 -309.5t106.5 -73.5t106.5 73.5t26.5 309.5q0 180 -20 241q-27 82 -113 82 t-113 -82q-20 -61 -20 -241z" />
<glyph unicode="&#xf4;" d="M90 530q0 256 68 369q94 156 354 156t354 -156q68 -113 68 -369q0 -279 -72 -397q-92 -153 -350 -153t-350 153q-72 119 -72 397zM178 1186l217 293h227l221 -293h-190l-143 182l-146 -182h-186zM379 547q0 -236 26.5 -309.5t106.5 -73.5t106.5 73.5t26.5 309.5 q0 180 -20 241q-27 82 -113 82t-113 -82q-20 -61 -20 -241z" />
<glyph unicode="&#xf5;" d="M90 530q0 256 68 369q94 156 354 156t354 -156q68 -113 68 -369q0 -279 -72 -397q-92 -153 -350 -153t-350 153q-72 119 -72 397zM147 1190q12 96 64 170q61 88 149 88q47 0 164 -53q98 -45 127 -45q84 0 94 98h125q-16 -104 -65 -168q-68 -90 -150 -90q-74 0 -164 47 q-82 43 -143 43q-63 0 -80 -90h-121zM379 547q0 -236 26.5 -309.5t106.5 -73.5t106.5 73.5t26.5 309.5q0 180 -20 241q-27 82 -113 82t-113 -82q-20 -61 -20 -241z" />
<glyph unicode="&#xf6;" d="M90 530q0 256 68 369q94 156 354 156t354 -156q68 -113 68 -369q0 -279 -72 -397q-92 -153 -350 -153t-350 153q-72 119 -72 397zM217 1208v222h227v-222h-227zM379 547q0 -236 26.5 -309.5t106.5 -73.5t106.5 73.5t26.5 309.5q0 180 -20 241q-27 82 -113 82t-113 -82 q-20 -61 -20 -241zM579 1208v222h228v-222h-228z" />
<glyph unicode="&#xf7;" d="M51 403v228h922v-228h-922zM381 0v246h262v-246h-262zM381 788v246h262v-246h-262z" />
<glyph unicode="&#xf8;" d="M14 -35l142 178q-66 117 -66 387q0 256 68 369q94 156 354 156q197 0 299 -90l129 159l70 -55l-142 -176q66 -115 66 -363q0 -279 -72 -397q-92 -154 -350 -153q-203 0 -299 90l-127 -160zM379 547q0 -88 2 -121l252 317q-18 127 -121 127q-86 0 -113 -82 q-20 -61 -20 -241zM391 293q12 -76 40 -102.5t81 -26.5q80 0 106.5 73.5t26.5 309.5q0 47 -2 63z" />
<glyph unicode="&#xf9;" d="M115 205v829h288v-717q0 -160 109 -159q109 0 109 159v717h288v-829q0 -92 11 -205h-299v104h-5q-78 -125 -243 -124q-109 0 -180 59q-78 61 -78 166zM227 1479h276l185 -293h-133z" />
<glyph unicode="&#xfa;" d="M115 205v829h288v-717q0 -160 109 -159q109 0 109 159v717h288v-829q0 -92 11 -205h-299v104h-5q-78 -125 -243 -124q-109 0 -180 59q-78 61 -78 166zM336 1186l184 293h276l-327 -293h-133z" />
<glyph unicode="&#xfb;" d="M115 205v829h288v-717q0 -160 109 -159q109 0 109 159v717h288v-829q0 -92 11 -205h-299v104h-5q-78 -125 -243 -124q-109 0 -180 59q-78 61 -78 166zM178 1186l217 293h227l221 -293h-190l-143 182l-146 -182h-186z" />
<glyph unicode="&#xfc;" d="M115 205v829h288v-717q0 -160 109 -159q109 0 109 159v717h288v-829q0 -92 11 -205h-299v104h-5q-78 -125 -243 -124q-109 0 -180 59q-78 61 -78 166zM217 1208v222h227v-222h-227zM579 1208v222h228v-222h-228z" />
<glyph unicode="&#xfd;" horiz-adv-x="909" d="M18 1034h287l148 -727h4l155 727h279l-399 -1425h-304l111 383zM279 1186l184 293h276l-327 -293h-133z" />
<glyph unicode="&#xfe;" d="M115 -444v1923h288v-559h5q53 135 229 135q195 0 256 -193q33 -102 33 -352q0 -244 -33 -344q-59 -186 -250 -186q-156 0 -235 118h-5v-542h-288zM403 526q0 -168 9 -219q22 -149 108 -149q90 0 115 147q8 51 8 221q0 193 -14 252q-25 98 -109 99q-80 0 -102 -99 q-14 -59 -15 -252z" />
<glyph unicode="&#xff;" horiz-adv-x="909" d="M18 1034h287l148 -727h4l155 727h279l-399 -1425h-304l111 383zM160 1208v222h227v-222h-227zM522 1208v222h228v-222h-228z" />
<glyph unicode="&#x152;" horiz-adv-x="1705" d="M115 788q0 387 92 527q109 164 430 164h1003v-228h-497v-364h459v-228h-459v-432h514v-227h-1071q-227 0 -340 123q-92 100 -119 297q-12 100 -12 368zM418 770q0 -307 28 -401q41 -141 191 -142h217v1024h-178q-156 0 -205 -88q-53 -94 -53 -393z" />
<glyph unicode="&#x153;" horiz-adv-x="1593" d="M90 530q0 256 68 369q94 156 354 156q240 0 319 -150q72 150 269 150q268 0 360 -168q70 -125 62 -416h-553q0 -307 131 -307q123 0 123 184h293q-8 -174 -111 -268q-106 -100 -305 -100q-227 0 -307 180q-41 -88 -125 -137q-76 -43 -156 -43q-258 0 -350 153 q-72 119 -72 397zM379 547q0 -236 26.5 -309.5t106.5 -73.5q104 0 136 72.5t32 310.5q0 182 -25 241q-33 82 -143 82q-86 0 -113 -82q-20 -61 -20 -241zM969 633h264q0 115 -14 160q-29 84 -119 84q-86 0 -115 -89q-16 -49 -16 -155z" />
<glyph unicode="&#x178;" horiz-adv-x="1138" d="M14 1479h338l221 -625l236 625h315l-413 -967v-512h-310v512zM275 1652v222h227v-222h-227zM637 1652v222h228v-222h-228z" />
<glyph unicode="&#x2c6;" horiz-adv-x="569" d="M-49 1186l217 293h227l221 -293h-190l-143 182l-146 -182h-186z" />
<glyph unicode="&#x2dc;" horiz-adv-x="569" d="M-80 1190q12 96 64 170q61 88 149 88q47 0 164 -53q98 -45 127 -45q84 0 94 98h125q-16 -104 -65 -168q-68 -90 -150 -90q-74 0 -164 47q-82 43 -143 43q-63 0 -80 -90h-121z" />
<glyph unicode="&#x2000;" horiz-adv-x="992" />
<glyph unicode="&#x2001;" horiz-adv-x="1984" />
<glyph unicode="&#x2002;" horiz-adv-x="992" />
<glyph unicode="&#x2003;" horiz-adv-x="1984" />
<glyph unicode="&#x2004;" horiz-adv-x="661" />
<glyph unicode="&#x2005;" horiz-adv-x="496" />
<glyph unicode="&#x2006;" horiz-adv-x="330" />
<glyph unicode="&#x2007;" horiz-adv-x="330" />
<glyph unicode="&#x2008;" horiz-adv-x="248" />
<glyph unicode="&#x2009;" horiz-adv-x="396" />
<glyph unicode="&#x200a;" horiz-adv-x="110" />
<glyph unicode="&#x2010;" horiz-adv-x="681" d="M90 449v208h502v-208h-502z" />
<glyph unicode="&#x2011;" horiz-adv-x="681" d="M90 449v208h502v-208h-502z" />
<glyph unicode="&#x2012;" horiz-adv-x="681" d="M90 449v208h502v-208h-502z" />
<glyph unicode="&#x2013;" d="M0 471v162h1024v-162h-1024z" />
<glyph unicode="&#x2014;" horiz-adv-x="2048" d="M0 471v162h2048v-162h-2048z" />
<glyph unicode="&#x2018;" horiz-adv-x="454" d="M53 1075l150 404h196l-71 -404h-275z" />
<glyph unicode="&#x2019;" horiz-adv-x="454" d="M53 1075l72 404h274l-149 -404h-197z" />
<glyph unicode="&#x201a;" horiz-adv-x="454" d="M53 -199l72 404h274l-149 -404h-197z" />
<glyph unicode="&#x201c;" horiz-adv-x="909" d="M98 1075l150 404h196l-71 -404h-275zM463 1075l149 404h197l-72 -404h-274z" />
<glyph unicode="&#x201d;" horiz-adv-x="909" d="M98 1075l72 404h274l-149 -404h-197zM463 1075l72 404h274l-150 -404h-196z" />
<glyph unicode="&#x201e;" horiz-adv-x="909" d="M98 -199l72 404h274l-149 -404h-197zM463 -199l72 404h274l-150 -404h-196z" />
<glyph unicode="&#x2022;" horiz-adv-x="860" d="M61 739q0 154 107.5 261.5t261.5 107.5t261.5 -107.5t107.5 -261.5t-107.5 -261t-261.5 -107t-261.5 107.5t-107.5 260.5z" />
<glyph unicode="&#x2026;" horiz-adv-x="2048" d="M219 0v270h246v-270h-246zM901 0v270h246v-270h-246zM1583 0v270h246v-270h-246z" />
<glyph unicode="&#x202f;" horiz-adv-x="396" />
<glyph unicode="&#x2039;" horiz-adv-x="454" d="M14 557l189 393h237l-180 -393l176 -403h-235z" />
<glyph unicode="&#x203a;" horiz-adv-x="454" d="M14 154l181 393l-177 403h236l186 -403l-188 -393h-238z" />
<glyph unicode="&#x205f;" horiz-adv-x="496" />
<glyph unicode="&#x2122;" horiz-adv-x="1761" d="M6 1331v148h649v-148h-227v-739h-197v739h-225zM729 592v887h326l149 -605h4l158 605h313v-887h-196v684h-4l-183 -684h-192l-174 684h-4v-684h-197z" />
<glyph unicode="&#x25fc;" horiz-adv-x="1034" d="M0 0v1034h1034v-1034h-1034z" />
</font>
</defs>
</svg>
