<?xml version="1.0" standalone="no"?>
<!DOCTYPE svg PUBLIC "-//W3C//DTD SVG 1.1//EN" "http://www.w3.org/Graphics/SVG/1.1/DTD/svg11.dtd" >
<svg xmlns="http://www.w3.org/2000/svg">
<metadata></metadata>
<defs>
<font id="univers_extrablackregular" horiz-adv-x="1630" >
<font-face units-per-em="2048" ascent="1638" descent="-410" />
<missing-glyph horiz-adv-x="720" />
<glyph horiz-adv-x="0" />
<glyph unicode="&#xd;" horiz-adv-x="720" />
<glyph unicode=" "  horiz-adv-x="720" />
<glyph unicode="&#x09;" horiz-adv-x="720" />
<glyph unicode="&#xa0;" horiz-adv-x="720" />
<glyph unicode="!" horiz-adv-x="757" d="M86 1479h586l-88 -1047h-410zM131 0v336h496v-336h-496z" />
<glyph unicode="&#x22;" horiz-adv-x="1212" d="M174 864v615h373v-615h-373zM666 864v615h372v-615h-372z" />
<glyph unicode="#" horiz-adv-x="1441" d="M205 397v242h180l29 201h-148v241h180l52 398h254l-52 -398h138l51 398h254l-53 -398h147v-241h-180l-27 -201h148v-242h-181l-53 -397h-254l53 397h-137l-53 -397h-254l53 397h-147zM639 639h137l27 201h-137z" />
<glyph unicode="$" horiz-adv-x="1441" d="M41 461h561q0 -164 146 -164q63 0 102 36t39 87q0 70 -98 98l-424 125q-299 88 -299 393q0 395 501 482v196h303v-196q520 -53 521 -459h-525q-8 123 -135 123q-129 0 -129 -82q0 -72 123 -107q160 -39 442 -129q268 -113 269 -389q0 -446 -566 -514v-197h-303v197 q-528 72 -528 500z" />
<glyph unicode="%" horiz-adv-x="2162" d="M49 1030q0 233 121 365q113 123 301 123q422 0 422 -488q0 -233 -121 -362q-113 -125 -301 -125q-422 0 -422 487zM397 1030q0 -154 19 -205q16 -41 55 -41t55 41q18 51 19 205q0 154 -19 205q-16 41 -55 41t-55 -41q-19 -51 -19 -205zM561 -51l825 1581h218l-826 -1581 h-217zM1270 449q0 233 121 364q113 123 301 123q422 0 422 -487q0 -233 -121 -363q-113 -125 -301 -125q-422 1 -422 488zM1618 449q0 -154 18 -205q16 -41 56 -41q39 0 55 41q18 51 18 205t-18 204q-16 41 -55 41t-56 -41q-18 -50 -18 -204z" />
<glyph unicode="&#x26;" horiz-adv-x="1818" d="M37 410q0 281 379 389q-240 162 -240 350q0 178 156.5 273.5t441.5 95.5q281 0 434 -101q143 -94 144 -248q0 -221 -293 -405l182 -178q80 102 86 229h422q0 -127 -64.5 -274.5t-158.5 -225.5l301 -315h-561l-90 88q-207 -127 -494 -127q-303 0 -474 120t-171 329z M532 399q0 -70 54.5 -114.5t128.5 -44.5q94 -1 219 75l-246 244q-74 -20 -115 -66.5t-41 -93.5zM635 1153q0 -74 135 -160q135 86 135 160q0 98 -135 98t-135 -98z" />
<glyph unicode="'" horiz-adv-x="720" d="M174 864v615h373v-615h-373z" />
<glyph unicode="(" horiz-adv-x="794" d="M123 592q0 287 233 887h385q-160 -537 -159 -887q-1 -350 159 -887h-385q-233 600 -233 887z" />
<glyph unicode=")" horiz-adv-x="794" d="M53 -295q160 537 160 887t-160 887h385q233 -600 234 -887q0 -287 -234 -887h-385z" />
<glyph unicode="*" horiz-adv-x="794" d="M72 1067v164h176l-88 162l147 86l90 -162l90 162l148 -86l-88 -162h176v-164h-176l88 -162l-148 -86l-90 162l-90 -162l-147 86l88 162h-176z" />
<glyph unicode="+" horiz-adv-x="1228" d="M96 379v278h379v379h279v-379h379v-278h-379v-379h-279v379h-379z" />
<glyph unicode="," horiz-adv-x="720" d="M20 -205l142 627h495l-215 -627h-422z" />
<glyph unicode="-" horiz-adv-x="833" d="M59 373v348h715v-348h-715z" />
<glyph unicode="." horiz-adv-x="720" d="M113 0v422h495v-422h-495z" />
<glyph unicode="/" horiz-adv-x="757" d="M-33 -39l533 1557h291l-533 -1557h-291z" />
<glyph unicode="0" horiz-adv-x="1441" d="M49 739q0 365 164 566q172 213 508 213t508 -213q164 -201 164 -566t-164 -565q-172 -213 -508 -213t-508 213q-164 200 -164 565zM598 739q0 -264 33 -352q25 -66 90 -65q66 0 90 65q33 88 33 352t-33 353q-25 66 -90 65q-66 0 -90 -65q-33 -89 -33 -353z" />
<glyph unicode="1" horiz-adv-x="1441" d="M176 799v422q293 98 434 258h447v-1479h-561v963q-160 -115 -320 -164z" />
<glyph unicode="2" horiz-adv-x="1441" d="M66 1006q0 512 649 512q344 0 516 -142q145 -119 145 -317q0 -178 -125 -328q-131 -158 -450 -342v-4h575v-385h-1298v385l330 215q408 266 407 449q0 121 -113 120q-125 0 -124 -163h-512z" />
<glyph unicode="3" horiz-adv-x="1441" d="M39 457h496q8 -160 147 -160t139 143q0 154 -215 154h-86v315h109q178 0 178 142q0 131 -125 131t-125 -160h-496q0 260 185 385q162 111 450 111q330 0 498 -119q150 -109 149 -295q0 -281 -327 -326v-4q354 -29 354 -342q0 -229 -180 -352q-170 -119 -465 -119 q-352 0 -519 120t-167 376z" />
<glyph unicode="4" horiz-adv-x="1441" d="M27 238v421l499 820h713v-869h176v-372h-176v-238h-537v238h-675zM434 610h281v508h-4z" />
<glyph unicode="5" horiz-adv-x="1441" d="M78 408h524q8 -111 94 -111q119 0 119 207q0 123 -31 166q-23 33 -84 32q-94 0 -106 -118h-488l29 895h1141v-349h-670l-20 -243q113 106 295 106q213 0 344 -116q139 -125 139 -347q0 -272 -182 -426q-172 -143 -455 -143q-618 0 -649 447z" />
<glyph unicode="6" horiz-adv-x="1441" d="M57 696q0 821 707 822q553 -1 553 -447h-475q0 111 -103 111q-98 0 -135 -127q-16 -59 -22 -209q106 113 311 112q207 0 342 -112q150 -125 149 -350q0 -248 -176 -391.5t-475 -143.5q-334 0 -508 197q-168 188 -168 538zM610 485q1 -188 140 -188t139 188 q0 182 -139 183q-139 0 -140 -183z" />
<glyph unicode="7" horiz-adv-x="1441" d="M86 1094v385h1251v-316l-553 -1163h-598l559 1094h-659z" />
<glyph unicode="8" horiz-adv-x="1441" d="M57 385q0 305 293 365v4q-258 53 -258 319q0 205 161 325t466 120q311 0 477 -123q158 -117 158 -322q0 -268 -267 -319v-4q297 -59 297 -365q0 -180 -141 -291q-174 -133 -524 -133q-348 0 -520 133q-142 111 -142 291zM594 446q0 -150 129 -149q125 0 125 149 q0 150 -125 150q-129 0 -129 -150zM616 1047q0 -135 107 -136q106 0 106 136q0 135 -106 135q-107 0 -107 -135z" />
<glyph unicode="9" horiz-adv-x="1441" d="M57 983q0 248 176.5 391.5t475.5 143.5q334 0 508 -195q168 -190 167 -541q0 -821 -706 -821q-553 1 -553 447h475q0 -111 102 -111q98 0 136 127q16 59 22 209q-106 -113 -311 -113q-207 0 -340 113q-152 125 -152 350zM553 993q0 -182 139 -182t139 182q0 188 -139 189 q-139 -1 -139 -189z" />
<glyph unicode=":" horiz-adv-x="720" d="M113 0v422h495v-422h-495zM113 637v422h495v-422h-495z" />
<glyph unicode=";" horiz-adv-x="720" d="M20 -205l142 627h495l-215 -627h-422zM162 637v422h495v-422h-495z" />
<glyph unicode="&#x3c;" horiz-adv-x="1228" d="M94 391v254l1041 408v-267l-693 -268l693 -268v-266z" />
<glyph unicode="=" horiz-adv-x="1228" d="M96 129v279h1037v-279h-1037zM96 629v278h1037v-278h-1037z" />
<glyph unicode="&#x3e;" horiz-adv-x="1228" d="M94 -16v266l692 268l-692 268v267l1041 -408v-254z" />
<glyph unicode="?" horiz-adv-x="1099" d="M61 1059v385q215 74 431 74q248 0 399 -99q168 -106 168 -307q0 -180 -135 -297l-172 -147q-70 -59 -70 -142v-100h-496v131q0 113 90 205l150 151q51 51 51 107q0 100 -143 100q-121 0 -273 -61zM186 0v336h496v-336h-496z" />
<glyph unicode="@" horiz-adv-x="1638" d="M41 739q0 324 228.5 551.5t549.5 227.5q362 0 576 -179q203 -170 202 -442q0 -315 -225 -498q-166 -133 -317 -133q-106 0 -119 107h-4q-74 -106 -211 -107q-160 0 -258 119q-94 111 -94 272q0 209 124.5 351.5t315.5 142.5q166 0 252 -123l22 86h193l-82 -442 q-16 -88 -16 -125q0 -51 26 -51q57 0 109 71q68 96 67 267q0 238 -153 364q-139 115 -379 115q-250 0 -414 -163t-164 -413q0 -258 172 -420q160 -152 398 -151q264 0 424 129h237q-223 -334 -682 -334q-322 0 -550 228.5t-228 549.5zM647 690q0 -72 43 -115t107 -43 q70 0 129 57.5t59 147.5q0 74 -42 117t-99 43q-76 0 -133 -55q-64 -60 -64 -152z" />
<glyph unicode="A" d="M-39 0l473 1479h760l475 -1479h-606l-57 238h-424l-60 -238h-561zM670 598h250l-117 557h-4z" />
<glyph unicode="B" horiz-adv-x="1552" d="M104 0v1479h879q475 0 475 -383q0 -256 -278 -322v-4q160 -23 243 -125q74 -92 74 -221q0 -195 -145 -307q-152 -117 -422 -117h-826zM653 315h82q201 0 201 156q0 133 -207 133h-76v-289zM653 883h78q178 0 178 147q0 133 -180 133h-76v-280z" />
<glyph unicode="C" horiz-adv-x="1552" d="M51 745v21q1 338 193 542q198 210 567 210q307 0 483 -129q205 -152 207 -457h-536q-10 201 -142 201q-104 0 -139 -107q-27 -80 -27 -287q0 -201 25 -280q35 -113 135 -113q125 0 135 201h549q0 -289 -209 -447q-186 -139 -483 -139q-375 0 -571 217q-180 201 -187 567z " />
<glyph unicode="D" d="M104 0v1479h695q780 0 780 -756q0 -334 -201.5 -528.5t-543.5 -194.5h-730zM678 336h57q127 0 187 94q51 82 51 309t-51 310q-59 94 -187 94h-57v-807z" />
<glyph unicode="E" horiz-adv-x="1290" d="M104 0v1479h1125v-385h-563v-158h520v-385h-520v-166h581v-385h-1143z" />
<glyph unicode="F" horiz-adv-x="1249" d="M104 0v1479h1125v-385h-539v-158h502v-385h-502v-551h-586z" />
<glyph unicode="G" horiz-adv-x="1667" d="M51 739q0 354 199 559q213 219 610 220q690 0 699 -496h-549q-6 123 -142 123q-123 0 -174 -105q-37 -76 -37 -329q0 -180 23 -248q43 -129 184 -129q92 0 156 31v178h-201v291h762v-775q-379 -98 -737 -98q-387 0 -596 219q-197 207 -197 559z" />
<glyph unicode="H" d="M104 0v1479h586v-500h250v500h586v-1479h-586v545h-250v-545h-586z" />
<glyph unicode="I" horiz-adv-x="794" d="M104 0v1479h586v-1479h-586z" />
<glyph unicode="J" horiz-adv-x="1363" d="M-4 418v71h496v-30q0 -113 88 -113q104 0 104 156v977h586v-1006q0 -252 -180 -385q-170 -127 -478 -127q-270 0 -438 115q-178 125 -178 342z" />
<glyph unicode="K" d="M104 0v1479h574v-635h4l301 635h619l-396 -697l451 -782h-635l-340 664h-4v-664h-574z" />
<glyph unicode="L" horiz-adv-x="1249" d="M104 0v1479h586v-1082h539v-397h-1125z" />
<glyph unicode="M" horiz-adv-x="2162" d="M104 0v1479h814l161 -881h4l162 881h813v-1479h-495v1057h-4l-209 -1057h-537l-209 1057h-4v-1057h-496z" />
<glyph unicode="N" horiz-adv-x="1703" d="M104 0v1479h703l313 -895h4v895h475v-1479h-702l-313 901h-4v-901h-476z" />
<glyph unicode="O" d="M51 739q0 356 191 561q201 217 573 218q373 0 574 -218q190 -205 190 -561t-190 -561q-201 -217 -574 -217t-573 217q-191 205 -191 561zM657 739q0 -236 45 -325q35 -68 113 -68t113 68q45 90 45 325q0 233 -43 322q-35 72 -115 72t-115 -72q-43 -89 -43 -322z" />
<glyph unicode="P" horiz-adv-x="1515" d="M104 0v1479h861q258 0 395 -138q129 -129 129 -348q0 -229 -148 -358q-158 -137 -458 -137h-193v-498h-586zM690 834h29q209 0 209 159q0 150 -176 150h-62v-309z" />
<glyph unicode="Q" d="M51 739q0 356 191 561q201 217 573 218q367 0 563 -201q188 -195 189 -543q0 -229 -148 -414h207v-360h-369q-74 0 -221 -19.5t-221 -19.5q-373 0 -573 217q-190 205 -191 561zM657 739q0 -236 45 -325q35 -68 113 -68t113 68q45 90 45 325q0 233 -43 322q-35 72 -115 72 t-115 -72q-43 -89 -43 -322z" />
<glyph unicode="R" horiz-adv-x="1552" d="M104 0v1479h875q250 0 371 -82q133 -92 133 -293q0 -283 -293 -352v-4q207 -18 250 -189q10 -43 35 -244q23 -188 61 -315h-573q-20 68 -43 207q-14 109 -31 217q-16 102 -144 102h-67v-526h-574zM678 862h49q195 0 195 150q0 76 -52 106q-45 25 -139 25h-53v-281z" />
<glyph unicode="S" horiz-adv-x="1478" d="M41 457h561q0 -160 146 -160q63 0 102 35t39 86q0 72 -98 100l-416 123q-307 90 -307 395q0 229 178 355.5t502 126.5q645 0 645 -459h-525q-2 123 -129 123q-135 0 -135 -86q0 -66 96 -95q111 -29 222 -57q158 -41 247 -80q268 -113 269 -389q0 -260 -199 -393 q-184 -121 -514 -121q-684 0 -684 496z" />
<glyph unicode="T" horiz-adv-x="1327" d="M6 1081v398h1315v-398h-365v-1081h-585v1081h-365z" />
<glyph unicode="U" horiz-adv-x="1593" d="M94 496v983h586v-959q0 -162 117 -162t116 162v959h586v-983q0 -264 -181 -399.5t-521 -135.5q-338 0 -520.5 135t-182.5 400z" />
<glyph unicode="V" horiz-adv-x="1554" d="M-16 1479h596l208 -1155h5l217 1155h561l-414 -1479h-758z" />
<glyph unicode="W" horiz-adv-x="2121" d="M-33 1479h525l124 -930h5l137 930h606l137 -930h4l125 930h524l-319 -1479h-635l-137 958h-4l-137 -958h-635z" />
<glyph unicode="X" horiz-adv-x="1593" d="M-29 0l480 756l-449 723h619l192 -420l205 420h586l-457 -723l475 -756h-618l-220 446l-227 -446h-586z" />
<glyph unicode="Y" horiz-adv-x="1515" d="M-33 1479h606l205 -621h4l205 621h561l-497 -967v-512h-586v512z" />
<glyph unicode="Z" horiz-adv-x="1402" d="M47 0v360l619 734h-600v385h1275v-361l-616 -733h631v-385h-1309z" />
<glyph unicode="[" horiz-adv-x="985" d="M164 -295v1774h751v-336h-317v-1102h317v-336h-751z" />
<glyph unicode="\" horiz-adv-x="757" d="M-33 1518h291l533 -1557h-291z" />
<glyph unicode="]" horiz-adv-x="985" d="M70 41h317v1102h-317v336h751v-1774h-751v336z" />
<glyph unicode="^" horiz-adv-x="1228" d="M133 731l356 748h250l357 -748h-267l-215 457l-215 -457h-266z" />
<glyph unicode="_" horiz-adv-x="1024" d="M0 -154h1024v-102h-1024v102z" />
<glyph unicode="`" horiz-adv-x="569" d="M-160 1479h475l201 -349h-360z" />
<glyph unicode="a" horiz-adv-x="1212" d="M33 283q0 358 590 358h59v107q0 81 -94 81h-2q-92 0 -101 -106h-409q20 336 530 336q287 0 410 -92q113 -86 112 -273v-694h-434l-12 98q-98 -129 -293 -129q-160 0 -258 82t-98 232zM569 223q113 0 113 139v87h-68q-159 0 -159 -118q0 -107 114 -108z" />
<glyph unicode="b" horiz-adv-x="1363" d="M88 0v1479h496v-545q111 125 305 125q184 0 295 -121q127 -137 127 -412q0 -266 -121 -415q-115 -141 -307 -142q-209 0 -320 150l-8 -119h-467zM584 514q0 -156 20 -199q27 -55 92 -55q74 0 101 76q18 53 18 178q0 117 -10 162q-25 92 -107 92q-88 0 -106 -94 q-8 -41 -8 -160z" />
<glyph unicode="c" horiz-adv-x="1290" d="M53 520q0 260 166 402q160 137 438 137q557 0 580 -453h-459q-4 106 -22 148q-23 51 -84 51q-68 0 -92 -53q-31 -66 -31 -252q0 -168 31 -228q25 -49 86 -49q57 0 82 47q23 41 30 146h459q-10 -446 -592 -447q-592 0 -592 551z" />
<glyph unicode="d" horiz-adv-x="1363" d="M53 526q0 274 127 412q111 121 295 121q195 0 305 -125v545h496v-1479h-467l-8 119q-111 -150 -320 -150q-193 0 -307 142q-121 150 -121 415zM549 514q0 -125 20 -178q25 -76 99 -76q66 0 92 55q20 43 20 199q0 119 -8 160q-18 94 -106 94q-82 0 -107 -92 q-10 -43 -10 -162z" />
<glyph unicode="e" horiz-adv-x="1290" d="M53 520q0 260 166 402q160 137 443 137q575 0 575 -565v-70h-709v-31q0 -170 140 -170q103 1 123 107h434q-57 -360 -600 -361q-252 0 -400 119q-172 141 -172 432zM528 641h263v14q0 150 -129 150q-133 0 -134 -150v-14z" />
<glyph unicode="f" horiz-adv-x="794" d="M0 725v303h111v102q0 170 120 269q113 92 295 92q158 0 277 -29v-291q-70 4 -107 5q-90 0 -90 -89v-59h174v-303h-174v-725h-495v725h-111z" />
<glyph unicode="g" horiz-adv-x="1363" d="M53 510q0 276 131 420q117 129 322 129t293 -144h4l8 113h467v-936q0 -293 -172 -411q-143 -98 -449 -99q-524 0 -561 348h488q0 -82 106 -82q129 1 129 175v129h-4q-96 -133 -319 -134q-178 0 -297 107q-145 129 -146 385zM565 504q0 -113 17 -150q22 -57 96 -57 q82 0 108 70q16 43 17 161q0 121 -15 166q-25 74 -102 74q-80 0 -106 -88q-14 -53 -15 -176z" />
<glyph unicode="h" horiz-adv-x="1327" d="M74 0v1479h495v-590h4q111 170 324 170q356 0 356 -375v-684h-495v637q0 119 -90 119q-98 0 -99 -115v-641h-495z" />
<glyph unicode="i" horiz-adv-x="643" d="M74 0v1028h495v-1028h-495zM74 1163v316h495v-316h-495z" />
<glyph unicode="j" horiz-adv-x="643" d="M-98 -123q37 -4 55 -4q63 0 90 31.5t27 115.5v1008h495v-1061q0 -229 -145 -307q-100 -53 -361 -53q-111 0 -161 16v254zM74 1163v316h495v-316h-495z" />
<glyph unicode="k" horiz-adv-x="1290" d="M74 0v1479h495v-848h4l185 397h536l-286 -440l307 -588h-537l-205 537h-4v-537h-495z" />
<glyph unicode="l" horiz-adv-x="643" d="M74 0v1479h495v-1479h-495z" />
<glyph unicode="m" horiz-adv-x="2007" d="M84 0v1028h483l13 -156h4q106 186 323 187q244 0 336 -187q106 186 324 187q356 0 356 -375v-684h-496v645q0 111 -86 111q-90 0 -90 -115v-641h-495v645q0 111 -86 111q-90 0 -90 -115v-641h-496z" />
<glyph unicode="n" horiz-adv-x="1327" d="M74 0v1028h483l12 -156h4q106 186 324 187q356 0 356 -375v-684h-495v637q0 119 -90 119q-98 0 -99 -115v-641h-495z" />
<glyph unicode="o" horiz-adv-x="1363" d="M53 514q0 252 158 395q166 150 471 150t471 -150q158 -143 158 -395t-158 -395q-166 -150 -471 -150t-471 150q-158 143 -158 395zM565 514q0 -150 28 -208t89 -58t89 58.5t28 207.5q0 150 -29 211q-27 55 -88 55t-88 -55q-29 -61 -29 -211z" />
<glyph unicode="p" horiz-adv-x="1363" d="M88 -393v1421h467l8 -119q111 150 320 150q193 0 307 -141q121 -150 121 -416q0 -274 -127 -412q-111 -121 -295 -121q-195 0 -305 125v-487h-496zM584 514q0 -119 8 -160q18 -94 106 -94q82 0 107 92q10 45 10 162q0 125 -18 180q-27 74 -101 74q-66 0 -92 -55 q-20 -43 -20 -199z" />
<glyph unicode="q" horiz-adv-x="1363" d="M53 502q0 266 121 416q115 141 307 141q209 0 320 -150l8 119h467v-1421h-496v487q-111 -125 -305 -125q-184 0 -295 121q-127 137 -127 412zM549 514q0 -119 10 -162q25 -92 107 -92q88 0 106 94q8 41 8 160q0 156 -20 199q-27 55 -92 55q-74 0 -99 -74 q-20 -55 -20 -180z" />
<glyph unicode="r" horiz-adv-x="909" d="M74 0v1028h483l12 -113q96 125 203 125q76 0 131 -28v-373q-115 29 -207 29q-127 0 -127 -129v-539h-495z" />
<glyph unicode="s" horiz-adv-x="1212" d="M53 342h447q4 -143 112 -143q100 0 101 88q0 61 -76 75q-35 6 -219 44q-193 37 -271.5 103t-78.5 206q0 152 120 243q135 100 396 101q258 0 389 -72q149 -86 155 -276h-421q0 63 -19.5 90.5t-79.5 27.5q-106 0 -106 -75q0 -47 55 -68q23 -8 96 -18q297 -41 401.5 -112 t104.5 -222q0 -365 -563 -365q-537 0 -543 373z" />
<glyph unicode="t" horiz-adv-x="872" d="M10 725v303h133v166l496 172v-338h223v-303h-223v-315q0 -104 84 -105q76 0 121 12v-303q-207 -45 -330 -45q-371 0 -371 289v467h-133z" />
<glyph unicode="u" horiz-adv-x="1327" d="M74 344v684h495v-637q0 -119 90 -119q98 0 99 115v641h495v-1028h-483l-12 156h-4q-106 -186 -324 -187q-356 0 -356 375z" />
<glyph unicode="v" horiz-adv-x="1290" d="M0 1028h512l131 -643h4l131 643h512l-307 -1028h-676z" />
<glyph unicode="w" horiz-adv-x="1933" d="M0 1028h475l82 -668h4l123 668h549l115 -668h4l106 668h475l-254 -1028h-606l-123 655h-4l-123 -655h-606z" />
<glyph unicode="x" horiz-adv-x="1290" d="M-27 0l312 553l-283 475h524l117 -274l90 274h524l-260 -475l320 -553h-524l-150 307l-121 -307h-549z" />
<glyph unicode="y" horiz-adv-x="1290" d="M-6 1028h524l144 -565h4l135 565h495l-487 -1421h-537l138 362z" />
<glyph unicode="z" horiz-adv-x="1097" d="M51 0v291l359 401h-330v336h934v-315l-326 -377h359v-336h-996z" />
<glyph unicode="{" horiz-adv-x="985" d="M61 424v336q193 0 193 114v347q0 102 74 176q82 82 211 82h340v-336h-72q-119 0 -119 -123v-236q0 -156 -229 -190v-4q229 -35 229 -191v-235q0 -123 119 -123h72v-336h-340q-129 0 -211 82q-74 74 -74 176v346q0 115 -193 115z" />
<glyph unicode="|" horiz-adv-x="454" d="M88 -39v1557h279v-1557h-279z" />
<glyph unicode="}" horiz-adv-x="985" d="M106 41h72q119 0 119 123v235q0 156 229 191v4q-229 35 -229 190v236q0 123 -119 123h-72v336h340q129 0 211 -82q74 -74 74 -176v-347q0 -115 193 -114v-336q-193 0 -193 -115v-346q0 -102 -74 -176q-82 -82 -211 -82h-340v336z" />
<glyph unicode="~" horiz-adv-x="1228" d="M141 547q90 176 256 176q80 0 234.5 -71.5t202.5 -71.5q86 0 180 143l73 -234q-111 -176 -256 -176q-78 0 -212 72t-232 72q-100 -1 -172 -144z" />
<glyph unicode="&#xa1;" horiz-adv-x="757" d="M86 -379l88 1047h410l88 -1047h-586zM131 764v336h496v-336h-496z" />
<glyph unicode="&#xa2;" horiz-adv-x="1441" d="M129 520q0 229 147 377q127 125 324 162v221h291v-221q186 -25 297 -137q117 -119 125 -316h-459q-4 106 -23 148q-23 51 -83 51q-68 0 -93 -53q-31 -66 -30 -252q0 -170 22.5 -223.5t91.5 -53.5q59 0 86 47q20 41 29 146h459q0 -365 -422 -447v-221h-291v221 q-471 59 -471 551z" />
<glyph unicode="&#xa3;" horiz-adv-x="1441" d="M29 584v336h190v114q0 229 174 359q168 125 445 125q272 0 422 -109q154 -115 153 -326v-41h-495q-6 102 -87 103q-100 0 -100 -156v-69h285v-336h-285v-187h649v-397h-1308v397h147v187h-190z" />
<glyph unicode="&#xa4;" horiz-adv-x="1441" d="M180 356l113 113q-80 119 -80 270q0 156 86 281l-119 119l150 149l123 -121q121 80 268 80q154 0 268 -80l123 121l150 -149l-119 -119q86 -125 86 -281q0 -152 -80 -270l113 -113l-150 -149l-111 110q-125 -86 -280 -86q-156 0 -281 86l-110 -110zM479 739 q0 -100 71 -170.5t171 -70.5t171 70.5t71 170.5t-71 171t-171 71t-171 -71t-71 -171z" />
<glyph unicode="&#xa5;" horiz-adv-x="1441" d="M-31 1479h574l194 -621h4l195 621h537l-314 -633h139v-279h-276l-29 -55v-66h305v-278h-305v-168h-549v168h-305v278h305v66l-28 55h-277v279h140z" />
<glyph unicode="&#xa6;" horiz-adv-x="454" d="M88 -39v602h279v-602h-279zM88 915v603h279v-603h-279z" />
<glyph unicode="&#xa7;" horiz-adv-x="1441" d="M168 709q0 86 53 159q63 90 180 113v4q-174 53 -174 223q0 309 521 310q190 0 405 -39v-267q-178 39 -270 39q-82 0 -82 -41q0 -39 123 -82q164 -59 227 -106q123 -88 123 -236q0 -225 -234 -305q150 -63 150 -223q0 -135 -111 -211q-121 -86 -362 -86q-283 0 -508 55 v279q203 -68 332 -68q88 0 88 68q0 45 -119 90q-168 66 -223 104q-119 84 -119 220zM582 776q0 -53 63 -86l127 -65q104 57 105 123q0 78 -197 133l-39 -27q-59 -41 -59 -78z" />
<glyph unicode="&#xa8;" horiz-adv-x="569" d="M-129 1130v349h336v-349h-336zM362 1130v349h336v-349h-336z" />
<glyph unicode="&#xa9;" horiz-adv-x="1638" d="M41 739q0 324 228.5 551.5t549.5 227.5q324 0 551 -227.5t227 -551.5q0 -322 -227 -550t-551 -228q-322 0 -550 228t-228 550zM283 739q0 -223 156.5 -379.5t379.5 -156.5t380 156.5t157 379.5t-157 380t-380 157t-379.5 -157t-156.5 -380zM412 737q0 190 112.5 312 t300.5 122q143 0 242.5 -79.5t128.5 -229.5h-217q-23 117 -160 117q-84 0 -131 -64.5t-47 -173.5q0 -106 49 -174.5t127 -68.5q148 0 162 129h217q-20 -156 -127 -242q-98 -80 -240 -80q-186 0 -301.5 123t-115.5 309z" />
<glyph unicode="&#xaa;" horiz-adv-x="825" d="M20 1053q0 123 103 176q96 51 309 51h37v37q0 49 -61 49q-59 0 -66 -53h-303q6 119 117 166q88 39 264 39q219 0 307 -56q78 -49 78 -164v-415h-328l-8 61q-63 -80 -190 -80q-258 0 -259 189zM324 1081q0 -53 75 -53q70 0 70 72v57h-43q-102 0 -102 -76z" />
<glyph unicode="&#xab;" horiz-adv-x="1327" d="M23 512l311 512h397l-221 -512l221 -512h-397zM596 512l311 512h398l-222 -512l222 -512h-398z" />
<glyph unicode="&#xac;" horiz-adv-x="1228" d="M96 629v278h1037v-649h-279v371h-758z" />
<glyph unicode="&#xad;" horiz-adv-x="833" d="M59 373v348h715v-348h-715z" />
<glyph unicode="&#xae;" horiz-adv-x="1638" d="M41 739q0 324 228.5 551.5t549.5 227.5q324 0 551 -227.5t227 -551.5q0 -322 -227 -550t-551 -228q-322 0 -550 228t-228 550zM283 739q0 -223 156.5 -379.5t379.5 -156.5t380 156.5t157 379.5t-157 380t-380 157t-379.5 -157t-156.5 -380zM512 344v791h305 q184 0 264 -57.5t80 -192.5q0 -199 -182 -215l170 -326h-217l-158 315h-69v-315h-193zM705 811h153q111 0 111 94q-1 78 -144 78h-120v-172z" />
<glyph unicode="&#xaf;" horiz-adv-x="569" d="M-154 1190v242h877v-242h-877z" />
<glyph unicode="&#xb0;" horiz-adv-x="819" d="M117 1225q0 121 86 207t207 86t206.5 -86t85.5 -207t-86 -207t-206 -86q-121 0 -207 86t-86 207zM297 1225q0 -45 34 -79t79 -34q47 0 79.5 34t32.5 79q0 47 -32.5 79.5t-79.5 32.5q-45 0 -79 -32.5t-34 -79.5z" />
<glyph unicode="&#xb1;" horiz-adv-x="1228" d="M96 0v279h1037v-279h-1037zM96 543v278h379v215h279v-215h379v-278h-379v-215h-279v215h-379z" />
<glyph unicode="&#xb2;" horiz-adv-x="937" d="M10 1182q0 180 117 260q111 76 348 76q240 0 356 -86q96 -70 97 -191q0 -215 -365 -352v-4h365v-279h-889v266l213 95q266 160 266 252q0 57 -59 57q-63 0 -64 -94h-385z" />
<glyph unicode="&#xb3;" horiz-adv-x="937" d="M-12 887h372q6 -74 95 -74q86 0 86 76q0 86 -142 86h-57v164h74q115 0 114 94q0 55 -84 55q-74 0 -73 -74h-361q0 303 453 304q463 0 463 -250q0 -168 -236 -191v-4q258 -20 258 -207q0 -283 -467 -282q-262 0 -377.5 71.5t-117.5 231.5z" />
<glyph unicode="&#xb4;" horiz-adv-x="569" d="M33 1130l200 349h476l-316 -349h-360z" />
<glyph unicode="&#xb6;" horiz-adv-x="1269" d="M37 1133q0 188 125 270q113 76 350 76h672v-1479h-279v1274h-133v-1274h-278v797q-457 0 -457 336z" />
<glyph unicode="&#xb7;" horiz-adv-x="720" d="M113 514q0 102 72.5 175t174.5 73t175 -73t73 -175t-72.5 -175t-175.5 -73q-102 0 -174.5 73t-72.5 175z" />
<glyph unicode="&#xb8;" horiz-adv-x="569" d="M-8 -442l55 131q104 -49 182 -49q41 0 74 19t33 50q0 55 -82 55q-25 0 -64 -14l-77 62l104 188h168l-66 -115h5q23 6 59 6q84 0 139.5 -47t55.5 -127q0 -100 -84 -158.5t-218 -58.5q-166 0 -284 58z" />
<glyph unicode="&#xb9;" horiz-adv-x="937" d="M129 1061v291q184 57 283 143h346v-889h-422v553q-100 -70 -207 -98z" />
<glyph unicode="&#xba;" horiz-adv-x="923" d="M0 1192q0 326 461 326q463 0 463 -326q0 -328 -463 -328q-461 0 -461 328zM385 1184q0 -127 78 -127q76 0 76 139q0 129 -76 129q-78 0 -78 -141z" />
<glyph unicode="&#xbb;" horiz-adv-x="1327" d="M23 0l221 512l-221 512h397l311 -512l-311 -512h-397zM596 0l221 512l-221 512h397l312 -512l-312 -512h-397z" />
<glyph unicode="&#xbc;" horiz-adv-x="2162" d="M129 1061v291q184 57 283 143h346v-889h-422v553q-100 -70 -207 -98zM494 -51l825 1581h217l-825 -1581h-217zM1094 119v276l321 494h549v-516h111v-254h-111v-119h-385v119h-485zM1397 373h182v262h-4z" />
<glyph unicode="&#xbd;" horiz-adv-x="2162" d="M129 1061v291q184 57 283 143h346v-889h-422v553q-100 -70 -207 -98zM473 -51l825 1581h218l-826 -1581h-217zM1155 569q0 184 117 267q111 76 348 75q240 0 356 -86q96 -70 97 -190q0 -109 -82 -191q-88 -90 -295 -174v-4h377v-266h-889v266l213 94q266 160 266 252 q0 57 -59 58q-63 0 -64 -101h-385z" />
<glyph unicode="&#xbe;" horiz-adv-x="2162" d="M23 887h372q6 -74 94 -74q86 0 86 76q0 86 -141 86h-57v164h74q115 0 114 94q0 55 -84 55q-74 0 -73 -74h-361q0 303 453 304q463 0 463 -250q0 -168 -236 -191v-4q258 -20 258 -207q0 -283 -467 -282q-262 0 -377.5 71.5t-117.5 231.5zM616 -51l826 1581h217l-825 -1581 h-218zM1159 119v276l322 494h549v-516h110v-254h-110v-119h-385v119h-486zM1462 373h183v262h-5z" />
<glyph unicode="&#xbf;" horiz-adv-x="1099" d="M41 -12q0 180 135 297l172 147q70 59 70 141v101h495v-131q0 -113 -90 -205l-149 -152q-51 -51 -51 -106q0 -100 143 -100q121 0 272 61v-385q-215 -74 -430 -74q-248 0 -399 99q-168 106 -168 307zM418 764v336h495v-336h-495z" />
<glyph unicode="&#xc0;" d="M-39 0l473 1479h760l475 -1479h-606l-57 238h-424l-60 -238h-561zM370 1930h475l201 -349h-360zM670 598h250l-117 557h-4z" />
<glyph unicode="&#xc1;" d="M-39 0l473 1479h760l475 -1479h-606l-57 238h-424l-60 -238h-561zM563 1581l200 349h476l-316 -349h-360zM670 598h250l-117 557h-4z" />
<glyph unicode="&#xc2;" d="M-39 0l473 1479h760l475 -1479h-606l-57 238h-424l-60 -238h-561zM352 1581l233 349h459l234 -349h-373l-90 156l-90 -156h-373zM670 598h250l-117 557h-4z" />
<glyph unicode="&#xc3;" d="M-39 0l473 1479h760l475 -1479h-606l-57 238h-424l-60 -238h-561zM372 1594v39q0 131 70 214t188 83q66 0 187 -35t139 -35q45 0 47 57h254q0 -336 -285 -336q-53 0 -167.5 35t-139.5 35q-39 0 -39 -57h-254zM670 598h250l-117 557h-4z" />
<glyph unicode="&#xc4;" d="M-39 0l473 1479h760l475 -1479h-606l-57 238h-424l-60 -238h-561zM401 1581v349h336v-349h-336zM670 598h250l-117 557h-4zM892 1581v349h336v-349h-336z" />
<glyph unicode="&#xc5;" d="M-39 0l473 1479h760l475 -1479h-606l-57 238h-424l-60 -238h-561zM546 1815q0 111 79 189.5t190 78.5t189.5 -79t78.5 -189q0 -111 -79 -190t-189 -79q-111 0 -190 79t-79 190zM670 598h250l-117 557h-4zM727 1815q0 -37 25.5 -62.5t62.5 -25.5t62.5 25.5t25.5 62.5 t-25.5 62.5t-62.5 25.5t-62.5 -25.5t-25.5 -62.5z" />
<glyph unicode="&#xc6;" horiz-adv-x="2048" d="M-39 0l623 1479h1417v-385h-522l14 -158h469v-385h-426l18 -166h451v-385h-950l-25 238h-434l-86 -238h-549zM729 598h260l-49 578h-4z" />
<glyph unicode="&#xc7;" horiz-adv-x="1552" d="M51 745q-6 352 192.5 562.5t567.5 210.5q307 0 483 -129q205 -152 207 -457h-536q-10 201 -142 201q-104 0 -139 -107q-27 -80 -27 -287q0 -201 25 -280q35 -113 135 -113q125 0 135 201h549q0 -276 -192 -432q-172 -139 -453 -150l-45 -80h4q23 6 59 6q84 0 139.5 -47 t55.5 -127q0 -100 -84 -158.5t-217 -58.5q-166 0 -285 58l56 131q104 -49 182 -49q41 0 73.5 19t32.5 50q0 55 -82 55q-25 0 -63 -14l-78 62l86 155q-317 33 -481 244q-152 199 -158 534z" />
<glyph unicode="&#xc8;" horiz-adv-x="1290" d="M104 0v1479h1125v-385h-563v-158h520v-385h-520v-166h581v-385h-1143zM200 1930h475l201 -349h-360z" />
<glyph unicode="&#xc9;" horiz-adv-x="1290" d="M104 0v1479h1125v-385h-563v-158h520v-385h-520v-166h581v-385h-1143zM393 1581l200 349h476l-316 -349h-360z" />
<glyph unicode="&#xca;" horiz-adv-x="1290" d="M104 0v1479h1125v-385h-563v-158h520v-385h-520v-166h581v-385h-1143zM182 1581l233 349h459l234 -349h-373l-90 156l-90 -156h-373z" />
<glyph unicode="&#xcb;" horiz-adv-x="1290" d="M104 0v1479h1125v-385h-563v-158h520v-385h-520v-166h581v-385h-1143zM231 1581v349h336v-349h-336zM722 1581v349h336v-349h-336z" />
<glyph unicode="&#xcc;" horiz-adv-x="794" d="M-47 1930h475l201 -349h-360zM104 0v1479h586v-1479h-586z" />
<glyph unicode="&#xcd;" horiz-adv-x="794" d="M104 0v1479h586v-1479h-586zM146 1581l200 349h476l-316 -349h-360z" />
<glyph unicode="&#xce;" horiz-adv-x="794" d="M-65 1581l233 349h459l234 -349h-373l-90 156l-90 -156h-373zM104 0v1479h586v-1479h-586z" />
<glyph unicode="&#xcf;" horiz-adv-x="794" d="M-16 1581v349h336v-349h-336zM104 0v1479h586v-1479h-586zM475 1581v349h336v-349h-336z" />
<glyph unicode="&#xd0;" d="M0 641v242h104v596h695q780 0 780 -756q0 -334 -201.5 -528.5t-543.5 -194.5h-730v641h-104zM678 336h57q127 0 187 94q51 82 51 318q0 203 -45 290q-54 105 -195 105h-55v-260h151v-242h-151v-305z" />
<glyph unicode="&#xd1;" horiz-adv-x="1703" d="M104 0v1479h703l313 -895h4v895h475v-1479h-702l-313 901h-4v-901h-476zM409 1594v39q0 131 70 214t188 83q66 0 187 -35t139 -35q45 0 47 57h254q0 -336 -285 -336q-53 0 -167.5 35t-139.5 35q-39 0 -39 -57h-254z" />
<glyph unicode="&#xd2;" d="M51 739q0 356 191 561q201 217 573 218q373 0 574 -218q190 -205 190 -561t-190 -561q-201 -217 -574 -217t-573 217q-191 205 -191 561zM370 1930h475l201 -349h-360zM657 739q0 -236 45 -325q35 -68 113 -68t113 68q45 90 45 325q0 233 -43 322q-35 72 -115 72 t-115 -72q-43 -89 -43 -322z" />
<glyph unicode="&#xd3;" d="M51 739q0 356 191 561q201 217 573 218q373 0 574 -218q190 -205 190 -561t-190 -561q-201 -217 -574 -217t-573 217q-191 205 -191 561zM563 1581l200 349h476l-316 -349h-360zM657 739q0 -236 45 -325q35 -68 113 -68t113 68q45 90 45 325q0 233 -43 322 q-35 72 -115 72t-115 -72q-43 -89 -43 -322z" />
<glyph unicode="&#xd4;" d="M51 739q0 356 191 561q201 217 573 218q373 0 574 -218q190 -205 190 -561t-190 -561q-201 -217 -574 -217t-573 217q-191 205 -191 561zM352 1581l233 349h459l234 -349h-373l-90 156l-90 -156h-373zM657 739q0 -236 45 -325q35 -68 113 -68t113 68q45 90 45 325 q0 233 -43 322q-35 72 -115 72t-115 -72q-43 -89 -43 -322z" />
<glyph unicode="&#xd5;" d="M51 739q0 356 191 561q201 217 573 218q373 0 574 -218q190 -205 190 -561t-190 -561q-201 -217 -574 -217t-573 217q-191 205 -191 561zM372 1594v39q0 131 70 214t188 83q66 0 187 -35t139 -35q45 0 47 57h254q0 -336 -285 -336q-53 0 -167.5 35t-139.5 35 q-39 0 -39 -57h-254zM657 739q0 -236 45 -325q35 -68 113 -68t113 68q45 90 45 325q0 233 -43 322q-35 72 -115 72t-115 -72q-43 -89 -43 -322z" />
<glyph unicode="&#xd6;" d="M51 739q0 356 191 561q201 217 573 218q373 0 574 -218q190 -205 190 -561t-190 -561q-201 -217 -574 -217t-573 217q-191 205 -191 561zM401 1581v349h336v-349h-336zM657 739q0 -236 45 -325q35 -68 113 -68t113 68q45 90 45 325q0 233 -43 322q-35 72 -115 72 t-115 -72q-43 -89 -43 -322zM892 1581v349h336v-349h-336z" />
<glyph unicode="&#xd7;" horiz-adv-x="1228" d="M119 215l305 303l-305 303l192 193l303 -303l304 303l192 -193l-305 -303l305 -303l-192 -192l-304 303l-303 -303z" />
<glyph unicode="&#xd8;" d="M51 739q0 356 191 561q201 217 573 218q211 0 365 -68l155 219l195 -137l-154 -215q203 -205 203 -578q0 -356 -190 -561q-201 -217 -574 -217q-205 0 -360 70l-160 -221l-195 137l156 217q-205 205 -205 575zM625 682h4l295 414q-20 37 -109 37q-106 0 -147 -91 q-43 -98 -43 -360zM707 383q25 -37 104 -37q109 0 152 98.5t43 352.5h-5z" />
<glyph unicode="&#xd9;" horiz-adv-x="1593" d="M94 496v983h586v-959q0 -162 117 -162t116 162v959h586v-983q0 -264 -181 -399.5t-521 -135.5q-338 0 -520.5 135t-182.5 400zM352 1930h475l201 -349h-360z" />
<glyph unicode="&#xda;" horiz-adv-x="1593" d="M94 496v983h586v-959q0 -162 117 -162t116 162v959h586v-983q0 -264 -181 -399.5t-521 -135.5q-338 0 -520.5 135t-182.5 400zM545 1581l200 349h476l-316 -349h-360z" />
<glyph unicode="&#xdb;" horiz-adv-x="1593" d="M94 496v983h586v-959q0 -162 117 -162t116 162v959h586v-983q0 -264 -181 -399.5t-521 -135.5q-338 0 -520.5 135t-182.5 400zM334 1581l233 349h459l234 -349h-373l-90 156l-90 -156h-373z" />
<glyph unicode="&#xdc;" horiz-adv-x="1593" d="M94 496v983h586v-959q0 -162 117 -162t116 162v959h586v-983q0 -264 -181 -399.5t-521 -135.5q-338 0 -520.5 135t-182.5 400zM383 1581v349h336v-349h-336zM874 1581v349h336v-349h-336z" />
<glyph unicode="&#xdd;" horiz-adv-x="1515" d="M-33 1479h606l205 -621h4l205 621h561l-497 -967v-512h-586v512zM506 1581l200 349h476l-316 -349h-360z" />
<glyph unicode="&#xde;" horiz-adv-x="1515" d="M104 0v1479h586v-238h275q258 0 395 -137q129 -129 129 -348q0 -229 -148 -359q-158 -137 -458 -137h-193v-260h-586zM690 596h29q209 0 209 160q0 150 -176 149h-62v-309z" />
<glyph unicode="&#xdf;" horiz-adv-x="1552" d="M74 0v1057q0 229 149 342q160 119 510 119q328 0 496 -101q158 -94 157 -262q0 -84 -55 -158q-23 -31 -102 -102q-55 -51 -55 -82q0 -41 94 -92q127 -70 174 -119q94 -96 94 -246q0 -184 -140.5 -285.5t-369.5 -101.5q-223 0 -318.5 89t-97.5 296h357v-22q0 -84 63 -84 q59 0 60 78q0 66 -107 137q-98 68 -199 133q-106 90 -106 197q0 90 61 157q55 49 113.5 100.5t58.5 104.5q0 109 -145 109q-197 0 -197 -277v-987h-495z" />
<glyph unicode="&#xe0;" horiz-adv-x="1212" d="M33 283q0 358 590 358h59v107q0 82 -96 81q-92 0 -101 -106h-409q20 336 530 336q287 0 410 -92q113 -86 112 -273v-694h-434l-12 98q-98 -129 -293 -129q-160 0 -258 82t-98 232zM162 1479h475l201 -349h-360zM455 330q0 -106 114 -107q113 0 113 139v87h-68 q-160 0 -159 -119z" />
<glyph unicode="&#xe1;" horiz-adv-x="1212" d="M33 283q0 358 590 358h59v107q0 82 -96 81q-92 0 -101 -106h-409q20 336 530 336q287 0 410 -92q113 -86 112 -273v-694h-434l-12 98q-98 -129 -293 -129q-160 0 -258 82t-98 232zM355 1130l200 349h476l-316 -349h-360zM455 330q0 -106 114 -107q113 0 113 139v87h-68 q-160 0 -159 -119z" />
<glyph unicode="&#xe2;" horiz-adv-x="1212" d="M33 283q0 358 590 358h59v107q0 82 -96 81q-92 0 -101 -106h-409q20 336 530 336q287 0 410 -92q113 -86 112 -273v-694h-434l-12 98q-98 -129 -293 -129q-160 0 -258 82t-98 232zM144 1130l233 349h459l234 -349h-373l-90 156l-90 -156h-373zM455 330q0 -106 114 -107 q113 0 113 139v87h-68q-160 0 -159 -119z" />
<glyph unicode="&#xe3;" horiz-adv-x="1212" d="M33 283q0 358 590 358h59v107q0 82 -96 81q-92 0 -101 -106h-409q20 336 530 336q287 0 410 -92q113 -86 112 -273v-694h-434l-12 98q-98 -129 -293 -129q-160 0 -258 82t-98 232zM164 1143v39q0 131 70 214t188 83q66 0 187 -35t139 -35q45 0 47 57h254 q0 -336 -285 -336q-53 0 -167.5 35t-139.5 35q-39 0 -39 -57h-254zM455 330q0 -106 114 -107q113 0 113 139v87h-68q-160 0 -159 -119z" />
<glyph unicode="&#xe4;" horiz-adv-x="1212" d="M33 283q0 358 590 358h59v107q0 82 -96 81q-92 0 -101 -106h-409q20 336 530 336q287 0 410 -92q113 -86 112 -273v-694h-434l-12 98q-98 -129 -293 -129q-160 0 -258 82t-98 232zM193 1130v349h336v-349h-336zM455 330q0 -106 114 -107q113 0 113 139v87h-68 q-160 0 -159 -119zM684 1130v349h336v-349h-336z" />
<glyph unicode="&#xe5;" horiz-adv-x="1212" d="M33 283q0 358 590 358h59v107q0 82 -96 81q-92 0 -101 -106h-409q20 336 530 336q287 0 410 -92q113 -86 112 -273v-694h-434l-12 98q-98 -129 -293 -129q-160 0 -258 82t-98 232zM338 1395q0 111 79 189.5t190 78.5t189.5 -79t78.5 -189q0 -111 -79 -190t-189 -79 q-111 0 -190 79t-79 190zM455 330q0 -106 114 -107q113 0 113 139v87h-68q-160 0 -159 -119zM519 1395q0 -37 25.5 -62.5t62.5 -25.5t62.5 25.5t25.5 62.5t-25.5 62.5t-62.5 25.5t-62.5 -25.5t-25.5 -62.5z" />
<glyph unicode="&#xe6;" horiz-adv-x="1855" d="M33 283q0 358 590 358h59v107q0 82 -96 81q-92 0 -101 -106h-409q20 336 530 336q203 0 322 -111q127 111 340 111q545 0 544 -565v-70h-708v-31q0 -170 139 -170q102 0 123 107h434q-57 -360 -551 -361q-262 0 -387 142q-115 -141 -397 -142q-432 0 -432 314zM455 330 q0 -106 114 -107q113 0 113 139v87h-68q-160 0 -159 -119zM1104 641h262v14q0 150 -129 150q-133 0 -133 -150v-14z" />
<glyph unicode="&#xe7;" horiz-adv-x="1290" d="M53 520q0 260 166 402q160 137 438 137q557 0 580 -453h-459q-4 106 -22 148q-23 51 -84 51q-68 0 -92 -53q-31 -66 -31 -252q0 -168 31 -228q25 -49 86 -49q57 0 82 47q23 41 30 146h459q-10 -414 -506 -443l-51 -88h4q23 6 59 6q84 0 139.5 -47t55.5 -127 q0 -100 -84 -158.5t-217 -58.5q-166 0 -285 58l56 131q104 -49 182 -49q41 0 73.5 19t32.5 50q0 55 -82 55q-25 0 -63 -14l-78 62l90 161q-510 37 -510 547z" />
<glyph unicode="&#xe8;" horiz-adv-x="1290" d="M53 520q0 260 166 402q160 137 443 137q575 0 575 -565v-70h-709v-31q0 -170 140 -170q103 1 123 107h434q-57 -360 -600 -361q-252 0 -400 119q-172 141 -172 432zM200 1479h475l201 -349h-360zM528 641h263v14q0 150 -129 150q-133 0 -134 -150v-14z" />
<glyph unicode="&#xe9;" horiz-adv-x="1290" d="M53 520q0 260 166 402q160 137 443 137q575 0 575 -565v-70h-709v-31q0 -170 140 -170q103 1 123 107h434q-57 -360 -600 -361q-252 0 -400 119q-172 141 -172 432zM393 1130l200 349h476l-316 -349h-360zM528 641h263v14q0 150 -129 150q-133 0 -134 -150v-14z" />
<glyph unicode="&#xea;" horiz-adv-x="1290" d="M53 520q0 260 166 402q160 137 443 137q575 0 575 -565v-70h-709v-31q0 -170 140 -170q103 1 123 107h434q-57 -360 -600 -361q-252 0 -400 119q-172 141 -172 432zM182 1130l233 349h459l234 -349h-373l-90 156l-90 -156h-373zM528 641h263v14q0 150 -129 150 q-133 0 -134 -150v-14z" />
<glyph unicode="&#xeb;" horiz-adv-x="1290" d="M53 520q0 260 166 402q160 137 443 137q575 0 575 -565v-70h-709v-31q0 -170 140 -170q103 1 123 107h434q-57 -360 -600 -361q-252 0 -400 119q-172 141 -172 432zM231 1130v349h336v-349h-336zM528 641h263v14q0 150 -129 150q-133 0 -134 -150v-14zM722 1130v349h336 v-349h-336z" />
<glyph unicode="&#xec;" horiz-adv-x="643" d="M-123 1479h475l201 -349h-360zM74 0v1028h495v-1028h-495z" />
<glyph unicode="&#xed;" horiz-adv-x="643" d="M70 1130l200 349h476l-316 -349h-360zM74 0v1028h495v-1028h-495z" />
<glyph unicode="&#xee;" horiz-adv-x="643" d="M-141 1130l233 349h459l234 -349h-373l-90 156l-90 -156h-373zM74 0v1028h495v-1028h-495z" />
<glyph unicode="&#xef;" horiz-adv-x="643" d="M-92 1130v349h336v-349h-336zM74 0v1028h495v-1028h-495zM399 1130v349h336v-349h-336z" />
<glyph unicode="&#xf0;" horiz-adv-x="1363" d="M53 492q0 217 146.5 350t384.5 133q117 0 192 -55l4 4q-57 131 -184 217l-215 -117l-207 119l207 112q-90 49 -156 58l217 262q174 -55 299 -125l242 125l174 -143l-215 -117q369 -254 369 -740q0 -270 -154 -432q-170 -174 -485 -174q-305 0 -465 146q-154 137 -154 377 zM549 471q0 -236 135 -235q131 0 131 235q0 238 -131 238q-135 0 -135 -238z" />
<glyph unicode="&#xf1;" horiz-adv-x="1327" d="M74 0v1028h483l12 -156h4q106 186 324 187q356 0 356 -375v-684h-495v637q0 119 -90 119q-98 0 -99 -115v-641h-495zM221 1143v39q0 131 70 214t188 83q66 0 187 -35t139 -35q45 0 47 57h254q0 -336 -285 -336q-53 0 -167.5 35t-139.5 35q-39 0 -39 -57h-254z" />
<glyph unicode="&#xf2;" horiz-adv-x="1363" d="M53 514q0 252 158 395q166 150 471 150t471 -150q158 -143 158 -395t-158 -395q-166 -150 -471 -150t-471 150q-158 143 -158 395zM237 1479h475l201 -349h-360zM565 514q0 -150 28 -208t89 -58t89 58.5t28 207.5q0 150 -29 211q-27 55 -88 55t-88 -55q-29 -61 -29 -211z " />
<glyph unicode="&#xf3;" horiz-adv-x="1363" d="M53 514q0 252 158 395q166 150 471 150t471 -150q158 -143 158 -395t-158 -395q-166 -150 -471 -150t-471 150q-158 143 -158 395zM430 1130l200 349h476l-316 -349h-360zM565 514q0 -150 28 -208t89 -58t89 58.5t28 207.5q0 150 -29 211q-27 55 -88 55t-88 -55 q-29 -61 -29 -211z" />
<glyph unicode="&#xf4;" horiz-adv-x="1363" d="M53 514q0 252 158 395q166 150 471 150t471 -150q158 -143 158 -395t-158 -395q-166 -150 -471 -150t-471 150q-158 143 -158 395zM219 1130l233 349h459l234 -349h-373l-90 156l-90 -156h-373zM565 514q0 -150 28 -208t89 -58t89 58.5t28 207.5q0 150 -29 211 q-27 55 -88 55t-88 -55q-29 -61 -29 -211z" />
<glyph unicode="&#xf5;" horiz-adv-x="1363" d="M53 514q0 252 158 395q166 150 471 150t471 -150q158 -143 158 -395t-158 -395q-166 -150 -471 -150t-471 150q-158 143 -158 395zM239 1143v39q0 131 70 214t188 83q66 0 187 -35t139 -35q45 0 47 57h254q0 -336 -285 -336q-53 0 -167.5 35t-139.5 35q-39 0 -39 -57 h-254zM565 514q0 -150 28 -208t89 -58t89 58.5t28 207.5q0 150 -29 211q-27 55 -88 55t-88 -55q-29 -61 -29 -211z" />
<glyph unicode="&#xf6;" horiz-adv-x="1363" d="M53 514q0 252 158 395q166 150 471 150t471 -150q158 -143 158 -395t-158 -395q-166 -150 -471 -150t-471 150q-158 143 -158 395zM268 1130v349h336v-349h-336zM565 514q0 -150 28 -208t89 -58t89 58.5t28 207.5q0 150 -29 211q-27 55 -88 55t-88 -55q-29 -61 -29 -211z M759 1130v349h336v-349h-336z" />
<glyph unicode="&#xf7;" horiz-adv-x="1228" d="M96 379v278h1037v-278h-1037zM428 94q0 78 55.5 132.5t130.5 54.5q78 0 132.5 -54.5t54.5 -132.5q0 -76 -54.5 -131t-132.5 -55q-76 0 -131 55t-55 131zM428 942q0 78 55.5 132t130.5 54q78 0 132.5 -54t54.5 -132q0 -76 -54.5 -131t-132.5 -55q-76 0 -131 55t-55 131z " />
<glyph unicode="&#xf8;" horiz-adv-x="1363" d="M53 514q0 252 158 395q166 150 471 150q170 0 287 -45l145 178l127 -96l-125 -158q195 -141 195 -424q0 -252 -158 -395q-166 -150 -471 -150q-164 0 -293 47l-139 -178l-127 101l121 153q-190 145 -191 422zM528 514q0 -41 2 -57l252 319q-33 41 -100 41q-84 0 -117 -61 q-37 -68 -37 -242zM578 256q31 -45 104 -45q84 0 119 64.5t35 238.5q-1 48 -5 64z" />
<glyph unicode="&#xf9;" horiz-adv-x="1327" d="M74 344v684h495v-637q0 -119 90 -119q98 0 99 115v641h495v-1028h-483l-12 156h-4q-106 -186 -324 -187q-356 0 -356 375zM219 1479h475l201 -349h-360z" />
<glyph unicode="&#xfa;" horiz-adv-x="1327" d="M74 344v684h495v-637q0 -119 90 -119q98 0 99 115v641h495v-1028h-483l-12 156h-4q-106 -186 -324 -187q-356 0 -356 375zM412 1130l200 349h476l-316 -349h-360z" />
<glyph unicode="&#xfb;" horiz-adv-x="1327" d="M74 344v684h495v-637q0 -119 90 -119q98 0 99 115v641h495v-1028h-483l-12 156h-4q-106 -186 -324 -187q-356 0 -356 375zM201 1130l233 349h459l234 -349h-373l-90 156l-90 -156h-373z" />
<glyph unicode="&#xfc;" horiz-adv-x="1327" d="M74 344v684h495v-637q0 -119 90 -119q98 0 99 115v641h495v-1028h-483l-12 156h-4q-106 -186 -324 -187q-356 0 -356 375zM250 1130v349h336v-349h-336zM741 1130v349h336v-349h-336z" />
<glyph unicode="&#xfd;" horiz-adv-x="1290" d="M-6 1028h524l144 -565h4l135 565h495l-487 -1421h-537l138 362zM393 1130l200 349h476l-316 -349h-360z" />
<glyph unicode="&#xfe;" horiz-adv-x="1363" d="M88 -393v1872h496v-570h4q78 150 295 150q193 0 307 -141q121 -150 121 -416q0 -274 -127 -412q-111 -121 -295 -121q-195 0 -305 125v-487h-496zM584 514q0 -119 8 -160q18 -94 106 -94q82 0 107 92q10 45 10 162q0 125 -18 180q-27 74 -101 74q-66 0 -92 -55 q-20 -43 -20 -199z" />
<glyph unicode="&#xff;" horiz-adv-x="1290" d="M-6 1028h524l144 -565h4l135 565h495l-487 -1421h-537l138 362zM231 1130v349h336v-349h-336zM722 1130v349h336v-349h-336z" />
<glyph unicode="&#x152;" horiz-adv-x="1970" d="M51 739q0 369 196.5 557.5t565.5 188.5q51 0 152.5 -3t150.5 -3h807v-385h-455v-158h406v-385h-406v-166h459v-385h-899q-51 0 -146.5 -3t-136.5 -3q-315 0 -499 188q-195 197 -195 557zM625 750q0 -203 26 -291q35 -117 150 -117q57 0 106 25v745q-55 25 -104 25 q-90 0 -131 -80q-47 -90 -47 -307z" />
<glyph unicode="&#x153;" horiz-adv-x="1933" d="M43 492q0 256 158.5 411.5t421.5 155.5q217 0 362 -105q147 104 350 105q555 0 555 -565v-70h-708v-31q0 -170 139 -170q102 0 123 107h434q-61 -360 -541 -361q-266 0 -362 121q-109 -121 -365 -121q-270 0 -422 148q-145 141 -145 375zM539 516q0 -268 112 -268 q63 0 92 58.5t29 209.5q0 147 -31 209q-27 55 -90 55q-112 0 -112 -264zM1182 641h262v14q0 150 -129 150q-133 0 -133 -150v-14z" />
<glyph unicode="&#x178;" horiz-adv-x="1515" d="M-33 1479h606l205 -621h4l205 621h561l-497 -967v-512h-586v512zM344 1581v349h336v-349h-336zM835 1581v349h336v-349h-336z" />
<glyph unicode="&#x2c6;" horiz-adv-x="569" d="M-178 1130l233 349h459l234 -349h-373l-90 156l-90 -156h-373z" />
<glyph unicode="&#x2dc;" horiz-adv-x="569" d="M-158 1143v39q0 131 70 214t188 83q66 0 187 -35t139 -35q45 0 47 57h254q0 -336 -285 -336q-53 0 -167.5 35t-139.5 35q-39 0 -39 -57h-254z" />
<glyph unicode="&#x2000;" horiz-adv-x="1041" />
<glyph unicode="&#x2001;" horiz-adv-x="2083" />
<glyph unicode="&#x2002;" horiz-adv-x="1041" />
<glyph unicode="&#x2003;" horiz-adv-x="2083" />
<glyph unicode="&#x2004;" horiz-adv-x="694" />
<glyph unicode="&#x2005;" horiz-adv-x="520" />
<glyph unicode="&#x2006;" horiz-adv-x="347" />
<glyph unicode="&#x2007;" horiz-adv-x="347" />
<glyph unicode="&#x2008;" horiz-adv-x="260" />
<glyph unicode="&#x2009;" horiz-adv-x="416" />
<glyph unicode="&#x200a;" horiz-adv-x="115" />
<glyph unicode="&#x2010;" horiz-adv-x="833" d="M59 373v348h715v-348h-715z" />
<glyph unicode="&#x2011;" horiz-adv-x="833" d="M59 373v348h715v-348h-715z" />
<glyph unicode="&#x2012;" horiz-adv-x="833" d="M59 373v348h715v-348h-715z" />
<glyph unicode="&#x2013;" horiz-adv-x="1024" d="M0 373v348h1024v-348h-1024z" />
<glyph unicode="&#x2014;" horiz-adv-x="2048" d="M0 373v348h2048v-348h-2048z" />
<glyph unicode="&#x2018;" horiz-adv-x="720" d="M47 864l229 615h398l-152 -615h-475z" />
<glyph unicode="&#x2019;" horiz-adv-x="720" d="M47 864l152 615h475l-230 -615h-397z" />
<glyph unicode="&#x201a;" horiz-adv-x="720" d="M47 -193l152 615h475l-230 -615h-397z" />
<glyph unicode="&#x201c;" horiz-adv-x="1212" d="M10 864l230 615h397l-152 -615h-475zM575 864l230 615h397l-151 -615h-476z" />
<glyph unicode="&#x201d;" horiz-adv-x="1212" d="M10 864l152 615h475l-229 -615h-398zM575 864l152 615h475l-229 -615h-398z" />
<glyph unicode="&#x201e;" horiz-adv-x="1212" d="M10 -193l152 615h475l-229 -615h-398zM575 -193l152 615h475l-229 -615h-398z" />
<glyph unicode="&#x2022;" horiz-adv-x="1024" d="M141 737q0 154 108.5 262.5t262.5 108.5t262.5 -108.5t108.5 -262.5t-108.5 -262t-262.5 -108t-262.5 108t-108.5 262z" />
<glyph unicode="&#x2026;" horiz-adv-x="2048" d="M94 0v422h496v-422h-496zM776 0v422h496v-422h-496zM1458 0v422h496v-422h-496z" />
<glyph unicode="&#x202f;" horiz-adv-x="416" />
<glyph unicode="&#x2039;" horiz-adv-x="720" d="M6 512l311 512h398l-221 -512l221 -512h-398z" />
<glyph unicode="&#x203a;" horiz-adv-x="720" d="M6 0l221 512l-221 512h397l312 -512l-312 -512h-397z" />
<glyph unicode="&#x205f;" horiz-adv-x="520" />
<glyph unicode="&#x2122;" horiz-adv-x="2048" d="M74 1286v193h696v-193h-209v-651h-278v651h-209zM905 635v844h348l164 -490h4l164 490h348v-844h-254v471h-4l-149 -471h-213l-150 471h-4v-471h-254z" />
<glyph unicode="&#x25fc;" horiz-adv-x="1024" d="M0 0v1024h1024v-1024h-1024z" />
</font>
</defs>
</svg>
